<svg xmlns="http://www.w3.org/2000/svg" width="280" height="280"><path fill="#f1d7c2" d="M133.07 18.527c5.65 2.84 10.37 3.86 16.68 3.47l2.14-.12c5.57-.5 9.26-2.22 13.87-5.43 3.53-2.28 7.05-3.31 11.24-3.45 3.31.88 3.31.88 6 3 .56 1.32 1.08 2.66 1.56 4 .93 2.15.93 2.15 2.44 4 3.2 1.11 6.34 1.65 9.67 2.24 6.53 1.49 11.36 5.12 15.33 10.45 2 3.31 2 3.31 3 6.31 2.04.92 2.04.92 4.62 1.75 6.86 2.59 11.16 6.67 14.69 13.07 5.38 12.14 3.69 24.73 1.13 37.37-1.61 7.95-3.01 15.78 0 23.5 1.56 2.31 1.56 2.31 2.56 3.31.31 3.42.36 5.4-1.44 8.38-3.57 6.01-2.57 11.08-1.12 17.62 2.87 13.01 3.12 25.42-3.76 37.28-3.32 4.88-7.32 8.21-12.68 10.72h-2c-.94 1.69-.94 1.69-2 4-2.31 4.52-4.98 7.01-9 10h-2c-.29.89-.58 1.78-.88 2.69-1.2 3.54-2.57 5.61-5.12 8.31l-3 1c-2.18-1.86-3.72-3.43-5-6-3.03.42-5.49 1.69-8.19 3.07-5.95 2.69-11.05 2.47-17.37 1.25-4.43-.41-7.51.7-11.44 2.68-.39.33-.39.33-2.38 2-.86.33-1.73.66-2.62 1-1.82-.92-1.82-.92-4.06-2.31-6.09-3.48-11.84-3.04-18.63-2.68-5.9.25-9.95-.44-15.31-3.01-1.54-1.57-1.54-1.57-2.81-3.12-2.68-2.98-4.61-3.28-8.57-3.5-.94-.04-1.89-.08-2.87-.13-4.98-.45-8.86-2.27-12.32-5.89-2.11-2.77-3.36-4.59-3.68-8.11-.25-.74-.5-1.48-.75-2.25-2.17-.94-4.38-1.55-6.65-2.2-5.88-1.99-9.12-6.51-12.27-11.54-4.83-10.11-4.03-22.09-1.54-32.75 1-5.45 1.95-12.35-.47-17.49-1.01-1.35-2.04-2.69-3.07-4.02 0-3.49.83-4.79 3.06-7.5 3.39-4.83 2.48-10.9 1.94-16.5-.65-3.31-1.44-6.56-2.26-9.83-2.65-11.34-3-25.56 2.38-36.23 3.12-4.77 7.36-9.97 13.03-11.53.69-.11 1.39-.23 2.1-.34 3.75-1.07 3.75-1.07 4.86-2.71.6-1.39 1.2-2.79 1.77-4.19 2.9-5.62 9.27-10.1 15.12-12.17 2.91-.23 5.79-.37 8.71-.4.75-.19 1.51-.39 2.29-.6.74-2.37.74-2.37 1-5 1.29-2.65 2.4-4.51 4.69-6.37 7.28-1.97 13.12 1.52 19.38 4.9"/><path fill="#f0d8c3" d="M108 26c.23.46.23.46 1.38 2.81-.46 1.05-.91 2.11-1.38 3.19-2.64.98-5.28 1.5-8.03 2.09-5.26 1.61-9.36 5.23-12.18 9.93C87 46 87 46 87 49.19c-.33.93-.66 1.85-1 2.81-2.59.63-4.99.75-7.65.8C76 53 76 53 74 55l1.88-.88c3.1-1.11 4.23-1.09 7.37-.74 1.24-.13 2.47-.25 3.75-.38.62-3.56.62-3.56.67-5.75.58-3.91 3.27-6.85 6.33-9.25l2 1c-1.25 2.06-1.25 2.06-3 4h-2c-.75 2-.75 2-1 4h2c.16-.49.16-.49 1-3h2v2c.76.12 1.53.25 2.31.38.56.2 1.12.41 1.69.62a214 214 0 0 1-5 4c-.88 2.12-.88 2.12-1 4 .16.33.16.33 1 2 2.19-.38 2.19-.38 4-1h-2c-.16-.49-.16-.49-1-3 2.25-1.5 2.25-1.5 5-3 .54-.66 1.07-1.32 1.62-2 .46-.33.91-.66 1.38-1 1.06 1.63 2.05 3.3 3 5h3v2c1.99.69 3.99 1.36 6 2 2 2 2 2 2.81 5.75.2.54.2.54 1.19 3.25 2.31-.5 2.31-.5 5-2 .85-.12 1.69-.25 2.56-.38 3.2-.81 4.43-2.03 6.44-4.62.38-1.66.72-3.32 1-5h2c.16.33.16.33 1 2 .33-.49.33-.49 2-3 3.04-1.92 4.22-2 8-2l1-2c3.12.12 3.12.12 6 1-.19.62-.37 1.24-.56 1.88-.15.7-.29 1.4-.44 2.12 3.44 1.63 3.44 1.63 7 3v2h2c2.62 2.19 2.62 2.19 5 5 .12 2.88.12 2.88 0 5l3-1c.5.33.5.33 3 2v2c-.76.12-1.53.25-2.31.38-2.69.62-2.69.62-4.75 2.37-.16.37-.16.37-.94 2.25 1.81 2.5 1.81 2.5 4 5 0 4.58-.55 5.18-3.38 8.56-.72.88-1.45 1.76-2.21 2.66-3.24 3.74-6.58 7.38-9.95 11.01-3.14 3.53-5.97 7.26-8.77 11.07-.56.56-1.11 1.12-1.69 1.7-.5-.16-.5-.16-3-1 .95-1.7 1.95-3.36 3-5h-2v-2c-.5.16-.5.16-3 1l2 2v3h-2v-2c-2.44.06-2.44.06-5 1-.88 2.56-.88 2.56-1 5h1c.16-.5.16-.5 1-3l2 1 1 3c.5.16.5.16 3 1l1 3c2.81.94 2.81.94 5 1-1.31-1.36-2.65-2.69-4-4l1-2c2.12 2 4.06 4.02 6 6.19.59.64 1.17 1.28 1.78 1.94 4.27 4.72 8.38 9.55 12.34 14.53 1.6 1.99 3.27 3.85 5 5.72 1.88 2.62 1.88 2.62 1.8 4.99-1.21 3.45-2.98 4.94-5.73 7.32-.44.38-.44.38-2.65 2.32-3.32 2.6-5.63 3.83-9.79 4.55-5.55-.83-7.87-3.65-11.75-7.56-1.2-1.18-2.4-2.35-3.6-3.52-5.75-5.66-11.44-11.32-16.64-17.5-2.89-3.25-6.01-6.27-9.12-9.3-3.13-3.08-4.53-4.49-4.95-8.93.42-5.07 2.48-7.78 5.9-11.46 1.53-1.66 1.53-1.66 3.41-4.29C112.44 102.38 112.44 102.38 109 103c-2.58 3.07-2.49 7.14-3 11l-1 1c-.14 1.18-.29 2.35-.44 3.56-.09.57-.09.57-.56 3.44h-2c.25 2 .25 2 1 4h2v3c.66.12 1.32.25 2 .38.33.1.33.1 2 .62.12 2.56.12 2.56 0 5h2v4c.28-.1.28-.1 1.69-.62.38-.07.38-.07 2.31-.38 4.68 4.68 4.68 4.68 5.56 8.31.15.56.29 1.12.44 1.69.64.14 1.28.29 1.94.44.68.18 1.36.37 2.06.56.67 1.67 1.33 3.33 2 5 1.88.56 1.88.56 4 1 2.48 2.19 4.16 4.23 6 7l1.5 1.5c1.5 1.5 1.5 1.5 3.5 4.5l2 1c-.33 2-.66 4-1 6h2c.67 1.33 1.33 2.67 2 4h2c-.62 2.94-.62 2.94-2 6-1.32.37-2.66.71-4 1-.35.91-.7 1.81-1.06 2.75-.31.74-.62 1.49-.94 2.25-1.62-1-1.62-1-3-3v-3h-2c.23.66.45 1.32.69 2 .1.66.2 1.32.31 2-2.44.38-2.44.38-5 0v-2h-2c.17.72.33 1.44.5 2.19.58 3.25.15 4.97-1.5 7.81-.5-1.56-.5-1.56-1-4l-2-2c-.66.21-1.32.41-2 .62-.66.13-1.32.25-2 .38-1.79-2.5-2-3.9-2-7l-1-2c-.87.19-1.73.37-2.62.56-.4.07-.4.07-2.38.44l1-3c-2.5.12-2.5.12-5 1l1 3 2-2c1.44 1.25 1.44 1.25 3 3l3 2c-1.65.7-3.32 1.36-5 2l1 2h-3v3h2c.12 2.37.12 2.37 0 5v2c1.97 1.14 1.97 1.14 4.5 2.25l2.53 1.14c.65.2 1.3.4 1.97.61v-2c-.83-.16-1.65-.33-2.5-.5-.83-.16-1.65-.33-2.5-.5v-2c2.84-.87 4.56-1.12 7.44-.31.26.05.26.05 1.56.31-.65-1.34-1.32-2.68-2-4 1.88.5 1.88.5 4 2v4c-2 .63-2 .63-4 1v2c.87-.39 1.73-.78 2.62-1.19.4-.13.4-.13 2.38-.81-.06 2.37-.06 2.37-2 5-4.09.97-8.14.91-11.96-.96-1.6-1.23-1.6-1.23-4.04-4.04-.07-.88-.14-1.76-.21-2.66-.26-.77-.52-1.55-.79-2.34-3.2-.42-3.2-.42-7.12-.19-2.29.12-4.59.21-6.88.19l1-2h4v-2h7c-3.77-1.12-7.06-2-11-2l1-3-2-1 .12 2.56L97 194c-1.94-.38-1.94-.38-4-2-.62-2.63-.62-2.63-1-5h-2c-.25 2.5-.25 2.5 0 5h2c1.38 2.63 1.38 2.63 2 5-1.69-.25-1.69-.25-4-2-2.07-3.99-3-6.48-3-11-1.76-.47-1.76-.47-4.12-.5-5.87-.41-9.1-2.62-13.13-6.88-4.81-7.22-4.76-15.52-3.11-23.84.7-2.64 1.39-5.23 2.36-7.78h1c.03 2.09-.07 4.16-.16 6.25.05.58.11 1.16.16 1.75h2v-3h4c-.12 2.44-.12 2.44-1 5l-2 1-2 3v-4l-2 1c-.9 2.81-.95 4.99-1 8 2.38.56 2.38.56 5 0l1-1c.39.6.78 1.2 1.19 1.81 2.3 2.78 4.41 3.21 7.81 4.19v1c-1.48.46-2.99.84-4.5 1.19-.84.2-1.67.4-2.53.6-.65.07-1.3.14-1.97.21v-2h-3l-1-2c-.19 2.31-.19 2.31 0 5l2 1c.67 1.33 1.33 2.67 2 4l2 1c-.27-.39-.27-.39-1.62-2.38-.46-.86-.91-1.73-1.38-2.62 2.83-1.58 5.03-.76 8 0h7l1 1c2.52.24 5.03.38 7.55.52 2.82.55 3.75 1.2 5.45 3.48.5 2.62.5 2.62 0 5-2.56 1.19-2.56 1.19-5 1 .38-3 .38-3 1-6l-3 1c-.25 2.5-.25 2.5 0 5 1 1 1 1 4 1.12 3-.12 3-.12 4-1.12.43-5.36.43-5.36 0-8-2-1.38-2-1.38-4-2v-2l-2 1c-2.72.23-5.26.13-8 0v-2h4c1.06-3.06 1.06-3.06 1-6-2.31-.12-2.31-.12-5 1a60 60 0 0 0-2 4c-.75-1.62-.75-1.62-1-4l2-2c0-2.75 0-2.75-1-5-2.01.64-4.01 1.31-6 2 .12-2.25.12-2.25 1-5v-2l-1 2-3-1c-.31-2.62-.31-2.62 0-5l2 1c.25-2.44.25-2.44 0-5h-2l-1 2c-.5-.33-.5-.33-3-2 .19-3.12.19-3.12 1-6h2v-3h-2c-.85-2.51-.85-2.51-1.62-5.69-.44-1.77-.89-3.55-1.38-5.31 0 2.03.02 4.07.07 6.1.01.58.01.58.05 3.52.03 1.17.05 2.34.08 3.54-.07.94-.13 1.88-.2 2.84-.33.16-.33.16-2 1-.31-2.32-.31-2.32-.44-5.56-.31-4.89-1.04-8.17-3.56-12.44 0-3.17.42-4.03 1.94-6.69 2.18-4.15 2.65-7.67 3.06-12.31h1c.07 2.12.08 4.25.06 6.38-.01 1.18-.02 2.36-.02 3.58-.02 1-.03 2.01-.04 3.04v2c2.33-3.5 2.49-7.08 2.81-11.19.11-1.25.22-2.5.33-3.79-.04-1-.09-1.99-.14-3.02-.5-.16-.5-.16-3-1 .16-.33.16-.33 1-2-.76-4.06-1.71-8.08-3-12-.05 4.39.62 8.85 2 13-.84 2.55-.84 2.55-2 4-.85-2.24-.85-2.24-1.62-5.88-.14-.58-.14-.58-.79-3.55-.55-3.31-.95-6.23-.59-9.57h3c-.12-2.75-.12-2.75-1-5-1.04 1.3-2.04 2.64-3 4-1.31-3.92-1.28-6.87-1-11l3 1v-4c-.5.16-.5.16-3 1-.31-2.94-.31-2.94 0-6h2v2c.33-.16.33-.16 2-1l1-3c-.5.16-.5.16-3 1l-2-1c-1.73 4.42-1.43 9.62-1.72 14.3-.09.89-.18 1.78-.28 2.7h-1c-.03-2.61.07-5.21.16-7.81-.05-.72-.11-1.45-.16-2.19h-2c-.38 2.41-.38 2.41-.56 5.5-.12 1.84-.25 3.67-.44 5.5h-1c-.61-10.65-1.22-22.42 6-31 3.42-3.62 6.18-6.07 11.19-6.88C79 44 79 44 80.11 42.36c.61-1.4 1.2-2.79 1.77-4.2C86.68 28.86 97.92 23.83 108 26"/><path fill="#e2bfa9" d="M133.07 18.527c5.65 2.84 10.37 3.86 16.68 3.47l2.14-.12c5.57-.5 9.26-2.22 13.87-5.43 3.53-2.28 7.05-3.31 11.24-3.45 3.31.88 3.31.88 6 3 .56 1.32 1.08 2.66 1.56 4 .93 2.15.93 2.15 2.44 4 3.2 1.11 6.34 1.65 9.67 2.24 6.53 1.49 11.36 5.12 15.33 10.45 2 3.31 2 3.31 3 6.31 2.04.92 2.04.92 4.62 1.75 6.86 2.59 11.16 6.67 14.69 13.07 5.38 12.14 3.69 24.73 1.13 37.37-1.61 7.95-3.01 15.78 0 23.5 1.56 2.31 1.56 2.31 2.56 3.31.31 3.42.36 5.4-1.44 8.38-3.57 6.01-2.57 11.08-1.12 17.62 2.87 13.01 3.12 25.42-3.76 37.28-3.32 4.88-7.32 8.21-12.68 10.72h-2c-.94 1.69-.94 1.69-2 4-2.31 4.52-4.98 7.01-9 10h-2c-.29.89-.58 1.78-.88 2.69-1.2 3.54-2.57 5.61-5.12 8.31l-3 1c-2.18-1.86-3.72-3.43-5-6-3.03.42-5.49 1.69-8.19 3.07-5.95 2.69-11.05 2.47-17.37 1.25-4.43-.41-7.51.7-11.44 2.68-.39.33-.39.33-2.38 2-.86.33-1.73.66-2.62 1-1.82-.92-1.82-.92-4.06-2.31-6.09-3.48-11.84-3.04-18.63-2.68-5.9.25-9.95-.44-15.31-3.01-1.54-1.57-1.54-1.57-2.81-3.12-2.68-2.98-4.61-3.28-8.57-3.5-.94-.04-1.89-.08-2.87-.13-4.98-.45-8.86-2.27-12.32-5.89-2.11-2.77-3.36-4.59-3.68-8.11-.25-.74-.5-1.48-.75-2.25-2.17-.94-4.38-1.55-6.65-2.2-5.88-1.99-9.12-6.51-12.27-11.54-2.8-5.87-3.38-11.33-3.27-17.69v-2.22c.02-1.78.1-3.57.19-5.35h1c.14 2.1.23 4.21.31 6.32.62 9.27 2.57 17.43 9.12 24.32 3.1 2.69 6.08 4.29 10.19 4.49 2.38.87 2.38.87 3.37 2.76.64 1.6 1.28 3.21 1.9 4.82 1.95 4.03 5.13 6.3 9.11 8.29 2.08.05 4.17.09 6.25.13 6.12.4 6.12.4 8.8 2.42 1.51 1.89 1.51 1.89 2.7 3.76 1.57 2.12 2.81 2.71 5.25 3.69 2.38.18 2.38.18 4.99.09l2.89-.06c1.99-.06 3.98-.12 5.97-.19 5.51-.11 9.4-.01 14.15 3.16l2 2c4.36-.23 6.14-1.84 9-5 2.94-1.47 5.94-1.33 9.2-1.52q.885-.24 1.8-.48l-1-3c-5.52-1.84-9.72-1.18-15 1 2.82-3.27 4.66-4.89 9-5.24 1.18-.02 2.35-.04 3.56-.07 1.18-.04 2.36-.07 3.57-.11.47.07.47.07 2.87.42.71 2.02.71 2.02 1 4h3c.1-.86.21-1.73.31-2.62.23-.79.46-1.57.69-2.38 2.02.61 4.02 1.27 6 2 .25-1.93.25-1.93-1-4-2.88.25-2.88.25-6 1h-3l1-3c1.99-.37 3.99-.7 6-1l1-2-3 1c.19-2.5.19-2.5 1-5l2 1c6.14.59 6.14.59 8.76-1.21.53-.44 1.06-.89 1.61-1.35.87-.47 1.74-.95 2.63-1.44.57 2.22.57 4.37.66 6.65.34 2.35.34 2.35 2.9 4.54.81.27 1.61.54 2.44.81v-2c1.33-.35 2.66-.68 4-1 2-2 2-2 2.25-5.43-.25-3.57-.25-3.57-2.25-6.57l3 1c2.86.4 5.05.28 8 .0003437499998142357 1.62-2.12 1.62-2.12 2-5-1.25-5.47-3.29-9.86-8-13-.67-2-1.33-4-2-6l-3-2c.19-3.68.19-3.68 1-7l2 1c1.41-1.95 2.73-3.96 4-6 1.56-2.37 1.56-2.37 3-4h3l1-2c1.01.21 2.02.42 3.06.63.97.12 1.94.25 2.94.37v-4h-5v-4l-2-1c1.19-1.56 1.19-1.56 3-3h3v-4h2c0 1.89-.01 3.78-.13 5.67.17 3.02.91 5.57 2.13 8.33.46-3.37.45-6.74.56-10.14.45-3.98 1.65-6.34 3.44-9.86-.22-2.13-.22-2.13-1-4-2.81-6.95-3.2-12.63-2.81-20.15-.06-.94-.13-1.88-.19-2.85l-3-1c.69-3.62.69-3.62 2-7l2 1v4c3.77-9.41 4.82-21.84 2.31-31.72-2.05-4.58-4.86-7.13-9.31-9.28-2.64-.55-5.25-.99-7.93-1.31-.68-.23-1.37-.45-2.07-.69-.67-2.03-.67-2.03-1-4-.66-.14-1.32-.29-2-.43-.33-.1-.33-.1-2-.57-.88-2.56-.88-2.56-1-5h2c-1.22-3.66-2.87-4.35-6.11-6.23-1.89-.77-1.89-.77-5.89-.77.33.5.33.5 2 3h-4c.05 1.87.05 1.87.75 4.32.77 2.76 1.25 4.79 1.25 7.68.19-.22.19-.22 1.12-1.37 1.88-1.63 1.88-1.63 5-1.75.95.37 1.9.74 2.88 1.12 1.19 3.5 1.19 3.5 1 7-2.5 1.13-2.5 1.13-5 1 1-3 1-3 2.37-5.37.21-.54.42-1.07.63-1.63-2.38.94-2.38.94-5 3-.44 2.57-.44 2.57 0 5 2.57 2.58 4.44 2.69 8 3v-2c3 1 3 1 5 3l3.5-.12 3.5.12c1.69 2.07 1.69 2.07 2 4-1.34-.29-2.68-.63-4-1l-2 2c.65 1.35 1.32 2.68 2 4 .31 2.69.31 2.69 0 5l-3 1-3-2c.03-2.05.03-2.05.5-4.31.16-1.22.33-2.43.5-3.69-1.25 1-1.25 1-3 3h-3v-3l2-1h-2.75c-3.25 0-3.25 0-5.25-1-.75 2.32-.75 2.32-1 5l2 2c-3.28 0-5.89-.02-9-1l1-3c-2.31-1-2.31-1-5-1-1.13 2.44-1.13 2.44-2 5h-3v2c-1.89-.16-1.89-.16-4.25-.62-.62-.06-.62-.06-3.75-.38 1.68 2.43 3.52 3.78 6.19 5 1.81 1 1.81 1 2.43 3.07.13.63.25 1.27.38 1.93l2 1c-1.25 2.32-1.25 2.32-3 5-.35.77-.7 1.53-1.06 2.32-.31.55-.62 1.11-.94 1.68h-2l1 3-1 2c-.62.11-1.24.21-1.88.32-2.12.68-2.12.68-3.87 3.12-1.25 2.56-1.25 2.56-1.25 4.56-2.02 1.54-4.12 2.89-6.25 4.27-1.75 1.73-1.75 1.73-1.84 4.4l.09 2.33c-1.66.37-3.33.7-5 1-.06 2-.06 2 1 4 .66.15 1.32.29 2 .44.33.09.33.09 2 .56.36 1.66.7 3.33 1 5h3c.62 1.75.62 1.75 1 4 .37 2.19.37 2.19 1 4 .49.17.49.17 3 1l.94 1.94c1.06 2.06 1.06 2.06 2.81 2.94 3.89 1.94 7.44 5.09 9.07 9.18.06.64.12 1.28.18 1.94-2.25 2.25-2.25 2.25-5 4h-3v4l3-1v2c-4.47 4-4.47 4-7 4-.06.4-.06.4-.38 2.44-.2.85-.41 1.69-.62 2.56-1.94.63-1.94.63-4 1l-2 3-3-1c-2.37.21-4.69.58-7.04.94l-1.96.06-1-2 .06 2.82-.06 3.18-2 1-2-2v-3h-2l.06-2.93-.06-3.07-3-1c-.67-1.66-1.33-3.33-2-5l-3-1-1-3c-2.33-2.64-3.62-3.87-7-5-1-1.66-2-3.33-3-5l-3-1-3-6c-2.61-2.44-3.37-3-7-3v-4h-2c-.14-.8-.29-1.61-.44-2.43-.18-.85-.37-1.7-.56-2.57l-3-1v-3h-2c-.75-2-.75-2-1-4h2v-3.31c0-3.69 0-3.69 2-6.69l-.06-3c.06-3 .06-3 1.18-4.87 2.73-1.64 4.79-1.63 7.88-1.13-.72 3.75-4.59 7.16-7 10-1.63 3.26-1.47 5.38-1 9 1.94 3.05 4.44 5.47 7 8 .88.88 1.76 1.77 2.67 2.67 1.42 1.43 2.85 2.85 4.29 4.27 2.56 2.54 5.02 5.12 7.35 7.88 3.47 4.06 7.23 7.83 11 11.62.63.63 1.25 1.26 1.89 1.9.3.3.3.3 1.79 1.78.26.27.26.27 1.61 1.61 2.28 2.07 3.51 2.28 6.65 2.59 4.55-.38 6.19-1.49 9.75-4.32.72-.53 1.44-1.06 2.19-1.61l2.25-1.76c.7-.55 1.4-1.09 2.12-1.65 1.44-1.98 1.44-1.98 1.51-4.81-1.41-4.16-3.64-6.47-6.7-9.54-1.09-1.15-2.19-2.29-3.29-3.44-.53-.55-1.07-1.1-1.61-1.66-1.84-1.92-3.6-3.89-5.35-5.9-.51-.6-1.03-1.2-1.57-1.81-1.15-1.35-2.3-2.71-3.44-4.07a311 311 0 0 0-4.11-4.75c.68.89 1.36 1.78 2.06 2.69.64 1.09 1.28 2.19 1.94 3.31-2.76-.37-4.61-.65-7-2v-3c-1.33-.35-2.66-.68-4-1l-2-3c-.04 1.67-.04 3.34 0 5l-1-2-2-1c.56-2.5.56-2.5 2-5 2.62-.93 2.62-.93 5-1v2h2c-1-3-1-3-4-5 .16-.49.16-.49 1-3l2 2h2v2h2c-.35.85-.7 1.69-1.06 2.57l-.94 2.43c3.75-1.25 4.65-2.78 7.06-5.87 3.25-4.08 6.58-7.98 10.13-11.81 10.74-11.77 10.74-11.77 10.93-16.19-1.36-2.58-2.47-3.05-5.12-4.13l-1-2h2c.62-.84 1.24-1.69 1.87-2.56.36-.4.36-.4 2.13-2.44 2.44.38 2.44.38 4 1-1.06-1.43-1.06-1.43-3-3h-3l.06-2.37-.06-2.63c-1.94-1.12-1.94-1.12-4-2l-1-3h-2v-2c-2.33-.68-4.66-1.34-7-2l-1-2h2v-3c-4.86-.69-7.78.75-12 3h-3c-.68 1.33-1.35 2.66-2 4l-1-3h-2l.12 2.38-.12 2.62c-1.88 1.07-1.88 1.07-4 2-.15.34-.15.34-.94 2.07-.35.63-.7 1.27-1.06 1.93-2.38.69-2.38.69-5 1-.68.26-1.36.52-2.05.78-.33.04-.33.04-1.95.22-.98-1.73-.98-1.73-1.75-4.18-1.49-3.84-2.66-5.54-6.38-7.38-2.14-.91-3.54-1.44-5.87-1.44-.5-.88-.99-1.77-1.5-2.68-.5-.77-.99-1.53-1.5-2.32l-2 3c-.76.33-1.53.66-2.31 1-.28.17-.28.17-1.69 1 1.37 1.5 1.37 1.5 3 3l-2 2c-2.06-.06-2.06-.06-4-1-1.13-2.25-1.13-2.25-1-5 1.39-1.4 1.39-1.4 3.12-2.75.95-.74 1.9-1.48 2.88-2.25l-3-1v-2c-.45.46-.91.91-1.38 1.38L92 46.997h-2c.27-3.77 2.32-5.52 5-8-2.16 1.18-3.42 2.12-5 4-.44 1.7-.81 3.41-1.13 5.13-.66 2.66-.66 2.66-1.87 4.87-3.61 1.54-7.12 1.74-11 2-.8.22-1.6.43-2.42.65-.52.12-1.04.23-1.58.35 1.12-1.93 1.12-1.93 4-4 2.51-.06 2.51-.06 5.25.13 2.68.11 2.68.11 4.75-.13.37-2.62.37-2.62 0-6 2.56-4.91 6.16-9.22 11-12 2.9-.61 2.9-.61 5.94-1 2.83-.36 2.83-.36 5.06-1 1.06-3.12 1.06-3.12 0-6-3-.31-3-.31-6 .001v-1c.97.09 1.94.17 2.94.25 1.01-.08 2.02-.16 3.06-.25.69-2.18.69-2.18 1-5 1.29-2.65 2.4-4.51 4.69-6.37 7.28-1.97 13.12 1.52 19.38 4.9"/><path fill="#e0baa6" d="M58 62h1c-.01 2.32-.13 4.62-.26 6.93.09.69.17 1.37.26 2.07l3 1c.77-1.69.77-1.69 1.38-4 .72-2.23.72-2.23 1.62-4 2.75-.25 2.75-.25 5 1-.06 2.06-.06 2.06-1 4h-2v-2h-2c.25 2.5.25 2.5 1 5h2v4h-2c-.31 3.75-.31 3.75 0 7 .24-.34.24-.34 1.44-2.06.51-.64 1.03-1.28 1.56-1.94 1.25 5.36 1.25 5.36 1 8h-3c.29 2.67.71 5.08 1.31 7.69.16.74.32 1.48.48 2.24.37 1.7.78 3.39 1.21 5.07 0-3.97-.52-7.85-.98-11.8 0-.72-.01-1.45-.02-2.2l2 1c.89 2.91.89 2.91 1.69 6.5.27 1.19.54 2.37.82 3.59L74 102l-1 1 2 1c.63-2.15.63-2.15 1-4-.01 2.82-.11 5.62-.25 8.44-.03.83-.05 1.67-.08 2.53-.23 4.68-.48 8.31-3.67 12.03l-2-1c.16-1.91.16-1.91.62-4.06.13-.97.25-1.94.38-2.94-4 6.97-4 6.97-4 11 .24.44.24.44 1.44 2.69 1.82 3.86 2.12 7.11 2.56 11.31.24-4.17.46-8.39-.7-12.42-.1-.52-.2-1.04-.3-1.58l3 1c.95 2.61 1.53 5.24 2.16 7.95.27.67.55 1.35.84 2.05.5-.16.5-.16 3-1v3h-2l1 3c-.5.16-.5.16-3 1 .62 2.62.62 2.62 2 5 .5-.16.5-.16 3-1 .81 3 .81 3 1 6l-2-1v4l2 1c.16-.5.16-.5 1-3l2 1c-.6 1.73-.6 1.73-1.62 3.75-.46 1.07-.91 2.14-1.38 3.25.26-.2.26-.2 1.56-1.19.81-.6 1.61-1.19 2.44-1.81 2.31.5 2.31.5 4 2-.25 2.56-.25 2.56-1 5v1l1-1c2.62-.44 2.62-.44 5 0 .06 3 .06 3-1 6h-4v2c2.19-.09 2.19-.09 5-.5s2.81-.41 5-.5v2c1.94.56 1.94.56 4 1 1.89 1.89 1.18 4.57 1.23 7.09C104 185 104 185 102 187c-3 .25-3 .25-6 0-2-2-2-2-2.38-4.56.13-.81.25-1.61.38-2.44 2.06-1.19 2.06-1.19 4-1-.33 2-.67 4-1 6 1.94.19 1.94.19 4-1 .38-2.44.38-2.44 0-5-2.47-2.47-3.52-2.33-6.94-2.56-2.97-.22-5.21-.49-8.06-1.44-2.02 0-4.03 0-6.05.05-1.95-.05-1.95-.05-4.57-.86-.23-.03-.23-.03-1.38-.19.65 1.67 1.32 3.34 2 5-1.69-.31-1.69-.31-4-2-2.26-3.63-3.72-6.66-3-11 .27.56.54 1.11.81 1.69.2.38.2.38 1.19 2.31h3v2c3.25-1.25 3.25-1.25 6-3-1.56-1.06-1.56-1.06-4-2-.16-.33-.16-.33-1-2-.25.35-.25.35-1.5 2.12-.5.62-.99 1.24-1.5 1.88-.39-1.32-.71-2.66-1-4l-3-1c-.67-2.86-.33-5.03 0-8h4c2-3 2-3 2-6h-2v3h-2c-.08-.59-.08-.59-.5-3.56-.16-.81-.33-1.61-.5-2.44-3.03 9.62-3.57 19.86 1 29 2.36 2.9 4.56 4.59 8 6q2.595.105 5.19.06c2.67.21 2.67.21 4.81.94.89 2.34.88 4.26.86 6.75.14 2.25.14 2.25 2.26 5.06.62.39 1.24.79 1.88 1.19-.12-1.75-.12-1.75-1-4h-2c-.25-2.5-.25-2.5 0-5h2c.5 1.07.99 2.14 1.5 3.25.5.91.99 1.81 1.5 2.75.71-1.31 1.36-2.65 2-4 2.88-.5 2.88-.5 5 0-1.31 1.35-2.65 2.69-4 4 .3-.06.3-.06 1.81-.38 3.96-.77 6.45-.04 10.19 1.38l-1 2c-2.33-.33-4.67-.66-7-1v2c-1.33.34-2.66.68-4 1 2.02.09 4.04.14 6.06.19 3.72.24 3.72.24 6.94.81 2.06 2.88 2.06 2.88 3 6 2.86 3.01 5.6 3.48 9.69 3.67 3.25.03 6.1-.04 9.31-.67.75-3.81.75-3.81.34-6.02-.34-1.98-.34-1.98.91-4.04.58-.31 1.16-.62 1.75-.94.62.21 1.24.41 1.88.62.35.07.35.07 2.12.38 2.75-2.56 2.75-2.56 5-5v2c2.5.25 2.5.25 5 0v-2h2c.69 1.87.69 1.87 1 4l-1 2 3-1 1-2c2 .33 4 .66 6 1v-2l-2-1c2-2 2-2 4.5-2.19.41-.13.41-.13 2.5-.81 1.42-3.56 1.99-6.89 2.5-10.69.44-2.93.77-4.91 2.5-7.31h3v2c.5.16.5.16 3 1l1 3c-.1-1.05-.21-2.1-.31-3.19.1-1.26.2-2.51.31-3.81 3.25-1.31 3.25-1.31 6-2-1.94-1.12-1.94-1.12-4-2h5v-2c1.31-1.69 1.31-1.69 3-3l3 1v-3c2.38.12 2.38.12 5 1 .33.5.33.5 2 3-2.31 1.56-2.31 1.56-5 3-1.26 2.52-1.17 4.38-1.19 7.19-.01.92-.03 1.84-.04 2.79.08.67.15 1.33.23 2.02 2-1 2-1 3-3.12l1-1.88 2 1h2v3h3l-2 2c1.32.7 2.65 1.37 4 2v2l-2 2v2l-3 2 2 2c.44 3.38.44 3.38 0 7-2.38 2.5-2.38 2.5-5 4l-2-1v2c-2.89-.39-3.89-.89-6-3-.24-2.09-.24-2.09-.31-4.38-.23-1.19-.46-2.39-.69-3.62-2.12 1.5-2.12 1.5-5 4-3.75.31-3.75.31-7 0l-1-1-1 3h2l-1 3c-1.99.38-3.99.73-6 1 3 1 3 1 5.56.38.81-.13 1.61-.25 2.44-.38l2 3-1 2c-.8-.23-1.61-.45-2.44-.69L174 208c-.7 1.65-1.37 3.32-2 5-2.12.06-2.12.06-4-1v-4c-2.81-.21-2.81-.21-6.44.19-.59.06-.59.06-3.62.35C155 209 155 209 154 210l3.19-.06c5.21.08 5.21.08 7.81 2.06v3l2 1c-2.71.32-5.41.46-8.13.62-2.79.37-4.52.87-6.87 2.38-.47.72-.95 1.44-1.44 2.19-.51.6-1.03 1.19-1.56 1.81-3.91-.1-6.03-1.62-9-4-3-1-4.78-1.07-7.89-.96-.48.01-.48.01-2.9.07-2 .05-4.01.12-6.01.19-7.79.14-10.8-1.26-16.58-6.42C105 210 105 210 105 208c-2.04-.04-4.09.02-6.12.12-5.58.09-8.64-.21-12.88-4.12l-2.25-1.94C81.04 198.87 80 196.18 80 192c-1.03-.14-2.06-.29-3.12-.44-6.89-1-10.4-4.81-14.49-10.07-4.07-7.28-4.83-14.13-4.64-22.37 0-.46 0-.46.02-2.83.07-6.82.07-6.82 1.23-10.29.63-7.71.76-12.86-4-19 0-3.49.83-4.8 3.06-7.5 3.39-4.83 2.48-10.9 1.94-16.5-.65-3.31-1.44-6.56-2.26-9.83-2.45-10.5-1.69-20.66.26-31.17"/><path fill="#dbbaa1" d="M187 26c6.08-1.39 12.79.36 18 3.62 4.71 3.6 8.1 7.69 10 13.38 2.04.92 2.04.92 4.62 1.75 6.86 2.59 11.16 6.66 14.69 13.06 5.38 12.14 3.69 24.74 1.13 37.38-1.61 7.94-3.01 15.78 0 23.5C237 121 237 121 238 122c.31 3.42.36 5.4-1.44 8.38-3.57 6-2.57 11.08-1.12 17.62 2.87 13.01 3.12 25.42-3.76 37.27-3.32 4.89-7.32 8.22-12.68 10.73h-2c-.94 1.69-.94 1.69-2 4-2.31 4.51-4.98 7.01-9 10h-2c-.29.89-.58 1.77-.88 2.69-1.2 3.54-2.57 5.61-5.12 8.31l-3 1c-2.18-1.86-3.72-3.43-5-6-3.03.41-5.48 1.69-8.19 3.06-5.95 2.7-11.05 2.47-17.37 1.25-4.43-.4-7.51.71-11.44 2.69-.39.33-.39.33-2.38 2-.86.33-1.73.66-2.62 1-1.82-.93-1.82-.93-4.06-2.31-6.09-3.48-11.84-3.04-18.63-2.68-5.9.25-9.95-.44-15.31-3.01-1.54-1.57-1.54-1.57-2.81-3.12-2.68-2.98-4.61-3.29-8.57-3.5-.94-.05-1.89-.09-2.87-.13-4.98-.45-8.86-2.27-12.32-5.89-2.11-2.77-3.36-4.59-3.68-8.11q-.375-1.11-.75-2.25c-2.17-.94-4.38-1.55-6.65-2.21-5.88-1.98-9.12-6.5-12.27-11.53-2.8-5.87-3.38-11.33-3.27-17.7v-2.21c.02-1.79.1-3.57.19-5.35h1c.14 2.1.23 4.21.31 6.31.62 9.28 2.57 17.44 9.12 24.32 3.1 2.7 6.08 4.3 10.19 4.49 2.38.88 2.38.88 3.37 2.76.64 1.61 1.28 3.21 1.9 4.82 1.95 4.04 5.13 6.31 9.11 8.3 2.08.05 4.17.09 6.25.12 6.12.4 6.12.4 8.8 2.43 1.51 1.89 1.51 1.89 2.7 3.76 1.57 2.12 2.81 2.71 5.25 3.69 2.38.18 2.38.18 4.99.09l2.89-.06c1.99-.06 3.98-.13 5.97-.2 5.51-.1 9.4 0 14.15 3.17l2 2c4.36-.23 6.14-1.85 9-5 2.94-1.47 5.95-1.33 9.2-1.52q.885-.24 1.8-.48l-1-3c-5.52-1.84-9.72-1.18-15 1 2.83-3.28 4.66-4.89 9-5.24 1.18-.02 2.35-.05 3.56-.07l3.57-.12 2.87.43c.71 2.02.71 2.02 1 4h3c.1-.87.21-1.73.31-2.62.23-.79.46-1.57.69-2.38 2.02.61 4.02 1.27 6 2 .25-1.94.25-1.94-1-4-2.88.25-2.88.25-6 1h-3l1-3c1.99-.37 3.99-.71 6-1l1-2-3 1c.19-2.5.19-2.5 1-5l2 1c6.14.59 6.14.59 8.76-1.21.53-.45 1.07-.89 1.62-1.35.86-.48 1.73-.95 2.62-1.44.57 2.21.57 4.37.66 6.65.34 2.35.34 2.35 2.9 4.54.81.27 1.61.53 2.44.81v-2c1.33-.35 2.66-.69 4-1 2-2 2-2 2.25-5.44C202 193 202 193 200 190l3 1c2.86.4 5.05.28 8 0 1.62-2.12 1.62-2.12 2-5-1.25-5.47-3.29-9.86-8-13-.67-2-1.33-4-2-6l-3-2c.19-3.69.19-3.69 1-7l2 1c1.41-1.95 2.73-3.96 4-6 1.56-2.38 1.56-2.38 3-4h3l1-2c1.01.21 2.02.41 3.06.62.97.13 1.94.25 2.94.38v-4h-5v-4l-2-1c1.19-1.56 1.19-1.56 3-3h3v-4h2c0 1.89-.01 3.78-.12 5.66.16 3.03.91 5.58 2.12 8.34.46-3.37.45-6.75.56-10.14.45-3.98 1.65-6.34 3.44-9.86-.21-2.13-.21-2.13-1-4-2.81-6.95-3.2-12.63-2.81-20.16-.06-.93-.13-1.87-.19-2.84l-3-1c.69-3.63.69-3.63 2-7l2 1v4c3.77-9.41 4.82-21.84 2.31-31.72-2.05-4.58-4.86-7.14-9.31-9.28-2.64-.55-5.25-.99-7.93-1.31-.68-.23-1.36-.46-2.07-.69-.67-2.04-.67-2.04-1-4-.33-.07-.33-.07-2-.44-.66-.18-1.32-.37-2-.56-.88-2.56-.88-2.56-1-5h2c-1.19-3.57-2.71-4.5-5.95-6.29-2.43-.84-3.97-.69-6.49-.27-1.17.18-2.35.37-3.56.56v-3l2-1c-.33-.16-.33-.16-2-1-.5-3.05-.5-3.05 0-6"/><path fill="#e4819f" d="M126.98 15.336c2.04 1.04 4.07 2.1 6.09 3.19 5.65 2.84 10.37 3.86 16.68 3.47l2.14-.12c5.57-.5 9.26-2.22 13.87-5.43 3.53-2.28 7.05-3.31 11.24-3.45 3.31.88 3.31.88 6 3 .63 1.34 1.21 2.7 1.75 4.07.91 2.13.91 2.13 2.25 3.93 2.68 1.01 5.11 1.43 7.95 1.75.68.08 1.35.17 2.05.25v1c-1.67-.25-3.34-.52-5-.81-2.75-.32-2.75-.32-5-.19-1 2.88-1 2.88 0 6 3 .82 3 .82 6 1v1l-3-.12-3 .12v3C188.67 37.046 190.33 37.036 192 36.996c.16.33.16.33 1 2-.47-.13-.47-.13-2.88-.81-1.03-.06-2.06-.12-3.12-.19-.75 3.07-.75 3.07-1 7-.75 3.57-.75 3.57-2 6-2.56-.75-2.56-.75-5-2-.17.33-.17.33-1 2-3.56-.25-3.56-.25-7-1v-2c-2.12-.19-2.12-.19-4.88-.12-.9.02-1.81.04-2.74.05-.78.03-1.57.05-2.38.07h-2c-.17.33-.17.33-1 2-.66-.45-1.32-.9-2-1.37-4.09-2.22-7.43-2.23-12-1.63-2.73.87-5.34 1.94-8 3v-2c-.49.3-.97.6-1.47.91-4.26 1.84-8.81.81-13.33.37-4.16-.34-6.53-.16-10.2 1.72-2.28-4.64-3-7.87-3-13l-3-1c1.69-.93 1.69-.93 4-1 .73 1.98 1.4 3.98 2 6l2-2c3.11-1.51 5.91-2.16 9.31-2.56.89-.14 1.78-.29 2.69-.44-1.9-.28-3.79-.55-5.7-.75-2.18-.23-4.23-.49-6.3-1.25l2-1c.3-1.96.3-1.96.31-4.37.02-.79.04-1.58.05-2.4-.36-2.23-.36-2.23-1.76-4.2-.52-.34-1.05-.68-1.6-1.03-.33.5-.33.5-2 3-.61-7.09-.61-7.09 1.31-9.93 5.2-3.28 10.39-2.1 15.67.27"/><path fill="#a1796a" d="M234 147c4.8 7.59 4.13 19.68 2.32 28.21-2.99 8.85-7.52 15.22-15.59 19.98-1.73.81-1.73.81-3.73.81-.94 1.69-.94 1.69-2 4-2.31 4.51-4.98 7.01-9 10h-2c-.29.89-.58 1.77-.88 2.69-1.2 3.54-2.57 5.61-5.12 8.31l-3 1c-2.18-1.86-3.72-3.43-5-6-3.03.41-5.48 1.69-8.19 3.06-5.95 2.7-11.05 2.47-17.37 1.25-4.43-.4-7.51.71-11.44 2.69-.39.33-.39.33-2.38 2-.86.33-1.73.66-2.62 1-1.82-.93-1.82-.93-4.06-2.31-6.09-3.48-11.84-3.04-18.63-2.68-5.9.25-9.95-.44-15.31-3.01-1.54-1.57-1.54-1.57-2.81-3.12-2.68-2.98-4.61-3.29-8.57-3.5-.94-.05-1.89-.09-2.87-.13-4.98-.45-8.86-2.27-12.32-5.89-2.11-2.77-3.36-4.59-3.68-8.11q-.375-1.11-.75-2.25c-2.17-.94-4.38-1.55-6.65-2.21-5.88-1.98-9.12-6.5-12.27-11.53-2.8-5.87-3.38-11.33-3.27-17.7v-2.21c.02-1.79.1-3.57.19-5.35h1c.14 2.1.23 4.21.31 6.31.62 9.28 2.57 17.44 9.12 24.32 3.1 2.7 6.08 4.3 10.19 4.49 2.38.88 2.38.88 3.37 2.76.64 1.61 1.28 3.21 1.9 4.82 1.95 4.04 5.13 6.31 9.11 8.3 2.08.05 4.17.09 6.25.12 6.12.4 6.12.4 8.8 2.43 1.51 1.89 1.51 1.89 2.7 3.76 1.57 2.12 2.81 2.71 5.25 3.69 2.38.18 2.38.18 4.99.09l2.89-.06c1.99-.06 3.98-.13 5.97-.2 5.51-.1 9.4 0 14.15 3.17l2 2c4.36-.23 6.14-1.85 9-5 2.94-1.47 5.95-1.33 9.2-1.52q.885-.24 1.8-.48l-1-3c-5.52-1.84-9.72-1.18-15 1 2.83-3.28 4.66-4.89 9-5.24 1.18-.02 2.35-.05 3.56-.07l3.57-.12c.95.14 1.89.29 2.87.43.71 2.02.71 2.02 1 4h3c.1-.87.21-1.73.31-2.62.23-.79.46-1.57.69-2.38 2.02.61 4.02 1.27 6 2 .25-1.94.25-1.94-1-4-2.88.25-2.88.25-6 1h-3l1-3c1.99-.37 3.99-.71 6-1 .16-.33.16-.33 1-2-.5.16-.5.16-3 1 .19-2.5.19-2.5 1-5l2 1c6.14.59 6.14.59 8.76-1.21.53-.45 1.07-.89 1.62-1.35.86-.48 1.73-.95 2.62-1.44.57 2.21.57 4.37.66 6.65.34 2.35.34 2.35 2.9 4.54.81.27 1.61.53 2.44.81v-2c1.33-.35 2.66-.69 4-1 2-2 2-2 2.25-5.44C202 193 202 193 200 190l3 1c2.86.4 5.05.28 8 0 1.62-2.12 1.62-2.12 2-5-.81-3.12-.81-3.12-2-6l-1-3 1.94.88c3.19 1.17 4.37 1.09 7.62.56.57-.07.57-.07 3.44-.44-2.09 2.18-4.16 3.05-7 4 3 2 3 2 5.44 2 3.59-1.4 4.58-3.79 6.56-7h2v2c3-2 3-2 3.69-3.74.39-2.85.38-5.59.34-8.48-.01-1.18-.03-2.36-.04-3.57-.04-2.5-.07-5.01-.12-7.51l-.03-3.54c-.01-.55-.01-.55-.05-3.29.07-.62.14-1.23.21-1.87"/><path fill="#e6ceb6" d="M59 163h1c.35 2 .68 4 1 6l1 2 3-1c1.43 1.98 1.43 1.98 2.88 4.75 2.16 4.13 3.84 6.28 8.12 8.25 2.61.41 2.61.41 5.19.62 2.65.46 2.65.46 4.81 1.38 1.07 2.28 1.31 4.25 1.58 6.74.65 3.5 2.72 5.1 5.42 7.26 2.55 1.28 4.57.9 7.36.73 3.31-.17 6.33-.13 9.64.27 2.32 2.22 2.33 3.76 3 7 3.24 2.16 3.91 2.22 7.61 2.05.9-.02 1.8-.04 2.73-.07 1.88-.07 3.76-.15 5.64-.23 5.64-.14 9.42.39 14.26 3.38 1.76.87 1.76.87 5.76.87.76-.5 1.53-.99 2.31-1.5 3.46-1.93 5.78-1.86 9.69-1.5 2.44.81 2.44.81 4 2v3l2 1c-2.71.32-5.41.46-8.13.62-2.79.37-4.52.87-6.87 2.38-.47.72-.95 1.44-1.44 2.19-.51.6-1.03 1.19-1.56 1.81-3.91-.1-6.03-1.62-9-4-3-1-4.78-1.07-7.89-.96-.48.01-.48.01-2.9.07-2 .05-4.01.12-6.01.19-7.79.14-10.8-1.26-16.58-6.42C105 210 105 210 105 208c-2.04-.04-4.09.02-6.12.12-5.58.09-8.64-.21-12.88-4.12l-2.25-1.94C81.04 198.87 80 196.18 80 192c-1.03-.14-2.06-.29-3.12-.44-6.11-.88-9.4-3.71-13.13-8.44-4.52-6.44-5.41-12.35-4.75-20.12"/><path fill="#ae9881" d="M227 126l1 2-1 3c-.36 5.99-.42 11.9 1 17.75 2.23 9.71 2.3 21.83-1 31.25-2.38 3.12-2.38 3.12-5 5-3.11-.09-4.35-1.23-7-3l3-2c-2-.35-4-.69-6-1v-2h-3c-3.67-2.9-4.58-5.65-6-10l-3-2c.19-3.69.19-3.69 1-7l2 1c1.41-1.95 2.73-3.96 4-6 1.56-2.38 1.56-2.38 3-4h3l1-2c.51.1.51.1 3.06.62.97.13 1.94.25 2.94.38v-4h-5v-4l-2-1c1.19-1.56 1.19-1.56 3-3h3v-4h2c0 1.89-.01 3.78-.12 5.66.16 3.03.91 5.58 2.12 8.34.46-3.37.45-6.75.56-10.14.45-3.94 1.31-6.53 3.44-9.86"/><path fill="#a05059" d="M185 21c.33.5.33.5 2 3 2.38.7 2.38.7 5.12 1.12 1.63.27 3.26.55 4.88.88v1c-1.67-.25-3.34-.53-5-.81-2.75-.33-2.75-.33-5-.19-1 2.88-1 2.88 0 6 3 .81 3 .81 6 1v1l-3-.12-3 .12v3c1.67.04 3.33.04 5 0 .16.33.16.33 1 2-.47-.13-.47-.13-2.88-.81-1.03-.06-2.06-.13-3.12-.19-.75 3.06-.75 3.06-1 7-.75 3.56-.75 3.56-2 6-2.56-.75-2.56-.75-5-2l-1 2c-3.56-.25-3.56-.25-7-1v-2c-2.12-.2-2.12-.2-4.88-.12-.9.01-1.8.03-2.74.05-.78.02-1.57.05-2.38.07h-2l-1 2c-.66-.45-1.32-.91-2-1.38-4.09-2.21-7.43-2.22-12-1.62-2.73.87-5.34 1.93-8 3v-2c-.48.3-.97.6-1.47.91-4.26 1.84-8.81.8-13.33.37-4.16-.35-6.53-.16-10.2 1.72-2.28-4.64-3-7.87-3-13l-3-1c1.69-.94 1.69-.94 4-1 .73 1.98 1.4 3.98 2 6l2-2c3.47-1.66 6.32-2.26 10.15-2.34.47-.02.47-.02 2.85-.09 1.99-.05 3.97-.09 5.96-.14l2.82-.09c.86-.01 1.71-.03 2.6-.05.53-.1 1.07-.19 1.62-.29l-2-2h2v-2c-2-.35-4-.69-6-1l-3-2v-2c3.77.34 5.81.88 9 3l2-2c.34 1.74.34 1.74.5 4.31.16 2.55.16 2.55.5 4.69l2 1v-2C147.38 36.88 147.38 36.88 151 37h2c.38-1.86.38-1.86.56-4.19.15-1.26.29-2.51.44-3.81.16.5.16.5 1 3l2 1h-2c.09 2.46.09 2.46 1 5 1.98.61 1.98.61 4.55.6.93.02 1.85.03 2.81.05l2.95-.03c1.92 0 3.83.02 5.74.04.85 0 1.71-.01 2.58-.01 2.89.43 4.27 1.36 6.37 3.35v2c-2.6.01-2.6.01-6.06-.31-1.19-.11-2.37-.22-3.59-.33-3.47-.37-6.9-.84-10.35-1.36h-3c5.88 2.82 11.07 4.14 17.62 4.25.48.01.48.01 2.86.08C181 46 181 46 182.63 44.81c1.83-2.42 1.77-4.01 1.81-7.02.03-1 .05-1.99.08-3.02.02-1.04.03-2.08.04-3.15.04-2.07.08-4.14.13-6.21.01-.91.03-1.83.04-2.78.04-.27.04-.27.27-1.63"/><path fill="#ce7581" d="M192 161c2.38.12 2.38.12 5 1l2 3c-2.31 1.56-2.31 1.56-5 3-1.26 2.52-1.17 4.38-1.19 7.19 0 .46 0 .46-.04 2.79.08.67.15 1.33.23 2.02 2-1 2-1 3-3.12l1-1.88 2 1h2v3h3l-2 2c1.32.7 2.65 1.37 4 2v2l-2 2v2l-3 2 2 2c.44 3.38.44 3.38 0 7-2.38 2.5-2.38 2.5-5 4l-2-1v2c-2.89-.39-3.89-.89-6-3-.24-2.09-.24-2.09-.31-4.38-.23-1.19-.46-2.39-.69-3.62-2.12 1.5-2.12 1.5-5 4-3.75.31-3.75.31-7 0l-1-1-2 2c-.68-.56-1.36-1.11-2.06-1.69-.64-.43-1.28-.86-1.94-1.31-.38 1.66-.71 3.32-1 5l-3-2c.91-2.64 2.02-4.02 4-6 .14-.97.29-1.94.44-2.94.58-3.18.94-4.24 3.56-6.06h3c-.63 2.34-1.3 4.68-2 7h2l.94-1.88C179 187 179 187 182 185c.66-2.13.66-2.13 1.06-4.56.41-2.44.41-2.44.94-4.44l2-1c.44-2.5.44-2.5 0-5-2.5-.75-2.5-.75-5-1v-1l2.5.06 2.5-.06v-2c1.31-1.69 1.31-1.69 3-3l3 1Z"/><path fill="#14140e" d="M234 147c4.8 7.59 4.13 19.68 2.32 28.21-2.99 8.85-7.52 15.22-15.59 19.98-1.73.81-1.73.81-3.73.81-.94 1.69-.94 1.69-2 4-2.31 4.51-4.98 7.01-9 10h-2c-.29.89-.58 1.77-.88 2.69-1.2 3.54-2.57 5.61-5.12 8.31l-3 1c-2.18-1.86-3.72-3.43-5-6-3.03.41-5.48 1.69-8.19 3.06-5.95 2.7-11.05 2.47-17.37 1.25-4.43-.4-7.51.71-11.44 2.69-.39.33-.39.33-2.38 2-.86.33-1.73.66-2.62 1-1.82-.93-1.82-.93-4.06-2.31-6.09-3.48-11.84-3.04-18.63-2.68-5.9.25-9.95-.44-15.31-3.01-1.54-1.57-1.54-1.57-2.81-3.12-2.68-2.98-4.61-3.29-8.57-3.5-.94-.05-1.89-.09-2.87-.13-4.98-.45-8.86-2.27-12.32-5.89-2.11-2.77-3.36-4.59-3.68-8.11q-.375-1.11-.75-2.25c-2.17-.94-4.38-1.55-6.65-2.21-5.88-1.98-9.12-6.5-12.27-11.53-2.8-5.87-3.38-11.33-3.27-17.7v-2.21c.02-1.79.1-3.57.19-5.35h1c.14 2.1.23 4.21.31 6.31.62 9.28 2.57 17.44 9.12 24.32 3.1 2.7 6.08 4.3 10.19 4.49 2.38.88 2.38.88 3.37 2.76.64 1.61 1.28 3.21 1.9 4.82 1.95 4.04 5.13 6.31 9.11 8.3 2.08.05 4.17.09 6.25.12 6.12.4 6.12.4 8.8 2.43 1.51 1.89 1.51 1.89 2.7 3.76 1.57 2.12 2.81 2.71 5.25 3.69 2.38.18 2.38.18 4.99.09l2.89-.06c1.99-.06 3.98-.13 5.97-.2 5.51-.1 9.4 0 14.15 3.17l2 2c3.38-.2 5.63-1.37 8.46-3.06 6.11-3.11 12.49-2.06 19.14-1.61 5.16.2 8.45.23 12.49-3.21 1-1.02 1.97-2.05 2.91-3.12l2-2c1.07 1.48 1.07 1.48 2.12 3.75l1.08 2.23c.8 2.02.8 2.02.8 4.02 1.88-.06 1.88-.06 4-1 1.06-2.19 1.06-2.19 2-5 2.02-4.8 3.55-6.46 8-9 2.71-2.73 4.77-5.3 6-9 1.67-.67 3.33-1.34 5-2 2.79-2.17 2.79-2.17 5.62-4.75.48-.42.48-.42 2.86-2.55 5.36-5.74 6.67-11.3 6.55-18.92-.01-1.18-.03-2.36-.04-3.57-.04-2.5-.07-5.01-.12-7.51l-.03-3.54c-.01-.55-.01-.55-.05-3.29.07-.62.14-1.23.21-1.87"/><path fill="#edd6c0" d="M230 88h2v5l2-2c-.18 1.75-.39 3.5-.64 5.25-1.94 14.72-1.94 14.72-.8 20.75.71 4.86-.9 8.01-3.56 12v4h2l1-2c.33 2.8.46 5.61.62 8.43.29 2.76.73 5.14 1.4 7.82 1.21 5.18 1.28 10.2 1.23 15.5.01.92.02 1.84.02 2.79-.02 8.77-.02 8.77-2.27 12.46-.5.16-.5.16-3 1v-2l-3-1c.3-2.05.3-2.05 1-5 .12-2.74.19-5.45.19-8.19v-2.3c-.05-4.87-.6-9.29-1.73-14.04-1.44-7.76-1.27-14.53 2.54-21.47-.69-2.56-.69-2.56-2-5-3.8-8.3-2.46-18.39 0-27l2-2Z"/><path fill="#ddcbb9" d="M108 26c.23.46.23.46 1.38 2.81-.46 1.05-.91 2.11-1.38 3.19-2.64.98-5.28 1.5-8.03 2.09-5.26 1.61-9.36 5.23-12.18 9.93C87 46 87 46 87 49.19c-.33.93-.66 1.85-1 2.81-2.56.59-4.93.69-7.55.7C76 53 76 53 74.3 54.32 73 56 73 56 71.12 59.12 69 62 69 62 66.56 62.94c-5.22.12-5.22.12-7.56-.94.57-5.85 4.98-10.05 9-14 2.96-2.24 4.35-2.96 8.06-3.19C79 44 79 44 79.99 42.41c.61-1.4 1.22-2.81 1.82-4.21 5-9.25 15.97-14.4 26.19-12.2"/><path fill="#f5e0cd" d="M150.238 69.477c1.92.14 3.84.33 5.76.52v1c-1.02.24-2.05.48-3.1.72-4.42 1.2-7.01 3.62-10.21 6.78-.26.25-.26.25-1.59 1.52-2.06 1.96-4.08 3.97-6.1 5.98l2 3 2-1c.94 1.94.94 1.94 1 4-.8-.08-1.61-.16-2.44-.25-.42.04-.42.04-2.56.25-.57 2.81-.28 5.11 0 8l1-2h2v3c3 1 3 1 4 1h2a239 239 0 0 0 1 5l2-1c.13-.66.25-1.32.38-2 .2-.66.41-1.32.62-2 .66-.12 1.32-.24 2-.37.66-.21 1.32-.41 2-.63.39-1.99.73-3.99 1-6l2 2c.5-2.43.5-2.43 0-5-2 .33-4 .66-6 1-.19-2.37-.19-2.37 1-5 2.38-1 2.38-1 5-1 1.88 1.19 1.88 1.19 3 3-.33 1.34-.66 2.67-1 4 1.34-.32 2.67-.65 4-1-1.17 2.96-2.84 5.17-4.93 7.53-.57.65-1.13 1.3-1.72 1.96-.59.67-1.18 1.33-1.79 2.01-1.16 1.33-2.33 2.65-3.49 3.97-.27.31-.27.31-1.65 1.86-1.42 1.67-1.42 1.67-3.14 4.2-.42.49-.84.97-1.28 1.47l-3-1c.95-1.69 1.95-3.36 3-5h-2v-2l-3 1 1 2c-2.37.25-2.37.25-5-1-.35-2.33-.35-2.33-.44-5.12-.12-2.73-.12-2.73-.56-4.88-2.94-.5-2.94-.5-6 1-1.19 3.19-1.19 3.19-2 6l-3-2c1.92-5.42 1.92-5.42 4.88-7l2.12-1c1.98-1.89 3.41-3.73 5-6l-3-1c-1.71 1.34-1.71 1.34-3.58 3.38-.69.74-1.37 1.48-2.08 2.24-.71.78-1.42 1.57-2.15 2.38l-2.12 2.3c-2.04 2.22-4.06 4.45-6.07 6.7-.6.67-1.2 1.34-1.82 2.03-.54.61-1.08 1.22-1.64 1.85l-1.44 1.62c-1.49 2.04-1.8 4.03-2.1 6.5h-2c.64-12 15.62-22.86 23.75-30.87 1.22-1.21 2.44-2.42 3.65-3.63 2.72-2.7 5.45-5.39 8.18-8.08 1.4-1.4 2.78-2.83 4.16-4.26 2.26-2.16 2.26-2.16 4.5-2.68"/><path fill="#d1c2b3" d="M187 26c6.08-1.39 12.79.36 18 3.62 4.71 3.6 8.1 7.69 10 13.38 2.04.92 2.04.92 4.62 1.75 5.2 1.93 9.22 4.62 12.38 9.25l-1 2h-3c-.28-.33-.28-.33-1.68-2.02C224 52 224 52 220.18 51.93c-1.44.12-2.87.25-4.3.38-2.77.14-5.1.03-7.88-.31-2.08-2.79-1.83-5.61-2-9-2.83-4.9-6.87-6.99-12-9-1.33-.31-2.66-.6-4-.88L187 32c-.56-3.05-.56-3.05 0-6"/><path fill="#d4878b" d="M187 38c1.52 3.01.81 5.69.06 8.81-.73 3.21-1.13 5.91-.87 9.19-.06.99-.13 1.98-.19 3-2.46 1.5-4.42 1.92-7.25 2.31-.29.12-.29.12-1.75.69-.16.87-.33 1.73-.5 2.62-.16.79-.33 1.57-.5 2.38-4.15-.12-6.33-3-9.06-5.81-.43-.44-.43-.44-2.6-2.65-3.53-3.83-6.59-7.2-7.34-12.54 2.6-.2 4.36 0 6.88.5.67.11 1.35.21 2.05.32 1.94.34 1.94.34 5.07 1.18v2c3.44.81 3.44.81 7 1l1-3c.64.39 1.27.79 1.93 1.2.68.26 1.36.53 2.07.8 1.23-2.57 1.23-2.57 2.19-6.12.54-1.98 1.11-3.95 1.81-5.88"/><path fill="#e7cbb3" d="M116 181c-.33.5-.33.5-2 3 .72-.16 1.44-.33 2.19-.5.46-.08.46-.08 2.81-.5 1.81 1.31 1.81 1.31 3 3v2l-1 1c.56.14.56.14 3.38.88 1.19.37 2.39.74 3.62 1.12l1 3c.08-.62.16-1.24.25-1.88.25-.7.5-1.4.75-2.12 2.67.21 4.61.8 7 2v3l2.06-1.12L141 193c.06 2.31.06 2.31-1 5-2.5.75-2.5.75-5 1-1.5 1.5-1.18 2.98-1.31 5.06-.23 1.3-.46 2.6-.69 3.94h-4v-3c-1.34.29-2.68.63-4 1v-2c.35-.14.35-.14 2.12-.88.62-.37 1.24-.74 1.88-1.12-.62-2.06-.62-2.06-2-4l-2-1v2l3 1-1 2c-2.07-.09-2.07-.09-4.56-.5-2.51-.41-2.51-.41-4.44-.5v2c.83.16 1.65.33 2.5.5.83.16 1.65.33 2.5.5v2c-1.62-.25-1.62-.25-4-1-1.05-.27-2.1-.54-3.19-.81C113 203 113 203 112 201.12c0-2.52.83-3.93 2-6.12h-2c.12-2.38.12-2.38 1-5 .78-.35 1.57-.7 2.38-1.06.53-.31 1.07-.62 1.62-.94-2.25-2.25-2.25-2.25-5-4v2l-3-1-1-3c3.25-1.8 4.41-2.2 8-1"/><path fill="#e59ea4" d="M192 161c2.38.12 2.38.12 5 1l2 3c-.74.43-1.49.87-2.25 1.31-3.48 2.14-3.74 3.84-4.75 7.69l-1 1c-.1.76-.21 1.53-.31 2.31-.84 3.26-2.31 4.39-4.69 6.69 0 3.11.39 4.41 2 7h2c-1.18 3.41-2.85 5.3-6 7-3.69.25-3.69.25-7 0l-1-1-2 2c-.68-.56-1.36-1.11-2.06-1.69-.64-.43-1.28-.86-1.94-1.31-.38 1.66-.71 3.32-1 5l-3-2c.91-2.64 2.02-4.02 4-6 .14-.97.29-1.94.44-2.94.58-3.18.94-4.24 3.56-6.06h3c-.63 2.34-1.3 4.68-2 7h2l.94-1.88C179 187 179 187 182 185c.66-2.13.66-2.13 1.06-4.56.41-2.44.41-2.44.94-4.44l2-1c.44-2.5.44-2.5 0-5-2.5-.75-2.5-.75-5-1v-1l2.5.06 2.5-.06v-2c1.31-1.69 1.31-1.69 3-3l3 1Z"/><path fill="#c59886" d="M176 199c5.35.25 5.35.25 8 1 .16.33.16.33 1 2l2-1v3c.62.1 1.24.21 1.88.31.7.23 1.4.46 2.12.69 1.38 2.88 1.38 2.88 2 6l-2 3-2-3c-1.54 1.23-1.54 1.23-3.4 3.3-3.42 3.19-5.48 4.22-10.17 4.28-2-.08-4-.19-5.99-.33-7.15-.4-11.97-.41-18.44 2.75 1-3 1-3 2.76-4.16 3.16-1.18 6.17-1.23 9.51-1.4.57-.14 1.14-.29 1.73-.44l-1-3c-5.52-1.84-9.72-1.18-15 1 2.83-3.28 4.66-4.89 9-5.24.59-.01.59-.01 3.56-.07l3.57-.12c.95.14 1.89.29 2.87.43.71 2.02.71 2.02 1 4h3c.1-.87.21-1.73.31-2.62.12-.4.12-.4.69-2.38 2.02.61 4.02 1.27 6 2 .25-1.94.25-1.94-1-4-2.88.25-2.88.25-6 1h-3l1-3c1.01-.16 2.02-.33 3.06-.5.49-.08.49-.08 2.94-.5Z"/><path fill="#d8b69d" d="M169 84h3c0 4.03-.39 6.3-3.06 9.38-.97.86-1.94 1.73-2.94 2.62-4.52 4.73-8.26 9.06-11 15h-2v2h-3v3l-3 2c.21.95.41 1.9.62 2.88.13.7.25 1.4.38 2.12-1.69-1.3-3.36-2.63-5-4 .7.95 1.4 1.9 2.12 2.88.62 1.03 1.24 2.06 1.88 3.12-2.76-.37-4.61-.65-7-2v-3c-1.33-.35-2.66-.69-4-1l-2-3c-.04 1.67-.04 3.33 0 5l-1-2-2-1c.56-2.5.56-2.5 2-5 2.62-.94 2.62-.94 5-1v2h2c-1-3-1-3-4-5l1-3 2 2h2v2h2c-.35.85-.7 1.69-1.06 2.56-.31.81-.62 1.61-.94 2.44 3.75-1.25 4.65-2.78 7.06-5.88 3.25-4.08 6.58-7.98 10.13-11.81 3.51-3.8 6.67-7.65 9.56-11.95.2-.22.2-.22 1.25-1.36"/><path fill="#e1c1a9" d="M106 121h2c1.3 1.33 1.3 1.33 2.88 3.25 3.36 3.93 6.84 7.72 10.43 11.44.53.56 1.06 1.13 1.6 1.71 1.52 1.55 1.52 1.55 4.09 3.6l2-3h2v2h2c1.69 1.98 3.35 3.98 5 6l2 1v2h2c.33 1.33.67 2.67 1 4h2c.16-.5.16-.5 1-3 1 3 1 3 1 5 .33.16.33.16 2 1l1 3q3 .06 6 0v2l2 2c-3.84 2.56-5.43 2.67-10 2-3.08-1.88-5.47-4.45-8-7-1.2-1.18-2.4-2.35-3.6-3.52-5.75-5.66-11.45-11.32-16.64-17.51-3.3-3.7-6.93-7.11-10.5-10.55C107 124 107 124 106 121"/><path fill="#e8ccb6" d="M224 148c2 1 2 1 3.12 4.31 1.6 7.03 2.27 15.15-1.12 21.69-1.81-.25-1.81-.25-4-1-2.46.32-4.58.82-6.86 1.8-1.83.76-1.83.76-4.14 1.2 1.31-2.04 2.86-3.87 4.38-5.75 1.99-2.76 2.7-4.85 2.62-8.25l-3-1c.25-2.12.25-2.12 1-5 .02-.67.04-1.34.05-2.03.07-2.03.07-2.03.95-4.97 2.05.79 3.68 1.95 5.48 3.2.5.26 1 .53 1.52.8.31-2.31.31-2.31 0-5"/><path fill="#cfa588" d="M85 159c2.19.56 2.19.56 4 2-.25 2.56-.25 2.56-1 5v1l1-1c2.62-.44 2.62-.44 5 0 .06 3 .06 3-1 6h-4v2c2.19-.09 2.19-.09 5-.5s2.81-.41 5-.5v2c1.94.56 1.94.56 4 1 1.89 1.89 1.18 4.57 1.23 7.09C104 185 104 185 102 187c-3 .25-3 .25-6 0-2-2-2-2-2.38-4.56.13-.81.25-1.61.38-2.44 2.06-1.19 2.06-1.19 4-1-.33 2-.67 4-1 6 1.94.19 1.94.19 4-1 .38-2.44.38-2.44 0-5-2.47-2.47-3.52-2.33-6.94-2.56-2.97-.22-5.21-.49-8.06-1.44-2.02 0-4.03 0-6.05.05-1.95-.05-1.95-.05-4.57-.86-.46-.06-.91-.13-1.38-.19.65 1.67 1.32 3.34 2 5-1.69-.31-1.69-.31-4-2-2.26-3.63-3.72-6.66-3-11 .27.56.54 1.11.81 1.69.2.38.2.38 1.19 2.31h3v2c.54-.27 1.07-.54 1.62-.81C78 170 78 170 81.31 169.88c.89-.29 1.78-.58 2.69-.88-.25-3.94-.25-3.94-.77-6.09-.07-.63-.15-1.26-.23-1.91Z"/><path fill="#f2abbf" d="M177.063 14.813c.44-.01.44-.01 2.66-.04 2.28.23 2.28.23 4.28 2.23.44 2.62.44 2.62 0 5-.84-.06-1.68-.12-2.54-.19-.81.06-1.62.13-2.46.19-.31 2.3-.31 2.3.12 5.31.13.99.26 1.97.39 2.99.49 2.7.49 2.7 1.49 5.7-4.43.54-8.74.37-13-1 .04-3.22 2.15-5.49 4-8v-1c-1.69-1.63-1.69-1.63-4-3-1.68.28-3.35.61-5 1l-2-2c1.55-1 1.55-1 3.87-2 2.31-1 2.31-1 4.13-2v-2c2.94-.98 4.99-1.17 8.06-1.19"/><path fill="#cea487" d="M100 58l2 2c-1.38 1.62-1.38 1.62-4 3-2.12.05-2.12.05-4.38-.06L90 63c.44 1.81.44 1.81 2 4l1 3c-2.88-.12-2.88-.12-6-1l-1-3v4l2 1c-.19 2.5-.19 2.5-1 5l-3 1-2-1v6h-2c-.14.8-.29 1.61-.44 2.44-.18.84-.37 1.69-.56 2.56l-3 1c-1.51-3.02-1.17-5.66-1-9 .65-1.34 1.31-2.68 2-4h-3c.26-3.27.65-4.65 3-7 1.99-.7 3.99-1.37 6-2-1 0-1 0-4.19.75L76 67c.19-1.88.19-1.88 2-4 3.25-.62 3.25-.62 7-1 .5-.18.5-.18 3-1.06 3.45-1.08 6.41-.94 10-.94Z"/><path fill="#827f6a" d="M210 149h2c3.62 5.74 3.36 13.05 2.5 19.56-.57 2.47-.57 2.47-1.5 4.44-3.44 1.56-3.44 1.56-7 1-1.75-3.31-1.75-3.31-3-7l-3-2c.19-3.69.19-3.69 1-7l2 1c1.41-1.95 2.73-3.96 4-6 1.62-2.38 1.62-2.38 3-4"/><path fill="#b7566c" d="M109 36l.94 3.12c.17.48.17.48 1.06 2.88l2-2c5.38-2.6 10.45-2.33 16.31-2.31 1.03-.02 2.06-.03 3.11-.05h2.94c.45 0 .45 0 2.7-.01.64.12 1.28.24 1.94.37v3c-1.98 1.1-1.98 1.1-4.62 2.06-.93.34-1.85.68-2.8 1.02-.85.3-1.7.61-2.58.92-.47.21-.47.21-2.88 1.25-4.32 1.04-8.47.74-12.9.53-.37.03-.37.03-2.22.22.33.5.33.5 2 3l-3 1c-2.18-4.67-3-7.88-3-13l-3-1c3-1 3-1 4-1"/><path fill="#b19899" d="M126.98 15.336c2.04 1.04 4.07 2.1 6.09 3.19 5.65 2.84 10.37 3.86 16.68 3.47l2.14-.12c5.57-.5 9.26-2.21 13.86-5.43 3.41-2.19 7.18-3.38 11.25-3.45l3 2c-2.47.72-4.97.98-7.51 1.34-2.49.66-2.49.66-4.49 3.66-1.72.72-3.45 1.43-5.19 2.11-2.79 1.38-4.66 3.68-6.81 5.89l-2-1 1-1c-2.14-.15-4.29-.22-6.44-.25-1.21-.02-2.43-.05-3.68-.07-.95.1-1.9.21-2.88.32v3h-2l-1 3c-1.69-1.31-1.69-1.31-3-3h2l1-2c-1.77-1.77-3.79-2.84-6-4l-3 1c-1.02-.97-2.02-1.98-3-3-.91-.31-1.82-.61-2.75-.93-.74-.35-1.49-.7-2.25-1.07.23-.69.46-1.38.7-2.09.1-.63.2-1.26.3-1.91-2.34-.1-2.34-.1-5.5.38-1.83.27-3.66.5-5.5.62 2.75-5.49 10.59-2.63 14.98-.66"/><path fill="#cd8786" d="M134 47l3 1 3-1 2 1-1 3h-3l-1 3-3-1 .06 2.31L134 58c-1.88 1.06-1.88 1.06-4 2-.15.34-.15.34-.94 2.06-.17.32-.17.32-1.06 1.94-2.38.69-2.38.69-5 1-.67.26-1.35.52-2.04.79-.65.07-1.29.14-1.96.21-1.09-1.77-1.09-1.77-1.94-4.25-1.61-4.16-2.92-5.8-7.06-7.75l2-1c3 1 3 1 6 3 .55 2.01.55 2.01.88 4.12.37.95.74 1.9 1.12 2.88 2.39-1.45 4.17-3.24 6.12-5.22C128 56 128 56 130 56l-1-2c-.6.52-1.2 1.03-1.81 1.56-.72.48-1.45.95-2.19 1.44-1.94-1.25-1.94-1.25-4-3-.44-.06-.44-.06-2.69-.38-.76-.2-1.52-.41-2.31-.62-1.16-2.56-1.16-2.56-1-5 2.95-.17 5.4-.04 8.31.31 2.91.32 5.76.54 8.69.69Z"/><path fill="#a57a5e" d="M156 132c1.68.98 1.68.98 3.88 2.62.71.53 1.43 1.06 2.17 1.61 2.03 1.84 2.79 3.33 3.95 5.77 1.44 1.46 1.44 1.46 3 2.81 3.17 3.09 4.43 5.72 5 10.19-1.77 5.45-7.4 8.9-12 12-5.36 1.79-10.3 1.66-15.56-.38-.81-.53-1.61-1.07-2.44-1.62v-2h-2c-2.69-2.88-2.69-2.88-5-6l1-2c1.78 1.52 1.78 1.52 3.94 3.81 4.8 5.07 4.8 5.07 9.31 5.5 4.55-.38 6.19-1.48 9.75-4.31.36-.27.36-.27 2.19-1.61.74-.58 1.48-1.17 2.25-1.77.7-.54 1.4-1.08 2.12-1.64C169 153 169 153 169.1 150.2c-1.48-4.32-3.97-6.78-7.16-9.95-5.94-6.03-5.94-6.03-5.94-8.25"/><path fill="#82655b" d="M190 193c.25 2.24.39 4.49.52 6.74.57 2.7 1.24 3.67 3.48 5.26 3.3-.23 6.02-.51 9-2v3l3 1h-3c-.34 1.66-.67 3.33-1 5-3.09 5.55-3.09 5.55-6.12 7.06L194 219c-2.46-3.68-2.08-5.65-2-10-.12-2.31-.12-2.31-1-4-2.94-1.12-2.94-1.12-6-2l-2-2c-6.46-1.27-6.46-1.27-9 0 .25-2.5.25-2.5 1-5l2 1c4.26.4 6.31.48 9.88-2 2.12-2 2.12-2 3.12-2"/><path fill="#d3a98c" d="M197.188 47.813c.46.2.46.2 2.81 1.19 1.19 3.5 1.19 3.5 1 7-2.5 1.12-2.5 1.12-5 1 1-3 1-3 2.38-5.38.2-.53.41-1.07.62-1.62-2.37.93-2.37.93-5 3-.43 2.56-.43 2.56 0 5 2.58 2.57 4.44 2.69 8 3v-2c3 1 3 1 5 3 1.16-.04 2.31-.08 3.5-.13.58.02.58.02 3.5.13 1.69 2.06 1.69 2.06 2 4-1.34-.29-2.67-.63-4-1l-2 2c.65 1.34 1.32 2.67 2 4 .31 2.69.31 2.69 0 5l-3 1-3-2c.03-2.05.03-2.05.5-4.31.17-1.22.33-2.44.5-3.69-1.25 1-1.25 1-3 3h-3v-3l2-1-1-3-2.69.12c-3.31-.12-3.31-.12-6.68-2.25-2.63-2.87-2.63-2.87-3.25-5.94 1.03-4.86 2.77-6.82 7.81-7.12"/><path fill="#736856" d="M236 66h1c2.25 10.43-.11 20.72-2 31-1.48 8.09-2.83 16.85 2 24l1 1c.31 3.42.36 5.4-1.44 8.38-2.57 4.31-2.59 8.86-2.5 13.81L234 146c-2.51-3.76-2.4-6.5-2.66-10.92-.11-.69-.22-1.37-.34-2.08h-2c-.16.33-.16.33-1 2-.51-5.36-.51-5.36 1.44-7.81 2.4-3.36 2.53-7.12 2.56-11.19-.16-.5-.16-.5-1-3 .05-8.32 1.34-16.36 2.91-24.5 1.09-5.88 1.56-11.7 1.8-17.68.07-1.61.17-3.21.29-4.82"/><path fill="#cca88e" d="M219 132h2c0 1.93-.01 3.87-.05 5.8.07 3.03.7 5.5 2.05 8.2.35-.72.71-1.45 1.07-2.2q.465-.885.93-1.8c.15 2.09.15 2.09-.06 5.38-.06 1.08-.11 2.16-.16 3.27L224 153c-2.43-.57-4.2-1.2-6-3-.73 2.32-1.38 4.65-2 7-.13.41-.13.41-.81 2.5-.06.5-.13.99-.19 1.5l3-1c.88 1.5.88 1.5 1 4-2.24 6.49-2.24 6.49-6 9-1.18-3.54-.38-5.24.58-8.73.81-4.37.42-9.27-1.58-13.27.56-2.19.56-2.19 2-4 2 .32 4 .65 6 1v-4h-5v-4l-2-1c1.19-1.56 1.19-1.56 3-3h3Z"/><path fill="#b0886f" d="M115 103c-.72 3.75-4.59 7.16-7 10-1.63 3.26-1.47 5.38-1 9 1.94 3.05 4.44 5.47 7 8l2.67 2.67c1.42 1.42 2.84 2.84 4.27 4.25 3.89 3.87 7.52 7.89 11.06 12.08.55.63 1.11 1.25 1.68 1.89A88 88 0 0 1 137 155c-3.53-1.28-5.7-3.52-8.25-6.19-3.46-3.54-7-6.89-10.77-10.11-1.4-1.2-2.78-2.42-4.15-3.65-.71-.64-1.41-1.27-2.14-1.93-.64-.57-1.27-1.14-1.93-1.74C108 130 108 130 105 129v-3h-2c-.75-2-.75-2-1-4h2v-3.31c0-3.69 0-3.69 2-6.69l-.06-3c.06-3 .06-3 1.18-4.88 2.73-1.63 4.79-1.62 7.88-1.12"/><path fill="#e7d1bf" d="M187 26c5.29-1.02 12.02-.08 16.69 2.75 2.46 2.4 3.26 4.02 4.31 7.25.99 1.34 1.99 2.67 3 4v2c-2.06-.19-2.06-.19-4-1l1-3h-2c-.1.76-.21 1.53-.31 2.31-.23.56-.46 1.12-.69 1.69-1.22-1.15-2.42-2.32-3.55-3.55-3.21-3.21-6.98-4.35-11.33-5.26-1.03-.39-2.06-.79-3.12-1.19-.58-3.07-.58-3.07 0-6"/><path fill="#eca4b3" d="M141 25c5.1-1.4 9.84-1.06 15 0l-1 2h-2c-.15 2.85.01 5.65.12 8.5L153 38c-.33.16-.33.16-2 1v-2c-3.5-.25-3.5-.25-7 0v2l-3-1c-1.26-4.51-1.7-8.59 0-13"/><path fill="#f2bbca" d="M118.75 14.75c.8-.01 1.6-.01 2.42-.02.61.09 1.21.18 1.83.27v2l3 1-3 1c2.33 1.02 4.66 2.01 7 3-2 1-2 1-3.91.38-.71-.27-1.42-.54-2.15-.82-1.3-.18-2.6-.37-3.94-.56-.85 3.07-1.09 4.92-1 8v4c1.33.35 2.66.69 4 1-2.97 1.34-5.23 2.1-8.5 1.69-.5-.23-.99-.46-1.5-.69l2-1c.3-1.96.3-1.96.31-4.37.02-.8.04-1.59.05-2.4C115 25 115 25 113.61 23.02L112 22l-2 3c-.56-5.51-.56-5.51 0-8 2.81-2.04 5.33-2.27 8.75-2.25"/><path fill="#d6ad92" d="M211 67c2.62-.19 2.62-.19 6 1 2.11 2.62 2.91 4.51 3.5 7.81.16.72.33 1.45.5 2.19h3c.04-2.33.04-4.67 0-7h2c.27 2.45.27 2.45.25 5.69.01 1.05.01 2.11.02 3.2-.27 3.08-.78 5.39-2.27 8.11-1-3-1-3-1-7l-3 1v-5h-3l1 2c.13 1.88.13 1.88.12 4 .01.7.01 1.4.01 2.12C218 87 218 87 217 89h-2c-.67-2-1.33-4-2-6h-2c.38-2.5 1.24-4.55 2.25-6.88.75-3.12.75-3.12-1-6.56-.41-.84-.82-1.69-1.25-2.56"/><path fill="#efa4af" d="M198 190c2.05.72 3.46 1.46 5 3 .38 3.31.38 3.31 0 7-2.38 2.5-2.38 2.5-5 4l-2-1v2c-2.89-.39-3.89-.89-6-3-.3-2.16-.3-2.16-.31-4.62-.02-.82-.04-1.64-.05-2.48.12-.63.24-1.25.36-1.9h5l1.38-1.62c.53-.46 1.07-.91 1.62-1.38"/><path fill="#92664d" d="M170 84h2c-.08 4.01-.4 6.31-3.06 9.38-.97.86-1.94 1.73-2.94 2.62-4.52 4.73-8.26 9.06-11 15h-2v2h-3v3l-3 2c.21.95.41 1.9.62 2.88.13.7.25 1.4.38 2.12-2.56-1.44-2.56-1.44-5-4 1.19-4.13 4.65-7.26 7.44-10.44 1.08-1.24 2.16-2.49 3.24-3.74.55-.63 1.1-1.26 1.66-1.91 2.61-3 5.2-6.01 7.78-9.03.47-.54.93-1.07 1.4-1.62 1.82-2.13 3.4-4.11 4.66-6.63.14-.27.14-.27.82-1.63"/><path fill="#e5abaa" d="M104 37c1.96.13 1.96.13 4 1 1.01 2.21 1.01 2.21 1.69 4.94 1.29 5.02 1.29 5.02 2.31 7.06l3-1c.1.64.21 1.28.31 1.94.23.68.46 1.36.69 2.06q3 .06 6 0c.7.56 1.4 1.11 2.12 1.69.62.43 1.24.86 1.88 1.31 2.25-1.5 2.25-1.5 4-3 0 3 0 3-2.12 5.15-.91.73-1.82 1.47-2.76 2.23-.9.75-1.8 1.5-2.74 2.27-.78.44-1.57.89-2.38 1.35-2-3-2-3-2.19-5.56-.27-.81-.53-1.61-.81-2.44-2.32-.7-4.66-1.37-7-2-.75-1.69-.75-1.69-1-4-1.31-3.75-1.31-3.75-3-7h-4v-3h-3v-2h4Z"/><path fill="#dab69e" d="M130 190c2.78.07 4.53.76 7 2v3l2.06-1.12L141 193c.06 2.31.06 2.31-1 5-2.5.75-2.5.75-5 1-1.5 1.5-1.18 2.98-1.31 5.06-.23 1.3-.46 2.6-.69 3.94h-4v-3c-1.34.29-2.68.63-4 1v-2c.7-.29 1.4-.58 2.12-.88.62-.37 1.24-.74 1.88-1.12-.62-2.06-.62-2.06-2-4l-2-1v2l3 1-1 2c-2-.12-2-.12-4-1-.88-1.94-.88-1.94-1-4l2-2c.66.25 1.32.5 2 .75.66.08 1.32.16 2 .25l.94-3Z"/><path fill="#4a4945" d="M58 62h1c.05 1.82.03 3.63-.01 5.45-.01 1.16-.03 2.32-.05 3.51-.04 2.44-.09 4.87-.15 7.3-.09 7.28.6 13.74 2.46 20.78 1.01 3.97 1.57 7.96 2.13 12.01.2.64.41 1.29.62 1.95h3c-.56.21-1.11.41-1.69.62C63 115 63 115 62 118l-1 3c-.76.31-1.53.62-2.31.94-.56.35-1.12.7-1.69 1.06 1.19 3.5 1.19 3.5 3 7 1.5 3 1.13 5.79 1.12 9.12.01 1.29.01 2.57.01 3.89-.02.49-.02.49-.13 2.99h-1c-.14-2.04-.23-4.08-.31-6.12-.47-7.34-.47-7.34-2.81-10.38C55 127 55 127 55 124.5c1-2.5 1-2.5 3.06-5 3.39-4.83 2.48-10.9 1.94-16.5-.65-3.31-1.44-6.56-2.26-9.83-2.45-10.5-1.69-20.66.26-31.17"/><path fill="#dcbba2" d="M153 46c5.16 2.37 7.89 6.22 11.18 10.67 2.35 3 5.02 5.54 7.83 8.12.16.2.16.2.99 1.21-3.56 0-4.41-.76-7.19-2.88-.71-.53-1.43-1.06-2.17-1.61-.54-.5-1.08-1-1.64-1.51v-2h-2v-2c-2.33-.68-4.66-1.34-7-2l-1-2h2v-3c-4.86-.69-7.78.75-12 3h-3c-1.19 2.19-1.19 2.19-2 4 0-3 0-3 1-5h3c.56-1.94.56-1.94 1-4 3.48-1.74 7.19-1.44 11-1"/><path fill="#98394e" d="M130 28c3.77.34 5.81.88 9 3l2-2c.08 1.77.08 3.54.06 5.31.19 3.11.19 3.11.94 5.69 3.01 1.35 5.76 1.12 9 1v1c-2.34.29-4.68.45-7.03.62-.65.13-1.3.25-1.97.38v2c-2 1.31-2 1.31-4 2v-3c-1.73.55-1.73.55-4.19 1.75-6.4 2.76-14.56 4.83-21.32 2.32-.24-.18-.24-.18-1.49-1.07 2.52-1.26 4.06-.96 6.88-.81 5.67.07 10.21-1.25 15.49-3.22C136 42 136 42 138.36 41.49c.54-.16 1.08-.32 1.64-.49-.19-2.93-.9-3.9-3-6h2v-2c-2-.35-4-.69-6-1l-3-2Z"/><path fill="#dac8ba" d="M108 26c.23.46.23.46 1.38 2.81C108 32 108 32 105.61 33.07 101.7 34.15 98.08 35 94 35c.21-.72.41-1.44.62-2.19.13-.6.25-1.19.38-1.81-.72.43-1.44.87-2.19 1.31C90 34 90 34 87.6 33.79c-.53-.26-1.06-.52-1.6-.79 1.25-1.38 1.25-1.38 3.56-3 .75-.54 1.49-1.07 2.26-1.62 4.86-3.07 10.6-3.37 16.18-2.38"/><path fill="#fbf4eb" d="M150.238 69.477c1.92.14 3.84.33 5.76.52v1c-1.04.25-2.07.5-3.14.76-4.1 1.12-6.47 3.16-9.55 6.12-.5.48-1.01.96-1.53 1.46-1.61 1.54-3.19 3.1-4.78 4.66-.53.52-1.06 1.03-1.6 1.56-5.43 5.3-10.77 10.64-15.67 16.44-1.33 1.55-2.71 3.05-4.11 4.54-.42.44-.42.44-2.49 2.65-.76.8-1.52 1.6-2.31 2.42-1.95 2.56-2.3 4.27-2.82 7.39h-2c.64-12 15.62-22.86 23.75-30.87 1.22-1.21 2.44-2.42 3.65-3.63 2.72-2.7 5.45-5.39 8.18-8.08 1.4-1.4 2.78-2.83 4.16-4.26 2.26-2.16 2.26-2.16 4.5-2.68"/><path fill="#b98779" d="M109 20h1c1.04 5.56 1.33 11.36 1 17l-2-3c-7.35.01-13.15 3.15-18.25 8.25-1.75 2.75-1.94 3.84-2.31 6.94-.42 2.08-.42 2.08-1.44 3.81-3.6 1.37-7.19 1.64-11 2-.8.22-1.6.43-2.42.66-.52.11-1.04.22-1.58.34 1.12-1.94 1.12-1.94 4-4 2.51-.06 2.51-.06 5.25.12 2.68.11 2.68.11 4.75-.12.38-2.62.38-2.62 0-6 2.56-4.92 6.16-9.22 11-12 2.9-.61 2.9-.61 5.94-1 2.83-.37 2.83-.37 5.06-1 1.06-3.12 1.06-3.12 0-6-3-.31-3-.31-6 0v-1c.97.08 1.94.16 2.94.25 1.01-.08 2.02-.16 3.06-.25.81-2.5.81-2.5 1-5"/></svg>