<svg xmlns="http://www.w3.org/2000/svg" width="280" height="280"><path fill="#ecd0bb" d="M116.98 18.781c7.01 4.23 15.11 4.29 23.02 3.22 3.46-1.51 6.4-3.24 9.51-5.37 4.35-2.85 8.33-3.08 13.49-2.63 2.81 1.62 2.81 1.62 5 4 .23 1.01.46 2.02.69 3.06.44.97.87 1.94 1.31 2.94 3.16.99 3.16.99 7.06 1.44 8.75 1.28 13.48 4.83 19.38 11.18 1.56 2.38 1.56 2.38 2.25 5 1.31 2.38 1.31 2.38 3.15 3.11.75.21 1.51.43 2.28.64 6.45 1.88 10.81 5.43 14.45 11.06 3.95 7.43 4.71 14.22 4.18 22.57-.04.74-.09 1.47-.13 2.23-.35 4.98-1.12 9.7-2.18 14.58-3.5 16.3-3.5 16.3.5 23.19l2.06 3c.9 2.35 1.26 3.42.22 5.75-.38.6-.76 1.2-1.16 1.81-3.4 6.33-2.71 12.87-1.06 19.67 2.33 10.07 3.01 23.39-1.75 32.8-4.41 6.95-8.51 10.09-16.25 12.97-2 1-2 1-3.38 4.44-1.62 3.56-1.62 3.56-3.65 4.44-1.97 1.12-1.97 1.12-2.73 3.65-.12.98-.24 1.96-.37 2.97-.68 5.31-.68 5.31-2.87 7.5-4.13-.28-7.37-.77-11.25-2.19-2.75-.81-2.75-.81-4.63-.06-.7.41-1.4.82-2.12 1.25-1.91.47-3.81.93-5.73 1.36-2.27.64-2.27.64-4.35 1.61-8.87 4.04-17.97 3.63-27.52 3.55-2.89-.02-5.79 0-8.69.03-19.39.03-19.39.03-26.71-4.55-1.75-1.9-1.75-1.9-3.13-3.75-2.34-3.15-2.34-3.15-4.88-3.63-1.52.04-3.04.13-4.56.25-5.77.31-10.86-.89-15.74-3.93-2.38-2.6-3.46-4.36-4.94-7.44-2.48-4.85-5.38-6.09-10.25-8.2-6.47-3.36-10.26-9.57-12.5-16.3-1.93-8.06-1.02-15.92.56-23.94 1.6-8.87 2.6-16.21-2.56-24.06-.86-4.81 1.34-7.13 4-11 1.38-4.43.78-8.61.19-13.13-.1-.75-.19-1.51-.29-2.29-.52-4.13-1.18-8.19-2.03-12.27-2.16-11.37-1.65-22.29 3.88-32.56 3.89-4.75 8.19-9.07 14.25-10.75h3c.08-.83.16-1.65.25-2.5 1.44-6.71 7.27-11.8 12.86-15.54 4.36-2.22 9.04-3.12 13.89-2.71.66-.08 1.32-.17 2-.25.56-2.69.56-2.69 1-6 2.99-4.64 2.99-4.64 5.87-5.68 6.37-.97 12.05 1.85 17.11 5.46"/><path fill="#f0dac4" d="M93 26c.25 2.94.25 2.94-1 6l-2 1 2 1v3c-1.32.37-2.66.71-4 1 .29.05.29.05 1.78.29C92 39 92 39 93.05 40.67 95.62 48.28 95.62 48.28 95 52c-2.15-2.15-2.63-3.47-3.56-6.31-.48-1.22-.95-2.44-1.44-3.69-1 3-1 3-.06 5.06C91.43 51.2 91.79 55.64 91 60h-3v-3c-.66.6-1.32 1.2-2 1.81-3.11 2.27-3.56 2.45-7.12 2.31C75 61 75 61 72 63l-3.06-.06L66 63l-2 3c2.38.12 2.38.12 5 0v1c-1.11.23-2.23.45-3.38.69C62 69 62 69 60.19 72.31c-.06.89-.13 1.78-.19 2.69 3.24-1.18 5.56-2.56 8-5 .71 1.99 1.37 3.99 2 6l2 1c.19-3.27.21-6.19-.62-9.38-.13-.53-.25-1.07-.38-1.62.33-.16.33-.16 2-1 .12.62.25 1.24.38 1.88.2.7.41 1.4.62 2.12 2.12.94 2.12.94 4 1-1-3-1-3-2.94-4.75-.17-.21-.17-.21-1.06-1.25 2.81.12 2.81.12 6 1v3c2-.31 4-.64 6-1l2 2c.88-1.88.88-1.88 1-4h-4v-2c2.08-.41 4.14-.51 6.25-.66.58-.11 1.16-.22 1.75-.34v-2h3c.38 1.32.7 2.66 1 4 .56.7 1.11 1.4 1.69 2.12.43.62.86 1.24 1.31 1.88l-2 2 2 2c1.24-.06 2.47-.12 3.75-.19 1.07.06 2.15.13 3.25.19-.25 2.56-.25 2.56-2 5-2.75-.38-2.75-.38-5-1l2 3c-3 1-3 1-4.94.38C95 79 95 79 92.88 80.44c-.62.51-1.24 1.03-1.88 1.56h-2v2l3 1 1 1h3c2.93.53 3.83.83 6 3 .16.5.16.5 1 3 2.33.37 4.66.7 7 1v2h2c1.02 1.99 2.01 3.99 3 6 2.29 3.74 4.67 6.89 8.12 9.62 2.85 2.36 4.44 4 5.88 7.38-.19 2.81-.19 2.81-1 5h-2c-.16.5-.16.5-1 3-1.12 3.36-2.37 4.69-5 7h-2v3c-.8.31-1.61.62-2.44.94-.84.35-1.69.7-2.56 1.06-.62 2.13-.62 2.13-1 4h-3c-.58 2.89-.58 2.89-.81 6.69-.05.62-.05.62-.27 3.76.08 3.47.67 5.44 2.08 8.55v3h2c3.4 2.86 5.44 5.84 7 10-.94 2.25-.94 2.25-2 4l2 2 1-2 2 1c-.33 1.67-.67 3.33-1 5l2 1-2 2-1-2c-2.25-1-2.25-1-5-1-2.69 2.94-2.69 2.94-5 6h-2l-1 3c-2.12-.94-2.12-.94-4-2l1 2h-3v-3l-3-1c1.94-1.06 1.94-1.06 4-2h-2v-2c-1.81-.94-1.81-.94-4-1-.5.82-.99 1.65-1.5 2.5-.5.82-.99 1.65-1.5 2.5-1.87-.31-1.87-.31-4-1-3.78 1.08-4.76 1.64-7 5-2.06-.56-2.06-.56-4-2-.62-2.13-.62-2.13-1-4h-2c1.42 3.21 3.05 6.08 5 9 .16.33.16.33 1 2-2.79-.58-4.66-1.71-6.81-3.56-1.39-2.86-1.08-4.09-.75-7.19.09-2.4.09-2.4-.44-4.25-2.53-.57-4.74-.3-7.32-.08-4.14.12-6.67-1.15-9.68-3.92-5.31-5.84-4.42-13.79-4.24-21.17.33-5.3.33-5.3 1.24-7.83l2 1c-.06 2.5-.06 2.5-.44 5.56-.22 1.81-.41 3.62-.56 5.44h1c.23-2.02.45-4.03.62-6.05C56 154 56 154 58 152l-1-2-3-1c-.18-3.72-.06-7.32.12-11.04.12-4.05.06-7.06-1.73-10.75C51 124 51 124 51.58 121.55c.41-.74.81-1.48 1.23-2.24 3.92-8.56 2.76-16.88-.06-25.64-1.64-5.83-1.95-11.71-2-17.73l-.06-2.07c-.04-4.69.76-7.92 3.31-11.87 2.63-.75 2.63-.75 5-1l1-2-2-1c2.14-2.14 3.55-2.95 6.58-3.27.44.01.44.01 2.67.02 2.68-.2 2.68-.2 4.75-.75.38-3.12.38-3.12 0-7 2.65-6.41 6.02-8.63 12-12-5.43 1.21-8.64 5.11-11.75 9.44C71 47 71 47 70.88 50.25c-.29.91-.58 1.81-.88 2.75-2.26.55-4.4.63-6.72.72-3.21.4-4.82 2.28-7.28 4.28-3.44.12-3.44.12-6-1 .19-2.81.19-2.81 2-6 3.05-2.48 5.98-3.87 9.88-4.38.7-.2 1.4-.41 2.12-.62.12-.85.25-1.69.38-2.56 1.15-6.34 6.29-10.63 11.31-14.38C80.89 25.82 86.91 24.71 93 26"/><path fill="#f2dcc7" d="M130 50l2 1-1 2c1.67-.32 3.33-.66 5-1l3 1v4c1.99.69 3.99 1.36 6 2l-1 3c1.99.38 3.99.71 6 1v2h2v2c2.73 1.97 4.32 2 7.75 2H163v2c2-1 2-1 4-4-.21-.7-.41-1.4-.62-2.12-.13-.62-.25-1.24-.38-1.88.62-.1 1.24-.21 1.88-.31.35-.12.35-.12 2.12-.69.16-1.16.33-2.31.5-3.5.16-1.16.33-2.31.5-3.5.64-.45 1.28-.91 1.94-1.38.68.13 1.36.25 2.06.38.07.55.07.55.44 3.31.39 1.98.39 1.98 1.56 3.69 3.47.88 6.76 1.19 10.32 1.42.45.09.45.09 2.68.58.03 3-1.33 4.5-3 7 1.16-.62 2.31-1.24 3.5-1.88.58-.18.58-.18 3.5-1.12-.16 2.5-.91 4.65-1.71 7.02-.05.33-.05.33-.29 1.98 1.89-.05 1.89-.05 4-1 .62-2.62.62-2.62 1-5l2 1v2c1.28.25 2.56.5 3.88.75 2.19.48 2.19.48 4.12 1.25 1.69 3.12 1.69 3.12 2 6h-3c-.81 3.5-.81 3.5-1 7h2c.16-.33.16-.33 1-2l2 1c.36-2.53.57-4.95.69-7.5.04-.71.09-1.42.14-2.15.26-4.59.15-8.84-.83-13.35h-2c.28.56.57 1.12.86 1.7 1.28 2.58 1.41 4.25 1.39 7.11 0 .41 0 .41.02 2.46-.09.57-.18 1.14-.27 1.73l-2-1v-3h-3c-1.06-1.88-1.06-1.88-2-4l-2-2v-3c-.66-.54-1.32-1.07-2-1.62-.16-.23-.16-.23-1-1.38 2.15-.39 4.25-.51 6.44-.59.51-.14 1.03-.27 1.56-.41-1.47-2.32-2.86-2.96-5.48-3.7-.89-.14-1.79-.28-2.71-.42-1.61-.27-3.21-.55-4.81-.88v-1c4.53-.61 8.12-.43 12.25 1.56 4 3.54 7.29 6.68 8.18 12.05.13 2.98.1 5.91.01 8.89-.01.5-.01.5-.02 3.05-.09 5.46-.41 10.35-2.42 15.45h-2l-1-3c-.69 3.5-.69 3.5-1 7l2-3c.27 2.11.27 2.11.25 5.31 0 .53 0 .53.02 3.18-.09.83-.18 1.66-.27 2.51h-2c-.04 1.67-.04 3.33 0 5h-1c-.14-3.65-.16-6.51 1-10h-2v2c-.95-.25-1.9-.5-2.88-.75-1.03-.08-2.06-.16-3.12-.25-1.25 2.44-1.25 2.44-2 6-.6 2.7-1.26 5.33-2 8h-2v-5l-2-1c0-2 0-2 1-3h-2c0 3 0 3 2 6-1 1.33-2 2.67-3 4 .33.5.33.5 2 3l3-1c1.97.23 1.97.23 4.06.75q1.035.24 2.1.48C202 122 202 122 204 125l2 1c-.31 4.12-.69 6.53-3 10-.12-.85-.25-1.69-.38-2.56-.1-.4-.1-.4-.62-2.44-1.38 1.28-2.7 2.63-4 4h-4c-.04-1.67-.04-3.33 0-5-3 0-3 0-6.19 1H185c-.06-3.94-.06-3.94.12-6.2L185 123c-2.44-.25-2.44-.25-5 0-.94-2-.94-2-1-4h2v-2c.5.16.5.16 3 1l2-1-1-3v2h-2c-1.44-1.88-1.44-1.88-2-4 1.65-.7 3.32-1.37 5-2-1.05-.14-2.1-.29-3.19-.44-.63-.09-.63-.09-3.81-.56v-3c-.41.54-.82 1.07-1.25 1.62-.29.23-.29.23-1.75 1.38-2.25-2.25-2.25-2.25-4-5l1-1c-.8-.31-1.61-.62-2.44-.94-.42-.17-.42-.17-2.56-1.06v-2c-1.66-.67-3.33-1.34-5-2-1.69-1.5-1.69-1.5-3-3-1.41-1.41-2.85-2.78-4.31-4.12-2.25-2.41-3.59-4.32-5.19-7.13-2.17-3.66-2.17-3.66-5.12-4.5-.79-.08-1.57-.16-2.38-.25-2.2-2.2-2.93-3.55-3.44-6.62C139 69 139 69 137.19 67.69 135 67 135 67 131 67h-3l-3 2c1.62.67 3.24 1.34 4.88 1.97 3.86 1.87 6.59 4.99 9.56 8.04.68.69 1.37 1.38 2.07 2.08 2.17 2.19 4.33 4.39 6.49 6.6l4.35 4.38c1.41 1.42 2.81 2.83 4.21 4.25.64.65 1.29 1.3 1.95 1.97 3.85 3.93 7.53 7.97 11.12 12.13.77.88 1.55 1.76 2.37 2.58.49 4.19.01 6.8-2.52 10.21-.49.59-.98 1.18-1.48 1.79-.71.87-1.43 1.74-2.16 2.64-4.64 5.41-4.64 5.41-6.84 7.36l-3-1c.21-.78.41-1.57.62-2.38.13-.53.25-1.07.38-1.62-2.44 2.19-2.44 2.19-5 5v1c.73.1 1.46.2 2.21.3.59.23 1.18.46 1.79.7-1.18 1.89-1.18 1.89-3.44 4.25l-2.18 2.33c-4.57 4.65-9.22 9.18-14 13.61-.58.53-1.15 1.06-1.74 1.61-6.47 5.99-6.47 5.99-10.39 6.7-4.08-.63-5.66-2.21-8.57-5-1.68-1.5-1.68-1.5-4.62-2.88-2.06-1.62-2.06-1.62-3-5.12.38-6.15 5.46-9.93 9.56-14.06 2.99-3.12 5.62-6.56 8.32-9.93 1.84-2.24 3.76-4.34 5.75-6.45.76-1.01 1.52-2.02 2.31-3.06-1.14-3.73-3.94-6.27-6.56-9.06-5.05-5.47-9.82-11.11-14.44-16.94q-.84-1.02-1.71-2.07c-3.31-4.22-3.31-4.22-3.22-7.32 1.59-4.46 5.3-6.94 8.78-10.01C119 71 119 71 119.37 67.75 119 65 119 65 118 64l-2 2-2-1 1-3c.68-.14 1.36-.29 2.06-.44.64-.18 1.28-.37 1.94-.56v-4c2-.35 4-.68 6-1 1.25-2.13 1.25-2.13 2-4l2 1Z"/><path fill="#c58f87" d="M116.98 18.781c7.01 4.23 15.11 4.29 23.02 3.22 3.46-1.51 6.4-3.24 9.51-5.37 4.35-2.85 8.33-3.08 13.49-2.63 2.81 1.62 2.81 1.62 5 4 .19 1.03.37 2.06.56 3.12.48.95.95 1.9 1.44 2.88 3.15.9 6.19 1.32 9.44 1.67.85.11 1.69.22 2.56.33v1c-3.64.14-6.53.16-10-1h-2c.25 3.75.25 3.75.7 5.92.3 2.08.3 2.08-.7 5.08h4v2h-3c-.61 2.63-.61 2.63-1 6-1.5 7.17-3.23 13.68-7 20h-2c-.27.68-.54 1.36-.81 2.06-.39.64-.79 1.28-1.19 1.94-2.69-.2-4.59-.8-7-2v-2h-2v-2c-.5-.08-.5-.08-3-.5-.5-.08-.5-.08-3-.5v-2c-1.01-.45-2.02-.91-3.06-1.38-.97-.53-1.94-1.07-2.94-1.62.44-2.25.44-2.25 1-4-2.25.31-2.25.31-5 1-.5-.17-.5-.17-3-1l-1-2c-.17.33-.17.33-1 2-.5.16-.5.16-3 1-.17.33-.17.33-1 2-.51.06-.51.06-3.06.37-.97.21-1.94.42-2.94.63v4c-2.25 1.81-2.25 1.81-4 3 .56-.25 1.11-.5 1.69-.75.76-.08 1.52-.17 2.31-.25 1.07 2.84 1.42 4.08 1 7-2.3 3.83-5.6 6.65-8.94 9.56-2.06 2.44-2.06 2.44-2.03 5.17 1.27 4.29 3.48 6.71 6.47 9.96 1.09 1.23 2.19 2.46 3.28 3.69.54.6 1.09 1.21 1.65 1.84 2.99 3.39 5.8 6.94 8.63 10.47 1.94 2.31 1.94 2.31 4.31 4.36.54.65 1.08 1.29 1.63 1.95-.91 4.16-4.8 7.42-7.56 10.56-1.09 1.25-2.17 2.49-3.25 3.74-.54.62-1.07 1.24-1.63 1.88-3.01 3.51-5.91 7.11-8.82 10.71-1.74 2.11-1.74 2.11-3.74 4.11-.66 5.12-.66 5.12 0 8 2.69 2.25 2.69 2.25 6 4l2.5 2.25c2.5 1.75 2.5 1.75 5.31 2.44 4.93-1.07 7.63-4.27 11.19-7.69 1.39-1.22 2.79-2.42 4.19-3.63 3.06-2.68 6-5.42 8.81-8.37.68-.7 1.37-1.4 2.07-2.12 3.67-3.91 3.67-3.91 4.93-5.88-2.75.25-2.75.25-6 1 1-1.94 1-1.94 3-4h2l.94-1.88c1.06-2.12 1.06-2.12 4.06-4.12l-1 2.94-1 3.06c6.12-2.04 11.01-9.5 14-15 .69-2.94.69-2.94 0-6-1.47-1.82-3.04-3.35-4.79-4.9-1.87-1.78-3.49-3.57-5.16-5.53-5.26-6.08-11.04-11.66-16.74-17.32-1.14-1.14-2.28-2.27-3.41-3.4-2.09-2.08-4.17-4.16-6.26-6.23-.87-.86-1.74-1.73-2.64-2.62-.81-.78-1.61-1.56-2.44-2.36-.26-.27-.26-.27-1.56-1.64 4.57.29 8.66 2.71 12.06 5.56 1.94 2.44 1.94 2.44 1.94 4.44h2v2c.3.07.3.07 1.81.44 2.59.66 3.57 1.45 5.19 3.56v3c.58.1 1.15.2 1.75.31 3.47 1.06 4.37 3.69 6.25 6.69l2.25 2.25 1.75 1.75v2c1.87.56 1.87.56 4 1l2 1v2c.49.16.49.16 3 1 3.47 3.78 5.96 7.07 6.03 12.33-.34 5.67-1.28 9.35-5.03 13.67h-2v3h-3v2c-.5.16-.5.16-3 1-1.75 1.78-1.75 1.78-3.56 3.94-5.09 6.02-5.09 6.02-8.44 6.37-.99.23-1.98.46-3 .69a74 74 0 0 0-2 5c-1.41 1.33-1.41 1.33-3.06 2.62-2.94 2.38-2.94 2.38-3.94 5.38-1.97 1.37-3.98 2.7-6 4l-1.69 1.75c-1.31 1.25-1.31 1.25-4.31 1.25v2c-2.05.08-2.05.08-4.75-.19-.88-.07-1.76-.15-2.67-.23-2.89-.65-4.31-1.73-6.58-3.58l-3-1v-2h-2c-2.97-6.52-3.86-11.87-2.19-18.94.39-1.01.79-2.02 1.19-3.06h3l-1-3c1.19-1.69 1.19-1.69 3-3h4v-3h2l1-2 1-2h2c-.17-.66-.33-1.32-.5-2-.17-.66-.33-1.32-.5-2h2c1.75-2.06 1.75-2.06 3-5-.63-3.75-.63-3.75-2-7-.5-.17-.5-.17-3-1-4.23-4.09-7.79-9.09-11-14v-3h-2v-2l-3.38.06-3.62-.06c-2-3-2-3-3-6l-3 1-3-2c-.33.16-.33.16-2 1-1.63-1.31-1.63-1.31-3-3v-2c2.69-2.19 2.69-2.19 6-4 2.81.31 2.81.31 5 1l1-1-3-2c3-1 3-1 6-1 .16-.33.16-.33 1-2-.7.04-1.4.08-2.13.12-3.74-.16-5.34-1.43-7.87-4.12.64-.13 1.28-.25 1.94-.38.68-.2 1.36-.41 2.06-.62-1.26-2.05-2.6-4.05-4-6 .16-.33.16-.33 1-2h-3v2c-2.08.41-4.14.51-6.25.66-.58.11-1.16.22-1.75.34v2c.87-.25 1.73-.5 2.62-.75.79-.08 1.57-.17 2.38-.25-.5 3.06-.5 3.06-2 6l-3-2-2.69.06-2.31-.06v-3c-2.69-.31-2.69-.31-5 0l3 2v3c-2.44-.13-2.44-.13-5-1-.17-.5-.17-.5-1-3 .22 2.25.54 4.49.84 6.73.16 2.27.16 2.27-.84 4.27-2-.69-2-.69-4-2-.17-.5-.17-.5-1-3-1.37.95-2.7 1.96-4 3h-3c-.44-2.25-.44-2.25 0-5 1.87-2.06 1.87-2.06 4-4 .13-.37.13-.37.81-2.25.39-.58.79-1.16 1.19-1.75 3.37-.13 3.37-.13 7 .001 1.34-.65 2.67-1.32 4-2l3.06.06c2.94-.06 2.94-.06 4.69-1.56.41-.5.82-.99 1.25-1.5h2l2 2c.27-2.07.27-2.07.25-5.13 0-.99.01-1.98.02-3-.27-2.87-.27-2.87-1.41-5.05-.28-.6-.57-1.2-.86-1.82l2-3c2.2 2.2 2.52 3.36 3.25 6.31.25.89.49 1.77.75 2.69-.12-1.69-.33-3.38-.56-5.06-.15-1.09-.29-2.17-.44-3.29-.17-.44-.17-.44-1-2.65-2.65-.251-2.65-.251-5 0l1-2h4v-3a93 93 0 0 0-5 0c3-2 3-2 5-2 .37-2.38.37-2.38 0-5-2.31-1.31-2.31-1.31-4-2 .72.08 1.44.16 2.19.25l2.81-.25c.56-2.69.56-2.69 1-6 2.99-4.64 2.99-4.64 5.87-5.68 6.37-.97 12.05 1.85 17.11 5.46"/><path fill="#b48e76" d="M84.406 34.254c.53.25 1.05.49 1.59.75-1.29 1.19-1.29 1.19-3.62 2.56-.76.45-1.51.91-2.29 1.38-2.09 1.06-2.09 1.06-4.09 1.06-1.24 2.4-1.96 4.52-2.14 7.23-.26 2.67-.5 4.43-1.86 6.77-3.13 1.21-6.02 1.74-9.34 2.17-.88.27-1.75.54-2.66.83-.71 2.54-.71 2.54-1 5-1.66.34-3.33.67-5 1-5.73 10.39-1.44 26.37 1.58 37.04 1.48 6.86.92 13.39-1.76 19.83-1.96 4.78-1.96 4.78-.57 8.13.58.99 1.16 1.98 1.75 3 .5 5.1.25 10.1-.75 15.12-.08.95-.16 1.9-.25 2.88 1.88.75 1.88.75 4 1l1 3c-.33.16-.33.16-2 1-.3 1.84-.3 1.84-.43 4.06-.1.65-.1.65-.57 3.94h-3c-.04-2.37-.04-2.37.38-5.44.24-1.85.46-3.71.62-5.56l-1-1c-.34 3.29-.28 6.62-.31 9.93l-.09 2.85c-.05 6.21.7 11.09 4.4 16.22 3.82 2.81 6.73 3.04 11.32 3.12 2.62.18 2.62.18 4.68.88.85 2.31.82 4.25.82 6.7.18 2.3.18 2.3 2.43 5.23 5.89 4.42 10.99 4.22 18.05 3.64 2.09-.09 2.09-.09 5.7.43 1.91 2.9 1.91 2.9 3 6 2.43 3.23 5.16 3.93 9 5 2.82.34 5.63.44 8.46.52.8.02 1.59.05 2.4.08 1.66.05 3.32.1 4.98.14 2.55.07 5.11.16 7.66.26 1.61.05 3.23.1 4.84.14l2.33.09c2.12.05 2.12.05 5.33-.23v-3c-2.18-.23-2.18-.23-5-.07-2.81.16-2.81.16-5 .07v-2c3.16-.29 6.3-.32 9.48-.37.83-.21 1.66-.42 2.52-.63.12-2.55.12-2.55-1-5h-4c-2-3-2-3-2-6 1.69.61 3.35 1.29 5 2 2.49.68 4.39.94 7 1-.06-2.44-.06-2.44-2-5-2.75-.43-5.2-.18-8-.00009374999999067768v-1c1.14.08 2.27.16 3.44.25 1.18-.09 2.35-.17 3.56-.25.88-2.5.88-2.5 1-5h1c.15 1.11.29 2.22.44 3.37.56 3.63.56 3.63 2.56 5.63 7.15.56 7.15.56 10.07-1.38.15-.27.15-.27.93-1.62l-1-2c.11-.95.21-1.9.32-2.88-.11-1.03-.21-2.06-.32-3.12-2.93-2.13-2.93-2.13-6-4-1-2.25-1-2.25-1-4h2l.94 2 1.06 2c3 0 3 0 5-1l1-3c1.34.3 2.68.63 4 1l2-2c1.06 1.63 2.06 3.3 3 5l2 1v2h4v2c-.51.47-1.03.94-1.56 1.43-.47.52-.95 1.03-1.44 1.57l1 3c-.86.31-1.73.61-2.62.93-.78.35-1.57.7-2.38 1.07.75 2.12.75 2.12 3 4 5.96.52 5.96.52 9-1 .08-.34.08-.34.44-2.07.19-.64.37-1.28.56-1.93h3c-.5-2.38-.5-2.38-2-5a80 80 0 0 0-5-2l2-2-2-2 1-2c.19-3 .19-3 0-6l-2-2-3.43.12c-3.57-.12-3.57-.12-5.5-2-1.07-2.12-1.07-2.12-1.07-4.12.68.22 1.37.45 2.07.68.32.06.32.06 1.93.32-.31-2.32-.31-2.32-1-5l1-2 3 1c.31.88.62 1.77.94 2.68.35.77.7 1.53 1.06 2.32 1.94-.38 1.94-.38 4-2 .52-.93 1.03-1.86 1.57-2.82.47-.72.94-1.44 1.43-2.18 1.69 1.12 1.69 1.12 3 3v1c2.44.25 2.44.25 5-.0003749999999627107l1-3 3 1c.33 3.05.33 3.05.25 6.87-.01 1.26-.03 2.51-.04 3.81-.21 3.32-.21 3.32-1.21 6.32.66-.52 1.32-1.04 2-1.57.66-.47 1.32-.95 2-1.43.13 1.62.13 1.62-1 4-3 1.68-3 1.68-6 3l-1 1c4.42-.39 6.89-1.89 10-5 4.38-6.94 3.92-15.6 2.58-23.49-.34-1.41-.69-2.83-1.06-4.24-1.73-7.58-2.24-14.93.48-22.27l3-2c-.46 1.85-.93 3.69-1.43 5.54-1.53 6.66-.6 12.74.93 19.33 2.05 9.02 3.21 17.66-1.17 26.15-2.56 3.81-5.75 7.4-10.37 8.43-.32.05-.32.05-1.96.3-.99.41-1.98.82-3 1.25-.39 3.41-.23 6.76 1 10 .27-.54.53-1.07.8-1.62 1.2-2.38 1.2-2.38 3.19-3.29.77-.2 1.54-.39 2.33-.59 7.23-2.2 10.15-5.78 13.67-12.29 1.8-3.94 2.13-7.31 2.08-11.64l-.03-3.1c-.01-1.06-.02-2.13-.04-3.22l-.06-6.36-.03-2.85.09-2.04h1c2.77 9.63 2.8 24.05-1.74 33.02-4.42 6.95-8.51 10.1-16.26 12.98-2 1-2 1-3.37 4.43-1.63 3.57-1.63 3.57-3.66 4.44-1.97 1.13-1.97 1.13-2.72 3.66-.13.98-.25 1.96-.37 2.97-.69 5.31-.69 5.31-2.88 7.5-4.12-.28-7.36-.77-11.25-2.19-2.75-.81-2.75-.81-4.62-.06-.7.41-1.4.82-2.13 1.25-1.9.46-3.81.93-5.72 1.36-2.28.64-2.28.64-4.36 1.6-8.86 4.05-17.97 3.64-27.51 3.56-2.9-.02-5.79 0-8.69.02-19.4.03-19.4.03-26.72-4.54-1.75-1.9-1.75-1.9-3.12-3.75-2.34-3.15-2.34-3.15-4.88-3.63-1.53.04-3.05.13-4.56.24-5.77.32-10.86-.88-15.75-3.93-2.37-2.59-3.45-4.35-4.94-7.43-2.47-4.86-5.38-6.09-10.24-8.2-6.47-3.36-10.26-9.57-12.51-16.3-1.92-8.06-1.01-15.92.57-23.94 1.6-8.87 2.59-16.22-2.57-24.06-.86-4.81 1.35-7.14 4-11 1.39-4.44.79-8.61.19-13.13-.09-.76-.19-1.51-.28-2.3-.53-4.12-1.19-8.18-2.03-12.26-2.12-11.18-2.04-23.02 4.19-32.88 1.93-2.43 1.93-2.43 3.93-3.43v3c2.19.93 2.19.93 5 1 .75-.64 1.49-1.28 2.25-1.94 3.15-2.36 3.82-2.21 7.57-1.94 2.38.1 2.38.1 4.18-.12.19-2.44.19-2.44 0-6 2.65-5.5 7.44-13.49 14.41-12.75"/><path fill="#b5907a" d="M213 125l1 2c-.31.83-.62 1.65-.94 2.5-2.13 7.03-1.21 13.3.44 20.38 2.05 9.02 3.2 17.66-1.17 26.15-2.57 3.81-5.75 7.39-10.37 8.43-.33.05-.33.05-1.96.29-.99.41-1.98.82-3 1.25-.39 3.42-.24 6.76 1 10 .26-.53.53-1.07.8-1.62 1.2-2.38 1.2-2.38 3.19-3.29.77-.19 1.53-.39 2.32-.59 7.23-2.2 10.16-5.78 13.67-12.28 1.81-3.95 2.14-7.32 2.08-11.64-.01-1.03-.01-2.05-.02-3.11s-.03-2.12-.04-3.22q-.045-3.18-.06-6.36c-.01-.94-.03-1.88-.04-2.84.03-.68.07-1.35.1-2.05h1c2.76 9.64 2.8 24.05-1.75 33.03-4.41 6.95-8.51 10.09-16.25 12.97-2 1-2 1-3.38 4.44-1.62 3.56-1.62 3.56-3.65 4.44-1.97 1.12-1.97 1.12-2.73 3.65-.12.98-.24 1.96-.36 2.97-.69 5.31-.69 5.31-2.88 7.5-4.13-.28-7.37-.77-11.25-2.19-2.75-.81-2.75-.81-4.63-.06-.7.41-1.4.82-2.12 1.25-1.91.47-3.81.93-5.73 1.36-2.27.64-2.27.64-4.35 1.61-8.87 4.04-17.97 3.64-27.52 3.55-2.89-.02-5.79 0-8.69.03-19.39.03-19.39.03-26.71-4.55-1.75-1.9-1.75-1.9-3.12-3.75-2.35-3.15-2.35-3.15-4.89-3.63-1.52.05-3.04.13-4.56.25-5.77.31-10.86-.89-15.74-3.93-2.38-2.6-3.46-4.36-4.94-7.44-2.48-4.85-5.38-6.09-10.25-8.2-6.47-3.36-10.25-9.56-12.5-16.3-2.13-8.92-1.05-18.15 1-27h1c-.15 2.23-.35 4.46-.56 6.69-.94 11.85.22 21.59 7.75 31.06 2.79 2.23 3.92 2.6 7.25 3.37 3.26.93 4.32 1.53 6.26 4.37a103 103 0 0 1 2.72 5.82c2.08 3.54 3.89 4.87 7.58 6.69 3.81.53 7.62.37 11.46.22 2.35.02 4.28.1 6.54.78 1.51 1.59 2.52 3.23 3.64 5.12 2.38 3.29 5.57 4.61 9.36 5.88 3.65.55 7.24.59 10.93.57 1.03 0 2.06.01 3.12.02 2.17 0 4.34 0 6.51-.01 3.3-.02 6.59.02 9.89.05 2.12.01 4.24 0 6.35 0 .49.01.49.01 2.95.04 7.69-.1 14.69-2.11 20.25-7.67v-4c3.81-.06 3.81-.06 5.96.15 2.04-.15 2.04-.15 3.8-1.31 1.69-2.51 1.44-4.17 1.24-7.15-.19-2.8-.19-2.8 0-4.69l3 2c6.33.33 6.33.33 9-1 .14-.68.29-1.36.44-2.06.18-.64.37-1.28.56-1.94h3c-.5-2.38-.5-2.38-2-5-1.65-.71-3.31-1.39-5-2l2-2-2-2 1-2c.19-3 .19-3 0-6l-2-2-3.44.12c-3.56-.12-3.56-.12-5.5-2C176 167 176 167 176 165c.68.23 1.36.45 2.06.69.64.1 1.28.2 1.94.31-.31-2.31-.31-2.31-1-5l1-2 3 1c.31.89.62 1.77.94 2.69.35.76.7 1.52 1.06 2.31 1.94-.38 1.94-.38 4-2 .52-.93 1.03-1.86 1.56-2.81.48-.72.95-1.45 1.44-2.19 1.69 1.12 1.69 1.12 3 3v1c2.44.25 2.44.25 5 0l1-3 3 1c.33 3.05.33 3.05.25 6.88-.02 1.25-.03 2.51-.05 3.8C204 174 204 174 203 177c.66-.52 1.32-1.03 2-1.56.66-.48 1.32-.95 2-1.44.12 1.62.12 1.62-1 4-3 1.69-3 1.69-6 3l-1 1c4.42-.39 6.89-1.89 10-5 4.37-6.93 3.92-15.59 2.58-23.48-.34-1.42-.7-2.83-1.06-4.24-1.74-7.64-2.13-14.86.48-22.28Z"/><path fill="#bd9679" d="M128 69c4.57.29 8.66 2.71 12.06 5.56C142 77 142 77 142 79h2v2c.6.14 1.2.29 1.81.44 2.59.66 3.57 1.46 5.19 3.56v3c.58.1 1.16.21 1.75.31 3.47 1.06 4.37 3.69 6.25 6.69.74.74 1.49 1.48 2.25 2.25L163 99v2c1.88.56 1.88.56 4 1 .33.16.33.16 2 1v2l3 1c3.47 3.78 5.96 7.07 6.04 12.33-.35 5.67-1.29 9.35-5.04 13.67h-2v3h-3v2l-3 1c-1.75 1.78-1.75 1.78-3.56 3.94-5.09 6.02-5.09 6.02-8.44 6.37-.99.23-1.98.46-3 .69a74 74 0 0 0-2 5c-1.41 1.34-1.41 1.34-3.06 2.62C142 159 142 159 141 162c-1.97 1.37-3.98 2.7-6 4-.56.58-1.11 1.16-1.69 1.75C132 169 132 169 129 169v2c-2.05.08-2.05.08-4.75-.19-.88-.07-1.76-.15-2.67-.23-2.89-.65-4.31-1.73-6.58-3.58l-3-1v-2h-2c-2.97-6.52-3.86-11.86-2.19-18.94.39-1.01.79-2.02 1.19-3.06h3l-1-3c1.19-1.69 1.19-1.69 3-3h4v-3h2l1-2 1-2h2c-.16-.66-.33-1.32-.5-2-.16-.66-.33-1.32-.5-2h2c1.75-2.06 1.75-2.06 3-5-.62-3.75-.62-3.75-2-7-.5-.16-.5-.16-3-1-4.23-4.09-7.79-9.09-11-14v-3h-2c-2.14-4.77-3.65-8.69-3-14l2-1c-.1.78-.21 1.57-.31 2.38.48 5.57 3.74 8.48 7.31 12.62.88 1.05 1.76 2.1 2.63 3.15 4.89 5.84 9.83 11.54 15.2 16.95.39.63.77 1.25 1.17 1.9-1.03 4.18-4.77 7.39-7.56 10.56-1.09 1.25-2.17 2.49-3.25 3.74-.54.62-1.07 1.24-1.63 1.88-3.01 3.51-5.91 7.11-8.82 10.71C112 146 112 146 110 148c-.66 5.12-.66 5.12 0 8 2.69 2.25 2.69 2.25 6 4 .83.74 1.65 1.49 2.5 2.25 2.5 1.75 2.5 1.75 5.31 2.44 4.93-1.07 7.63-4.26 11.19-7.69 1.39-1.22 2.79-2.42 4.19-3.62 3.06-2.69 6-5.43 8.81-8.38.68-.7 1.37-1.4 2.07-2.12 3.67-3.91 3.67-3.91 4.93-5.88-2.75.25-2.75.25-6 1 1-1.94 1-1.94 3-4h2l.94-1.88C156 130 156 130 159 128l-1 2.94c-.16.5-.16.5-1 3.06 6.12-2.04 11.01-9.5 14-15 .69-2.94.69-2.94 0-6-1.46-1.82-3.03-3.35-4.79-4.9-1.87-1.78-3.49-3.57-5.16-5.53-5.26-6.08-11.03-11.66-16.74-17.32-1.14-1.13-2.28-2.27-3.41-3.4l-6.26-6.23c-.87-.86-1.74-1.73-2.64-2.62-.8-.78-1.61-1.55-2.44-2.35-.51-.55-1.03-1.09-1.56-1.65"/><path fill="#ebd4bd" d="M44 157h1c.16.91.33 1.81.5 2.75.16.74.33 1.49.5 2.25.34-1.33.68-2.66 1-4h2c.49 2.56.49 2.56.88 6 1.04 7.34 2.4 13.11 8.31 17.94 2.96 1.96 5.1 2.25 8.62 2.31 2.32.13 2.32.13 4.19.75 1 2.24 1.25 4.27 1.55 6.7.69 3.52 2.73 5.12 5.45 7.3 2.39 1.19 3.57 1.01 6.21.82l2.52-.12c1.76-.09 3.51-.21 5.26-.35 2.55-.1 4.56-.1 7.01.65 1.42 1.94 2.11 3.66 2.78 5.97 1.92 3.2 4.76 4.12 8.22 5.03 3.22.4 6.41.44 9.65.44.45.01.45.01 2.73.04 2.85.04 5.7.06 8.56.08 2.88.03 5.75.05 8.63.09 1.79.03 3.57.04 5.36.05 2.02.02 4.05.15 6.07.3v2c.62.14 1.24.29 1.88.44C155 215 155 215 157 218h-2v2c-1.76.27-1.76.27-4.26.31-.94.01-1.87.03-2.83.04-.51.01-.51.01-3.09.02l-3.17.03-6.66.03c-3.38.01-6.76.06-10.14.11-2.15.01-4.31.01-6.47.02l-3.04.06c-6.9-.05-11.75-1.51-17.34-5.62-4-4.2-4-4.2-4-7-3.68-.02-7.32.11-10.99.34-5.29.17-8.46-.54-12.6-3.94-1.88-1.86-3.16-3.72-4.35-6.09-.4-.76-.8-1.53-1.21-2.32C64 194 64 194 64 192c-1.79-.46-1.79-.46-4.19-.81-4.65-.94-6.76-2.45-9.81-6.19-.72-.8-1.44-1.61-2.19-2.44-4.71-6.66-5.24-15.31-4.43-23.25.2-.76.41-1.52.62-2.31"/><path fill="#c4b19d" d="M219 59c4.13 4.13 4 10.33 4.01 15.91-.26 7.12-1.07 13.94-2.57 20.9-3.5 16.3-3.5 16.3.5 23.19l2.06 3c.9 2.35 1.26 3.42.22 5.75-.38.6-.76 1.2-1.16 1.81-3.43 6.38-2.35 13.1-1.56 20.06 1.47 13.45 1.95 25.55-6.82 36.61-2.67 2.81-5.12 4.21-8.68 5.77h-5c-.69 1.94-.69 1.94-1 4l-2 1c-1.3-3.69-1.69-7.15-1-11 2.36-1.66 4.58-2.25 7.35-3.05 5.14-1.84 7.62-5.94 10.03-10.64 1.7-9.04.35-17.12-1.7-25.99-1.3-6.36-1.12-11.94.51-18.2.97-3.83.97-3.83-.5-6.5-.56-.53-1.12-1.07-1.69-1.62-.9-2.7-1.16-4.47-1.25-7.27-.03-.8-.06-1.61-.1-2.44-.06-1.71-.11-3.42-.17-5.13-.09-2.06-.27-4.11-.48-6.16-.33.16-.33.16-2 1 .49-7.49.49-7.49 3-10v5h2c.46-2.36.77-4.61 1-7 .08-.78.16-1.56.25-2.36.34-3.41.68-6.82 1-10.23.21-2.14.48-4.28.75-6.41h1c.06 1.71.06 3.41.03 5.12-.02 1.03-.03 2.05-.04 3.11-.02 1.06-.04 2.12-.05 3.21-.03 3.19-.02 6.37.06 9.56.56-2.76.83-5.54 1.11-8.33.09-.78.17-1.56.26-2.36.03-.37.03-.37.22-2.26C217 75 217 75 219 72c.41 2.49.41 2.49.62 5.88.22 2.89.22 2.89.38 4.12.08-2.5.11-5 .12-7.5.01-.8.01-1.6.02-2.42-.01-3.72-.15-7.12-.77-10.8-.12-.75-.25-1.5-.37-2.28"/><path fill="#e4a1ab" d="M165.375 15.188c3.94 4.39 2.84 11.81 2.88 17.38l.06 2.86c0 .46 0 .46.01 2.76.01.42.01.42.03 2.51-.44 2.85-1.39 4.22-3.36 6.3-8.07 1.72-16.66-.56-24-4-1.96-1.65-1.96-1.65-3-3 2.68.25 4.96.98 7.44 2 5.43 2.12 11.77 2.76 17.56 2v-2c-5.21-3.04-11.55-2.32-17.4-2.3-4.4-.11-4.4-.11-6.6-.7-1.01-2.64-1.01-2.64-1-5-.93 1.63-.93 1.63-2 4-.65.33-1.31.66-2 1-.33-.99-.65-1.98-1-3-2.5-.37-2.5-.37-5-.0005000000000165983-.32.99-.65 1.98-1 3-.98-.33-1.98-.66-3-1a82 82 0 0 1 0-8c0-4 0-4-1-6 1.68-.24 1.68-.24 4.18-.24.89-.01 1.78-.03 2.7-.04 1.9-.02 3.8-.03 5.7-.02 2.56-.06 4.92-.15 7.42-.7 1.85-2.4 1.85-2.4 3-5 5.73-3.49 13.07-5.96 19.38-2.81"/><path fill="#da9696" d="M175 175c1.37 1.64 2.7 3.31 4 5l2 1v2h4v2c-.52.47-1.03.95-1.56 1.44-.48.51-.95 1.03-1.44 1.56.16.5.16.5 1 3-.82.31-1.65.62-2.5.94-.82.35-1.65.7-2.5 1.06.19 1.62.19 1.62 1 4 .48 4.04.63 6.99-1.56 10.5-3.22 1.98-5.73 1.5-9.44 1.5-.69 2.06-.69 2.06-1 4-2.12-.2-3.47-.47-5-2-.08.64-.16 1.28-.25 1.94-.25.68-.5 1.36-.75 2.06-2.5.56-2.5.56-5 0-.75-2.56-.75-2.56-1-5l-1 1c-3.06.25-3.06.25-6 0v-3c-2.19-.22-2.19-.22-5-.06-2.81.15-2.81.15-5 .06v-2c3.16-.28 6.3-.32 9.47-.36.42-.11.42-.11 2.53-.64.12-2.54.12-2.54-1-5h-4c-2-3-2-3-2-6 1.69.61 3.35 1.3 5 2 2.48.69 4.39.95 7 1-.06-2.44-.06-2.44-2-5-2.75-.43-5.2-.18-8 0v-1c1.13.08 2.27.16 3.44.25 1.17-.08 2.35-.16 3.56-.25.88-2.5.88-2.5 1-5h1c.14 1.11.29 2.23.44 3.38C155 193 155 193 157 195c7.15.57 7.15.57 10.06-1.38.16-.26.16-.26.94-1.62l-1-2c.1-.95.21-1.9.31-2.88-.1-1.03-.2-2.06-.31-3.12-2.94-2.12-2.94-2.12-6-4-1-2.25-1-2.25-1-4h2c.15.33.15.33.94 2l1.06 2c3 0 3 0 5-1l1-3c1.34.29 2.68.63 4 1Z"/><path fill="#0b0b08" d="M44 149h1c-.15 2.23-.35 4.46-.56 6.69-.94 11.85.22 21.59 7.75 31.06 2.79 2.23 3.92 2.6 7.25 3.37 3.26.93 4.32 1.53 6.26 4.37a103 103 0 0 1 2.72 5.82c2.08 3.54 3.89 4.87 7.58 6.69 3.81.53 7.62.37 11.46.22 2.35.02 4.28.1 6.54.78 1.51 1.59 2.52 3.23 3.64 5.12 2.38 3.29 5.57 4.61 9.36 5.88 3.65.55 7.24.59 10.93.57 1.03 0 2.06.01 3.12.02 2.17 0 4.34 0 6.51-.01 3.3-.02 6.59.02 9.89.05C139.57 219.64 141.69 219.63 143.8 219.63c.49.01.49.01 2.95.04 7.69-.1 14.69-2.11 20.25-7.67v-4c3.81-.06 3.81-.06 5.96.15 2.04-.15 2.04-.15 3.81-1.31 1.69-2.54 1.37-4.22 1.11-7.22-.08-2.69-.08-2.69.12-4.62 2.06.81 2.06.81 5 3 1.26.12 2.52.25 3.81.38 1.05.2 2.11.41 3.19.62.88 2.62.88 2.62 0 5-.62-.09-.62-.09-3.75-.56-1.07-.15-2.15-.29-3.25-.44 1.62 2.81 1.62 2.81 4 6l-1 2c-.47-.7-.95-1.4-1.44-2.12-.51-.62-1.03-1.24-1.56-1.88-1.48 2.02-2 3.49-2 6 3.26 1.42 6.43 2.31 10 2 .19-3.88.19-3.88-.11-6.42.17-4.12 2.64-5.93 5.45-8.73 1.66-1.85 1.66-1.85 2.54-5.16 1.12-2.69 1.12-2.69 3.05-3.58 1.6-.5 3.21-.97 4.82-1.42 6.03-1.85 8.4-6.24 11.23-11.47 1.81-3.95 2.14-7.32 2.08-11.64-.01-1.03-.01-2.05-.02-3.11s-.03-2.12-.04-3.22q-.045-3.18-.06-6.36c-.01-.94-.03-1.88-.04-2.84.03-.68.07-1.35.1-2.05h1c2.76 9.64 2.8 24.05-1.75 33.03-4.41 6.95-8.51 10.09-16.25 12.97-2 1-2 1-3.38 4.44-1.62 3.56-1.62 3.56-3.65 4.44-1.97 1.12-1.97 1.12-2.73 3.65-.12.98-.24 1.96-.36 2.97-.69 5.31-.69 5.31-2.88 7.5-4.13-.28-7.37-.77-11.25-2.19-2.75-.81-2.75-.81-4.63-.06-.7.41-1.4.82-2.12 1.25-1.91.47-3.81.93-5.73 1.36-2.27.64-2.27.64-4.35 1.61-8.87 4.04-17.97 3.64-27.52 3.55-2.89-.02-5.79 0-8.69.03-19.39.03-19.39.03-26.71-4.55-1.75-1.9-1.75-1.9-3.12-3.75-2.35-3.15-2.35-3.15-4.89-3.63-1.52.05-3.04.13-4.56.25-5.77.31-10.86-.89-15.74-3.93-2.38-2.6-3.46-4.36-4.94-7.44-2.48-4.85-5.38-6.09-10.25-8.2-6.47-3.36-10.25-9.56-12.5-16.3-2.13-8.92-1.05-18.15 1-27"/><path fill="#e8cdb6" d="M153 181c4.43.43 4.43.43 6 2 .95-.21 1.9-.41 2.88-.62 3.12-.38 3.12-.38 5 .74 1.46 2.45 1.33 4.07 1.12 6.88v3c-1 1.69-1 1.69-3 3-3.58.56-6.8.74-9.94-1.19-1.29-2.2-1.68-4.3-2.06-6.81 0 4 0 4 1.44 6.75.18.74.37 1.49.56 2.25-4.2.69-6.42.36-10.06-1.88L143 194c.44 2.81.44 2.81 2 6h4c.94 2.44.94 2.44 1 5-3.54 1.18-6.35.99-10.04.84-.32.03-.32.03-1.96.16l-1 2v-2l-3 2c-3.39.3-3.39.3-7.25.31-.64.01-.64.01-3.89.05-.94-.12-1.89-.24-2.86-.36.17-.5.17-.5 1-3l2-1-1.38-1.38L120 201c0-3.2.34-4.34 2-7 3.43-3 3.43-3 6-3 .16-1.2.33-2.39.5-3.62.16-1.12.33-2.23.5-3.38l2 2 2-2 2 2 1.69-1.75c.21-.21.21-.21 1.31-1.25l-.94 3.06L137 189c2.65-.59 4.93-1.68 7.39-2.82 2.61-1.18 2.61-1.18 4.82-1.64C151 184 151 184 153 181"/><path fill="#f8bfc8" d="M117.195 18.441c3.02 2.61 5.6 5.72 6.8 9.56-.69 2.31-.69 2.31-2 4l-3-1v2h4c.53 2.46.53 2.46 0 5-1.83.64-1.83.64-4.38.67-.46.01-.46.01-2.79.07-.97.01-1.95.01-2.95.01-1.9.03-3.8.07-5.7.11-.44.01-.44.01-2.71.05-2.91.1-5.65.35-8.47 1.09v2h-2c-.2-3.06-.27-6.01-.25-9.06 0-.85-.01-1.7-.02-2.57.04-12.14.04-12.14 4.27-16.37 6.59-2.35 13.7.72 19.2 4.44"/><path fill="#ddbca2" d="M70 159c2.06.12 2.06.12 4 1 .36 2.81.27 4.46-1 7l3-1c.35 2 .68 4 1 6l3 1c-.23-1.18-.45-2.35-.69-3.56-.1-1.14-.2-2.27-.31-3.44 2.69.62 2.69.62 6 2 2.67-.31 4.1-1.06 6.44-2.44.26-.09.26-.09 1.56-.56-.95 2.03-1.95 4.02-3 6 2-1 2-1 2.94-3.31.17-.28.17-.28 1.06-1.69 1.75 1.38 1.75 1.38 3 4-.77 3.5-1.46 5.46-4 8v-2l-2-1 1-3c-2.62-1.12-2.62-1.12-5-1 1.19 3.06 1.19 3.06 2.15 5.02 1.19 2.77 1.19 5.01.85 7.98l-2 3c-3.56.25-3.56.25-7 0-1-1-1-1-1.31-4 .1-.99.2-1.98.31-3 1.94-1.06 1.94-1.06 4-1l1 3h-3v2c2.5 1 2.5 1 5 1 .44-2.81.44-2.81 0-6-2.47-2.47-3.52-2.33-6.94-2.56-2.97-.22-5.21-.49-8.06-1.44-2.52 2.14-4.16 4.24-6 7v-2c-2-.35-4-.69-6-1l-3-2v-3c-.66-.6-1.32-1.2-2-1.81-2-2.19-2-2.19-2.5-5.31.5-2.88.5-2.88 2.31-4.26C57 162 57 162 60 162v-2c1.81.12 1.81.12 4 1 .54.78 1.07 1.57 1.62 2.38.46.53.91 1.07 1.38 1.62 1.12-2.19 1.12-2.19 2-5Z"/><path fill="#e6cbb3" d="M59 113h1c-.61 7.27-.61 7.27-2.19 10.19C57 125 57 125 57.81 128c.2.33.2.33 1.19 2 .1-.54.21-1.07.31-1.62.12-.4.12-.4.69-2.38 1.66-.36 3.33-.7 5-1v-3h2l-.06 2.38L67 127l3 2-1 3h-3v2c-1.34-.32-2.67-.66-4-1l1 2c2.77.21 4.5.25 7-1v4c-.64-.16-1.28-.33-1.94-.5-.68-.16-1.36-.33-2.06-.5-.56 1.94-.56 1.94-1 4h-3l1 2h12c-.97 1.03-1.98 2.02-3 3l-1 2.12C70 150 70 150 67 151c-.88 2.12-.88 2.12-1 4 .5-.16.5-.16 3-1-.01 3.14-.66 6.16-2 9-2.54-2.08-3.79-4.03-4.5-7.25-.16-.58-.33-1.16-.5-1.75-1.32-.37-2.66-.71-4-1-.16-.5-.16-.5-1-3l-3-1c-.18-3.72-.06-7.32.12-11.04.12-4.05.05-7.12-1.69-10.84C51 124 51 124 52.12 120.62 54 118 54 118 57 117c1.12-2.06 1.12-2.06 2-4"/><path fill="#eed6bf" d="M212 142l1 2c.8-.06 1.61-.12 2.44-.19.84.06 1.69.13 2.56.19 4.73 8.04 4.13 21.61 2.54 30.61-2.14 6.3-6.42 12.37-12.1 15.89-3.32 1.45-4.96 1.5-8.44 1.5-.69 1.94-.69 1.94-1 4-.33.16-.33.16-2 1-1.3-3.69-1.69-7.15-1-11 2.36-1.66 4.58-2.25 7.35-3.05 5.14-1.84 7.62-5.94 10.03-10.64 1.46-7.78.92-15.39-.94-23.06-.48-2.46-.59-4.74-.44-7.25"/><path fill="#c5a086" d="M128 69c4.57.29 8.66 2.71 12.06 5.56C142 77 142 77 142 79h2v2c.6.14 1.2.29 1.81.44 2.59.66 3.57 1.46 5.19 3.56v3c.58.1 1.16.21 1.75.31 3.47 1.06 4.37 3.69 6.25 6.69.74.74 1.49 1.48 2.25 2.25L163 99v2c1.88.56 1.88.56 4 1 .33.16.33.16 2 1v2l3 1c3.47 3.78 5.96 7.07 6.04 12.33-.35 5.67-1.29 9.35-5.04 13.67h-2v3h-3v2l-3 1c-1.75 1.78-1.75 1.78-3.56 3.94-5.09 6.02-5.09 6.02-8.44 6.37-.99.23-1.98.46-3 .69a74 74 0 0 0-2 5c-1.88 2.01-3.72 3.4-6 5l-1-2h2c.11-.56.22-1.11.34-1.69 1.37-4.8 6.02-8.15 9.49-11.58 1.48-1.48 2.94-2.97 4.4-4.46l2.82-2.82c.85-.85 1.71-1.71 2.58-2.59C165 132 165 132 169 132c1.06-2.31 1.06-2.31 2-5 .26-.23.26-.23 1.55-1.38C174 124 174 124 174.32 121.8c-.5-6.42-2.23-9.69-6.82-14.21C166 106 166 106 166 104c-.3-.07-.3-.07-1.8-.45-2.57-.64-3.5-1.49-5.34-3.35l-1.78-1.78c-.63-.64-1.25-1.28-1.89-1.94-.65-.65-1.3-1.31-1.97-1.98-2.08-2.1-4.15-4.21-6.22-6.31-1.39-1.41-2.79-2.82-4.18-4.22-3.11-3.15-6.22-6.3-9.32-9.45-1.32-1.34-2.67-2.65-4.01-3.96-.49-.51-.98-1.03-1.49-1.56"/><path fill="#e0c3a8" d="M104 211c1.33.67 2.67 1.33 4 2 2.72.24 5.26.14 8 0v-1c2.56-.12 5.09-.16 7.66-.17.77 0 1.55 0 2.35-.01 1.65 0 3.3-.01 4.94-.01 2.54 0 5.07-.02 7.61-.03 1.59-.01 3.19-.01 4.78-.01.77-.01 1.53-.01 2.32-.02 1.78.01 3.56.12 5.34.25v2c.62.14 1.24.29 1.88.44C155 215 155 215 157 218h-2v2c-1.76.27-1.76.27-4.26.31-.94.01-1.87.03-2.83.04-.51.01-.51.01-3.09.02l-3.17.03-6.66.03c-3.38.01-6.76.06-10.14.11-2.15.01-4.31.01-6.47.02l-3.04.06c-6.31-.04-12.64-.95-17.34-5.62 1.32-.38 2.66-.7 4-1Z"/><path fill="#e7ccb3" d="M101 184c1 1 1 1 1 4-.25.87-.5 1.73-.75 2.62-.08.79-.16 1.57-.25 2.38 1.88.75 1.88.75 4 1l1 1-.12 2.94.12 3.06c.5.33.5.33 3 2 .16-.5.16-.5 1-3h4v2c.85.1 1.69.21 2.56.31.81.23 1.61.46 2.44.69.12 2.56.12 2.56-1 5-4.74 1.29-8.96-1.8-13-4-.72-.31-1.44-.62-2.18-.95C101 202 101 202 100 199c-2.69 0-5.16.14-7.81.44-9.14.98-9.14.98-12.19-1.44-1.48-2.09-1.48-2.09-2.75-4.5-.43-.79-.86-1.59-1.3-2.41C75 189 75 189 75 187h2c.47.85.95 1.69 1.44 2.56.51.81 1.03 1.61 1.56 2.44l3-1v-2c3.5-1.25 3.5-1.25 7-2v2h3c.38-1.66.71-3.32 1-5 2.68-1.34 4.15-.73 7 0"/><path fill="#ead8c4" d="M52 57.813c.66.39 1.32.78 2 1.19-.57 1.58-.57 1.58-1.69 3.69-5.82 11.69-1.46 26.73 1.28 38.91.5 2.91.58 5.7.6 8.65.01 1.05.03 2.11.04 3.2-.08.84-.15 1.68-.23 2.55-2 1-2 1-4.06.35-1.94-1.35-1.94-1.35-2.64-3.41-.09-.83-.18-1.67-.28-2.53-.11-.92-.22-1.85-.34-2.8l-.3-2.99-.72-6.06c-.11-.97-.22-1.94-.34-2.94-.37-3.03-.91-6-1.51-9-1.43-8.24-2.74-19.06 1.19-26.62 2.45-1.86 3.91-2 7-2.19"/><path fill="#15140f" d="M220 149h1c2.76 9.64 2.8 24.05-1.75 33.03-4.41 6.95-8.51 10.09-16.25 12.97-2 1-2 1-3.38 4.44-1.62 3.56-1.62 3.56-3.65 4.44-1.97 1.12-1.97 1.12-2.73 3.65-.12.98-.24 1.96-.36 2.97-.69 5.31-.69 5.31-2.88 7.5-5.35-.27-9.38-1.08-14-4 .33-.16.33-.16 2-1v-2h-4v3c-3.5 1.12-3.5 1.12-7 1-.94-3.44-.94-3.44 0-7 3.81-.25 3.81-.25 5.96.05 2.04-.05 2.04-.05 3.81-1.2 1.69-2.54 1.37-4.22 1.11-7.23-.08-2.69-.08-2.69.12-4.62 2.06.81 2.06.81 5 3 .63.06.63.06 3.81.38 1.05.2 2.11.41 3.19.62.88 2.62.88 2.62 0 5-.62-.09-.62-.09-3.75-.56-1.07-.15-2.15-.29-3.25-.44 1.62 2.81 1.62 2.81 4 6l-1 2c-.47-.7-.95-1.4-1.44-2.12-.51-.62-1.03-1.24-1.56-1.88-1.48 2.02-2 3.49-2 6 3.26 1.42 6.43 2.31 10 2 .19-3.88.19-3.88-.11-6.42.17-4.12 2.64-5.93 5.45-8.73 1.66-1.85 1.66-1.85 2.54-5.16 1.12-2.69 1.12-2.69 3.05-3.58 1.6-.5 3.21-.97 4.82-1.42 6.03-1.85 8.4-6.24 11.23-11.47 1.81-3.95 2.14-7.32 2.08-11.64 0-.51 0-.51-.02-3.11-.01-1.06-.03-2.12-.04-3.22q-.045-3.18-.06-6.36c-.01-.94-.03-1.88-.04-2.84.03-.68.07-1.35.1-2.05"/><path fill="#d27e88" d="M175 175c1.37 1.64 2.7 3.31 4 5l2 1v2h4v2c-.52.47-1.03.95-1.56 1.44-.48.51-.95 1.03-1.44 1.56.16.5.16.5 1 3-2.38 1.06-2.38 1.06-5 2l-1 2c-1.09-.37-2.19-.74-3.31-1.12-3.69-.88-3.69-.88-6.07.43-2.05 3.4-2.23 6.23-2.44 10.15L165 206l-1-3-3 1c-.47-1.01-.95-2.02-1.44-3.06-.51-.97-1.03-1.94-1.56-2.94-1.34.66-2.67 1.33-4 2-2.29-.36-2.29-.36-4.62-1.19-.78-.26-1.56-.52-2.36-.79C145 197 145 197 143 194c1.67.65 3.34 1.32 5 2 2.48.68 4.39.95 7 1-.06-2.44-.06-2.44-2-5-2.75-.43-5.2-.18-8 0v-1c1.13.08 2.27.16 3.44.25 1.17-.08 2.35-.16 3.56-.25.88-2.5.88-2.5 1-5h1c.14 1.11.29 2.23.44 3.38C155 193 155 193 157 195c7.15.57 7.15.57 10.06-1.38.16-.26.16-.26.94-1.62l-1-2c.1-.95.21-1.9.31-2.88-.1-1.03-.2-2.06-.31-3.12-2.94-2.12-2.94-2.12-6-4-1-2.25-1-2.25-1-4h2c.15.33.15.33.94 2l1.06 2c3 0 3 0 5-1l1-3c1.34.29 2.68.63 4 1Z"/><path fill="#87826a" d="M192 158c1.69 1.12 1.69 1.12 3 3v1c2.44.25 2.44.25 5 0l1-3 3 1c-.33 8.32-3.54 13.99-9.28 19.71C193 181 193 181 190 181c-.35-2.33-.68-4.66-1-7-1.12-1.94-1.12-1.94-3-3l-3.5.06c-3.5-.06-3.5-.06-5.44-1.94C176 167 176 167 176 165c.68.23 1.36.45 2.06.69.64.1 1.28.2 1.94.31-.31-2.31-.31-2.31-1-5l1-2 3 1c.31.89.62 1.77.94 2.69.35.76.7 1.52 1.06 2.31 1.94-.38 1.94-.38 4-2 .52-.93 1.03-1.86 1.56-2.81.48-.72.95-1.45 1.44-2.19"/><path fill="#ceaa8f" d="M108 80c1 2 1 2 1.22 4.71 1.04 4.41 3.26 6.7 6.28 9.98 1.09 1.23 2.19 2.46 3.28 3.69.55.61 1.09 1.21 1.65 1.84 2.99 3.4 5.8 6.94 8.63 10.48 1.94 2.3 1.94 2.3 4.32 4.35.53.65 1.07 1.29 1.62 1.95-.91 4.16-4.8 7.42-7.56 10.56-1.09 1.25-2.17 2.49-3.25 3.74-.54.62-1.07 1.24-1.63 1.88-3.01 3.51-5.91 7.11-8.82 10.71C112 146 112 146 110 148c-.08.59-.08.59-.5 3.56-.17 1.14-.33 2.27-.5 3.44-.33.16-.33.16-2 1-.42-5.07.16-9.26 2-14h3c-.17-.5-.17-.5-1-3 1.19-1.69 1.19-1.69 3-3h4v-3h2l1-2 1-2h2c-.16-.66-.33-1.32-.5-2-.16-.66-.33-1.32-.5-2h2c1.75-2.06 1.75-2.06 3-5-.62-3.75-.62-3.75-2-7-.5-.16-.5-.16-3-1-4.23-4.09-7.79-9.09-11-14v-3h-2c-2.16-4.83-3.52-8.63-3-14Z"/><path fill="#ee97a8" d="M158 21c3.31-.62 3.31-.62 7 0 2.1 1.56 2.89 2.43 3.39 5.02 0 .76 0 1.51.01 2.29 0 .41 0 .41.01 2.51l-.03 2.62.03 2.6c-.02 3.57-.09 6.26-1.59 9.53-3.91 3.08-9.14 1.98-13.82 1.43-11.8-2.82-11.8-2.82-15-7 2.68.25 4.96.98 7.44 2 5.43 2.12 11.76 2.76 17.56 2v-2c-5.24-3.03-11.54-2.42-17.4-2.57l-2.52-.09c-.38-.01-.38-.01-2.3-.05-.3-.05-.3-.05-1.78-.29l-1-2c1.61-.39 1.61-.39 4.02-.6l2.6-.24c.91-.07 1.82-.15 2.76-.22 1.77-.16 3.55-.31 5.33-.48.8-.06 1.6-.13 2.42-.19C157 35 157 35 158 34c.04-1.67.04-3.33 0-5v-1c-.14-1.18-.29-2.35-.44-3.56.15-1.14.29-2.27.44-3.44"/><path fill="#cc9a9a" d="M153 181c4.43.43 4.43.43 6 2 .95-.21 1.9-.41 2.88-.62 3.12-.38 3.12-.38 5 .74 1.46 2.45 1.33 4.07 1.12 6.88v3c-1 1.69-1 1.69-3 3-3.58.56-6.8.74-9.94-1.19-1.29-2.2-1.68-4.3-2.06-6.81 0 4 0 4 1.44 6.75.18.74.37 1.49.56 2.25-6.02.86-10.09-.72-15-4 1.03-3.86 3.82-5.81 7-8 1.33-.34 2.66-.68 4-1Z"/><path fill="#debea6" d="M205 140c1.53.85 1.53.85 3 3 .7 3.07.7 3.07 1.12 6.56.8 6.29.8 6.29 1.88 8.44.22 11.32.22 11.32-3.31 16.19-.89.6-1.78 1.19-2.69 1.81-.8.56-1.61 1.11-2.44 1.69-.26.05-.26.05-1.56.31.63-2.01 1.31-4.01 2-6 .11-2.05.11-2.05.06-4.12-.06-3.88-.06-3.88.63-6.38.1-.5.2-.99.31-1.5h-3l-1 2h-4c-.68-1.71-.68-1.71-.88-3.94-.07-.73-.15-1.46-.24-2.21L195 154l2-1c.5-1.03.99-2.06 1.5-3.12.5-.95.99-1.9 1.5-2.88l2 1c.9-2.12 1.49-4.29 2.12-6.51.29-.49.58-.98.88-1.49"/><path fill="#d5ae93" d="M175 56c1.88.19 1.88.19 4 1l2 3c3.42.29 5.74.09 9-1v3c1.86.22 1.86.22 4.31.06 3.73-.23 4.42-.24 7.69 1.94.56 1.81.56 1.81 1 4 .88 2.75.88 2.75 2 5h3c.16.5.16.5 1 3 .25-7.02.25-7.02-.62-10.5-.13-.5-.25-.99-.38-1.5h2c2.87 7.65 2.89 15.37 0 23-3.19 2.12-3.19 2.12-6 2-.32-3.41.15-6.69 1-10l1 2h3l-2-1c-.06-.62-.12-1.24-.19-1.88C206 76 206 76 202.5 74.38c-1.16-.46-2.31-.91-3.5-1.38l-1-2c-.27.78-.54 1.57-.81 2.38-.39.86-.79 1.73-1.19 2.62h-4c-.25-2.94-.25-2.94 0-6v-1c-.87.23-1.73.45-2.62.69-.79.1-1.57.2-2.38.31.62-1.75.62-1.75 2-4l1-3c-1.91-.12-1.91-.12-4.62.12-4.19.15-5.02.15-8.5-2.5C175 58 175 58 175 56"/><path fill="#e38d9e" d="M111 16c5.82.71 8.34 4.32 11.78 8.61C124 27 124 27 123.82 29.81c-.14.36-.14.36-.82 2.19-2.06-.31-2.06-.31-4-1v2h4v4c-2.62.28-2.62.28-6-.06-1.11-.1-2.23-.19-3.38-.29-.86-.21-1.73-.43-2.62-.65v-3l-2-3-1 2h-3c-1.37-5.26-1.37-5.26 0-8-.21-.7-.41-1.4-.62-2.12-.13-.62-.25-1.24-.38-1.88h3v-2h4Z"/><path fill="#e8cdb6" d="M65 74h1l-.06 2.5L66 79h2v3c-.33.16-.33.16-2 1-1.94 3.44-1.94 3.44-3 7 .87.33 1.73.66 2.62 1 .79.33 1.57.66 2.38 1-1.08 2.77-2.76 5.05-5 7l-3-1c2 2 2 2 4.38 3 .53.33 1.07.66 1.62 1-.58.23-1.16.45-1.75.69-.74.43-1.48.86-2.25 1.31v7h-4c-.54-1.72-.54-1.72-.62-4.06-.21-3.16-.55-5.54-1.44-8.63-.93-3.28-1.02-5.92-.94-9.31l-1-1c-.28-1.51-.5-3.04-.69-4.56-.1-.83-.21-1.66-.32-2.51 0-.63.01-1.27.01-1.93h2v3h2v-2c.58-.1 1.16-.21 1.75-.31 3.2-.98 4.3-3.07 6.25-5.69"/><path fill="#e38996" d="M141 45c1.94.88 1.94.88 4 2h2v2c2.27.48 2.27.48 5.25.75.97.1 1.95.2 2.95.3 2.8-.05 2.8-.05 4.99-1.14L162 48c2.75 1.75 2.75 1.75 5 4v2c-1.13.39-2.27.78-3.44 1.19-1.17.6-2.35 1.19-3.56 1.81-.81 3.62-.81 3.62-1 7l-2 1c-6.75-4.34-12.56-11.42-17-18Z"/><path fill="#dfc6ac" d="M213 173c.23.34.23.34 1.38 2.06.53.64 1.07 1.28 1.62 1.94 1.62-1.38 1.62-1.38 3-3l1 2c-2.76 7-6.8 11.32-13.06 15.31-1.94.69-1.94.69-4.63.57-.76.04-1.52.08-2.31.12-.69 1.94-.69 1.94-1 4l-2 1c-1.3-3.69-1.69-7.15-1-11 2.36-1.66 4.57-2.25 7.34-3.04 4.7-1.7 7.48-5.59 9.66-9.96"/><path fill="#ead6c4" d="M211 51c2.95.1 4.01 1.01 6.12 3.06 3.9 6.1 4.2 12.72 4.13 19.75.01.75.02 1.5.02 2.27-.01 3.83-.1 5.66-2.27 8.92-.16-1.64-.16-1.64-.06-4.25.05-1.58.08-3.17.06-4.75l-1-1c-.47 3.14-.83 6.28-1.16 9.44-.63 5.35-.63 5.35-2.84 7.56-.16-2.03-.16-2.03-.05-5.21.02-1.14.04-2.29.07-3.47.07-2.42.15-4.85.23-7.28.17-8.55-.78-13.67-6.19-20.48-.17-.26-.17-.26-1.06-1.56l3-1Z"/><path fill="#ead7c1" d="M48.75 117.938c.74.35 1.48.7 2.25 1.06-.27 2.34-.61 4.68-1 7 .24.38.24.38 1.44 2.26 2.04 3.58 1.96 6.21 1.93 10.3l.03 3.95c-.4 3.5-.87 5.07-3.4 7.49v-2l-2-1c-1.91-3.81-1.82-8.42-2.3-12.61-.71-3.42-1.58-4.74-3.7-7.39.13-3.62.13-3.62 1-7 3-2 3-2 5.75-2.06"/><path fill="#ecaaaf" d="M172 167c2.5 2.19 2.5 2.19 4 5-.07 3.07-.65 4.52-2.44 7-.51.33-1.03.66-1.56 1l-2-3v3c-1.75 1.44-1.75 1.44-4 2-2.31-2.12-2.31-2.12-4-4 .16.6.33 1.2.5 1.81.16.72.33 1.45.5 2.19-1.88.06-1.88.06-4-1-.62-2.5-.62-2.5-1-5l-2-1 3-1c.12-.8.25-1.61.38-2.44.62-2.56.62-2.56 2.74-3.87 3.54-.85 6.26-1.15 9.88-.69"/><path fill="#958675" d="M219 59c4.13 4.13 4 10.33 4.01 15.91-.31 8.4-1.5 16.34-3.32 24.54-.88 4.54-1.19 9.03-1.38 13.65L218 115c-2-2-2-2-2.12-5.19l.24-7.62C216 99 216 99 214 97c-.75-3.62-.75-3.62-1-7h2c.44-2.46.75-4.84 1-7.31.74-7.29.74-7.29 3-10.69.41 2.49.41 2.49.62 5.88.22 2.89.22 2.89.38 4.12.08-2.5.11-5 .12-7.5.01-.8.01-1.6.02-2.42-.01-3.72-.15-7.12-.77-10.8-.12-.75-.25-1.5-.37-2.28"/><path fill="#c9a286" d="M84.406 34.254c.53.25 1.05.49 1.59.75-1.29 1.19-1.29 1.19-3.62 2.56-.76.45-1.51.91-2.29 1.38-2.09 1.06-2.09 1.06-4.09 1.06-1.24 2.4-1.96 4.52-2.14 7.23-.26 2.67-.5 4.43-1.86 6.77-3.13 1.21-6.02 1.74-9.34 2.17-.88.27-1.75.54-2.66.83-.71 2.54-.71 2.54-1 5-1.66.34-3.33.67-5 1-2.3 4.12-2.23 7.92-2.18 12.56 0 .35 0 .35.01 2.11.07 5.49.51 10.91 1.15 16.36.01.65.02 1.3.02 1.97l-2-1c-2.84-11.01-4.44-24.25 1.32-34.43.23-.52.45-1.04.68-1.57l-2-1-1 2h-4c.89-3.74 1.76-4.84 5-7v3c2.19.93 2.19.93 5 1 .75-.64 1.49-1.28 2.25-1.94 3.15-2.36 3.82-2.21 7.57-1.94 2.38.1 2.38.1 4.18-.12.19-2.44.19-2.44 0-6 2.65-5.5 7.44-13.49 14.41-12.75"/><path fill="#896148" d="M164 104c2 0 2 0 3.91 1.8 4.62 5.39 7.28 9.56 7.48 16.78-.59 3.69-2.46 5.26-5.39 7.42l-1 2c-.75.28-1.49.56-2.26.85-3.27 1.37-5.07 3.11-7.57 5.61-.88.89-1.76 1.77-2.67 2.68-.91.92-1.81 1.85-2.75 2.8-.92.92-1.85 1.84-2.8 2.78-6.82 6.88-6.82 6.88-7.95 10.28h-2c-.69 1.32-1.35 2.66-2 4-3.49 4.23-6.83 6.34-12.31 7C124.14 168.19 124.14 168.19 122 168l-2-2 3.62.06c4.98-.45 7.23-2.31 10.8-5.72.51-.48 1.02-.97 1.55-1.47 1.69-1.61 3.36-3.24 5.03-4.87.58-.57 1.16-1.14 1.76-1.72 3.69-3.61 7.35-7.25 11-10.91 1.89-1.9 3.8-3.79 5.7-5.69 1.21-1.22 2.43-2.43 3.64-3.65.57-.56 1.13-1.12 1.71-1.7 6.49-6.53 6.49-6.53 6.75-12.08-.03-3.22-.21-4.77-2.13-7.39-1.93-1.86-1.93-1.86-3.9-3.48-.5-.46-1.01-.91-1.53-1.38Z"/><path fill="#d2a88c" d="M86 57h2c-.44 2.44-.44 2.44-2 5-3.38.75-3.38.75-7 1-2.62.38-2.62.38-4 1 1.25 1.37 1.25 1.37 3 3v3c-2.44-.12-2.44-.12-5-1l-1-3c.22 2.25.54 4.49.84 6.73C73 75 73 75 72 77c-2-.69-2-.69-4-2l-1-3c-1.37.96-2.69 1.96-4 3h-3c-.44-2.25-.44-2.25 0-5 1.88-2.06 1.88-2.06 4-4 .13-.37.13-.37.81-2.25.39-.58.79-1.16 1.19-1.75 3.38-.12 3.38-.12 7 0 1.34-.65 2.68-1.32 4-2l3.06.06C83 60 83 60 84.75 58.5c.41-.49.83-.99 1.25-1.5"/><path fill="#e894a0" d="M98 48c2.52.17 2.52.17 5.81.75 1.08.18 2.16.36 3.27.55C110 50 110 50 113 52c1.36-.96 2.71-1.95 4-3-2.23 6.43-7.27 12.37-13 16l-2-1c-.13-1.81-.13-1.81-.12-4-.2-2.2-.2-2.2-.88-4-2.72-1-5.06-.91-8-1v-2c1.67-1 3.33-2 5-3Z"/><path fill="#24231c" d="M44 149h1c-.15 2.23-.35 4.46-.56 6.69-.94 11.85.22 21.59 7.75 31.06 2.79 2.23 3.92 2.6 7.25 3.37 3.26.93 4.32 1.53 6.26 4.37a103 103 0 0 1 2.72 5.82c2.08 3.55 3.89 4.86 7.58 6.69 3.13.56 6.2.65 9.38.69 2.87.07 5.74.17 8.62.31v1c-3.18.52-6.41.66-9.62.88-.91.08-1.81.17-2.74.25-4.39.28-7.59.47-11.15-2.34-2.2-2.47-3.49-4.28-4.74-7.29-2.48-4.85-5.38-6.09-10.25-8.2-6.47-3.36-10.25-9.56-12.5-16.3-2.13-8.92-1.05-18.15 1-27"/><path fill="#e6c9b1" d="M199 74c2.3 1.63 3.52 2.67 5 5 .4 3.82.21 6.36-1 10 1.34-.29 2.68-.63 4-1l3 1c-1 3-1 3-3 6-.16.93-.33 1.86-.5 2.81-.16.72-.33 1.45-.5 2.19l-2-2h-3c-.36-1.33-.7-2.66-1-4l-2 1c-.12-.83-.25-1.65-.38-2.5-.2-.83-.41-1.65-.62-2.5-1.94.31-1.94.31-4 1l-2-2c.75-2.19.75-2.19 2-4l2 1-1 2h2v-2h3c.31-2.56.31-2.56 0-5-.33.17-.33.17-2 1 .31-1.69.31-1.69 1-4 .08-.85.16-1.69.25-2.56.25-.48.5-.95.75-1.44"/><path fill="#e2d2c1" d="M170 26c8.88-.4 15.62.2 22.56 6.21C194 34 194 34 194 37c-2.38 1.5-2.38 1.5-6 2-2.67-1-5.05-2.25-7.54-3.64C178 34 178 34 175.23 32.99c-.73-.33-1.47-.65-2.23-.99-.69-2.56-.69-2.56-1-5Z"/><path fill="#efa1b0" d="M173.75 192.625c3.25 1.38 3.25 1.38 4.25 2.38.47 7.14.47 7.14-1.37 10.5-1.63 1.5-1.63 1.5-3.63 1.5v-2h-2v2c-1.87-.82-1.87-.82-4-2-.66-.34-1.32-.66-2-1-.59-4.37-.42-6.38 2.06-10.07 2.94-1.93 2.94-1.93 6.69-1.31"/><path fill="#5e5141" d="M178 195c2.06.81 2.06.81 5 3 1.26.12 2.52.25 3.81.38 1.05.2 2.11.41 3.19.62.88 2.62.88 2.62 0 5-.62-.09-.62-.09-3.75-.56-1.07-.15-2.15-.29-3.25-.44 1.62 2.81 1.62 2.81 4 6l-1 2c-.47-.7-.95-1.4-1.44-2.12-.26-.31-.26-.31-1.56-1.88-1.06 1.69-1.06 1.69-2 4-2 1-2 1-4.62.38-.79-.13-1.57-.25-2.38-.38v3c-3.5 1.12-3.5 1.12-7 1-.94-3.44-.94-3.44 0-7 3.81-.25 3.81-.25 5.96.05 2.04-.05 2.04-.05 3.81-1.2 1.69-2.54 1.37-4.22 1.11-7.23-.08-2.69-.08-2.69.12-4.62"/><path fill="#e7d2bd" d="M213 93c.68 1.32 1.35 2.66 2 4h2c.12 3.88.04 7.72-.08 11.6-.04 2.13.01 4.27.08 6.4h2c1.31 3 1.31 3 2 6-3 0-3 0-6-1v-2h-4c-3.14-6.29-.57-15.55 1-22Z"/><path fill="#ddba9f" d="M112 90c5.32 3.96 9.21 8.56 13.2 13.83C127 106 127 106 130 108c-.66-1.67-1.33-3.34-2-5h2v3c1.33.34 2.66.68 4 1l1 3c.82.6 1.65 1.2 2.5 1.81 2.5 2.19 2.5 2.19 3.56 5.38L141 120c-2 .75-2 .75-4 1l1 2c-2.31 2.69-2.31 2.69-5 5l-2-1 1 3c-.33.16-.33.16-2 1-.38-2.38-.38-2.38 0-5 1.33-.34 2.66-.68 4-1 .39-1.65.72-3.32 1-5q1.47-1.53 3-3l-1-2h-2l-1 2a90 90 0 0 1-5.5-5.69c-.27-.29-.27-.29-1.63-1.8C113.56 94.69 113.56 94.69 112 90"/><path fill="#d87287" d="M163 26c3.69.69 3.69.69 5 2 .15 2.45.23 4.86.25 7.31l.06 2.06c.03 3.03-.16 5.32-1.49 8.08-3.2 2.72-6.44 2.08-10.47 1.94-5.98-.7-12.61-2.09-17.31-6.04-.35-.44-.69-.89-1.04-1.35 2.68.25 4.96.98 7.44 2 5.43 2.12 11.76 2.76 17.56 2v-2c-.91-.35-1.81-.7-2.75-1.06-.74-.31-1.49-.62-2.25-.94 1.62-.5 1.62-.5 4-1l1-2h3c-.41-.54-.82-1.07-1.25-1.62-2.08-2.83-2.44-4.92-2.75-8.38Z"/><path fill="#e0c0a8" d="M205 114c1.73 2.59 2.59 4.48 3.56 7.38.48 1.19.95 2.39 1.44 3.62l1-3c1.75 1.06 1.75 1.06 3 3a73 73 0 0 1-3 4c-.34 2-.67 4-1 6l-2-1c-.31.8-.62 1.61-.94 2.44-.35.84-.7 1.69-1.06 2.56h-3c-1.81-3.31-1.81-3.31-3-7l2-3c.35.74.7 1.49 1.06 2.25.16.29.16.29.94 1.75.88-3.19.88-3.19 1-7-1.81-.69-1.81-.69-4-1-1.56-2-1.56-2-2-4 .78-.14 1.57-.29 2.38-.44.86-.18 1.73-.37 2.62-.56.25-2.5.25-2.5 0-5Z"/><path fill="#854c49" d="M177 184c2.12 2.12 2.62 3.09 3 6l-2 1c-.03.36-.03.36-.19 2.19-.27.6-.53 1.19-.81 1.81-1.09-.33-2.19-.66-3.31-1-3.69-1-3.69-1-6.07.31-2.05 3.4-2.23 6.23-2.44 10.15L165 206l-1-3-3 1c-.47-1.01-.95-2.02-1.44-3.06-.51-.97-1.03-1.94-1.56-2.94-1.34.66-2.67 1.33-4 2-2.29-.36-2.29-.36-4.62-1.19-.78-.26-1.56-.52-2.36-.79C145 197 145 197 143 194c1.67.65 3.34 1.32 5 2 2.48.68 4.39.95 7 1-.06-2.44-.06-2.44-2-5-2.75-.43-5.2-.18-8 0v-1c1.13.08 2.27.16 3.44.25 1.17-.08 2.35-.16 3.56-.25.88-2.5.88-2.5 1-5h1c.14 1.11.29 2.23.44 3.38C155 193 155 193 157 195c7.19.57 7.19.57 9.88-1.31.37-.56.74-1.12 1.12-1.69l2-3 2 2c2.06 0 2.06 0 4-1 .39-1.99.73-3.99 1-6"/><path fill="#a37a5d" d="M108 80c1 2 1 2 1.22 4.71 1.04 4.41 3.26 6.7 6.28 9.98 1.09 1.23 2.19 2.46 3.28 3.69.55.61 1.09 1.21 1.65 1.84 2.99 3.4 5.8 6.94 8.63 10.48 1.94 2.3 1.94 2.3 4.23 4.47L135 117c-.62 2.19-.62 2.19-2 4-.33.16-.33.16-2 1-.35-1.66-.68-3.33-1-5l-2-1c-1.02-1.66-2.02-3.32-3-5l-2-2v-3c-1.32-.69-2.66-1.36-4-2-1.85-1.91-1.85-1.91-3.62-4.06-3.19-3.84-3.19-3.84-5.38-4.94-2.35-4.51-3.5-8.9-3-14Z"/><path fill="#b0a190" d="M41 123c.73 1.3 1.37 2.65 2 4 .5.57 1 1.14 1.51 1.73 1.99 3.04 2.12 5.61 2.49 9.21.67 6.57.67 6.57 2.58 9.45 2.09 3.84 1.55 7.16 1.17 11.42-.05.79-.11 1.58-.16 2.39-.14 1.94-.36 3.87-.59 5.8h-1c.01-1.6.05-3.21.12-4.81.04-2.52.04-2.52-.12-4.19-1.44 1.94-1.44 1.94-3 5h-1c-1.27-6.23-.79-12.04-.23-18.33.47-6.3-.17-11.28-3.77-16.67-.25-2.94-.25-2.94 0-5"/><path fill="#d6919f" d="M107 13.813c.85.17 1.69.34 2.56.52.48.22.95.44 1.44.67-1.75 1.2-1.75 1.2-4 2v-2c-1.75-.34-1.75-.34-4-.38-.74-.03-1.48-.05-2.25-.08-.58.15-1.16.3-1.75.46v4l2 1c.7 4.92 1.02 9.53-1.88 13.69-2.12 1.31-2.12 1.31-4.12 1.31-1.33-6.55-1.56-12.8 1-19 3.44-3.45 6.41-3.19 11-2.19"/><path fill="#f0a6b2" d="M125 27c3.78-1.03 7.27-1.28 11 0 1.23 3.73.88 7.2 0 11-.33.16-.33.16-2 1l-1-3c-2.5-.38-2.5-.38-5 0l-1 3-3-1c-.27-4.16-.32-7.05 1-11"/><path fill="#c6977c" d="M214 69h1c.88 10.19-.4 19.7-2.58 29.64-1.42 6.61-2.79 13.25.08 19.67C214 122 214 122 214 125c-3.6-3.95-5.08-6.98-5.25-12.27-.03-.8-.06-1.61-.1-2.44-.06-1.71-.11-3.42-.17-5.13-.09-2.06-.27-4.11-.48-6.16l-2 1c.49-7.49.49-7.49 3-10v5h2c.46-2.36.77-4.61 1-7 .08-.78.16-1.56.25-2.36.34-3.41.68-6.82 1-10.23.21-2.14.48-4.28.75-6.41"/><path fill="#e5c6ae" d="M154 102c5.59-.45 5.59-.45 8 0 1.55 2.33 2.76 4.52 4 7 .33.5.33.5 2 3h-2c.31.72.62 1.44.94 2.19 1.2 3.17 1.12 4.63.06 7.81l-2 1v-5h-2c-.12-.7-.25-1.4-.38-2.12-.2-.62-.41-1.24-.62-1.88-2.06.94-2.06.94-4 2 0-3 0-3 .56-5 .44-2 .44-2-.56-5l1-1c-.4-.07-.4-.07-2.44-.44-.84-.18-1.69-.37-2.56-.56Z"/><path fill="#d9b599" d="M65 74h1l-.06 2.5L66 79h2v3c-.33.16-.33.16-2 1l-1 3.06c-.16.49-.16.49-1 2.94h-2l-2-2-3-1-1 2h-2c-.48-1.97-.48-1.97-.75-4.5-.1-.84-.2-1.67-.3-2.53.02-.65.03-1.3.05-1.97h2v3h2v-2c.58-.1 1.16-.21 1.75-.31 3.2-.98 4.3-3.07 6.25-5.69"/><path fill="#f2a7b5" d="M108 29c1.36 1.31 2.68 2.65 4 4 3.64 2.59 6.6 3.39 11 4v1c-1.44.15-2.9.23-4.35.28-.91.04-1.83.08-2.77.11-.49.02-.49.02-2.94.11-1.89.07-3.78.14-5.66.22-.9.03-1.8.07-2.73.1-2.33.16-4.51.51-6.8.96-.9.07-1.81.15-2.75.22-.19-1.87-.19-1.87 1-4 1.81-.72 1.81-.72 4-1.06 2.19-.35 2.19-.35 4-.94l1-3 3 1Z"/><path fill="#d8b39a" d="M100 193c4.57.57 4.57.57 6 2l-.12 2.94.12 3.06 3 2 1-3h4v2l2.56.31c.81.23 1.61.46 2.44.69.12 2.56.12 2.56-1 5-4.74 1.29-8.96-1.8-13-4-.72-.31-1.44-.62-2.18-.95C101 202 101 202 100 199l-2-1c.76-.14 1.53-.29 2.31-.44.89-.18 1.78-.37 2.69-.56l1-2h-5Z"/><path fill="#ae7566" d="M170 39c2.09 4.23.21 9.02-.91 13.3-1.49 3.7-3.54 4.15-7.09 5.7-.96 2.43-1.55 4.77-2.07 7.33-.3.55-.61 1.1-.93 1.67-7.97-1.66-14.37-10.89-18.9-17.2-1.37-2.24-2.28-4.13-2.1-6.8 1.94.5 1.94.5 4 2v3c4.12 6.22 9.13 11.44 15 16h1c.08-1.09.16-2.19.25-3.31.75-3.69.75-3.69 3.13-5.63C164 54 164 54 167 54c-.31-1.63-.61-3.26-.93-4.89-.13-4.02 1.81-6.8 3.93-10.11"/></svg>