<svg xmlns="http://www.w3.org/2000/svg" width="280" height="280"><path fill="#573753" d="M147 43c4.07 1.38 5.57 2.46 8.25 5.81C158 51 158 51 160.22 50.84c1.73-.4 3.45-.83 5.16-1.27 6.3-1.37 12.18.07 17.77 3.13 3.89 2.74 6.69 6.48 9.23 10.47 2.07 2.34 3.24 2.36 6.31 2.64 6.69 1.12 10.57 4.67 14.66 9.92 2.02 3.16 2.77 5.73 2.9 9.39.75 3.88.75 3.88 2.37 5.18 1.41.77 2.82 1.54 4.24 2.29 4.24 2.8 7.25 7.63 8.79 12.45.82 4.63.57 8.98-.46 13.52-.24 4.28.92 5.68 3.58 8.86 3.85 4.95 2.82 12.71 2.23 18.58-1.27 3.34-2.93 6.1-5 9l-1 2c.31.85.62 1.69.94 2.56 2 6.47 1.8 11.51-1.06 17.69-2.38 4.34-4.77 7.01-8.88 9.75h-2c.06 1.11.12 2.23.19 3.38.14 6.19-2.6 11.71-6.68 16.3-4.37 3.83-8.04 5.46-13.76 5.13-1.24.06-2.47.13-3.75.19-.81 2.19-.81 2.19-1 5-2.09 4.52-4.68 6.59-9 9-2.33.69-4.66 1.35-7 2-1.28.69-2.55 1.4-3.81 2.12-4.66 2.43-9.04 2.53-14.19 1.88-1.05-.43-2.1-.87-3.19-1.31-2.81-.69-2.81-.69-4.62.26-1.22.89-2.42 1.82-3.58 2.79-4.56 3.57-11.15 2.77-16.61 2.26-4.4-1.41-7.97-3.49-11-7v-2c-1.87.5-1.87.5-4.44 1.44-6.53 2.06-12.06 2.07-18.25-1.06-3.79-2.44-6.87-5.59-9.31-9.38-.12-.97-.25-1.94-.38-2.94-.2-.68-.41-1.36-.62-2.06-1.92-.03-3.84-.05-5.75.06-4.94-.13-8.69-2.62-12.24-5.9-3.47-3.74-6.03-7.04-7.01-12.16.08-1.24.16-2.47.25-3.75-.08-1.07-.16-2.15-.25-3.25-2.62-1.12-2.62-1.12-6-2-5.42-3.79-8.34-7.71-10.75-13.94-.7-5.78-.47-9.74 1.75-15.06-.26-3.97-2.82-6.8-5-10-2.37-7.11-1.96-14.94 1.25-21.69 2.14-4.03 2.14-4.03 4.97-5.34.59-.32 1.17-.64 1.78-.97-.75-3.88-.75-3.88-1.42-5.93C50 111 50 111 50 107c-.85.06-1.69.12-2.56.19-.4-.03-.4-.03-2.44-.19-.11-5.39 1.55-8.8 5-13 3.21-2.51 5.35-3.88 9.38-4.62.43-.23.43-.23 2.62-1.38.32-2.54.18-4.91.02-7.46-.03-3.5 1.14-5.62 2.98-8.54.47-.85.95-1.69 1.44-2.56C69.11 65.27 71.3 61.86 76 60c2.11-.05 2.11-.05 4.31.12 3.43.1 5.41-.23 8.31-2.06C92.26 55.84 94.78 55.25 99 55l2 1 1-3c5.81-3.88 10.26-5.54 17.25-4.19 4.21.59 6.04-.34 9.5-2.75 5.92-3.97 11.31-3.99 18.25-3.06"/><path fill="#f4dccb" d="M147 43c4.07 1.38 5.57 2.46 8.25 5.81C158 51 158 51 160.22 50.84c1.73-.4 3.45-.83 5.16-1.27 6.3-1.37 12.18.07 17.77 3.13 3.89 2.74 6.69 6.48 9.23 10.47 2.07 2.34 3.24 2.36 6.31 2.64 6.69 1.12 10.57 4.67 14.66 9.92 2.02 3.16 2.77 5.73 2.9 9.39.75 3.88.75 3.88 2.37 5.18 1.41.77 2.82 1.54 4.24 2.29 4.24 2.8 7.25 7.63 8.79 12.45.82 4.63.57 8.98-.46 13.52-.24 4.28.92 5.68 3.58 8.86 3.85 4.95 2.82 12.71 2.23 18.58-1.27 3.34-2.93 6.1-5 9l-1 2c.31.85.62 1.69.94 2.56 2 6.47 1.8 11.51-1.06 17.69-2.38 4.34-4.77 7.01-8.88 9.75h-2c.03 1.92.07 3.84.11 5.75-.18 3.69-1.25 6.06-3.11 9.25h-4v3l-3 1-1 2h-4v2c-3.02 1.51-5.69 1.25-9 1l1-3-2-1c.76-.23 1.53-.45 2.31-.69.89-.43 1.78-.86 2.69-1.31.69-3.12.69-3.12 1-6h2c.37-2.31.45-4.6.56-6.93.07-.34.07-.34.44-2.07l3-1v-4h2c.73-1.98 1.39-3.98 2-6l1-2c-.44.32-.44.32-2.69 1.94-3.31 2.06-3.31 2.06-5.5 2-2.11-1.1-3.5-1.93-4.81-3.94 1.5-1.62 1.5-1.62 3-3l-3-1c.19-.72.37-1.44.56-2.19.07-.3.07-.3.44-1.81-.33.16-.33.16-2 1-.33.16-.33.16-2 1 .21-2.59.7-3.74 2.67-5.45.69-.41 1.37-.82 2.08-1.24.68-.41 1.35-.83 2.05-1.26 2.2-1.05 2.2-1.05 4.91-1.28.76-.26 1.51-.51 2.29-.77.71-2.82.71-2.82.81-6.56.02-.67.05-1.34.07-2.03.04-1.42.07-2.85.08-4.27.04-2.04.13-4.09.23-6.13.33-10.37-.51-22.92-6.19-32.01.92 2.94 1.95 5.84 2.96 8.75 3.85 12.01 3.52 27.33.18 39.42-1.59 2.55-3.34 2.94-6.14 3.83-.33.16-.33.16-2 1 .37-1.73.85-3.43 1.35-5.12 1.77-6.72 2.13-12.96 2.09-19.88l.06-3.29c-.01-16.13-7.17-31.03-18.27-42.55-15.45-14.38-31.77-17.82-52.14-17.5-4 .18-7.41.63-11.09 2.34-1.69 2.38-1.69 2.38-3 5l-2 2c-.16.33-.16.33-1 2l2.31 2.31C121 91 121 91 121.56 94.56 121 98 121 98 119.31 100.38c-2.31 1.62-2.31 1.62-5 1.87-.76.25-1.52.5-2.31.75-.62 3.94-.62 3.94-.66 6.09-.11.63-.23 1.26-.34 1.91-3.65 2.44-6.74 2.76-11 2-.45-.38-.45-.38-2.75-2.31-.74-.56-1.48-1.12-2.25-1.69-.58.74-1.16 1.48-1.75 2.25C91 114 91 114 88.82 114.38c-6.09-.02-6.09-.02-8.82-1.38.08-.85.16-1.69.25-2.56-.08-.81-.16-1.61-.25-2.44q-3-.06-6 0c-1.94-1.56-1.94-1.56-3-4 .12-3.56.12-3.56 1-7 .66-.6 1.32-1.2 2-1.81.16-.2.16-.2 1-1.19-1.7-.54-3.41-1.07-5.14-1.49-2.48-.68-3.45-1.36-4.86-3.51-1.73-4.75-2.56-8.96-2-14 1.81-2.56 1.81-2.56 4-5 .45-1.01.91-2.02 1.38-3.06 2.07-3.75 3.76-5.08 7.62-6.94 2.28-.11 4.49 0 6.77.12 2.52-.14 3.74-.72 5.85-2.06C92.26 55.84 94.78 55.25 99 55l2 1 1-3c5.81-3.88 10.26-5.54 17.25-4.19 4.21.59 6.04-.34 9.5-2.75 5.92-3.97 11.31-3.99 18.25-3.06"/><path fill="#f2d8c6" d="M59 109c2.01.26 4.01.6 6 1 2 0 2 0 4-.75.66-.08 1.32-.17 2-.25 1.06 1.94 1.06 1.94 2 4h3c1.81 1.19 1.81 1.19 3 3-.86 3.14-2.18 5.28-4 8-2.34 20.18.58 39.39 13.14 55.79 11.75 13.58 27.86 23.08 46.03 24.45 10.94.23 20.84-1.7 31.25-5.01.52-.08 1.04-.15 1.58-.23 1.06 2.25 1.06 2.25 1 5-7.17 6.43-18.7 6.52-27.75 6.44l-3.49-.03c-8.56-.17-15.83-.95-23.76-4.41-.6-.26-1.2-.52-1.81-.78C92.89 197.09 79.38 182.6 72 164c-3.53-10.06-4.49-19.67-3.68-30.28.13-2.36.13-2.36-.32-5.72-3.01.66-3.01.66-6 2 0-2.94 0-2.94 1-6l2 1 1-2h-4c-1.3 2.84-1.1 4.81-1 8 .98-.28 1.96-.56 2.97-.84.5-.03.5-.03 3.03-.16.53 3.33.64 6.1.56 9.44.13 10.1 1.8 18.2 5.44 27.56.27.73.54 1.47.82 2.22C80.97 188.49 80.97 188.49 88 192l1 3c1.66 1.01 3.33 2.01 5 3 .8.85 1.61 1.69 2.44 2.56 2.86 2.73 4.79 3.38 8.56 4.44 4.78 1.88 8.74 4.16 13 7 13.85 4.54 37.85 2.57 51-4 2.28-.31 4.58-.55 6.88-.75 1.23-.12 2.46-.24 3.74-.36 3.38.11 3.38.11 5.83 1.34C187 210 187 210 187 214l1-3c3.62-1.25 3.62-1.25 7-1 .74 3.17.01 5.96-1 9-3.16 3.91-6.29 6.53-11.19 7.88-3.04.89-4.96 1.71-7.62 3.24-4.66 2.43-9.04 2.53-14.19 1.88-1.05-.43-2.1-.87-3.19-1.31-2.81-.69-2.81-.69-4.62.26-1.22.89-2.42 1.82-3.58 2.79-4.56 3.57-11.15 2.77-16.61 2.26-4.4-1.41-7.97-3.49-11-7v-2c-1.87.5-1.87.5-4.44 1.44-6.53 2.06-12.06 2.07-18.25-1.06-3.79-2.44-6.87-5.59-9.31-9.38-.12-.97-.25-1.94-.38-2.94-.2-.68-.41-1.36-.62-2.06-1.92-.03-3.84-.05-5.75.06-4.94-.13-8.69-2.62-12.24-5.9-3.47-3.74-6.03-7.04-7.01-12.16.08-1.24.16-2.47.25-3.75-.08-1.07-.16-2.14-.25-3.25-2.63-1.12-2.63-1.12-6-2-5.42-3.79-8.34-7.71-10.75-13.94-.7-5.78-.47-9.74 1.75-15.06-.26-3.97-2.82-6.8-5-10-2.39-7.16-1.97-14.94 1.38-21.69 1.39-2.5 2.59-4.28 4.62-6.31h3c.12-3.44.12-3.44 0-7l1-1 2.56.06L59 111Z"/><path fill="#b47fc0" d="M145 98c8.16 4.08 14.27 12.06 20.11 18.89 2.26 2.52 4.66 4.87 7.08 7.23 8.35 8.35 8.35 8.35 9.5 14.69-.61 9.41-11.29 16.91-17.61 23.11a111 111 0 0 0-6.89 7.46c-9.47 10.96-9.47 10.96-15.38 11.43-3.97-.84-5.42-1.79-7.91-4.95-1.42-2.95-.71-5.31-.12-8.43.74-4.16.79-6.42-.78-10.43-5.84-1.86-12.17-.78-18.16-.21-3.79.31-6.28.51-9.5-1.61-4.68-4.35-6.14-7.29-6.58-13.64-.02-1.29-.05-2.58-.07-3.92l-.12-3.89c.64-5.58 2.98-8.31 6.91-12.16 4.52-2.02 7.73-1.52 12.58-1.06 10.41.94 10.41.94 14.94-.51 1.83-4.72 1.26-7.92.36-12.79-.37-2.21-.37-2.21-.36-4.21 3.55-4.84 6.06-5.94 12-5"/><path fill="#bb86bb" d="M107.25 51.188c.58.27 1.16.54 1.75.81l-1 3 3-1c3.63-.19 3.63-.19 7-.001.16.33.16.33 1 2-2.05.57-2.05.57-4.87 1-2.81.44-2.81.44-5.13 1l-1 2c1.73.31 1.73.31 4.19.44 2.91.27 4.72.52 7.37 1.81 1.44 1.75 1.44 1.75 1.31 4.38.05.78.09 1.56.13 2.37 3.06.94 3.06.94 6 1-.16-.33-.16-.33-1-2 11.11-3.7 26.06-1.44 37 2 .9.28 1.79.55 2.71.83 5.35 1.72 8.89 3.63 13.29 7.17 7.22 5.71 7.22 5.71 11.06 7.13.64.29 1.28.58 1.94.87 0 2.25 0 2.25-1 4-.5-.33-.5-.33-3-2l1 2h-3c-.16.33-.16.33-1 2-1.71-1.12-1.71-1.12-3.94-3-16.06-12.83-32.82-15.85-53.06-14-5.54 1.36-5.54 1.36-7.69 4.38-.43.86-.86 1.73-1.31 2.62l-2 2c-.16.33-.16.33-1 2 .76.77 1.53 1.53 2.31 2.31 2.69 2.69 2.69 2.69 3.25 6.26-.56 3.43-.56 3.43-2.25 5.81-2.31 1.62-2.31 1.62-5 1.87-.76.25-1.52.5-2.31.75-.63 3.94-.63 3.94-.66 6.09-.11.63-.23 1.26-.34 1.91-3.65 2.44-6.74 2.76-11 2-.91-.76-1.81-1.52-2.75-2.31-.74-.56-1.48-1.11-2.25-1.69-.29.37-.29.37-1.75 2.25-2.25 2.75-2.25 2.75-4.43 3.14-6.09-.02-6.09-.02-8.82-1.39.08-.84.16-1.69.25-2.56l-.25-2.44q-3-.06-6 0c-1.94-1.56-1.94-1.56-3-4 .13-3.56.13-3.56 1-7 .66-.6 1.32-1.19 2-1.81.16-.2.16-.2 1-1.19-1.7-.54-3.41-1.07-5.14-1.49-2.48-.68-3.45-1.35-4.86-3.51-1.73-4.75-2.56-8.96-2-14 1.81-2.56 1.81-2.56 4-5 .45-1.01.91-2.02 1.37-3.06 2.08-3.75 3.77-5.08 7.63-6.94 2.28-.11 4.49.01 6.77.12 2.52-.13 3.74-.72 5.86-2.05 3.63-2.23 6.15-2.82 10.37-3.07l2 1 1-3c3-2 3-2 5.25-1.81"/><path fill="#4f334e" d="M184 118h4v2c.33.17.33.17 2 1l-2 2c.17.66.33 1.32.5 2 .17.66.33 1.32.5 2l-2 2h-2l2 2c2 4.44 2 4.44 2 7l2 1 2 1v2l2 1v3c.34 2.38.7 4.76 1.07 7.14-.01.3-.01.3-.07 1.86h-3c-.14.82-.29 1.65-.44 2.5-.09.41-.09.41-.56 2.5h-4c-.56 1.94-.56 1.94-1 4-.5.16-.5.16-3 1 .3 1.67.64 3.34 1 5l-2 2c-.06.46-.06.46-.38 2.81-.1.36-.1.36-.62 2.19-1.33-1-2.67-2-4-3-2.3-.43-4.55-.62-6.88-.79C169 173 169 173 166 172l.12 2.5-.12 2.5c-2.5-.31-2.5-.31-5-1v2c-.78-.14-1.57-.29-2.38-.44-.86.15-1.73.29-2.62.44-.78 2.44-1.14 4.78-1.45 7.32-.09.28-.09.28-.55 1.68-1.5-1.37-1.5-1.37-3-3-.81 2.25-.81 2.25-1 5l2 1h-2c-.16.5-.16.5-1 3h-3v-4l-2-1-1 2-2-2-2 2c-.33-.16-.33-.16-2-1v2h2v2l-3 3c-.16.5-.16.5-1 3-3.56.25-3.56.25-7 0v-1l3 .06 3-.06v-2c-2.69-.58-5.38-.9-8.11-1.24-.62-.25-1.25-.5-1.89-.76 1.34-2.09 1.34-2.09 3-4-2.25.31-2.25.31-5 1l-1-1-2.44.12L116 190l-2-3-1 2c-1.63-.69-1.63-.69-4-2-2.31-1.12-4.6-2.08-7-3v2l1.88.94C106 188 106 188 108 191c-2.4 1.36-4.42.96-7.12.69-9.65-3.16-15.71-13.7-20.19-22.23-3.53-7.24-6.38-14.34-6.69-22.46h2c.12-2.62.12-2.62 0-6s-.12-3.38 0-6h2c.12.66.25 1.32.38 2 .1.33.1.33.62 2h4c.27-.66.54-1.32.81-2 .39-.66.79-1.32 1.19-2 3.5-.38 3.5-.38 7 0 2.69 2.69 2 4.33 2 8h2l-1 2h-2l-1 3c-5.3 1.35-5.3 1.35-8 0l-1 2c-.14-1.11-.29-2.23-.44-3.38-.18-1.19-.37-2.39-.56-3.62h-2c-.31 2.88-.31 2.88 0 6l3 2c.05 2 .04 4 0 6 .69 3.38.69 3.38 2 6 2.75.25 2.75.25 5 0l-2 2c.6 2.02 1.27 4.02 2 6v3c2.56 1.68 3.89 2 7 2 1 3 1 3 .25 5.81-.08.72-.16 1.45-.25 2.19 2.38-.44 2.38-.44 5-2 .94-2.12.94-2.12 1-4h-2v-2h-2l-1-3c-.32.09-.32.09-1.94.56-.68.15-1.36.29-2.06.44-1.38-1.94-1.38-1.94-2-4h2c.34-1.33.68-2.66 1-4l1 3 1-2h3c.62-2.88.62-2.88 1-6l1-2h-2l-1-2c-1.26-.16-2.52-.33-3.81-.5-1.05-.16-2.11-.33-3.19-.5 1.32-.69 2.66-1.35 4-2v-4h2l-1-3c-.09-2.39-.13-4.79-.12-7.19-.01-1.27-.01-2.54-.01-3.85.04-.98.08-1.95.13-2.96h1c.61 3.28 1.15 6.57 1.63 9.87.79 4.72 1.85 7.67 5.37 11.13 3.34 2.14 5.7 2.12 9.61 1.82 13.45-.63 13.45-.63 18.39 1.18 2.71 3.82 1.78 8.43 1.23 12.83-.4 3.42-.33 4 1.49 7.17 2.67 2.34 4.6 2.84 8.15 2.61 7.03-2.02 12.89-10.38 17.69-15.61 4.23-4.58 8.48-9.1 12.93-13.46 3.55-3.62 5.73-6.62 5.89-11.73C180 135 180 135 178 132v-3c2 1 2 1 5 3-.16-.5-.16-.5-1-3 .34-1.94.34-1.94.94-4 .73-2.55 1.06-4.3 1.06-7"/><path fill="#5a3d57" d="M61 121l1 2h4l-1 3h-2v3c.81-.28 1.63-.55 2.46-.84.84-.05 1.68-.1 2.54-.16.48 2.94.59 5.42.56 8.38.48 20.7 6.5 39.04 21.42 53.84C94 194.01 98.24 197.2 103 200c.78.46 1.55.92 2.35 1.39 2.51 1.36 5.02 2.51 7.65 3.61.93.39 1.87.79 2.83 1.2 8.07 2.84 15.8 3.22 24.29 3.3l3.29.06c7.82-.06 17.77-.74 23.59-6.56l-2-3c-2.83.55-2.83.55-6.25 1.75-16.05 5.55-31.82 3.96-47.33-2.57-8.48-4.14-8.48-4.14-11.42-7.18 1.59-.61 1.59-.61 4-1l3-1c-1.64-1.37-3.31-2.7-5-4v-2c1.97.17 1.97.17 4.5.75.42.09.42.09 2.53.55.65.23 1.3.46 1.97.7v2c.33.16.33.16 2 1 .16-.5.16-.5 1-3 .33.5.33.5 2 3 2.56.81 2.56.81 5 1l1-2v3c.83-.33 1.65-.66 2.5-1 .41-.16.41-.16 2.5-1v3c-.33.16-.33.16-2 1 2.25.84 4.55 1.44 6.86 2.09.71.3 1.41.6 2.14.91l1 3c-.03-.37-.03-.37-.19-2.25.03-.45.03-.45.19-2.75 2-.69 2-.69 4-1v-2h-2v-2c2.44-1.25 2.44-1.25 5-2l1 2h4c-.38 2-.38 2-1 4h2c1-2 1-2 1.94-5.69.35-1.09.7-2.18 1.06-3.31l2 1 .88-3.38c.18-.59.18-.59 1.12-3.62 2-1 2-1 4-1l2 1v-2h4c.56-1.94.56-1.94 1-4l3-1v2c2.27.11 4.48-.07 6.74-.22 2.78.27 3.41 1.24 5.26 3.22 1-2.12 1-2.12 2-5 1.5-1.81 1.5-1.81 3-3h2l1.06-2.12L190 164c1 2 1 2 1 6 1.94.69 1.94.69 4 1 1 1 1 1 1.31 3.75-.37 3.87-1.75 5.42-4.31 8.25.26-.23.26-.23 1.58-1.38 2.84-1.9 4.01-1.87 7.36-1.62 4.26.12 6.74-.08 10.06-3 1.03-1.65 2.04-3.31 3-5l1 2c-.31.45-.31.45-1.88 2.75-2.16 3.32-2.58 5.41-3.12 9.25-.33.16-.33.16-2 1-2.84 2.31-3.47 4.12-4.06 7.69-.41 2.45-.41 2.45-.94 4.31h-2c-.07.46-.07.46-.44 2.81-.59 3.38-1.09 4.04-3.56 6.19v2c1.75.27 1.75.27 4 .25.37 0 .37 0 2.25.02.58-.09 1.16-.18 1.75-.27v-2h4l1-3h3v-3l3 1c-3.44 4.08-7.28 6.64-12 9-1.36-.06-2.71-.14-4.06-.25-1.3.08-2.6.17-3.94.25-.94 2.62-.94 2.62-1 5-1-2-1-2-.19-4.75.06-.74.13-1.49.19-2.25-3.4.62-5.48 1.48-7.94 3.94L186 215c.09-.36.09-.36.56-2.19.07-.46.07-.46.44-2.81-5-3.75-12.26-1.81-18-1-3.93.84-7.77 1.93-11.62 3.06-7.45 2.07-14.64 2.16-22.32 2.19l-3.5.06c-7.34.04-12.63-.33-18.62-4.87-2.5-1.86-4.98-2.51-7.94-3.44-5.06-1.81-8.09-3.78-11.64-7.65C92 197 92 197 89.62 195.81L88 195v-3c-.5-.16-.5-.16-3-1-5.94-5.02-8.34-11.92-11-19-.45-1.12-.89-2.23-1.35-3.38-4.45-11.22-5.95-19.65-5.22-31.63.15-4.81.15-4.81-.43-6.99-2.99.2-2.99.2-6 1-.62-2.16-.62-2.16-.44-5.06.02-.48.02-.48.13-2.91.1-.67.21-1.34.31-2.03"/><path fill="#f2d7c3" d="M193 93h3c1.69 1.31 3.35 2.64 5 4l3 1c.62 2.25.62 2.25 1 5 .44 2.81.44 2.81 1 5h2c1.25 2.37 1.25 2.37 2.56 5.44 2.36 5.48 2.36 5.48 3.44 6.56.23-.8.45-1.61.69-2.44.43-.84.86-1.69 1.31-2.56 1.03.06 2.06.12 3.12.19.95-.06 1.9-.13 2.88-.19.43-2.69.13-5.27 0-8l3 1c.14.83.29 1.65.44 2.5.18.83.37 1.65.56 2.5 2.01.93 2.01.93 4 1 .46-1.87.46-1.87.38-4.44-.02-.84-.03-1.69-.04-2.56-.11-.66-.23-1.32-.34-2h-2c-.81-3.69-.81-3.69-1-7 2.4 1.26 3.13 3.3 4.19 5.69 1.27 5.2 1.17 9.71 0 14.87-.24 4.28.92 5.68 3.58 8.86 3.85 4.95 2.82 12.71 2.23 18.58-1.27 3.34-2.93 6.1-5 9l-1 2c.31.85.62 1.69.94 2.56 2 6.47 1.8 11.51-1.06 17.69-2.38 4.34-4.77 7.01-8.88 9.75h-2c.03 1.92.07 3.84.11 5.75-.18 3.69-1.25 6.06-3.11 9.25h-4v3c-.5.16-.5.16-3 1l-1 2h-4v2c-3.02 1.51-5.69 1.25-9 1l1-3-2-1c.76-.23 1.53-.45 2.31-.69.89-.43 1.78-.86 2.69-1.31.69-3.12.69-3.12 1-6h2c.37-2.31.45-4.6.56-6.93.14-.69.29-1.37.44-2.07.5-.16.5-.16 3-1v-4h2c.73-1.98 1.39-3.98 2-6l1-2c-.89.64-1.77 1.28-2.69 1.94-3.31 2.06-3.31 2.06-5.5 2-2.11-1.1-3.5-1.93-4.81-3.94 1.5-1.62 1.5-1.62 3-3l-3-1c.09-.36.09-.36.56-2.19.15-.6.29-1.19.44-1.81-.33.16-.33.16-2 1-.33.16-.33.16-2 1 .21-2.59.7-3.74 2.67-5.45.69-.41 1.37-.82 2.08-1.24.68-.41 1.35-.83 2.05-1.26 2.2-1.05 2.2-1.05 4.91-1.28.76-.26 1.51-.51 2.29-.77.71-2.82.71-2.82.81-6.56.02-.67.05-1.34.07-2.03.04-1.42.07-2.85.08-4.27.04-2.04.13-4.09.23-6.13.33-10.37-.51-22.92-6.19-32.01.92 2.94 1.95 5.84 2.96 8.75 3.85 12.01 3.52 27.33.18 39.42-1.59 2.55-3.34 2.94-6.14 3.83-.33.16-.33.16-2 1 .37-1.73.85-3.43 1.35-5.12 1.77-6.72 2.13-12.96 2.09-19.88l.06-3.29c-.01-14.63-5.85-27.71-15.05-38.9C187 94 187 94 186 92c3.35-1.43 3.82-1.12 7 1"/><path fill="#b98cb2" d="M59 109c2.01.26 4.01.6 6 1 2 0 2 0 4-.75.66-.08 1.32-.17 2-.25 1.06 1.94 1.06 1.94 2 4h3c1.81 1.19 1.81 1.19 3 3-.86 3.14-2.18 5.28-4 8-2.34 20.18.58 39.39 13.14 55.79 11.75 13.58 27.86 23.08 46.03 24.45 10.94.23 20.84-1.7 31.25-5.01.52-.08 1.04-.15 1.58-.23 1.06 2.25 1.06 2.25 1 5-7.17 6.43-18.7 6.52-27.75 6.44l-3.49-.03c-8.56-.17-15.83-.95-23.76-4.41-.6-.26-1.2-.52-1.81-.78C92.89 197.09 79.38 182.6 72 164c-3.53-10.06-4.49-19.67-3.68-30.28.13-2.36.13-2.36-.32-5.72-3.01.66-3.01.66-6 2 0-2.94 0-2.94 1-6l2 1 1-2h-4c-1 1.81-1 1.81-2 4-2.06 1.88-2.06 1.88-4 3l-1-2c-.47.95-.95 1.9-1.44 2.88-.51 1.03-1.03 2.06-1.56 3.12h-2l-1-3c-2.03 0-2.03 0-4 1-.53 2.21-.53 2.21-.5 4.94l-.03 2.71c.17.78.35 1.55.53 2.35 1.32.69 2.65 1.36 4 2l-2 3 3 1c1.63 2.37 2.02 3.61 1.88 6.5-.29.5-.58.99-.88 1.5-4.09-2.82-6.55-7.35-8-12-1.22-8.77.07-15.63 5-23l2-2h3c.12-3.44.12-3.44 0-7l1-1 2.56.06L59 111Z"/><path fill="#f3ddcd" d="M145 98c8.16 4.08 14.27 12.06 20.11 18.89 2.26 2.52 4.66 4.87 7.08 7.23 8.35 8.35 8.35 8.35 9.5 14.69-.61 9.41-11.29 16.91-17.61 23.11a111 111 0 0 0-6.89 7.46c-9.47 10.96-9.47 10.96-15.38 11.43-3.97-.84-5.42-1.79-7.91-4.95-1.42-2.95-.71-5.31-.12-8.43.74-4.16.79-6.42-.78-10.43-5.84-1.86-12.17-.78-18.16-.21-3.79.31-6.28.51-9.5-1.61-4.68-4.35-6.14-7.29-6.58-13.64-.02-1.29-.05-2.58-.07-3.92l-.12-3.89c.64-5.58 2.98-8.31 6.91-12.16 4.52-2.02 7.73-1.52 12.58-1.06 10.41.94 10.41.94 14.94-.51 1.83-4.72 1.26-7.92.36-12.79-.37-2.21-.37-2.21-.36-4.21 3.55-4.84 6.06-5.94 12-5m-5.75 8.25C138 108 138 108 138.09 109.9c.19.7.37 1.39.57 2.11.77 3.91 1.42 7.46.54 11.4-1.2 1.59-1.2 1.59-3.72 2.29-4.81.31-9.47.09-14.26-.36-10.49-.94-10.49-.94-14.54 2.18-3.04 3.28-3.57 5.99-3.43 10.48.21 4.26.39 7.45 3.13 10.81 3.88 3.24 3.88 3.24 7.33 3.02 1.12-.12 2.24-.24 3.39-.37 15.35-1.21 15.35-1.21 20.9.54 2.49 3.49 1.74 7.29 1.11 11.33q-.435 2.355-1.02 4.68c-.09 1.99-.09 1.99 1.17 3.75 1.74 1.24 1.74 1.24 4.99 1.36 5.06-1.51 7.36-4.19 10.75-8.12.53-.61 1.06-1.22 1.61-1.86 1.12-1.29 2.24-2.59 3.36-3.89 3.36-3.72 6.98-7.16 10.58-10.64 5.39-5.74 5.39-5.74 5.55-10.46-1.57-4.49-4.35-7.18-7.66-10.53-.64-.66-1.27-1.32-1.93-2-3.91-4.05-7.88-8.05-11.92-11.97-1.55-1.61-2.83-3.28-4.15-5.09-2.44-2.56-2.44-2.56-6.06-3.62-3.38.06-3.38.06-5.13 1.31"/><path fill="#9c698a" d="M99 58l2 1v2c.72-.23 1.44-.45 2.19-.69.6-.1 1.19-.2 1.81-.31-1.06 2.38-1.06 2.38-3 5l-3 1c-1.12 3-1.12 3-2 6l-1 1c-.19 3.38-.19 3.38 0 6 .31-.78.62-1.57.94-2.38.17-.43.17-.43 1.06-2.62.56 1.62.56 1.62 1 4l1 1c.1.68.21 1.36.31 2.06.23.64.46 1.28.69 1.94h4v2c1.86.08 1.86.08 4.31-.19.8-.07 1.6-.15 2.43-.23 2.6-.67 3.44-1.69 5.26-3.58l2 1c-.56.58-1.11 1.16-1.69 1.75-.43.74-.86 1.48-1.31 2.25l2.31 2.31C121 91 121 91 121.56 94.56 121 98 121 98 119.31 100.38c-2.31 1.62-2.31 1.62-5 1.87-.76.25-1.52.5-2.31.75-.62 3.94-.62 3.94-.66 6.09-.11.63-.23 1.26-.34 1.91-3.65 2.44-6.74 2.76-11 2-.91-.76-1.81-1.53-2.75-2.31-.74-.56-1.48-1.12-2.25-1.69-.29.37-.29.37-1.75 2.25C91 114 91 114 88.82 114.38c-6.09-.02-6.09-.02-8.82-1.38.08-.85.16-1.69.25-2.56L80 108q-3-.06-6 0c-1.94-1.56-1.94-1.56-3-4 .22-6.24.22-6.24 2.94-8.88L75 94c-2.81-.62-2.81-.62-6-1v-1c3.19-.3 6.37-.45 9.57-.62C82 91 84.83 90.34 88 89v-2c-2.33-.37-4.66-.71-7-1v-1l3.5.06L88 85v-2h2v-3h3c-.1-6.01-1.47-9.06-5-14l1-2c.85.74 1.69 1.48 2.56 2.25.81.58 1.61 1.16 2.44 1.75.19-2.75.19-2.75 0-6h2l1-2-.12 2.56L97 65c1.56-.94 1.56-.94 3-3-.44-2.25-.44-2.25-1-4"/><path fill="#4c2f48" d="M172.272 81.401c16.31 9.98 25.83 23.32 31.29 41.48.51 2.49.57 4.79.57 7.32v2.97c0 1.02 0 2.03-.01 3.08.01 1.03.01 2.06.01 3.12v5.67c-.05.65-.09 1.29-.13 1.96h-1c-.1-1.63-.19-3.25-.24-4.88-.24-6.79-.97-13.26-2.57-19.87-.16-.67-.31-1.33-.47-2.02-1.09-4.2-2.59-6.32-5.72-9.23v-3c-.39-.06-.39-.06-2.38-.38-.86-.2-1.73-.41-2.62-.62-1.19-2.56-1.19-2.56-2-5h-2v-3c-.06.3-.06.3-.38 1.81-.2.72-.41 1.45-.62 2.19h-2v2h-3l-1 2v-3h2v-3h-2l1-2h3v-3c-.62-.15-1.24-.29-1.88-.44-2.12-.56-2.12-.56-3.37-2.44-.75-2.12-.75-2.12-.75-5.12-2.31-1.06-2.31-1.06-5-2l-3-2c-3.12-.1-6.18.07-9.29.22-.89-.07-1.79-.15-2.71-.22l-2-3c-2.33-.36-4.66-.7-7-1v-2c-3.03-.56-3.03-.56-6.94-.88-1.29-.12-2.58-.24-3.9-.36-1.04.08-2.09.16-3.16.24-.79 1.98-.79 1.98-1 4-2.5.12-2.5.12-5 .0001230468749895408l-1 2v-2c-3.25.81-3.25.81-6 2 .26.03.26.03 1.56.19.8.26 1.61.53 2.44.81.69 3.31.69 3.31 1 7 .31 2.5.31 2.5 1 4 2.19-.19 2.19-.19 4-1l-2-1c1.31-3.56 1.31-3.56 3-7h1l-.06 2.5.06 2.5h2c-.21-.64-.41-1.28-.63-1.94-.12-.68-.24-1.36-.37-2.06 1.87-.94 1.87-.94 4-1l1 3c1.06 1.69 1.06 1.69 3 3 1.9.12 1.9.12 4.06.06l3.94-.06 2 2c-.79.14-1.57.29-2.38.44-.86.18-1.73.37-2.62.56v3c-1.95.23-3.9.44-5.86.49-3.21.76-4.29 1.78-6.14 4.51-.12 2.19.07 4.27.26 6.45.31 4.07.19 6.66-1.26 10.55-5.74 2.16-13.22.49-19-1l-1-1c.08-2 .08-2 .37-4.44.09-.8.18-1.6.28-2.43.35-2.13.35-2.13 1.35-4.13h3c1.06-1.88 1.06-1.88 2-4l2-2c.19-2.63.19-2.63 0-5h-1c-.27-1.07-.54-2.15-.81-3.25-1.19-3.75-1.19-3.75-3.63-5.88-.26-.31-.26-.31-1.56-1.87 2.12-2.5 2.12-2.5 5-5 .31-.72.62-1.44.94-2.19 1.06-1.81 1.06-1.81 3.44-2.9 15.66-3.94 34.02-1.53 47.89 6.49"/><path fill="#efd4c5" d="M59 126l2 1-.12 3 .12 3c.65.12 1.29.25 1.96.38.67.2 1.35.41 2.04.62.61 2.15.61 2.15.76 4.95.03.51.03.51.2 3.07.06 1.07.11 2.13.16 3.23.13 2.09.25 4.18.39 6.27.05.93.09 1.86.14 2.82.37 2.83 1.29 5.02 2.35 7.66v4h2c3.3 6.18 6.13 12.93 6 20-1.94 1.81-1.94 1.81-4 2l.06-2.25L73 183c-2.69-1.56-2.69-1.56-5-2 .41.5.83.99 1.25 1.5C71 185 71 185 70.88 188.25c-.15.45-.15.45-.88 2.75h-3c-.65 2.25-.65 2.25-1 4-.32-1.47-.32-1.47-.56-4.06-.09-.84-.17-1.68-.26-2.54C65 186 65 186 65 183c.33-.16.33-.16 2-1l-1-2c-3.06.25-3.06.25-6 1v2c-2.06-.56-2.06-.56-4-2 .19-.89.37-1.77.56-2.69.15-.76.29-1.52.44-2.31-.85.19-1.69.37-2.56.56-.81.15-1.61.29-2.44.44.5-2.94.5-2.94 2-6h3l-1-2 .06-3.62L56 162h-2c-.02 2.11.2 4.15.42 6.25-.14.58-.28 1.16-.42 1.75-2.48.65-2.48.65-5 0-.56-2.77-.56-2.77-.44-6.38.02-1.18.05-2.36.07-3.58C49 157 49 157 51 155c-.23-2.95-.51-4.51-2.62-6.62L47 147l1-3-1.91-.88L44 142c-.46-2.28-.46-2.28-.38-4.94.02-.87.03-1.75.04-2.65C44 132 44 132 46 129v2c.33-.1.33-.1 2-.62.66-.13 1.32-.25 2-.38v4h2c.68-2 1.35-4 2-6l2-1 1 2Z"/><path fill="#ddbfac" d="M223 151l2 1v3c.25 2.69.25 2.69 1 5h4l1-3c2.69 5.71 3.15 11.68 1.09 17.62-2.51 5.43-5.1 9.06-10.09 12.38h-2c.03 1.92.07 3.84.11 5.75-.18 3.69-1.25 6.06-3.11 9.25h-4v3c-.5.16-.5.16-3 1l-1 2h-4v2c-3.02 1.51-5.69 1.25-9 1l1-3-2-1c.76-.23 1.53-.45 2.31-.69.89-.43 1.78-.86 2.69-1.31.69-3.12.69-3.12 1-6h2c.37-2.31.45-4.6.56-6.93.14-.69.29-1.37.44-2.07.5-.16.5-.16 3-1v-4h2c.73-1.98 1.39-3.98 2-6l1-2c-.89.64-1.77 1.28-2.69 1.94-3.31 2.06-3.31 2.06-5.5 2-2.11-1.1-3.5-1.93-4.81-3.94 1.5-1.62 1.5-1.62 3-3l-3-1c.19-.72.37-1.44.56-2.19.07-.3.07-.3.44-1.81l-2 1-2 1c0-2.64.85-3.85 2.69-5.69 4.99-2.83 12.67-3.41 18.31-2.31-1.52 2-3.33 3.23-5.38 4.69-.53.43-1.07.86-1.62 1.31h3v-2c1.32-.68 2.66-1.35 4-2l1-2c-.76-.37-1.53-.74-2.31-1.12-.56-.29-1.12-.58-1.69-.88 2.75-.31 2.75-.31 6 0 0 1.97-.05 3.94-.14 5.91-.19 5.54-.19 5.54.14 8.09 1.81-2.31 1.81-2.31 2.83-4.3.39-.56.77-1.12 1.17-1.7h3v-2h-3c-.7-2.08-.7-2.08-1.12-4.81-.48-2.87-.96-5.42-1.88-8.19Z"/><path fill="#b07ab0" d="M190 164c1 2 1 2 1 6 1.94.69 1.94.69 4 1 1 1 1 1 1.31 3.75-.37 3.87-1.75 5.42-4.31 8.25.43-.41.87-.82 1.31-1.25 2.69-1.75 2.69-1.75 6.38-1.5C203 181 203 181 204 182c.26 4.03.29 5.56-2 9 .29 1.68.62 3.34 1 5-.16.33-.16.33-1 2-.51-.03-.51-.03-3.06-.19-.97.06-1.94.13-2.94.19-.04 1.67-.04 3.33 0 5-2.5.69-2.5.69-5 1v2c-2.31.38-2.31.38-5 0-2.18-2.18-2.93-3.5-3.38-6.56-.1-.24-.1-.24-.62-1.44l-2.25 2.25c-2.75 2.75-2.75 2.75-5.5 3.37-.74-.2-1.49-.41-2.25-.62-.38-1.66-.71-3.32-1-5-.7-.16-1.4-.33-2.12-.5-.62-.16-1.24-.33-1.88-.5 0-2.31 0-2.31 1-5 .78-.66 1.57-1.32 2.38-2 .53-.66 1.07-1.32 1.62-2-2.31-2.5-2.31-2.5-5-5 .06-2.31.06-2.31 1-4h2c.38-1.66.71-3.32 1-5 1-1 1-1 3.88-1.25 3.12.25 3.12.25 4.87 2.06.41.39.82.79 1.25 1.19 1-2.12 1-2.12 2-5 1.5-1.81 1.5-1.81 3-3h2c.18-.35.18-.35 1.06-2.12Z"/><path fill="#633b53" d="M61 121l1 2h4l-1 3h-2v3c.81-.28 1.63-.55 2.46-.84.84-.05 1.68-.1 2.54-.16.48 2.94.59 5.42.56 8.38.48 20.7 6.5 39.04 21.42 53.84C94 194.01 98.24 197.2 103 200c.78.46 1.55.92 2.35 1.39 2.51 1.36 5.02 2.51 7.65 3.61.93.39 1.87.79 2.83 1.2 8.07 2.84 15.8 3.22 24.29 3.3l3.29.06c7.82-.06 17.77-.74 23.59-6.56l-1-3 1-2h4c.1.68.21 1.36.31 2.06.23.64.46 1.28.69 1.94 3.31.06 3.31.06 7-1 .76-1.01 1.53-2.02 2.31-3.06.56-.64 1.12-1.28 1.69-1.94.48 1.96.94 3.92 1.3 5.9.7 2.1.7 2.1 3.82 3.72.95.13 1.9.25 2.88.38v-2c.66-.08 1.32-.17 2-.25.66-.25 1.32-.5 2-.75-.06-1.03-.12-2.06-.19-3.12.06-.95.13-1.9.19-2.88 2.33.33 4.67.67 7 1 .44-2.75.44-2.75 0-6 0-3 0-3 1-4-.07-.55-.07-.55-.44-3.31.15-1.22.29-2.44.44-3.69 1.92-1.35 3.85-2.14 6.02-3.02 2.73-1.35 3.65-3.32 4.98-5.98l1 2c-.31.45-.31.45-1.88 2.75-2.16 3.32-2.58 5.41-3.12 9.25-.33.16-.33.16-2 1-2.84 2.31-3.47 4.12-4.06 7.69-.41 2.45-.41 2.45-.94 4.31h-2c-.07.46-.07.46-.44 2.81-.59 3.38-1.09 4.04-3.56 6.19v2c1.75.27 1.75.27 4 .25.37 0 .37 0 2.25.02.58-.09 1.16-.18 1.75-.27v-2h4l1-3h3v-3l3 1c-3.44 4.08-7.28 6.64-12 9-1.36-.06-2.71-.14-4.06-.25-1.3.08-2.6.17-3.94.25-.94 2.62-.94 2.62-1 5-1-2-1-2-.19-4.75.06-.74.13-1.49.19-2.25-3.4.62-5.48 1.48-7.94 3.94L186 215c.09-.36.09-.36.56-2.19.07-.46.07-.46.44-2.81-5-3.75-12.26-1.81-18-1-3.93.84-7.77 1.93-11.62 3.06-7.45 2.07-14.64 2.16-22.32 2.19l-3.5.06c-7.34.04-12.63-.33-18.62-4.87-2.5-1.86-4.98-2.51-7.94-3.44-5.06-1.81-8.09-3.78-11.64-7.65C92 197 92 197 89.62 195.81L88 195v-3c-.5-.16-.5-.16-3-1-5.94-5.02-8.34-11.92-11-19-.45-1.12-.89-2.23-1.35-3.38-4.45-11.22-5.95-19.65-5.22-31.63.15-4.81.15-4.81-.43-6.99-2.99.2-2.99.2-6 1-.62-2.16-.62-2.16-.44-5.06.02-.48.02-.48.13-2.91.1-.67.21-1.34.31-2.03"/><path fill="#f4d9c6" d="M179.36 211.77c.54.41 1.08.81 1.64 1.23v4c-1.32.37-2.66.71-4 1 .64.25 1.28.5 1.94.75.68.41 1.36.83 2.06 1.25-1.54 3.86-3.3 5.34-7 7v2c-2.63.23-2.63.23-6.12.19-1.14-.01-2.28-.01-3.45-.02-4.12-.2-7.95-.68-11.87-1.98-.51-.06-1.03-.13-1.56-.19.22.62.43 1.24.65 1.88.06.35.06.35.35 2.12-4.63 2.98-10.65 3.42-16 3-.4-.03-.4-.03-2.44-.19-.51-.27-1.03-.53-1.56-.81-.48-2.54-.48-2.54 0-5 2.79-.42 2.79-.42 6.19-.19 1.6.07 3.21.13 4.81.19q-2.22-.36-4.44-.69c-5.81-.96-8.58-2.02-12.56-6.31-1.44-2.25-1.44-2.25-2-4 1-1 1-1 2.97-1.08a493 493 0 0 0 5.45.09c1.98.03 3.95.07 5.93.12 7.85.09 15.29-.53 22.53-3.75 5.66-2.28 12.68-2.5 18.48-.61"/><path fill="#ae77be" d="M144.438 105.063c3.77.99 5.29 1.81 7.56 4.94l-1 2c-1.48-1.29-2.97-2.58-4.44-3.88-1.56-1.12-1.56-1.12-3.87-1-1.69.88-1.69.88-2.69 1.88-.21 2.83-.37 5.66-.5 8.5-.36 8.36-.36 8.36-1.5 9.5-1.74.12-3.49.18-5.24.21-1.07.03-2.13.06-3.23.08-2.26.06-4.52.1-6.78.14l-3.24.09-2.98.06c-2.93.48-3.58 1.29-5.53 3.42h-3q-.06 3 0 6h-2c-.35 6.3-.35 6.3 1 9 3.94 0 6.42-.46 10-2v-3c2.34-.34 4.67-.67 7-1v-3l-2-1c3.5-.19 3.5-.19 7-.0004999999999881766l-2 2 1 2 .94-1.88 1.06-2.12h2l1 2c.7.29 1.41.57 2.13.87.62.37 1.24.75 1.87 1.13.13 2 .13 2-1 4-3.31 1.54-5.71 2-9.37 1.94l-2.63.06v3c-2.3.33-2.3.33-5.31.25-.99-.02-1.97-.03-2.99-.05-2.7-.2-2.7-.2-5.7-1.2v2c2.56.21 2.56.21 6.09.16.63-.01.63-.01 3.82-.04l4.03-.06c2.61-.04 5.23-.06 7.84-.09 1.17-.02 2.34-.04 3.54-.05 2.68.08 2.68.08 3.68 1.08.15 1.33.23 2.66.28 4l.12 2.44.21 5.12c.02.4.02.4.11 2.44l.09 2.25c.19 1.75.19 1.75 1.19 2.75 5.32.46 5.32.46 7.75-1.19 1.56-2.26 3.25-4.99 3.25-7.81-1.92-1.99-3.75-3.83-6-5.44-.16-.26-.16-.26-1-1.56 1.69-2.94 1.69-2.94 4-5 1.38 2 1.38 2 2 4-.62-2.19-.62-2.19-2-5-2.06-.75-2.06-.75-4-1l-1-1-1.56 1.62c-.47.46-.95.91-1.44 1.38v-5c.31-.05.31-.05 1.88-.32 2.12-.68 2.12-.68 3.37-3.06.75-2.62.75-2.62.75-5.62l3 1c1 3 1 3 1 5h5v2h-3c.19 2.44.19 2.44 1 5 .33.16.33.16 2 1h-4v3c.33.16.33.16 2 1h-2v2c2.12-.39 4.1-1.05 6.15-1.69.31-.05.31-.05 1.85-.31l1 2c-.08-1.26-.16-2.52-.25-3.82-.03-2.28-.03-2.28.25-4.18 2.32-.82 2.32-.82 5-1 1.75-1.56 1.75-1.56 3-3h1v-2c.68.22 1.36.44 2.06.67.64.11 1.28.21 1.94.33-.18-2.01-.18-2.01-1-4.69-.68-2.52-.68-2.52-1-4.31 1.94 1.06 1.94 1.06 4 4-.21 4.88-1.61 7.26-4.94 10.75-.81.86-1.62 1.71-2.45 2.6-3.39 3.44-6.8 6.86-10.24 10.25-2.78 2.82-5.36 5.77-7.89 8.8-2.14 2.31-3.84 3.52-6.98 3.91-2.5-.31-2.5-.31-4.19-1.57-1.31-1.74-1.31-1.74-1.22-3.74.19-.73.38-1.47.57-2.23.77-4.13 1.42-7.92.55-12.08-1.21-1.69-1.21-1.69-3.75-2.45-6.05-.47-11.93.06-17.97.61-6.99.53-6.99.53-10.29-2.18-3.26-3.97-3.48-6.3-3.7-11.42-.07-1.21-.14-2.43-.22-3.67.86-4.25 1.91-5.95 5.31-8.55 5.14-2.2 10.92-.86 16.35-.35 8.8.49 8.8.49 13.06-.68 2-2.65 1.82-5.1 1.5-8.32-.38-2.3-.8-4.53-1.41-6.78-.09-1.9-.09-1.9 1.16-3.66 1.75-1.24 1.75-1.24 5.19-1.18"/><path fill="#d9b7a5" d="M95 200c1.36.96 2.68 1.98 4 3 1.99.71 3.99 1.37 6 2 4.78 1.88 8.74 4.16 13 7 13.85 4.54 37.85 2.57 51-4 2.28-.31 4.58-.55 6.88-.75 1.23-.12 2.46-.24 3.74-.36 3.38.11 3.38.11 5.83 1.34C187 210 187 210 187 214l1-3c3.62-1.25 3.62-1.25 7-1 .74 3.17.01 5.96-1 9-3.16 3.91-6.29 6.53-11.19 7.88-3.04.89-4.96 1.71-7.62 3.24-4.66 2.43-9.04 2.53-14.19 1.88-1.05-.43-2.1-.87-3.19-1.31-2.81-.69-2.81-.69-4.62.26-1.22.89-2.42 1.82-3.58 2.79-4.56 3.57-11.15 2.76-16.61 2.26-4.21-1.29-7.14-3.14-10.25-6.25-.25-.58-.5-1.16-.75-1.75h4c0-5.03-1.49-7.49-5-11l-3-1c-.6-.64-1.21-1.27-1.83-1.93-2.54-2.42-4.6-3.15-7.92-4.19-2.98-.95-2.98-.95-5.25-1.88v-2l-2.88-.31c-1.03-.23-2.06-.46-3.12-.69-1.62-2.75-1.62-2.75-2-5m62.65 14.03c-7.99 2.93-16.86 2-25.22 1.76-.96-.02-1.91-.03-2.9-.05l-2.64-.06c-.62.1-1.25.21-1.89.32 0 3.61 1.18 4.99 3.52 7.64 3.39 3.11 7.66 3.41 12.04 3.98.81.13 1.61.25 2.44.38l-2.01-.12c-1.01-.04-2.01-.08-3.05-.13-.54-.03-.54-.03-3.29-.2-.87.15-1.75.3-2.65.45-.47 2.46-.47 2.46 0 5 1.56.81 1.56.81 4 1 .53.04.53.04 3.19.25 4.47-.29 8.84-1.06 12.81-3.25v-3c6.1-.45 6.1-.45 9 1 2.21.12 4.42.18 6.62.19.6 0 .6 0 3.61.04.91-.08 1.83-.15 2.77-.23v-2c.6-.27 1.2-.54 1.81-.81 2.89-1.57 3.98-3.16 5.19-6.19-2.06-1.25-2.06-1.25-4-2 .6-.1 1.2-.21 1.81-.31q1.08-.345 2.19-.69c.12-2.5.12-2.5-1-5-2.5-.81-2.5-.81-6-1-.68-.06-1.35-.12-2.05-.19-5.45-.31-9.39.87-14.3 3.22"/><path fill="#3a2436" d="M97 133h1c.61 3.28 1.15 6.57 1.63 9.87.79 4.72 1.85 7.67 5.37 11.13 3.34 2.14 5.7 2.12 9.61 1.82 13.45-.63 13.45-.63 18.39 1.18 2.71 3.82 1.78 8.43 1.23 12.83-.4 3.42-.33 4 1.49 7.17 2.67 2.34 4.6 2.84 8.15 2.61 7.03-2.02 12.89-10.38 17.69-15.61 1.25-1.36 2.5-2.71 3.76-4.06.3-.33.3-.33 1.84-1.99 1.83-1.94 3.72-3.82 5.63-5.69 2.35-2.33 4.34-4.57 6.02-7.45.38-.63.76-1.26 1.15-1.92 1.04-1.89 1.04-1.89 2.19-4.43L183 137c.27 5.99-.62 11.99-4 17h-2c-.14.6-.29 1.2-.44 1.81-.68 2.65-1.38 3.56-3.56 5.19-.85.14-1.69.29-2.56.44-.81.18-1.61.37-2.44.56-1.12 1.81-1.12 1.81-2 4-1.5 2.25-1.5 2.25-3 4h-2c-.29.72-.58 1.44-.88 2.19-2.26 5.66-5.92 8.77-11.12 11.81-1.32.37-2.66.71-4 1l-2 2c-3.12-.75-3.12-.75-6-2v-2h-3c-.34-1.67-.67-3.33-1-5l-3-1c.33-1.67.67-3.33 1-5l-3-1v-2l-2-1v-3h-3l-2-1-1 3v-3l-1.31 1.31L117 167h-3v-3c-2.33-.37-4.66-.71-7-1v-2l-2-1-2-1v-2c-.97-.27-1.94-.54-2.94-.81-1.01-.39-2.02-.79-3.06-1.19-1-2.62-1-2.62-1-5h2l-1-3c-.09-2.39-.13-4.79-.12-7.19-.01-1.27-.01-2.54-.01-3.85.04-.98.08-1.95.13-2.96"/><path fill="#e7c6b1" d="M103 134h1c.14 1.73.23 3.46.31 5.19.38 4.77 1.02 7.47 4.69 10.81 2.81 1.4 4.94.9 8.07.68 15.3-.64 15.3-.64 20.93 1.32 3.08 4.09 2.14 9.09 1.54 13.9-.15.74-.29 1.48-.43 2.24-.04.61-.07 1.23-.11 1.86 2 2 2 2 5.13 2.13 5.39-.96 8.37-5.25 11.81-9.19 1.34-1.49 2.68-2.99 4.02-4.48.66-.73 1.32-1.47 2-2.23 2.69-2.94 5.53-5.73 8.39-8.5 1.95-2.04 3.27-4.28 4.65-6.73h2v-2h4c.11 4.56-1.53 7.13-4.59 10.39-.49.49-.97.98-1.47 1.49-.5.52-1 1.04-1.51 1.58-3.47 3.62-7.02 7.16-10.6 10.68-1.87 1.9-3.6 3.89-5.33 5.92-9.85 11.28-9.85 11.28-15.69 11.75-3.97-.84-5.42-1.79-7.91-4.95-1.42-2.95-.71-5.31-.12-8.43.74-4.16.79-6.42-.78-10.43-5.84-1.86-12.17-.78-18.16-.21-3.79.32-6.28.51-9.5-1.63-4.51-4.17-5.98-6.84-6.34-13.16h2c.56-1.75.56-1.75 1-4 .3-1.34.62-2.68 1-4"/><path fill="#6b455f" d="M133 77c2.65-.33 2.65-.33 5.94-.25 1.08.02 2.16.03 3.27.05C145 77 145 77 147 78v2c2.02-.03 4.04-.07 6.05-.22.65.07 1.29.14 1.95.22l2 3c2.32.12 2.32.12 5.12-.12 5.22-.16 8.14.83 12.42 3.73C176 88 176 88 177 91l2 2-1 2c.82.12 1.65.25 2.5.38.82.2 1.65.41 2.5.62.06 2.12.06 2.12-1 4-1.81-.31-1.81-.31-4-1-1.34.31-2.67.65-4 1l-2-1v-3c-.33.16-.33.16-2 1-.34-1.33-.68-2.66-1-4-.36 1.33-.68 2.66-1 4l-2 2c-.16-.33-.16-.33-1-2 .58-.87 1.16-1.73 1.75-2.62L168 92c-2.31-.19-2.31-.19-5 0v-2c-2.31.7-4.5 1.64-6.74 2.57-.74.14-1.49.28-2.26.43-1.79-1.54-1.79-1.54-3-3v2c-2.08.41-2.08.41-4.81.62-.9.08-1.79.15-2.71.23-1.82.11-3.65.15-5.48.15l-2-2c.19-.91.37-1.81.56-2.75.15-.74.29-1.48.44-2.25l-3 2v3h-2l-1-2c-1.12 1.62-1.12 1.62-2 4 .44 2.38.44 2.38 1 4l-1-2h-3c-2.14-3.28-3.19-5.02-2.44-8.94.15-.68.29-1.36.44-2.06-1.94.31-1.94.31-4 1v-2c3.58-2.39 5.86-2.35 10.04-2.56.65-.14 1.29-.29 1.96-.44Z"/><path fill="#debdb7" d="M48 159h1c-.09 2.87-.27 5.73-.45 8.59.15.8.3 1.59.45 2.41 2.5.59 2.5.59 5 0 .42-1.75.42-1.75.19-4-.21-2.25-.21-2.25-.19-4h2c.52 1.97.52 1.97.81 4.5.11.84.22 1.67.33 2.53-.04.65-.09 1.3-.14 1.97h-3c-.94 2.5-.94 2.5-1 5h4c.12 2.5.12 2.5 0 5 2 0 2 0 3.88-1.06 2.12-.94 2.12-.94 4.5-.88.26.16.26.16 1.62.94-.81 2.5-.81 2.5-2 5l1 1c.29 3 .45 6.01.62 9.02.36 2.83.79 4.63 2.38 6.98 2 0 2 0 4-1 .06.62.12 1.24.19 1.88.27.7.53 1.4.81 2.12 3.81 1 3.81 1 7 1-1.69-1.88-1.69-1.88-4-4 .33-.16.33-.16 2-1l1 2c1.86.12 1.86.12 4.19 0 7.24-.09 7.24-.09 10.81 2 .43 1.94.84 3.88 1.16 5.83 1.46 3.79 4.77 5.54 8.04 7.72.59.48 1.19.96 1.8 1.45-.16.33-.16.33-1 2l-3-1v2c-.33.16-.33.16-2 1 4.81 3.21 10.23 4.24 16 4v-2c3.19-.25 3.19-.25 6 0-5.41 3.61-10.47 4.48-16.8 3.53-6.65-1.6-11.53-5.82-15.2-11.53-.12-.97-.25-1.94-.38-2.94-.2-.68-.41-1.36-.62-2.06-1.92-.03-3.84-.05-5.75.06-4.94-.13-8.69-2.62-12.24-5.9-3.47-3.74-6.03-7.04-7.01-12.16.08-1.24.16-2.47.25-3.75-.08-1.07-.16-2.15-.25-3.25-2.63-1.12-2.63-1.12-6-2-5.42-3.79-8.34-7.71-10.75-13.94-.54-4.46-.68-8.76.75-13.06"/><path fill="#624460" d="M201 102c3.42 2.44 4.6 6.3 6.06 10.06.13.34.13.34.8 2.05 3.76 9.94 4.63 19.23 4.21 29.8-.05 1.39-.07 2.78-.08 4.18-.05 4.57-.31 8.63-1.99 12.91-3.05 2.39-5.81 3.7-9.45 5.02-.84.32-1.68.65-2.55.98v2h2c-.1.32-.1.32-.62 1.94-.07.34-.07.34-.38 2.06 1.33.35 2.66.69 4 1-.47.43-.95.87-1.44 1.31-.51.56-1.03 1.12-1.56 1.69.58.72 1.16 1.44 1.75 2.19.41.6.82 1.19 1.25 1.81-2.33.05-4.67.04-7 0-2.31 1.56-2.31 1.56-4 3l-2-1 2.38-2.19c2.62-2.81 2.62-2.81 3.24-6.06-.2-.91-.41-1.81-.62-2.75-.82-.17-1.65-.33-2.5-.5-.82-.17-1.65-.33-2.5-.5-.04-2-.05-4 0-6-1.88 1.69-1.88 1.69-4 4-2-1-2-1-2.88-2.94L183 164c1.88-1.06 1.88-1.06 4-2l1-3h3c.72-1.65 1.38-3.31 2-5 .33-.16.33-.16 2-1-.06-3.5-.06-3.5-1-7-2.56-.88-2.56-.88-5-1v-1c.43-.06.43-.06 2.62-.38.79-.2 1.57-.41 2.38-.62l-2-3c-.89-.16-1.77-.33-2.69-.5-.76-.16-1.52-.33-2.31-.5l1-3h4c3.03-3.67 3.11-6.37 3-11h2c.14.8.29 1.61.44 2.44.18.84.37 1.69.56 2.56l3 1c.33 2.76-.14 5.36-1 8-1.97.98-2.88 1-5 1 .99.6 1.98 1.2 3 1.81.99.72 1.98 1.45 3 2.19-1 3-1 3-2 4h4c.17 1.86.17 1.86-.25 4.31-.43 2.65-.75 4.99-.75 7.69h4c5.83-9.09 4.38-27.04 2.24-37.22-1.63-5.93-3.8-11.58-6.51-17.11C201 104 201 104 201 102"/><path fill="#bb87bb" d="M119.563 88.625c2.03 3.35 1.99 5.53 1.44 9.38-1.69 2.37-1.69 2.37-4 4l-2.69.24c-.76.25-1.53.5-2.31.76-.63 3.93-.63 3.93-.67 6.08-.05.32-.05.32-.33 1.92-3.69 2.45-6.72 2.68-11 2-3.12-2.06-3.89-3.72-5.25-7.19-1.8-9.13-1.8-9.13-.75-12.81 1.96.37 1.96.37 4 1l1-2c1.7.94 3.36 1.94 5 3 .99.32 1.98.65 3 1v-2h-3v-2c-.68-.17-1.36-.33-2.06-.5-.64-.17-1.28-.33-1.94-.5l1-2c1.34.65 2.67 1.31 4 2v-2c4.62-.37 7.78.2 12 2v-2a95 95 0 0 0-7.5-.57c-2.51-.1-5-.25-7.5-.43v-1c5.89-1.51 12.33-1.7 17.56 1.62"/><path fill="#c2abaa" d="M147 44c4.38.26 6.83 2.1 10 5l1 2c1.97-.28 1.97-.28 4.5-.94 7.51-1.63 13.84-1.08 20.65 2.64 3.94 2.77 6.83 6.53 9.23 10.68 2.68 2.68 5.92 2.32 9.62 2.62v1c-3.06-.09-6.12-.27-9.18-.45-.93.15-1.86.3-2.82.45-1.59 2.5-1.59 2.5-2 5 3.38.25 3.38.25 7 0v1c-5.01.95-5.01.95-8 0-1.97-2.37-3.29-4.77-4.68-7.52C181 63 181 63 179.27 61.3L178 60l1-2-2-1v2c-2.98.15-5.91-.01-8.89-.12-3.19.12-5.21.86-8.11 2.12-3.52-.33-5.01-1-8-3l-1 2c-.34-1.66-.67-3.33-1-5-.65-1.34-1.32-2.68-2-4v-2h2v-2l-2-1Z"/><path fill="#be90b9" d="M193 93h3c5.17 5.85 7.48 12.69 10 20 .4 1.05.79 2.1 1.2 3.18 4.47 13.11 4.62 28.65.94 41.99-1.59 2.55-3.34 2.94-6.14 3.83-.33.16-.33.16-2 1 .37-1.73.85-3.43 1.35-5.12 1.77-6.72 2.13-12.96 2.09-19.88l.06-3.29c-.01-14.63-5.85-27.71-15.05-38.9C187 94 187 94 186 92c3.35-1.43 3.82-1.12 7 1"/><path fill="#cfb3a4" d="M198 96c2.88.56 2.88.56 6 2 .81 2.31.81 2.31 1 5 .44 2.81.44 2.81 1 5h2c1.25 2.37 1.25 2.37 2.56 5.44 2.36 5.48 2.36 5.48 3.44 6.56.23-.8.45-1.61.69-2.44.43-.84.86-1.69 1.31-2.56 1.03.06 2.06.12 3.12.19.48-.03.48-.03 2.88-.19.43-2.69.13-5.27 0-8l3 1c.14.83.29 1.65.44 2.5.18.83.37 1.65.56 2.5 2.01.93 2.01.93 4 1 .46-1.87.46-1.87.38-4.44-.02-.84-.03-1.69-.04-2.56-.11-.66-.23-1.32-.34-2h-2c-.81-3.69-.81-3.69-1-7 2.4 1.26 3.13 3.3 4.19 5.69 1.57 6.4 1.27 12.22-1.19 18.31l-3-1c.21-.7.41-1.4.62-2.12.13-.62.25-1.24.38-1.88-2.5-.06-2.5-.06-5 1 .09 3.46 1.07 5.1 3 8h-5c-3.19.38-3.19.38-6 1l1 2h3l-1.3 1.09c-2.46 2.76-2.03 4.84-1.95 8.47.02 1.16.03 2.32.05 3.51.2 2.93.2 2.93 1.2 4.93h-2v4h2l-1 2 1 1v1c-.8-.08-1.61-.16-2.44-.25-.84.08-1.69.16-2.56.25-1.06 2.44-1.06 2.44-1 5 1.69.69 1.69.69 4 1 2.5.81 2.5.81 4 2-1.62 2.12-1.62 2.12-4 4h-2v2c-3.31 1.44-3.31 1.44-6 2 2.36-2.83 4.22-4.65 7.59-6.17.24-.14.24-.14 1.41-.83-3.41-.17-6.8.01-10.21.12L203 164c2-2 2-2 4.57-2.21.8-.26 1.61-.52 2.43-.79.71-2.82.71-2.82.81-6.56.02-.67.05-1.34.07-2.03.04-1.42.07-2.85.08-4.27.04-2.04.13-4.09.23-6.13.52-16.57-4.34-29.61-12.19-44.01Z"/><path fill="#c49fbb" d="M163 70c.9.27 1.79.55 2.71.83 5.35 1.72 8.89 3.63 13.29 7.17 7.22 5.71 7.22 5.71 11.06 7.12L192 86c0 2.25 0 2.25-1 4l-3-2c.16.33.16.33 1 2h-3l-1 2c-1.71-1.12-1.71-1.12-3.94-3-8.62-6.89-16.27-10.69-26.94-13.24C151 75 151 75 149 74c-1.49-.09-2.98-.13-4.46-.14l-2.68-.06c-1.86-.03-3.72-.05-5.58-.05-2.52-.07-4.82-.18-7.28-.75-2.32-2.48-2.32-2.48-3-5 11.11-3.7 26.06-1.44 37 2"/><path fill="#7b5958" d="M214 172c.16.33.16.33 1 2-.62.91-1.24 1.81-1.88 2.75-2.16 3.32-2.58 5.41-3.12 9.25l-2 1c-2.84 2.31-3.47 4.12-4.06 7.69-.41 2.45-.41 2.45-.94 4.31h-2c-.14.93-.29 1.86-.44 2.81-.59 3.38-1.09 4.04-3.56 6.19v2c1.75.27 1.75.27 4 .25.37 0 .37 0 2.25.02.58-.09 1.16-.18 1.75-.27v-2h4l1-3h3v-3c.5.16.5.16 3 1-3.44 4.08-7.28 6.64-12 9-1.36-.06-2.71-.14-4.06-.25-1.3.08-2.6.16-3.94.25-.94 2.62-.94 2.62-1 5-1-2-1-2-.19-4.75.03-.37.03-.37.19-2.25-3.4.62-5.48 1.48-7.94 3.94L186 215c.19-.72.37-1.44.56-2.19.15-.93.29-1.85.44-2.81-5-3.75-12.26-1.81-18-1-3.93.84-7.77 1.93-11.62 3.06-7.45 2.07-14.64 2.16-22.32 2.19l-3.5.06c-7.87.04-13.07-.46-19.31-5.56-.41-.58-.83-1.16-1.25-1.75 2.86.2 5.46 1.14 8.19 2 16.05 4.21 34.96 3.46 49.81-4 2.63-.73 2.63-.73 5.12-1.19.83-.16 1.66-.31 2.51-.48C179 203 179 203 183 203c.33.5.33.5 2 3 3.12 1.44 3.12 1.44 6 2v-4c.66-.12 1.32-.25 2-.38.66-.2 1.32-.41 2-.62-.06-1.03-.12-2.06-.19-3.12.06-.95.13-1.9.19-2.88 2.33.33 4.67.67 7 1 .44-2.75.44-2.75 0-6 0-3 0-3 1-4-.07-.55-.07-.55-.44-3.31.15-1.22.29-2.44.44-3.69 1.92-1.35 3.85-2.14 6.02-3.02 2.73-1.35 3.65-3.32 4.98-5.98"/><path fill="#93756c" d="M214 174c.75 1.62.75 1.62 1 4l-1 1 2 2c-.33.5-.33.5-2 3-.38 3.19-.38 3.19 0 6h4c.16-.85.33-1.69.5-2.56.16-.81.33-1.61.5-2.44 2.25.12 2.25.12 4 1l-3 1c0 1.93.01 3.86.08 5.79-.13 3.68-1.23 6.03-3.08 9.21h-4v3l-3 1-1 2h-4v2c-3.02 1.51-5.69 1.25-9 1l1-3-2-1c.76-.23 1.53-.45 2.31-.69.89-.43 1.78-.86 2.69-1.31.69-3.12.69-3.12 1-6h2c.37-2.31.45-4.6.56-6.93.07-.34.07-.34.44-2.07l3-1v-4h2c.69-1.99 1.36-3.99 2-6 1.56-3.12 1.56-3.12 3-5"/><path fill="#c9b0b7" d="M107.25 51.188c.58.27 1.16.54 1.75.81l-1 3 3-1c3.63-.19 3.63-.19 7-.001.16.33.16.33 1 2-2.05.57-2.05.57-4.87 1-2.81.44-2.81.44-5.13 1l-1 2c1.77.28 1.77.28 4.25.38 4.49.42 4.49.42 6.81 2.25 1.33 3.36 1.57 5.82.94 9.37-2.94.38-2.94.38-6-1-.08-1.21-.16-2.43-.25-3.69-.25-1.09-.5-2.18-.75-3.31-3.6-.32-6.69.63-10 2-2.44 2.44-2.44 2.44-4 5-1.87 2.19-1.87 2.19-3 3 .94-5.12 3.57-8.06 7.05-11.68.31-.43.63-.87.95-1.32h-3v3c-2.5 1.44-2.5 1.44-5 2v-4h-2l.06 3.07-.06 2.93-3-1v-2c-.33.17-.33.17-2 1 .47.79.95 1.57 1.44 2.38.26.43.26.43 1.56 2.62l-1 3c-.94-1.39-1.87-2.8-2.76-4.23-2.47-3.52-5.77-6.12-9.7-7.85-.51-.3-1.02-.61-1.54-.92 1.62-.52 1.62-.52 4.44-.93 4.23-.73 6.91-1.8 10.56-4.07 6.4-1.299 6.4-1.299 9 0l1-3c3-2 3-2 5.25-1.81"/><path fill="#b983ba" d="M90.16 90.523c1.84 1.48 1.84 1.48 2.34 4.52l-.06 3.58c0 1.19-.01 2.38-.01 3.6-.07.46-.07.46-.43 2.78h-3v2c.7.12 1.4.24 2.12.37.62.21 1.24.41 1.88.63-.7 2.03-1.48 3.47-3 5-6.46.36-6.46.36-10-2v-3l-2.81.06c-3.19-.06-3.19-.06-5.13-1.63-1.52-3.49-.99-5.79-.06-9.43 1.31-2 1.31-2 3-3 1.94.37 1.94.37 4 1 2.12-.25 2.12-.25 4-1l2-3c3-1 3-1 5.16-.48"/><path fill="#e3c3b8" d="M160 216l2 1v2c1.67.04 3.33.04 5 0l1 1c1.22.12 2.43.25 3.69.38 1.09.2 2.18.41 3.31.62l-2 3c1.5 1.69 1.5 1.69 3 3h-2v2c-2.63.23-2.63.23-6.12.19-1.14-.01-2.28-.02-3.45-.02-4.12-.2-7.95-.68-11.87-1.98-.26-.03-.26-.03-1.56-.19.22.62.43 1.24.65 1.88.06.35.06.35.35 2.12-4.63 2.98-10.65 3.42-16 3-.4-.03-.4-.03-2.44-.19-.51-.27-1.03-.53-1.56-.81-.45-2.54-.45-2.54 0-5 2.44-.42 2.44-.42 5.56-.19 1.81.12 3.63.21 5.44.19l-1-2c2-.73 3.99-1.46 6.01-2.14 2.53-1.09 3.39-2.67 4.99-4.86 1.99-.4 3.99-.74 6-1Z"/><path fill="#c5a9a0" d="M56.875 110.813c3.12.19 3.12.19 6.12 2.19v4c.44.07.44.07 2.63.43q1.17.285 2.37.57c-.43 2.56-.43 2.56-2 5h-4c-1 1.81-1 1.81-2 4-2.06 1.87-2.06 1.87-4 3-.32-.66-.65-1.32-1-2-.47.95-.94 1.9-1.43 2.87-.52 1.03-1.03 2.06-1.57 3.13h-2c-.32-.99-.65-1.98-1-3-2.03 0-2.03 0-4 1-.53 2.21-.53 2.21-.5 4.93l-.03 2.72c.18.77.35 1.55.53 2.35 1.33.69 2.66 1.36 4 2-.65.99-1.32 1.98-2 3 1 .33 1.99.66 3 1 1.64 2.36 2.02 3.61 1.88 6.5-.29.49-.58.99-.88 1.5-4.08-2.82-6.54-7.35-8-12-1.22-8.77.07-15.63 5-23 .66-.66 1.33-1.32 2-2h3c.13-3.44.13-3.44 0-7 1-1 1-1 3.88-1.19"/><path fill="#dbbab5" d="M60 129l1 2c.5-.16.5-.16 3.03-.96.98-.02 1.96-.03 2.97-.04.53 3.33.64 6.1.56 9.44.13 10.1 1.8 18.2 5.44 27.56.27.73.54 1.47.82 2.22C80.97 188.49 80.97 188.49 88 192l1 3c1.65 1.03 3.32 2.03 5 3l1 2c-3.75-.94-6.64-1.85-9-5v-2c-1.75-.27-1.75-.27-4-.25-.74-.01-1.48-.01-2.25-.02-.58.09-1.16.18-1.75.27v2c-.5-.16-.5-.16-3-1 .16.99.33 1.98.5 3 .16.99.33 1.98.5 3-3-1-3-1-5-3-.44.13-.44.13-2.69.81-.76.06-1.52.13-2.31.19 0-3.44 0-3.44 1-7h3c.39-3.4.29-5.45-1.31-8.5-.23-.5-.46-.99-.69-1.5 2.31.5 2.31.5 5 2 .69 2.19.69 2.19 1 4 .33-.16.33-.16 2-1-.37-6.16-2.03-11.61-5-17v-3h-2c-.82-1.72-.82-1.72-1.56-4.06-.25-.76-.5-1.51-.76-2.29-1.76-6.82-1.74-13.26-1.29-20.22.06-2.08.06-2.08-.39-5.43-2.52-.73-2.52-.73-5-1Z"/><path fill="#b0a293" d="M63 90c1.59 1.63 1.59 1.63 2.94 3.56.46.64.92 1.28 1.4 1.94.22.5.44.99.66 1.5h-3l1 2 2-1c2 2 2 2 2 5.62-.33.56-.33.56-2 3.38-4.71.78-9.26.38-14 0-.89-.01-1.78-.03-2.7-.04-2.17-.08-2.17-.08-5.3-.96-1.06-3.81-.18-5.66 1.62-9.12C51.47 92.22 56.74 87.54 63 90"/><path fill="#d0b5aa" d="M230 122c4.71 3.75 6.69 7.32 7.37 13.23.15 7.72-.31 13.66-5.37 19.77l-3 2c.12-2.31.12-2.31 1-5l3-1v-3c-1.82.43-1.82.43-4.12 1.31-1.28.23-2.56.46-3.88.69.75-3.81.75-3.81 1.67-6.08q.165-.945.33-1.92c-1.92-.59-1.92-.59-4-1a93 93 0 0 1 0-5c-1.38 1.25-1.38 1.25-3 3l-2-1c.25-3.06.25-3.06 1-6h2l1-3c.69 1.66 1.35 3.33 2 5l2 1-.06-2.75c.06-3.25.06-3.25 1.5-4.87.51-.46 1.03-.91 1.56-1.38.12-.83.25-1.65.38-2.5.2-.5.41-.99.62-1.5"/><path fill="#6d5254" d="M62 78c1.96 3.13 3.01 6.72 4.22 10.2C67 90 67 90 69 92c2.12.2 2.12.2 4.44.25 1.17.25 2.35.5 3.56.75-2.06 2.62-2.06 2.62-3.64 4.24C72 99 72 99 71.75 102.75c.41 1.07.83 2.14 1.25 3.25 2.31.73 4.65 1.4 7 2 .31 2.56.31 2.56 0 5 .33.16.33.16 2 1h-2v2c-1.34-.65-2.67-1.32-4-2h-3c-.27-.7-.54-1.4-.81-2.12-.39-.62-.79-1.24-1.19-1.88-3.12.88-3.12.88-6 2v-2c-3-.75-3-.75-6-1v2c-.8.06-1.61.12-2.44.19-.84.27-1.69.53-2.56.81-.69 3.75-.69 3.75-1 7-2.1-3.16-2.2-4.08-2.31-7.69-.2-2.43-.2-2.43-.69-4.31-2.62-.31-2.62-.31-5 0 .19-2.19.19-2.19 1-4v3c3.57.78 7.29.56 10.94.56 1.04.04 2.08.08 3.15.11 2.77.02 5.22.01 7.91-.67 1.38-3.04 1.38-3.04 1-6h-3l-1-3 2-1c-.86-2.67-1.58-3.77-4.06-5.12L61 90l-1-2h2c.12-2.33.12-2.33 0-5.25-.12-2.95-.12-2.95 0-4.75"/><path fill="#997f76" d="M48 159h1c-.09 2.87-.27 5.73-.45 8.59.15.8.3 1.59.45 2.41 2.5.59 2.5.59 5 0 .42-1.75.42-1.75.19-4-.21-2.25-.21-2.25-.19-4h2c.52 1.97.52 1.97.81 4.5.11.84.22 1.67.33 2.53-.04.65-.09 1.3-.14 1.97h-3c-.94 2.5-.94 2.5-1 5h4c.12 2.5.12 2.5 0 5 2 0 2 0 3.88-1.06 2.12-.94 2.12-.94 4.5-.88.26.16.26.16 1.62.94-.81 2.5-.81 2.5-2 5l1 1c.29 3 .45 6.01.62 9.02.36 2.83.79 4.63 2.38 6.98 2 0 2 0 4-1l.25 2.81c.25 1.05.5 2.11.75 3.19 3.06 1.25 3.06 1.25 6 2v2c1.65-.04 3.3-.16 4.94-.31 2.76-.09 2.76-.09 5.06.31 1.25 3.62 1.25 3.62 1 7l-2-2v-3c-1.91.03-3.81.07-5.71.13-5.99-.34-10.22-3.74-14.17-8.01-3.66-4.52-5.26-7.95-4.87-13.87-.08-1.07-.16-2.15-.25-3.25-2.63-1.12-2.63-1.12-6-2-5.42-3.79-8.34-7.71-10.75-13.94-.54-4.46-.68-8.76.75-13.06"/><path fill="#a49580" d="M214 161c2.75-.31 2.75-.31 6 0 0 3.65-.83 6.56-2 10h-2l-1 2c-2.6 3.62-4.9 6.16-9 8-2.64-.16-3.79-.85-5.94-2.38-.35-.53-.7-1.07-1.06-1.62 1.5-1.62 1.5-1.62 3-3l-3-1c.19-.72.37-1.44.56-2.19.15-.6.29-1.19.44-1.81-.33.16-.33.16-2 1-.33.16-.33.16-2 1 0-2.64.85-3.85 2.69-5.69 4.99-2.83 12.67-3.41 18.31-2.31-1.52 2-3.33 3.23-5.38 4.69L210 169h3v-2c1.32-.68 2.66-1.35 4-2l1-2c-.76-.37-1.53-.74-2.31-1.12-.56-.29-1.12-.58-1.69-.88"/><path fill="#825a73" d="M147 78v2c2.02-.03 4.04-.07 6.05-.22.65.07 1.29.14 1.95.22.33.5.33.5 2 3 2.32.12 2.32.12 5.12-.12 5.22-.16 8.14.83 12.42 3.73C176 88 176 88 177 91l2 2-1 2c.82.12 1.65.25 2.5.38.82.2 1.65.41 2.5.62.06 2.12.06 2.12-1 4-1.81-.31-1.81-.31-4-1-1.34.31-2.67.65-4 1l-2-1v-3c-.33.16-.33.16-2 1-.34-1.33-.68-2.66-1-4-.36 1.33-.68 2.66-1 4l-2 2-1-2c.58-.87 1.16-1.73 1.75-2.62.41-.79.82-1.57 1.25-2.38l-2.38.06L163 92c.21-.97.41-1.94.62-2.94.13-1.01.25-2.02.38-3.06-3.5-1.19-3.5-1.19-7-1 .19 2.5.19 2.5 1 5l-2-1c-.26-.82-.52-1.63-.79-2.48C154 84 154 84 151.57 83.04c-.47-.07-.47-.07-2.88-.42-.95-.15-1.89-.3-2.87-.46-2.82-.16-2.82-.16-5.63.45-.36.06-.36.06-2.19.39-.69-2.38-.69-2.38 0-5C141.55 76.9 143.46 76.82 147 78"/><path fill="#ae9c85" d="M59 109c2.01.26 4.01.6 6 1 2 0 2 0 4-.75.66-.08 1.32-.17 2-.25 1.06 1.94 1.06 1.94 2 4h3c1.81 1.19 1.81 1.19 3 3-.86 3.14-2.18 5.28-4 8-.08.87-.16 1.73-.25 2.62-.25.79-.5 1.57-.75 2.38-3.06.94-3.06.94-6 1v-2c-1.01.41-2.02.82-3.06 1.25-.97.25-1.94.5-2.94.75 0-2.94 0-2.94 1-6l2 1c1.31-2.88 1.31-2.88 2-6l-3-1-1 1c-.64-2.07-1-3.83-1-6l-3-2Z"/><path fill="#d1b6b2" d="M213 77c1.56 1.06 1.56 1.06 3 4 .06 1.3.12 2.6.19 3.94.17 2.1.17 2.1.81 4.06 1.93 1.62 3.83 2.7 6.09 3.8 2.26 1.42 3.12 2.65 3.91 5.2l-3-1-2 2v5h-2l-2.06-2.12L216 100l-1 2c-3.12-.06-3.12-.06-6-1 .25-2.44.25-2.44 1-5l-2-2c-.55-2.89-.55-2.89-.88-6.25-.12-1.12-.24-2.24-.36-3.39.08-.78.16-1.56.24-2.36 1.93.87 1.93.87 4 2 .68-2.33 1.35-4.66 2-7"/><path fill="#c9b3b1" d="M147 43c-1.48 2.03-1.48 2.03-4 4-2.69.19-2.69.19-5 0l-1 1c2.07.23 4.14.45 6.21.62.59.13 1.18.25 1.79.38v2c-1.98.49-1.98.49-4.62.88-5.39.96-9.36 2.69-12.94 7-.48.37-.95.74-1.44 1.12-2.69-.62-2.69-.62-5-2v-3q-1.47-1.53-3-3l1-1c-2.72-.3-5.44-.45-8.17-.62-.6-.13-1.21-.25-1.83-.38 2.18-1.71 3.7-2.03 6.45-1.77.88.17 1.76.34 2.67.52 4.73.57 6.87.04 10.76-2.69 5.32-3.71 11.77-4.88 18.12-3.06"/><path fill="#ad78ac" d="M83 60l-2 2c1.74 1.84 1.74 1.84 4.31 3.94C89.9 69.69 89.9 69.69 91 73l2-1c.46 5.76.46 5.76 0 8h-3v3c-1.81.88-1.81.88-4 1-.39-.48-.79-.96-1.2-1.46-2.78-2.37-5.28-2.01-8.86-2.04-.63-.02-.63-.02-3.79-.09-.52.09-.52.09-3.15.59-1.37 2.53-1.37 2.53-2 5h-1c-.29-2.66-.44-4.36 1.1-6.61 3.5-2.56 7.95-2.27 12.16-2.67.91-.24 1.81-.47 2.74-.72v-4c.93-.14 1.86-.29 2.81-.44.72-.18 1.45-.37 2.19-.56-1.63-2.44-2.54-3.54-5-5-3.81-.25-3.81-.25-7 1-.25 3.75-.25 3.75 0 7-1.56-.75-1.56-.75-3-3 .2-3.91 1.33-5.33 4-8l-2-2c2.99-1.5 5.72-1.19 9-1"/><path fill="#d8c0bd" d="M147 44c4.38.26 6.83 2.1 10 5l1 2c1.81.2 1.81.2 4.14.12.82-.01 1.65-.03 2.49-.04.87-.03 1.73-.05 2.62-.08 2.94-.09 5.81-.1 8.75 0-3 2-3 2-5 3l1 2h-5v2c-5.82 3.08-5.82 3.08-9.75 2.81C155 60 155 60 152 58l-1 2c-.34-1.66-.67-3.33-1-5-.65-1.34-1.32-2.68-2-4v-2h2v-2l-2-1Z"/><path fill="#896362" d="M61 121l1 2h4l-1 3h-2v3c.81-.28 1.63-.55 2.46-.84.84-.05 1.68-.1 2.54-.16.48 2.94.59 5.42.56 8.38.32 14.17 3.08 26.19 9.85 38.67C80 178 80 178 80.96 180.59c4.77 11.06 17.62 19.69 28.2 24.5.61.3 1.22.6 1.84.91v1c-2.38.19-2.38.19-5 0l-2-2c-.45-.12-.45-.12-2.75-.75-3.65-1.41-5.26-3.04-7.86-5.86C92 197 92 197 89.62 195.81L88 195v-3c-.5-.16-.5-.16-3-1-5.94-5.02-8.34-11.92-11-19-.45-1.12-.89-2.23-1.35-3.38-4.45-11.22-5.95-19.65-5.22-31.63.15-4.81.15-4.81-.43-6.99-2.99.2-2.99.2-6 1-.62-2.16-.62-2.16-.44-5.06.02-.48.02-.48.13-2.91.1-.67.21-1.34.31-2.03"/><path fill="#dfbfb4" d="M124 219c1.51 2.27 2.78 4.56 4 7h-2v2h-4v-2c-3-.25-3-.25-6 0v2c-5.05.87-9.79.51-14.31-1.94-.89-.68-1.78-1.36-2.69-2.06l3-1v-2c4.13-1.38 7.79-.91 12 0v2h2v-4c3.24-1.14 4.71-1.1 8 0"/><path fill="#a08479" d="M183 215l2 2-3 1v4h2v-2l3-1c.16.33.16.33 1 2h3v-3l3-1c-.7 3.51-1.92 4.93-4.69 7.19-3.43 1.87-6.55 2.77-10.31 3.81-1.28.69-2.55 1.4-3.81 2.12-4.67 2.43-9.02 2.5-14.19 1.88-2-.67-4-1.33-6-2-.38.21-.38.21-2.31 1.25-.56.25-1.12.5-1.69.75-1.06-2.94-1.06-2.94-1-6 1.89.23 1.89.23 5 1 3.26.47 6.54.82 9.81 1.19.89.11 1.77.21 2.68.32 2.16.24 4.34.38 6.51.49v-2c1.65-1.35 3.32-2.69 5-4l1-2-2-1-2-1c1-2 1-2 3.94-3.25 1.01-.25 2.02-.5 3.06-.75"/><path fill="#b683bb" d="M190 164c1 2 1 2 1 6 1.94.69 1.94.69 4 1 1 1 1 1 1.44 3.69-.55 4.14-1.98 5.43-4.93 8.21C190 184 190 184 188 184v-3l-2 1v-2h-3c-1.42-2.84-1.31-4.85-1-8 1.88-2.38 1.88-2.38 4-4h2l1.06-2.12Z"/><path fill="#d4b09e" d="M215 191l3 1v4h-2l.06 3-.06 3h-3v3l-3 1-1 2h-4v2c-3.02 1.51-5.69 1.25-9 1l1-3-2-1c1.67-.75 3.35-1.49 5.04-2.18 6.39-2.69 6.39-2.69 7.96-5.82.09-.37.09-.37.56-2.25.15-.58.29-1.16.44-1.75v2l1.88-1.88L213 193h2Z"/><path fill="#b99a9e" d="M223 151l2 1v3c.25 2.69.25 2.69 1 5h4l1-3c2.57 5.45 2.99 11.49 1.36 17.27-.8 2.04-.8 2.04-2.36 4.73-.56-1.5-.56-1.5-1-4l-2-1h3l-2-1-1-2c-1.35 1.67-2.42 3.48-3.55 5.3-1.71 2.01-2.84 2.45-5.45 2.7.5-1.56.5-1.56 2-4 .64-1.07 1.28-2.15 1.94-3.25.68-.91 1.36-1.81 2.06-2.75h3v-2h-3c-.7-2.08-.7-2.08-1.12-4.81-.48-2.87-.96-5.42-1.88-8.19Z"/><path fill="#a17669" d="M176.438 205.75c1.11-.01 2.22-.01 3.37-.02.36.05.36.05 2.19.27-3.07 2.05-3.78 2.22-7.25 2.37-5.96.48-11.51 2.06-17.23 3.69-7.52 2.01-14.71 2.16-22.46 2.19l-3.49.06c-7.88.04-13.08-.46-19.32-5.56-.41-.58-.82-1.16-1.25-1.75 2.86.2 5.46 1.14 8.19 2 13.76 3.61 35.76 4.76 48.89-2.09 2.8-1.33 5.29-1.17 8.36-1.16"/><path fill="#8f6189" d="M144.438 105.063c3.77.99 5.29 1.81 7.56 4.94l-1 2c-1.48-1.29-2.97-2.58-4.44-3.88-1.56-1.12-1.56-1.12-3.87-1-1.69.88-1.69.88-2.69 1.88-.21 2.83-.37 5.66-.5 8.5-.36 8.36-.36 8.36-1.5 9.5-1.74.12-3.49.18-5.24.21-1.07.03-2.13.06-3.23.08-2.26.06-4.52.1-6.78.14l-3.24.09-2.98.06c-2.93.48-3.58 1.29-5.53 3.42h-3q-.06 3 0 6h-2c-.19 3.39-.17 6.33.69 9.62.1.46.21.91.31 1.38-1.44-.99-1.44-.99-3-3-.54-3.15-.54-3.15-.62-6.82-.03-.6-.03-.6-.17-3.64.93-4.18 2.01-5.93 5.38-8.51 5.14-2.2 10.92-.86 16.35-.35 8.8.49 8.8.49 13.06-.68 2-2.65 1.82-5.1 1.5-8.32-.38-2.3-.8-4.53-1.41-6.78-.09-1.9-.09-1.9 1.16-3.66 1.75-1.24 1.75-1.24 5.19-1.18"/><path fill="#aa8889" d="M124 219h2c.29.39.29.39 1.75 2.38 3.56 4.15 7.47 4.57 12.69 5.12 1.17.16 2.35.33 3.56.5l-1 2c-2.6.06-5.15-.14-7.75-.32-.37.05-.37.05-2.25.32-1.12 1.99-1.12 1.99-1 4 2.03.43 2.03.43 4.94.31l3.03-.09c2.67-.19 5.26-.5 7.91-.91 1.03-.1 2.06-.2 3.12-.31-1.5 2.53-3.27 3.09-6 4-7.45.67-13.82.54-20-4-2.25-2.25-2.25-2.25-3-4h4v-4l-2-2Z"/><path fill="#d9b3a0" d="M103 134h1c.14 1.73.23 3.46.31 5.19.38 4.77 1.02 7.47 4.69 10.81l2 1v2c2.67.93 5.26 1.15 8.07 1.25.75.03 1.5.06 2.28.1 1.57.06 3.14.11 4.71.17 1.99.09 3.97.28 5.94.48.16.33.16.33 1 2-3.81.56-7.72.37-11.56.38-1.1.02-2.2.04-3.33.07-6.36.02-10.3-.15-15.11-4.45-3.26-3.26-3.74-6.45-4-11h2c.56-1.75.56-1.75 1-4 .3-1.34.62-2.68 1-4"/><path fill="#a574a8" d="M117 62c1.88.5 1.88.5 4 2v5c1.75.75 1.75.75 4 1 2.25.44 2.25.44 4 1v2c1.84.21 1.84.21 4.38.16l2.73-.03c.48-.01.48-.01 2.89-.07l5.62-.09c.84-.02 1.68-.03 2.54-.05.31.01.31.01 1.84.08v1c-1.46.14-2.92.2-4.38.25-.92.03-1.84.06-2.79.1-1.95.06-3.89.11-5.84.17-4.96.18-9.4.36-13.99 2.48-1.25 2.25-1.25 2.25-2 4l-2-2-3 2c-1.75-1.19-1.75-1.19-3-3l1-3-2-1h3l-1-3c.97.06 1.94.12 2.94.19 1.01-.06 2.02-.13 3.06-.19.71-4.01.27-5.59-2-9"/><path fill="#7a5577" d="M94 118c2.12 1.19 2.12 1.19 4 3l-1 3c-1.68-.28-3.35-.61-5-1l1 2h3v2c-3 .75-3 .75-6 1v-2c-2 .75-2 .75-4 2v2h-3l-1 3h2c-.06 3.56-.06 3.56-1 7-2.44.38-2.44.38-5-1-1.56-3.44-1.56-3.44-2-7 1.81-1.12 1.81-1.12 4-2 .17-.82.33-1.65.5-2.5.5-2.5.5-2.5 2.31-3.81C85 123 85 123 89 123v-2c1.33-.34 2.66-.68 4-1Z"/><path fill="#b086a9" d="M204 130h1c.25 2.34.39 4.68.52 7.03.16.65.32 1.3.48 1.97h3c2.12 6.18.73 12.62-.82 18.75-1.18 2.25-1.18 2.25-3.67 3.5-.83.25-1.66.5-2.51.75-.33.16-.33.16-2 1 .37-1.56.83-3.1 1.31-4.62 1.94-7.14 2.19-14.15 2.4-21.52.02-.89.05-1.77.08-2.69.02-.8.03-1.6.05-2.43.05-.58.11-1.15.16-1.74"/><path fill="#b984bf" d="M177 189v2l2 1v2l-3 1c.6.08 1.2.16 1.81.25q1.08.375 2.19.75c.44 2.44.44 2.44 0 5-3.16 2.11-4.32 2.68-8 2-.38-1.66-.71-3.32-1-5-.7-.16-1.4-.33-2.12-.5-.62-.16-1.24-.33-1.88-.5.07-2.78.67-4.49 2.19-6.81 2.64-1.74 4.73-1.53 7.81-1.19"/><path fill="#7f5b66" d="M201 102c3.42 2.44 4.6 6.3 6.06 10.06.13.34.13.34.8 2.05 3.76 9.93 4.63 19.23 4.22 29.79-.05 1.4-.09 2.8-.11 4.21-.08 4.5-.36 8.63-1.97 12.89-3.33 2.77-6.66 4.49-11 5v-3c2.53-2.36 3.47-3 7-3 5.58-9.6 4.46-26.68 2.24-37.22-1.63-5.93-3.8-11.58-6.51-17.11C201 104 201 104 201 102"/><path fill="#291925" d="M99 150c3 0 3 0 5.56 2.44.81.84 1.61 1.69 2.44 2.56 2.6 1.3 4.54 1.13 7.45 1.14l3.26.06c2.28.03 4.57.05 6.86.05.53.02.53.02 3.25.08.5 0 .5 0 3.01.03.72.21 1.43.42 2.17.64.63 2.52.63 2.52 0 5-2.06.49-2.06.49-4.93.3-.51-.02-.51-.02-3.1-.17-1.08-.08-2.17-.17-3.28-.25-.54-.04-.54-.04-3.25-.19-7.85-.49-7.85-.49-11.44-1.69l-1-3c-1.63-1.06-1.63-1.06-3.56-2-1.14-.66-2.27-1.32-3.44-2Z"/><path fill="#cca9c0" d="M69 70c.1 1.16.21 2.31.31 3.5.23 1.16.46 2.31.69 3.5 2.56.38 2.56.38 5 0v1c-2.33.68-4.66 1.34-7 2l-1 1c0 3.44 0 3.44 1 7 6.28 3.27 11.83 1.29 18.27-.7L88 87v2c-4.46 2.8-7.97 3.41-13.19 3.38-1.21 0-2.42.01-3.67.02C68 92 68 92 66.15 90.68 63 86.08 62.4 80.41 63 75c3.19-5 3.19-5 6-5"/><path fill="#c69f90" d="M60 129l1 2c.5-.16.5-.16 3.03-.96.98-.02 1.96-.03 2.97-.04.53 3.33.64 6.1.56 9.44.17 14.4 4.42 25.92 10.4 38.86.34.89.69 1.78 1.04 2.7l-1 2c-1.3-2.21-2.45-4.39-3.56-6.69l-1-1.97C71.98 171.38 71 169.33 71 166h-2c-.82-1.72-.82-1.72-1.56-4.06-.25-.76-.5-1.51-.76-2.29-1.76-6.82-1.74-13.26-1.29-20.22.06-2.08.06-2.08-.39-5.43-2.52-.73-2.52-.73-5-1Z"/><path fill="#392439" d="M82.758 114.094c.74.3 1.48.6 2.24.91-.81 3-.81 3-2 6l2 1-2.87.25c-1.03.24-2.07.49-3.13.75-.25 2.43-.25 2.43 0 5l-2 2c-.32 3.69-.46 7.35-.56 11.05-.08 1.99-.25 3.97-.44 5.95h-2c-1.69-10.25-1.76-22.98 4.2-31.72 1.8-1.28 1.8-1.28 4.56-1.19"/><path fill="#a37a95" d="M147 78v2c2.02-.03 4.04-.07 6.05-.22.65.07 1.29.14 1.95.22.33.5.33.5 2 3 2.64.45 5.2.5 7.88.59.7.14 1.4.27 2.12.41v3c1.65.72 3.31 1.38 5 2 .16.33.16.33 1 2-.78-.16-1.57-.33-2.38-.5-.86-.16-1.73-.33-2.62-.5l-1 2c-2.12-.06-2.12-.06-4-1 .23-.83.45-1.65.69-2.5.1-.83.2-1.65.31-2.5-3.5-1.12-3.5-1.12-7-1 .19 2.5.19 2.5 1 5l-2-1c-.26-.82-.52-1.63-.79-2.48C154 84 154 84 151.57 83.04c-.47-.07-.47-.07-2.88-.42-.95-.15-1.89-.3-2.87-.46-2.82-.16-2.82-.16-5.63.45-.36.06-.36.06-2.19.39-.69-2.38-.69-2.38 0-5C141.55 76.9 143.46 76.82 147 78"/><path fill="#815087" d="M107 148l3 1c2.13.14 4.25.23 6.38.28 1.25.04 2.5.08 3.79.11 2.64.08 5.29.15 7.94.22 1.24.03 2.49.07 3.77.11.58.01.58.01 3.48.09C138 150 138 150 139 151c.14 1.33.23 2.66.28 4 .02.4.02.4.11 2.44.07 1.71.15 3.41.22 5.12.01.4.01.4.11 2.44l.09 2.25C140 169 140 169 141 170c5.36.47 5.36.47 7.81-1.31C150 167 150 167 151 164h3c-1.1 4.24-4.58 6.59-8 9-2.69.5-2.69.5-5 0-1.69-1.27-1.69-1.27-3-3 .09-1.99.09-1.99.66-4.23.76-4.12 1.42-7.92.55-12.07-1.21-1.7-1.21-1.7-3.78-2.47-7.2-.59-14.34.07-21.5.94-2.93-.17-2.93-.17-5.51-2.22-.47-.64-.94-1.29-1.42-1.95"/><path fill="#715072" d="M80 143h2c.25.82.5 1.65.75 2.5.41.82.83 1.65 1.25 2.5 3.25.25 3.25.25 6 0-.33.16-.33.16-2 1l1 2h2c-.62 2-.62 2-2 4h-4c.6.08 1.2.16 1.81.25q1.08.375 2.19.75c-.19.7-.37 1.4-.56 2.12-.15.62-.29 1.24-.44 1.88.83-.21 1.65-.41 2.5-.62.83-.13 1.65-.25 2.5-.38-.12 3.06-.12 3.06-1 6l-1-2c-.95.27-1.9.54-2.88.81-.51.03-.51.03-3.12.19-2.47-3.91-3.21-5.74-2.44-10.31.07-.45.07-.45.44-2.69l-2-1-2-1c.12-3.12.12-3.12 1-6"/><path fill="#9d807b" d="M97 214c3.49.98 6.37 3.6 9 6l-1 2-3-1v2c-.33.16-.33.16-2 1 4.81 3.21 10.23 4.24 16 4v-2c3.19-.25 3.19-.25 6 0-5.41 3.61-10.47 4.47-16.8 3.54-5.85-1.43-10.34-4.96-14.2-9.54l1-2c1.22.23 2.43.45 3.69.69 1.09.1 2.18.2 3.31.31-.81-2.56-.81-2.56-2-5"/><path fill="#c294c6" d="M144.375 106c3.45 1.31 5.29 3.18 7.62 6-.33.66-.65 1.32-1 2-2.12-.75-2.12-.75-4-2 .34-.66.66-1.32 1-2h-2c.17.87.34 1.73.5 2.62.58 3.86.21 5.89-1.5 9.38-2.18 1.19-2.18 1.19-4 1 .38-2.44.38-2.44 1-5h-2c-1.52-3.05-1.23-5.64-1-9 1.59-2.66 2.29-3 5.38-3"/><path fill="#9c8774" d="M59 109c2.01.26 4.01.6 6 1 2 0 2 0 4-.69.66-.1 1.32-.2 2-.31 2 3 2 3 1.62 5.31-.2.89-.41 1.78-.62 2.69l.06 3.31L72 123h-2l-1-3q-1.53 1.47-3 3c.17-.58.33-1.16.5-1.75.17-.74.33-1.48.5-2.25l-3-1-1 1c-.64-2.07-1-3.83-1-6l-3-2Z"/><path fill="#94659b" d="M172 133c1.94 1.06 1.94 1.06 4 4-.21 4.92-1.65 7.3-5 10.81-.4.43-.4.43-2.44 2.57L166 153c-.85.91-1.69 1.81-2.56 2.75-4.68 4.92-4.68 4.92-6.44 6.25l-1-3c.8-.56 1.61-1.11 2.44-1.69C161 155 161 155 161.16 153c-.03-.36-.03-.36-.16-2.19V147c2.31-.81 2.31-.81 5-1 1.75-1.56 1.75-1.56 3-3h1v-2c.68.22 1.36.44 2.06.67.64.11 1.28.22 1.94.33-.19-2.01-.19-2.01-1-4.69-.68-2.51-.68-2.51-1-4.31"/></svg>