<svg xmlns="http://www.w3.org/2000/svg" width="280" height="280"><path fill="#da7688" d="M162.715 30.129c2.29.87 2.29.87 4.1 3.81 1.19 3.06 1.19 3.06 1.19 5.06 3.04.02 6.04-.2 9.08-.42l2.92.42c.46.78.93 1.56 1.41 2.36 1.91 3.18 3.53 3.61 7.03 4.55.7.18 1.4.35 2.12.53 9.8 2.75 17.68 6.77 24.44 14.56 3.6 10.82 3.85 26.44.04 37.17-1.04 1.83-1.04 1.83-3.04 3.57-2.5 2.82-2.72 4.52-3.17 8.24-.17 1.28-.34 2.56-.51 3.88a525 525 0 0 1-1.11 8.91c-.47 3.57-.93 7.14-1.38 10.72-1.45 11.38-2.96 22.74-4.5 34.11-.6 4.41-1.18 8.83-1.75 13.25-.37 2.81-.75 5.61-1.13 8.42-.26 1.94-.51 3.89-.76 5.83-1.02 7.43-2.09 14.33-7.63 19.82-24.94 15.35-57.65 16.68-85.81 10.63-10.03-2.46-21.33-5.95-27.73-14.52-2.13-4.23-2.72-8.42-3.46-13.07-.17-1.01-.34-2.01-.51-3.05-2.07-12.71-3.81-25.47-5.55-38.22-1.16-8.37-2.32-16.74-3.51-25.11-.51-3.68-.99-7.37-1.46-11.06-.32-2.37-.65-4.75-.97-7.12-.14-1.11-.27-2.21-.41-3.35-1.07-7.57-1.07-7.57-4.21-10.15-.8-.3-1.61-.59-2.44-.9-4.27-6.19-3.11-14.74-2.88-21.87l.03-3.19c.22-6.86 1.25-11.7 5.85-16.94 16.62-14.58 43.7-17.26 64.82-18.19.9-.05 1.8-.1 2.73-.16.39-.01.39-.01 2.39-.09 2.77-.75 3.38-2.31 5.06-4.56 3.52.18 6.71.69 10.13 1.52 6.41 1.24 9.91-.75 15.29-4.27 2.58-1.25 2.58-1.25 5.29-1.12"/><path fill="#e7c0b9" d="M162.715 30.129c2.29.87 2.29.87 4.1 3.81 1.19 3.06 1.19 3.06 1.19 5.06 3.04.02 6.04-.2 9.08-.42.96.14 1.92.28 2.92.42.46.78.93 1.56 1.41 2.36 1.91 3.18 3.53 3.61 7.03 4.55.7.18 1.4.35 2.12.53 8.99 2.52 17.45 6.03 23.44 13.56 1.41 5.48 1.43 11.12 1.68 16.75.06 1.05.12 2.09.18 3.17.3 6.44-.1 11.88-1.86 18.08l-1 1c-.83-.12-1.65-.25-2.5-.37-.83.12-1.65.24-2.5.37-.69 3.44-.69 3.44-1 7-.33.17-.33.17-2 1 .05-1.69.05-1.69.43-4 .22-1.33.41-2.66.57-4l-1 1c-1.48-1.88-2.87-3.81-4.25-5.75-2.81-2-5.41-1.49-8.75-1.25l-3 1-1 3c-.69-1.32-1.35-2.66-2-4-2.19-3.25-2.19-3.25-5-6-3.5-.62-3.5-.62-7-.00009374999999067768-2.88 2.06-2.88 2.06-5 4l-1-1c-2.12 4.68-2.03 7.66-.75 12.56.13.55.13.55.82 3.32.93 3.12.93 3.12 2.16 6.02.25.7.5 1.39.77 2.1h-2v2h2v2c.49.17.49.17 3 1-1.83 1.82-4.25 1.44-6.68 1.44-3.76-.71-6.32-2.95-9.25-5.32-.68-.37-1.37-.74-2.07-1.12-2.98.95-4.49 2.42-6.88 4.5-4.44 3.76-9.12 5.03-14.97 4.89-5.26-.95-9.8-3.99-13.47-7.76-1.68-1.63-1.68-1.63-3.5-1.63-2.18 1-2.18 1-5.18 3.06-5.06 2.92-10.37 3.18-16 1.94-4.21-2.66-7.37-6.09-10.58-9.84-.24-.19-.24-.19-1.42-1.16-2.01.98-4.01 1.99-6 3-4.09.72-7.19.49-10.82-1.69-4.32-4.57-5.5-8.07-6.18-14.31-.44-2.44-.44-2.44-1-4h-2l-1 2v-2h-2l2 3v3l-3-1c-.59-2.07-.59-2.07-.82-4.56-.09-.83-.18-1.65-.27-2.51l.09-1.93h2l-2-3c-.46-3.42-.38-6.86-.38-10.31-.02-.94-.05-1.88-.07-2.84-.03-5.79.43-9.36 4.45-13.85 17.26-14.32 43.24-17.24 64.82-18.19.9-.05 1.8-.1 2.73-.16.39-.01.39-.01 2.39-.09 2.77-.75 3.38-2.31 5.06-4.56 3.52.18 6.71.69 10.13 1.52 6.41 1.24 9.91-.75 15.29-4.27 2.58-1.25 2.58-1.25 5.29-1.12"/><path fill="#dcb4c5" d="M162.715 30.129c2.29.87 2.29.87 4.1 3.81 1.19 3.06 1.19 3.06 1.19 5.06 1.91-.01 3.83-.11 5.75-.25 3.32-.07 3.32-.07 6.25.25 2.62 2.88 2.62 2.88 4 6l2 2h-4c-1.13 4.72-1.05 9.27 0 14 2.27 1.77 3.9 2.13 6.73 2.54 2.27.46 2.27.46 4.27 1.88.33.52.66 1.04 1 1.58-4 2.44-7.72 4.01-12.25 5.13-.91.28-1.82.57-2.75.87 1.31.71 2.65 1.36 4 2-.13 2.06-.13 2.06-1 4-.33.17-.33.17-2 1-.17.33-.17.33-1 2l-1-1c-2.27.01-4.52.13-6.78.26-2.76-.32-3.42-1.24-5.22-3.26h-2v-5h-2c-.38 1.66-.7 3.33-1 5-1.25 3.35-2.64 6.3-5 9-3.05.9-4.79.54-8-.00009374999999067768l-1-1 .06-2.56-.06-2.44h-2l-1-1c.18.27.18.27 1.12 1.65 2.33 4.05 2.33 4.05 1.88 6.35-5.36.97-10.62.71-16-.0003749999999627107v-2c-.66-.23-1.32-.45-2-.69-3.8-1.66-6.14-4.13-9.04-7.04-.32-.21-.32-.21-1.96-1.27-3.5 1.1-5.01 3.01-7 6l-2 3-3-1c1.34-1.85 1.34-1.85 3.5-4.06 2.15-2.22 2.15-2.22 3.5-3.94h-3l-2 3c-.33-.16-.33-.16-2-1-.31.7-.62 1.4-.94 2.13-.18.31-.18.31-1.06 1.87-1.57-1.37-1.57-1.37-3-3l-1 2c-.64-1.93-1.23-3.87-1.82-5.81-2.66-7.39-6.31-10.26-12.83-14.38l-2.35-1.81 1-3c2.55-.45 2.55-.45 5.87-.69 6.74-.84 10.55-3.2 15.69-7.53 2.67-1.95 4.1-2.95 7.44-2.78 2.06 2.66 2.06 2.66 4 6.06 2.07 3.1 2.07 3.1 4 4.94 2.96-2.51 3.81-6.4 5-10 .47-.89.94-1.78 1.43-2.7.19-.76.37-1.52.57-2.3-2.36-.32-2.36-.32-5.98.1-1.29.14-2.58.28-3.91.43-.35.04-.35.04-2.08.27-2.06.26-4.12.49-6.19.71-11.85 1.38-11.85 1.38-15.84 3.49l-1 3c-2.01-.33-4.01-.66-6-1v3l-1 3c-.29-.72-.58-1.44-.88-2.19-.37-.59-.74-1.19-1.12-1.81-.42.95-.83 1.9-1.25 2.88-.58 1.03-1.16 2.06-1.75 3.12-3.25-.5-3.25-.5-6-2l1-2c.38-.08.38-.08 2.31-.5.28-.08.28-.08 1.69-.5-.73-.33-1.45-.66-2.19-1-.6-.33-1.2-.66-1.81-1 2.33-.35 4.66-.68 7-1l-1-2h-5c4.67-2.79 10.04-3.44 15.31-4.5 1.1-.22 2.2-.45 3.33-.68 8.7-1.68 17.33-2.62 26.18-3.01.9-.05 1.8-.1 2.73-.16.39-.01.39-.01 2.39-.09 2.77-.75 3.38-2.31 5.06-4.56 3.52.18 6.71.69 10.13 1.52 6.41 1.24 9.91-.75 15.29-4.27 2.58-1.25 2.58-1.25 5.29-1.12"/><path fill="#af586a" d="M52 65h1c.15 1.35.23 2.7.28 4.05.04.84.08 1.69.11 2.56.04.89.07 1.78.11 2.7.07 1.75.14 3.49.22 5.24l.09 2.37C54 84 54 84 55 87h-2c.17 1.93.17 1.93.75 4.44.18.82.36 1.64.55 2.49C55 96 55 96 57 97c-.2-.48-.2-.48-1.19-2.94-.27-1.01-.53-2.02-.81-3.06 2.19-.81 2.19-.81 5 0 1.98 3.53 2.89 6.12 3.38 10.12.83 3.83 2.72 5.34 5.62 7.88l1 1c4.72.33 7.49.48 11.5-2.06 1.16-.31 2.31-.62 3.5-.94 2.38 2.01 4.16 4.25 6.09 6.7 3.28 3.96 6.56 5.09 11.53 5.86.79.15 1.57.29 2.38.44-2.17 1.51-4.5 2.17-7 3-3.06-.62-3.06-.62-6-2-1.19-2.62-1.19-2.62-2-5h-3l3 2c2.58 8.14 2.59 17.55 3.36 26.05.52 5.74 1.08 11.48 1.66 17.22.18 1.85.36 3.7.55 5.55.27 2.8.55 5.6.83 8.4.27 2.66.53 5.31.8 7.96.08.8.16 1.6.24 2.43.41 4.14.75 8.22.56 12.39l-1 1c-3.91-.15-6.23-.29-9.16-2.99-2.45-4-2.66-7.46-2.96-12.07-.2-2.69-.46-5.28-.88-7.94-1.12 1.44-1.12 1.44-2 4l1 1 1 1c-.03.41-.03.41-.19 2.5.26 4.75 1.63 8.49 4.19 12.5 3.39 2.31 6.87 3.76 11 4l1-3 1 3-2 3h2l1 2h3c1.88 2.38 1.88 2.38 3 5l-3 2 2 1v-2h4v3l-3 1c2.69.43 5.35.74 8.06 1 .86.09 1.71.18 2.6.27 7.32.72 14.65 1.1 22.01 1.3 6.12.22 6.12.22 8.33 2.43 11.91 1.32 26.48-2.53 36.5-9.08 1.5-.92 1.5-.92 3.5-.92v-2c2.63-1.5 2.63-1.5 5-2-.12 2.5-.12 2.5-2 6-18.28 16.51-47.07 15.89-70 15-14.49-.99-33.57-3.8-44-15-3.46-4.63-4.05-9.47-4.94-15.04-.16-1.01-.33-2.01-.5-3.05-2.08-12.71-3.81-25.47-5.56-38.22-1.15-8.37-2.32-16.74-3.5-25.11-.51-3.68-.99-7.37-1.46-11.06-.33-2.37-.65-4.75-.98-7.13-.13-1.1-.26-2.2-.4-3.34-1.07-7.57-1.07-7.57-4.21-10.15-.81-.3-1.62-.59-2.45-.9-3.19-4.62-3.14-10.41-2.91-15.84.04-1.06.08-2.12.13-3.22.05-1.09.1-2.19.16-3.32.04-1.11.08-2.23.13-3.38.27-6.11.27-6.11.49-8.24"/><path fill="#c693af" d="M117.056 41.769c7.51-.8 7.51-.8 10.94.23.46 3.38-1.47 6.09-3 9-.46 1.46-.92 2.92-1.37 4.38-.54.86-1.07 1.73-1.63 2.62-3.39-2.35-4.89-4.82-7-8.37-.66-.87-1.32-1.74-2-2.63-4.41.17-6.71 2.17-10 4.94-5.37 4.1-9.78 5.16-16.44 5.71-.84.12-1.69.23-2.56.35l-1 2c1.66.94 1.66.94 4 2 5.72 3.45 9.2 6.39 11.25 12.88.12.47.12.47.71 2.86 1.04 2.26 1.04 2.26 3.59 3.21.41.01.41.01 2.45.05.17-.33.17-.33 1-2h2l2-2.12 2-1.88 2 2c-1.44 1.98-1.44 1.98-3.56 4.19-1.18 1.24-2.35 2.49-3.44 3.81 3-1 3-1 3.94-2.81.35-.72.7-1.45 1.06-2.19 1.88-2.37 1.88-2.37 4-4 3.62 1.32 6.65 3.77 9.75 6 .99.7 1.97 1.4 2.99 2.13.75.61 1.49 1.23 2.26 1.87v2c5.12.44 10.05.42 15-1 .11-2.87-1.14-4.4-2.69-6.77-.43-.74-.86-1.47-1.31-2.23l1-3c.67 2 1.34 4 2 6h2c.05.81.09 1.61.13 2.44.29.84.58 1.69.87 2.56 2.63 1.01 5.22 1.53 8 1 .6-1.67.6-1.67 1-4 .77-1.77 1.59-3.52 2.44-5.25.43-.89.87-1.78 1.31-2.7.21-.34.21-.34 1.25-2.05h2c.17.5.17.5 1 3-.16.33-.16.33-1 2l3-1v3c2.38.33 2.38.33 5.44.25.51-.01.51-.01 3.06-.05 2.5-.2 2.5-.2 3.5-1.2l3-1v-3c-1.66-.36-3.32-.69-5-1 3.09-3.09 7.36-3.84 11.48-5.06 1.92-.62 1.92-.62 4.52-1.94-2.16-2.52-4.58-3.22-7.68-4.37-3.32-1.63-3.32-1.63-4.25-3.69-.02-.97-.04-1.94-.07-2.94-.02-.42-.02-.42-.14-2.55-.2-5.32-.2-5.32.14-7.45h3l3-1c2.44.94 2.44.94 4 2h-4v2c1.98.71 1.98.71 4.63 1.38 4.43 1.24 7.68 2.79 11.37 5.62.46.33.46.33 2.75 2 2.3 2.04 3.42 3.07 4.25 6 0 4.42-.4 6.36-3.43 9.63-8.89 6.46-19.27 10.47-30.21 11.06-2.7.36-4.83 1.28-7.36 2.31-21.8 4.97-44.98 3.62-67 1-1.1-.12-2.21-.24-3.35-.37-12.8-1.73-27.79-6-37.65-14.63-2.1-2.98-3-4.32-3-8 2.2-6.59 8.27-9.71 14-13 3-1.5 5.71-1.19 9-1l-1 2c-.76.17-1.52.33-2.31.5-.56.17-1.11.33-1.69.5 1.5 1.44 1.5 1.44 4 2 1.37-1.97 2.71-3.97 4-6 .33.5.33.5 2 3v-3l1-2c2.5-.12 2.5-.12 5 .001h1v-2c7.6-3.17 15.97-3.32 24.06-4.23"/><path fill="#f4dbd3" d="M187 47c8.59-.9 16.44 3.63 23.2 8.62 6.04 5.63 5.14 13.43 5.49 21.13.06 1.05.12 2.09.18 3.17.29 6.44-.1 11.87-1.87 18.08l-1 1c-.41-.06-.41-.06-2.5-.38-.82.13-1.65.25-2.5.38-.69 3.44-.69 3.44-1 7-.33.16-.33.16-2 1 .06-1.69.06-1.69.44-4 .21-1.33.41-2.66.56-4l-1 1c-1.48-1.88-2.86-3.81-4.25-5.75-2.81-2.01-5.41-1.49-8.75-1.25-.5.16-.5.16-3 1l-1 3c-.69-1.32-1.35-2.66-2-4-2.19-3.25-2.19-3.25-5-6-3.5-.62-3.5-.62-7 0-2.88 2.06-2.88 2.06-5 4l-1-1c-2.11 4.68-2.02 7.65-.75 12.56.14.55.14.55.83 3.32.92 3.12.92 3.12 2.15 6.02.26.69.51 1.39.77 2.1h-2v2h2v2c.5.16.5.16 3 1-1.82 1.82-4.24 1.44-6.67 1.44-3.76-.71-6.32-2.95-9.25-5.32-.69-.37-1.37-.74-2.08-1.12-3.09.96-4.42 2.41-6.81 4.69C146 121 146 121 142.12 121l-3.12-1v-3l-3 1 2 2c-2.87 1.21-5.12 1.13-8 0v-2c-1.32-.69-2.66-1.35-4-2-1.27-.81-2.51-1.65-3.75-2.5-.61-.42-1.23-.85-1.86-1.28-.46-.4-.92-.81-1.39-1.22v-2h2v2c2.06.62 4.13.96 6.25 1.34l1.75.66v3l3 1c.06-2.94.06-2.94-1-6l-2.88.06L125 111c-1.75-3.44-1.75-3.44-3-7-.33-.16-.33-.16-2-1-.16.33-.16.33-1 2l-1-3-.94 2.06L116 106c-1.49-2.2-2.16-4.48-3-7h-2v2c-3-1-3-1-5-4l2-2v2c2.34-.3 4.67-.63 7-1l1 1c3.74.03 7.47-.03 11.21-.13 4.47-.06 7.66.2 11.79 2.13l-1-2c-.66-.14-1.32-.29-2-.44-.66-.18-1.32-.37-2-.56l-1-3c-2.64-.33-5.1-.46-7.75-.5-7.19-.25-14.25-.87-21.37-1.88-.87-.11-1.73-.22-2.62-.34C95.85 89.49 90.98 88.32 86 86c4.13-1.64 8.11-.43 12.31.38 24.1 4.28 50.79 4.5 74.69-1.38l1-1c1.91-.28 3.83-.52 5.75-.75 9.79-1.46 21.46-4.47 28.25-12.25 1.27-3.8 1.41-5.79.12-9.56-5.17-5.93-11.93-9.04-19.25-11.58-.31-.14-.31-.14-1.87-.86Z"/><path fill="#d66f81" d="M84 114c3.52.17 5.47.47 8 3v4c1.71.64 1.71.64 3.94.81.73.07 1.46.14 2.21.21C100 122 100 122 101 121l-2-2c5.1-1.02 5.1-1.02 8 0 1.55 3.2 1.45 6.63 1.59 10.14.07 1.05.14 2.11.21 3.19.23 3.45.4 6.9.58 10.36.14 2.34.29 4.69.44 7.04.3 4.63.57 9.27.83 13.91.36 6.71.81 13.42 1.28 20.12.17 2.39.33 4.78.48 7.16.06 1.04.13 2.07.2 3.14.02.43.02.43.16 2.63.22 2.22.51 4.2 1.23 6.31 2.34 1.17 3.77 1.13 6.38 1.12.77.01 1.54.01 2.33.01 2.29-.13 2.29-.13 4.67-.83q.795-.15 1.62-.3-1.455 3.03-3 6l3-1 1 3 2-2 2 2h3c3 1 3 1 5 4l3 1v1h-6c-.64.17-1.28.33-1.94.5-4.14 1-8.05.84-12.06-.5l-3.25.06L119 217l1-2c-3.09.39-6.1 1.06-9.14 1.69-.95.1-1.89.2-2.86.31l-2-2 2.38.06L111 215v-3h-4v2c-.5-.16-.5-.16-3-1 .52-.43 1.03-.87 1.56-1.31.48-.56.95-1.12 1.44-1.69-1.69-2.25-1.69-2.25-4-4-.33.16-.33.16-2 1v-3h-2v-3c-1.96-.23-3.92-.46-5.89-.64-3.33-.57-4.92-1.84-7.11-4.36-.69-3.69-.69-3.69-1-7l-2-1v-6l-2-1c.25-2.88 1.08-5.24 2-8 2.82 4.23 2.66 8.7 2.95 13.66.36 4.09.79 6 3.31 9.38C92 198 92 198 94.81 198.74c.72-.25 1.44-.49 2.19-.74.38-2.5.32-4.32.06-6.81-.06-.77-.12-1.54-.18-2.34-.94-11.04-2.33-22.05-3.63-33.06-1-8.51-1.91-17.03-2.65-25.57-.79-8.9-.79-8.9-1.6-12.22-1.64-1.36-3.3-2.71-5-4"/><path fill="#ba4f64" d="M120 114c2.12 1.83 3.38 3.66 5 6l-2 2 1 1c1.82 3.65 1.41 7.92 1.56 11.94.04 1.08.09 2.16.13 3.27.43 13.28.42 26.57.43 39.85.01 1.17.01 2.34.01 3.55q.015 5.025 0 10.05c0 .51 0 .51.01 3.12 0 .93-.01 1.87-.01 2.84v2.5C126 202 126 202 125 203c-1.64.12-3.29.18-4.94.19-.89.01-1.79.03-2.71.04C115 203 115 203 113 201c-.44-2.5-.75-4.92-.99-7.44-.08-.79-.16-1.57-.25-2.38-1.04-10.51-1.83-21.05-2.62-31.58-.27-3.56-.54-7.11-.82-10.67-.17-2.3-.34-4.6-.52-6.89-.08-1.05-.16-2.1-.24-3.17-1.38-18.78-1.38-18.78 1.27-22.29l2.42-1.33c.39-.23.39-.23 2.39-1.42 2.71-.95 3.75-.97 6.36.17"/><path fill="#9d3c51" d="M84 107c2.56 1.88 2.56 1.88 5 5 3.77 3.94 6.75 6.21 12.19 7.25 1.26.25 2.51.5 3.81.75-3.37 2.11-6.13 3.18-10.06 2.38-2.94-1.38-2.94-1.38-4.13-4-.13-.4-.13-.4-.81-2.38h-3l3 2c2.58 8.14 2.59 17.55 3.36 26.05.52 5.74 1.08 11.48 1.66 17.22.18 1.85.36 3.7.55 5.55.27 2.8.55 5.6.83 8.4.27 2.66.53 5.31.8 7.96.08.8.16 1.6.24 2.43.41 4.14.75 8.22.56 12.39l-1 1c-3.96-.15-6.24-.27-9.15-3.07-2.22-3.52-2.74-6.63-3.16-10.68-.09-.77-.18-1.53-.28-2.31-.3-2.5-.57-5-.85-7.5l-.93-7.88c-.22-1.8-.43-3.61-.64-5.41-.73-6.17-1.54-12.33-2.42-18.49-.12-.82-.23-1.64-.35-2.49-.45-3.16-.91-6.32-1.37-9.48l-.93-6.5c-.18-1.23-.36-2.45-.54-3.71-.39-3.54-.56-6.92-.38-10.48 2.22-2.44 4.76-3.48 8-4"/><path fill="#e76c8c" d="M177.313 85.375c4.58.78 5.75 2.27 8.52 5.8 1.17 1.82 1.17 1.82 2.17 4.82.53-.59 1.07-1.19 1.62-1.81 2.38-2.19 2.38-2.19 5.88-2.69 4.02.58 5.03 1.39 7.5 4.5 2 2 2 2 4 3-.16 4.39-1.31 8.12-4 11.57-.99.8-1.98 1.61-3 2.43-.79.67-1.57 1.33-2.38 2.01-9.16 7.61-9.16 7.61-15.43 8.31-.73-.11-1.45-.21-2.19-.32v-3c-.72-.22-1.45-.45-2.19-.68-4.84-2.26-6.72-6.76-8.76-11.53-1.77-4.91-3.54-10.52-3.05-15.79 1.36-1.75 1.36-1.75 3-3h2c.39-.49.78-.98 1.19-1.5 1.81-1.5 1.81-1.5 5.12-2.12"/><path fill="#e98e9d" d="M162 124l3 2v2c.5.08.5.08 3 .5.5.08.5.08 3 .5v2c.49.02.49.02 3 .11.99.29 1.98.59 3 .89.38 3.03.33 5.24 0 8.23-.07.85-.14 1.69-.21 2.57-.23 2.74-.51 5.47-.79 8.2l-.48 5.31c-.49 5.34-1.03 10.67-1.58 16l-.84 8.21c-.17 1.68-.34 3.36-.52 5.04-.9 8.89-.9 8.89-.58 12.44 4.65.97 7.13-.58 11-3-.64 2.47-1.69 3.78-3.75 5.25-2.85.95-5.26.95-8.25.75-1-1-1-1-1.13-3.44.01-4.83.03-9.53.75-14.31.13-1.07.25-2.15.38-3.25h-2c-1.75 2.31-1.75 2.31-3 5l2 3c-1.67-.32-3.33-.66-5-1l-2 2-1-2h-2c-.22-2.73-.28-5.33-.25-8.06.01-.87.01-1.74.02-2.63.11-8.45.58-16.88 1.11-25.31.03-.65.03-.65.23-3.93 1.24-18.53 1.24-18.53 2.89-23.07"/><path fill="#c56176" d="M117.056 41.769c7.51-.8 7.51-.8 10.94.23.46 3.38-1.47 6.09-3 9-.46 1.46-.92 2.92-1.37 4.38-.54.86-1.07 1.73-1.63 2.62-3.39-2.35-4.89-4.82-7-8.37-.66-.87-1.32-1.74-2-2.63-4.41.17-6.62 2.14-9.87 4.94-6.03 4.64-10.97 5.14-18.33 5.51-.92.18-1.84.37-2.8.55.04 1.81.04 1.81 1 4 .63 3.75.63 3.75 0 7-2.04.06-2.04.06-4.56-.25-2.52-.24-2.52-.24-4.44.25-.25 3.09.28 5.67.96 8.69.01.76.03 1.53.04 2.31-4.07.09-6.96-2.03-10.18-4.31-.86-.6-1.72-1.19-2.61-1.8-2.23-1.91-3.23-3.15-4.21-5.89.09-3.82.66-5.57 3.07-8.56 6.28-5.22 11.6-8.91 19.93-8.44l-1 2c-.76.17-1.52.33-2.31.5-.56.17-1.11.33-1.69.5 1.5 1.44 1.5 1.44 4 2 1.37-1.97 2.71-3.97 4-6 .33.5.33.5 2 3v-3l1-2c2.5-.12 2.5-.12 5 .001h1v-2c7.6-3.17 15.97-3.32 24.06-4.23"/><path fill="#eecdc4" d="M164.52 89.57c.41.07.41.07 2.48.43-.21 2.59-.21 2.59-1 6 .49 3.25.49 3.25 1.31 6.56.27 1.1.53 2.19.8 3.32.89 3.12.89 3.12 2.12 6.02.25.69.51 1.39.77 2.1h-2v2h2v2l3 1c-1.82 1.82-4.24 1.44-6.67 1.44-3.76-.71-6.32-2.95-9.25-5.32-.69-.37-1.37-.74-2.08-1.12-2.89.91-4.89 2.62-7.12 4.62C146 121 146 121 144 121v-2h2v-2l-2.5.06-2.5-.06v-3l3 .06 3-.06v-4c-2.12-1.19-2.12-1.19-4-2l2-1c-.21-1.01-.41-2.02-.62-3.06-.13-.97-.25-1.94-.38-2.94h5l-3-2v-1l-2.56.06L141 98l1-2h2l1-3 1 1 1-2c2.95-.63 2.95-.63 6.69-1.13.61-.08.61-.08 3.7-.5 2.38-.24 4.76-.51 7.13-.8"/><path fill="#f3dbe3" d="M111.941 46.168c2.79 1.13 3.48 2.58 5 5.14 3.03 4.8 5.73 7.79 11.12 9.88.64.27 1.28.54 1.94.81-2.91 1.07-4.98 1.03-7.94.25-.69-.17-1.39-.35-2.1-.53-1.96-.72-1.96-.72-4.77-2.97-.36-.12-.36-.12-2.19-.75-.99 2.26-1.48 4.56-2.06 6.95-1.67 5.39-5.89 14.08-10.94 17.05-.97-2.23-.97-2.23-1.94-5.75-2.56-7.5-6.13-10.28-12.71-14.44-.78-.6-1.55-1.19-2.35-1.81l1-3c2.55-.45 2.55-.45 5.87-.69 7.75-.97 12.25-4.44 18.13-9.31 2-1 2-1 3.94-.83"/><path fill="#b7586a" d="M184 45c3.75.38 3.75.38 7 1-1.32.37-2.66.69-4 1v2c1.98.71 1.98.71 4.62 1.38 4.44 1.24 7.69 2.79 11.38 5.62.91.66 1.81 1.32 2.75 2 2.29 2.04 3.41 3.07 4.25 6 0 4.42-.4 6.35-3.44 9.62C200.81 77.8 193.32 82.5 186 82c.35-3.3 1.68-5.49 3.41-8.3.49-.79.97-1.58 1.47-2.39.49-.74.98-1.49 1.49-2.26.21-.68.41-1.35.63-2.05-2.37-2.43-4.47-3.18-7.69-4.38C182 61 182 61 181.06 58.94L181 56c-.05-.84-.1-1.68-.14-2.55-.21-5.32-.21-5.32.14-7.45h3Z"/><path fill="#dbafaa" d="M53 63h1c.34 1.35.67 2.71 1 4.06 1.97 6.01 5.65 8.81 11 11.94 3.06 1.45 6.14 2.75 9.3 3.96 4.74 1.83 4.74 1.83 6.7 3.04-1.44 1.56-1.44 1.56-3 3l3 1v2c-.43-.18-.43-.18-2.62-1.06-.79-.31-1.57-.62-2.38-.94l2 3h-2l1 3h-5c1 3 1 3 3 5 .88 3.19.88 3.19 1 6-1.94-.25-1.94-.25-4-1v2c-1.88-.19-1.88-.19-4-1l-2-3 1-1-3-1c-.07-.3-.07-.3-.44-1.81C64 98 64 98 61.94 95.94L60 94v-3h-2l-1 2v-2h-2l2 3v3l-3-1c-.58-2.07-.58-2.07-.81-4.56-.09-.83-.18-1.66-.27-2.51.03-.63.05-1.27.08-1.93h2l-2-3c-.24-2.27-.24-2.27-.23-4.89 0-.93 0-1.87.01-2.84l.03-2.96v-2.99c.04-5.35.04-5.35.19-7.32"/><path fill="#c36376" d="M75 113h1c.52 2.88.96 5.75 1.38 8.65.12.89.25 1.78.39 2.7l.81 5.67c.41 2.87.83 5.74 1.25 8.61.26 1.84.53 3.68.79 5.52.13.85.25 1.7.38 2.58 2.13 14.98 2.13 14.98 2.19 21.15.01.71.03 1.43.04 2.17C83 172 83 172 81 175v-4c-1.69-.56-1.69-.56-4-1-.91-.62-1.81-1.24-2.75-1.88-.74-.37-1.48-.74-2.25-1.12-.19 2.5-.19 2.5 0 5-3.26-4.89-3.05-10.17-2.94-15.88.1-6.08-.67-12-1.52-18.01-.75-5.79-.75-5.79 1.46-9.11v2c2 .75 2 .75 4 1v-2h3c-3-1-3-1-6 0 0-2 0-2 2-4v-3l2-2c.38-1.95.38-1.95.56-4.12.15-1.28.29-2.56.44-3.88"/><path fill="#883944" d="M214 61c5.26 7.89 4.17 23.78 2.47 32.81-1.05 3.45-1.79 5.58-4.51 8.04-2.52 2.76-2.7 4.72-3.15 8.4-.24 1.92-.51 3.84-.81 5.75h-1c-.08-1.26-.17-2.52-.25-3.81-.12-.53-.12-.53-.75-3.19-2.12 1.69-2.12 1.69-3.46 3.24-1.63 1.87-3.36 3.46-5.23 5.07-.58.51-1.16 1.03-1.76 1.55C194 120 194 120 192 120c0 1.87.01 3.75.06 5.62-.1 3.88-.89 7.68-2.06 11.38h-1c.08-.73.17-1.47.25-2.22.31-2.84.54-5.03-.25-7.78-3.5-.93-6.69-.39-10 1-.83 2.32-.83 2.32-1 4 .1-2.04.21-4.07.36-6.11q-.18-.93-.36-1.89h-4v-3c-2.12-.26-2.12-.26-4.88-.12-4.95.21-4.95.21-7.12-.88l-1 3c-.19-.6-.37-1.2-.56-1.81-.48-.72-.95-1.45-1.44-2.19-2.83-.52-5.08-.28-8 0v2l3.31-.06c3.69.06 3.69.06 5.4 1.22 1.79 2.55 1.62 4.31 1.54 7.4-.01.53-.01.53-.08 3.21-.49 9.46-.49 9.46-1.17 13.23h-1a61 61 0 0 1-.28-4.27c-.04-.89-.08-1.78-.11-2.69-.02-.47-.02-.47-.11-2.85-.07-1.84-.14-3.68-.22-5.52l-.09-2.49C158 126 158 126 157 123c-2.32.03-2.32.03-5.12.5-2.83.47-2.83.47-4.88.5l1-3c-.5.16-.5.16-3 1-.12 3.56-.12 3.56 0 7h-1c.05-.52.05-.52.31-3.12-.1-.95-.2-1.9-.31-2.88-2.56.69-2.56.69-6 2-6.43-.43-6.43-.43-9-3 1.89-.05 1.89-.05 4.81.12 6.37.11 11.97-1.06 16.72-5.57.42-.47.85-.94 1.28-1.43.72-.7 1.45-1.4 2.19-2.12 1.88.44 1.88.44 4 2 5.4 3.53 8.52 4.59 15 4-.33-.16-.33-.16-2-1v-2h-2l1-3c-.78-2.49-.78-2.49-1.94-5.31-1.62-4.16-2.18-7.21-2.06-11.69l-3-1c1.75-.83 1.75-.83 4-1 .69 1.74.69 1.74 1 4.31.89 5.63 2.67 10.51 5 15.69.32.73.63 1.47.96 2.22 1.47 2.51 3.41 2.74 6.04 3.78v3c7.92-.35 14.64-5.61 20-11 1.26-1.97 2.08-3.84 3-6h3l.88-3.44c.37-1.17.74-2.35 1.12-3.56.82-.12 1.65-.25 2.5-.38.82-.2 1.65-.41 2.5-.62 2.6-7.91 1.97-15.53 1.5-23.75-.15-2.58-.28-5.16-.41-7.73-.06-1.14-.13-2.27-.19-3.43.03-.69.06-1.38.1-2.09"/><path fill="#f9e8ea" d="M135.875 36.25c3.5-.06 6.68.09 10.12.75l2 2c-2.12 1.26-4.22 2.35-6.43 3.44-3.37 1.88-3.37 1.88-5.57 3.56 7.16 4.67 17.66 3.73 25.97 4.15 2.53.29 2.53.29 6.03 1.85.28 3.6-.82 6.63-2 10-.22 1.07-.45 2.14-.68 3.25-.44.58-.87 1.16-1.32 1.75-3.83-.62-6.22-1.22-9-4-2.56.19-2.56.19-5 1-.32.99-.65 1.98-1 3-.65-1.39-1.3-2.78-1.94-4.17-1.54-2.67-3.66-4.4-5.95-6.42-9.03-8.02-9.03-8.02-9.73-14.72.44-3.78.76-4.47 4.5-5.44"/><path fill="#f2d8e0" d="M131 63c2.19-.44 2.19-.44 5 0 3.25 4.41 5.1 9.72 7.19 14.75.37.88.73 1.75 1.11 2.65 2.7 6.46 2.7 6.46 2.7 7.6-2.68.13-5.32.19-8 .19l-2.31.03c-1.9.01-3.8-.1-5.69-.22v-2c-1.66-.68-3.33-1.35-5-2-2.85-1.8-2.85-1.8-5.62-3.88-.95-.67-1.89-1.35-2.86-2.05-.5-.68-1-1.37-1.52-2.07 3.86-4.3 9.71-6.69 14.75-9.41.74-.53 1.48-1.05 2.25-1.59Z"/><path fill="#b95066" d="M158 149h1c.14 2.39.19 4.73.19 7.12v2.34c-.08 8.13-.56 16.24-1.07 24.35-.07 1.32-.15 2.64-.23 3.99-.09 1.25-.17 2.5-.26 3.78-.07 1.12-.14 2.23-.22 3.38-.41 3.02-1.04 5.33-2.41 8.04-3.62 2.11-6.86 2.37-11 2-3.69-3.69-2.46-9.7-2.5-14.69l-.12-3.61c-.01-.56-.01-.56-.04-3.4-.01-1.04-.03-2.08-.05-3.15.23-.71.47-1.42.71-2.15 3.1.04 3.1.04 6 1-1 2-1 2-3 3 .62.14 1.24.29 1.88.44.35.09.35.09 2.12.56v2h2v-2h2v-7h2l-1-3 2-2c0-1.81-.01-3.62-.06-5.43.12-5.22.99-10.46 2.06-15.57"/><path fill="#d2677c" d="M106 196l2 2c-.33.5-.33.5-2 3h2.62c3.38 0 3.38 0 5.19 1.5 3.45 2.37 7.13 1.87 11.19 1.5l2.37-.7c.54-.1 1.08-.2 1.63-.3q-1.455 3.03-3 6l3-1 1 3 2-2 2 2h3c3 1 3 1 5 4l3 1v1h-6c-.32.08-.32.08-1.94.5-4.14 1-8.05.84-12.06-.5l-3.25.06L119 217l1-2c-3.09.39-6.1 1.06-9.14 1.69-.48.05-.48.05-2.86.31l-2-2 2.38.06L111 215v-3h-4v2l-3-1c.52-.43 1.03-.87 1.56-1.31.24-.28.24-.28 1.44-1.69-1.69-2.25-1.69-2.25-4-4-.33.16-.33.16-2 1v-3h-2c0-2.88 0-2.88 1-6 2.94-1.5 2.94-1.5 6-2"/><path fill="#9c394b" d="M120 114c2.12 1.83 3.38 3.66 5 6l-2 2 1 1c1.82 3.65 1.41 7.92 1.56 11.94.04 1.08.09 2.16.13 3.27.43 13.28.42 26.57.43 39.85.01 1.17.01 2.34.01 3.55q.015 5.025 0 10.05c0 .51 0 .51.01 3.12 0 .93-.01 1.87-.01 2.84v2.5C126 202 126 202 125 203c-1.64.12-3.29.18-4.94.19-.89.01-1.79.03-2.71.04C115 203 115 203 113 201c-.32-2.72-.13-5.25 0-8h1l-.06 3 1.06 3c2.79 1.15 4.74 1.41 7.75 1.12.74-.37 1.48-.74 2.25-1.12.27-2.72.27-2.72-.17-6.46-.15-1.46-.28-2.92-.41-4.39-.08-.82-.15-1.63-.23-2.47-.36-5.07-.36-10.14-.4-15.22l-.09-6.69c-.04-3.45-.08-6.91-.1-10.36-.03-3.38-.07-6.76-.12-10.13-.01-1.05-.01-2.1-.01-3.18-.02-.95-.04-1.9-.05-2.88l-.03-2.55c-.06-.28-.06-.28-.39-1.67l-3 1c-1.25-2.25-1.25-2.25-2-5l1-3c-4 0-4 0-5.62 1.56L112 129l-2-1c-.38 2.31-.38 2.31-.56 5.44-.12 1.85-.25 3.71-.44 5.56h-1c-.45-3.02-.75-5.97-1-9-.13-.94-.25-1.87-.38-2.84-.25-2.96-.32-5.27.38-8.16 3.46-3.83 7.81-7.27 13-5"/><path fill="#090805" d="M74 199c1.43 2.39 2.22 4.71 3.06 7.38 2.48 5.76 8.06 8.34 13.55 10.78 14.81 5.65 28.98 7.02 44.7 7.03l3.73.03c17.58.03 36.15-3.1 50.96-13.22.76-.77 1.52-1.54 2.31-2.33.28-.28.28-.28 1.69-1.67-.27 3.4-1.2 5.27-3.73 7.57-22.85 15.86-54.86 16.21-81.38 11.91-12.05-2.24-24.72-6.12-32.83-15.79-1.54-3.91-1.86-7.5-2.06-11.69"/><path fill="#deb6cb" d="M113 57c2.94 1.38 2.94 1.38 4.76 2.74 3.68 2.07 7.52 1.8 11.67 1.89L132 62c.33.49.33.49 2 3-1.53 1.46-1.53 1.46-3.94 2.94l-2.53 1.56c-.83.5-1.67.99-2.53 1.5-.69.42-1.38.84-2.09 1.28C118.33 75 118.33 75 116 75c-.7 1.31-1.36 2.65-2 4-.98 1.35-1.98 2.68-3 4l-2 3-3-1c1.34-1.85 1.34-1.85 3.5-4.06 2.16-2.23 2.16-2.23 3.5-3.94h-3l-2 3-2-1c-.33.72-.66 1.44-1 2.19-.17.3-.17.3-1 1.81-1.29-1.5-1.29-1.5-2-4 1.45-2.92 1.45-2.92 3.69-6.19 2.71-4.01 4.76-7.61 5.87-12.37.48-1.14.95-2.27 1.44-3.44"/><path fill="#c06f7b" d="M206 108h1c.74 11.27-.53 22.3-2.08 33.44q-.54 3.915-1.05 7.83c-.23 1.66-.45 3.32-.68 4.98-.05.39-.05.39-.31 2.37-.26 1.8-.56 3.59-.88 5.38h-1c-.04-1.36-.01-2.72.04-4.09.02-.84.05-1.69.07-2.57.05-1.8.12-3.61.19-5.41l.06-2.58c.02-.78.05-1.57.08-2.38-.15-.65-.29-1.3-.44-1.97-1.31-.7-2.65-1.38-4-2l2-2 1-3 2 2c.94-2.31.94-2.31 1-5-2.38-.62-2.38-.62-5-1l-1-3h-2l-2 3c-.04-2.33-.04-4.67 0-7h-1c-.32-2.28-.32-2.28 0-5 1.79-1.84 1.79-1.84 4.19-3.5 2.8-2.02 5.42-3.95 7.81-6.44Z"/><path fill="#f6e0e7" d="M160 34c2.5.69 2.5.69 5 2v3c3.25.37 6.4.44 9.67.44 2.05.06 2.05.06 5.33.56v4h-2c.12 1.34.3 2.67.5 4 .05 2.21.05 2.21-.5 4-6.11 2.08-14.33-.42-20-3-3.37-2.89-3.89-4.37-4.62-8.75.2-1.07.41-2.14.62-3.25 3-.81 3-.81 6-1Z"/><path fill="#f9efed" d="M190 83c-3 2-3 2-5.44 2.38-.51.2-1.03.41-1.56.62 1.29 1.38 2.63 2.71 4 4l-1 2c-.7-.78-1.4-1.57-2.12-2.38C181 87 181 87 177.5 86.44c-3.97.64-5.58 1.89-8.5 4.56-.16-.17-.16-.17-1-1-1.79.26-3.57.58-5.34.92-9.04 1.46-18.02 1.43-27.16 1.39h-2.68C99.75 92.22 99.75 92.22 86 86c4.13-1.65 8.11-.43 12.31.38 24.1 4.28 50.79 4.5 74.69-1.38l1-1c5.2-.79 10.76-1.45 16-1"/><path fill="#b24b5f" d="M188 138h1c1.01 9.42-.82 19.2-2.03 28.54-.35 2.72-.68 5.44-1.02 8.16l-.66 5.25c-.1.81-.2 1.61-.3 2.44-1.57 12.04-1.57 12.04-4.74 15.55-2.9 1.37-5.08 1.34-8.25 1.06l-1-1c.04-2.62.15-5.2.31-7.81.04-.73.07-1.45.11-2.2.46-7.56.46-7.56 2.58-9.99.12 3.38-.08 6.73-.22 10.11.07.96.14 1.91.22 2.89.5-.16.5-.16 3-1v-2l3-2c-.16-.5-.16-.5-1-3l-2-1c1-2 1-2 3-3.94 2.47-2.55 2.99-4.19 3.03-7.72-.06-1.98-.13-3.96-.19-5.94.05-.79.11-1.58.16-2.4l2-1c.12-1.82.12-1.82 0-4.12-.09-3.24.12-5.81 1.12-8.88l.88-3-2-1v-3h2Z"/><path fill="#ae4f61" d="M207 61c1.5.81 1.5.81 3 3 .08 4.42-.41 6.36-3.44 9.62C200.81 77.8 193.32 82.5 186 82c.5-4.79 3.6-8.91 6.07-12.95C193 67 193 67 192 64c2.05.5 4.1 1.01 6.12 1.65.62.12 1.24.23 1.88.35l1-2c4 0 4 0 7 1-.31-1.34-.65-2.67-1-4"/><path fill="#d4c7c7" d="M82 46l1 3c-2.03.99-2.03.99-4.94 1.88-4.67 1.54-8.46 3.38-12.5 6.17C64 58 64 58 62 58c-2.05 3.14-2.77 6.29-3 10 3.36 7.26 11.09 10.47 18.23 13.27 1.92.66 3.85 1.3 5.79 1.91.65.27 1.31.54 1.98.82v2c-10.45-.24-20.57-5.96-28-13-2.5-3.03-2.94-4.6-3.5-8.5.66-4.59 1.89-5.63 5.5-8.5 7.05-5.18 14-9.64 23-10"/><path fill="#f2d4dd" d="M180 47h1v6.81c.23 3.89.23 3.89 1 7.19 2.29 1.74 3.95 2.12 6.77 2.54C191 64 191 64 193 65.42c.33.52.66 1.04 1 1.58-4 2.44-7.72 4.01-12.25 5.12-.45.15-.45.15-2.75.88 1.31.71 2.65 1.36 4 2 0 2.19 0 2.19-1 4-1.75.12-1.75.12-4-1-1.71-1.96-3.38-3.96-5-6l-2-1 1-2c2.07.2 2.07.2 4.56.69 2.45.36 2.45.36 4.44.31.88-2.69.88-2.69 0-5-1.69 1.3-3.36 2.64-5 4l-1-3 3-1v-2c-.62.39-1.24.78-1.88 1.19-.7.27-1.4.53-2.12.81-1.55-2.51-2.04-4.3-1.88-7.25.88-1.75.88-1.75 2.82-2.5C177 55 177 55 179 55c.38-1.75.38-1.75.56-4 .12-1.34.25-2.67.44-4"/><path fill="#a84a5a" d="M77 199c2.31-.69 2.31-.69 5 0 1.19 2.75 1.19 2.75 2 6 .77 2.15.77 2.15 2 4 2.09.64 2.09.64 4.5.81.79.07 1.59.14 2.41.21C95 210 95 210 97 209l2 1v2c-2.33.04-4.67.04-7 0l3 1 1 3 2-2c.12.6.25 1.2.38 1.81.2.72.41 1.45.62 2.19 2.06.62 2.06.62 4 1v2c-8 .16-15.39-3.79-22-8-1.94-1.9-3.4-3.77-5-6v-2l2-1c-.11-.42-.11-.42-.69-2.56-.1-.81-.2-1.61-.31-2.44"/><path fill="#9f484f" d="M189 209l3 1c-14.12 13.9-37.7 15.18-56.19 15.19l-3.71.03c-22.9.04-22.9.04-29.1-4.22 4.24-.21 8.14-.13 12.35.49 6.74.87 13.55.84 20.34.89.73 0 1.46 0 2.21.01 16.51.04 31.59-2.53 46.41-10.08C187 211 187 211 189 211Z"/><path fill="#d8a8a3" d="M163 96h3c.88 2.67.88 2.67 1.56 6.19.68 3.42 1.32 6.51 2.65 9.74L171 114h-2v2h2v2l3 1c-1 1-1 1-4.38 1.5-5.89-.01-11.41-3.55-15.62-7.5 2.03-.93 3.79-1 6-1l-1.44-1.38L157 109l1-2c.7.72 1.4 1.44 2.12 2.19.62.6 1.24 1.19 1.88 1.81-.32-1.67-.66-3.33-1-5 .63-1.68 1.3-3.35 2-5l-.06-2.81Z"/><path fill="#d47688" d="M75 113h1c.52 2.88.96 5.75 1.38 8.65.06.45.06.45.39 2.7l.81 5.67c.41 2.87.83 5.74 1.25 8.61.26 1.84.53 3.68.79 5.52.13.85.25 1.7.38 2.58 1.2 8.45 2.27 16.72 2 25.27h-1c-.35-1.81-.64-3.64-.9-5.47-.17-1.13-.34-2.25-.51-3.42-.35-2.41-.7-4.81-1.04-7.22-.17-1.13-.34-2.26-.51-3.42-.16-1.05-.31-2.1-.46-3.18-.19-.75-.38-1.51-.58-2.29h-2c-.06.32-.06.32-.38 1.94C75 151 75 151 72.88 152.19c-.31-.03-.31-.03-1.88-.19.19-3.12.19-3.12 1-7 .1-.97.21-1.94.31-2.94.23-.68.46-1.36.69-2.06h4c.58-4.08.19-8.05-1-12-3.06.38-3.06.38-6 2 0-2 0-2 2-4v-3l2-2c.38-1.95.38-1.95.56-4.12.15-1.28.29-2.56.44-3.88"/><path fill="#e396a0" d="M106 124h1c.38 2.57.69 5.12.96 7.71.09.8.17 1.61.26 2.44.9 8.62 1.59 17.26 2.21 25.9l.6 7.94c1.52 20.34 1.52 20.34.97 30.01h-1c-.42-3.09-.77-6.15-1.06-9.25-.09-.91-.18-1.81-.28-2.75-.57-6.13-.82-12.12-.63-18.27L109 166l-1 2c-1.88-.44-1.88-.44-4-2-2.11-3.99-3.67-7.44-3-12l2-1c.14.97.29 1.94.44 2.94.18 1.01.37 2.02.56 3.06h3l-1 3 1 2c.38-7.75.04-15.44-.77-23.15-.45-5.59-.51-11.25-.23-16.85"/><path fill="#a13b4d" d="M158 149h1c.14 2.39.19 4.73.19 7.12v2.34c-.08 8.13-.56 16.24-1.07 24.35-.07 1.32-.15 2.64-.23 3.99-.09 1.25-.17 2.5-.26 3.78-.07 1.12-.14 2.23-.22 3.38-.44 3.25-1.01 6.64-3.41 9.04-2.81.19-2.81.19-5 0 .28-.11.28-.11 1.69-.69.76-.43 1.52-.86 2.31-1.31.35-2.83.28-4.44-1-7 .19-.66.37-1.32.56-2 .15-.66.29-1.32.44-2l-2-2h2c.96-3.59.97-6.17.44-9.88-.15-1.03-.29-2.06-.44-3.12h2l-1-3 2-2c0-1.81-.01-3.62-.06-5.43.12-5.22.99-10.46 2.06-15.57"/><path fill="#ecbebb" d="M210 80c-1.75 1.61-3.5 3.05-5.38 4.5-1.89 1.48-3.76 2.98-5.62 4.5v1c-2.07.55-4.15.97-6.25 1.4-.58.2-1.16.4-1.75.6v2h-2l-1 3c-1.24-1.94-1.95-3.75-2.44-6-.56-2-.56-2-2.39-4.08-.39-.63-.77-1.27-1.17-1.92 1.8-.57 1.8-.57 4.75-.69 1.02-.05 2.05-.11 3.1-.17.52-.02.52-.02 3.15-.14 3.04-.23 5.98-.56 9-1l1-2c4.56-2.22 4.56-2.22 7-1"/><path fill="#bb5769" d="M84 114c3.52.17 5.47.47 8 3v4c1.71.64 1.71.64 3.94.81.73.07 1.46.14 2.21.21C100 122 100 122 101 121l-2-2c5.41-.95 5.41-.95 8 0 .7 3.14.05 5.99-1 9-1.45 1.92-1.45 1.92-3 3l-2-2-1 2c-2-1-2-1-2.88-3-1.12-2-1.12-2-3.12-2.69-.33-.05-.33-.05-2-.31l-2-1c-.1-.93-.21-1.86-.31-2.81-.86-3.97-2.56-4.82-5.69-7.19"/><path fill="#c78c97" d="M106 41c-1.43.88-1.43.88-4 2-1.4.64-2.79 1.29-4.19 1.94-.69.32-1.39.63-2.1.96C94 47 94 47 93 50c-2-.33-4-.66-6-1v3l-1 3c-.14-.36-.14-.36-.88-2.19-.37-.6-.74-1.19-1.12-1.81-.41.95-.83 1.9-1.25 2.88-.58 1.03-1.16 2.06-1.75 3.12-3.25-.5-3.25-.5-6-2l1-2c.76-.16 1.53-.33 2.31-.5.56-.16 1.12-.33 1.69-.5-.72-.33-1.44-.66-2.19-1-.6-.33-1.19-.66-1.81-1 2.33-.35 4.66-.68 7-1l-1-2h-5c2.78-1.64 5.44-2.44 8.59-3.07.43-.09.43-.09 2.63-.53.89-.17 1.79-.35 2.72-.52.89-.19 1.79-.37 2.71-.56 4.18-.82 8.07-1.53 12.35-1.32"/><path fill="#a0374a" d="M188 138h1c1.01 9.42-.82 19.2-2.03 28.54-.35 2.72-.68 5.44-1.02 8.16l-.66 5.25c-.1.81-.2 1.61-.3 2.44-.61 4.69-1.32 9.17-2.99 13.61h-3c.19-1.94.19-1.94 1-5 2.19-9.05 3.16-17.49 2.84-26.81.05-.72.11-1.45.16-2.19l2-1c.12-1.82.12-1.82 0-4.12-.09-3.24.12-5.81 1.12-8.88.15-.5.15-.5.88-3l-2-1v-3h2Z"/><path fill="#b54e60" d="M125 119c2.06.81 2.06.81 4 2v2c1.76.45 1.76.45 4.12.69.77.08 1.54.17 2.33.26 2.55.05 2.55.05 5.81-.83L144 123c.73 2.71.73 2.71.75 6.38.03 2.2.1 4.42.25 6.62l2 1-2 1c-.3 2.78-.3 2.78-.38 6.44-.03 1.31-.07 2.61-.1 3.96-.03 1.39-.06 2.77-.08 4.16-.06 2.71-.13 5.42-.19 8.13-.03 1.21-.05 2.42-.08 3.66-.05.88-.11 1.75-.17 2.65h-1c-.1-2.84-.14-5.66-.14-8.5l-.06-5.31c-.03-2.82-.05-5.64-.05-8.45 0-2.71-.04-5.41-.08-8.11.01-.85.02-1.7.02-2.57-.05-2.37-.05-2.37-.69-6.06-3.23-1.51-4.62-1.13-8 0-2.56-.19-2.56-.19-5-1-1.19-2.06-1.19-2.06-2-4h-2l-1 2v-2c-.74-.35-1.48-.7-2.25-1.06-.58-.31-1.16-.62-1.75-.94 1.69-.56 1.69-.56 4-1Z"/><path fill="#8c3649" d="M193 69c3.4.41 5.21 1.46 8 3.38.33.53.66 1.07 1 1.62-.9 2.8-1.66 3.81-4.24 5.27-.87.32-1.74.65-2.64.98-.86.34-1.72.67-2.61 1.02C190 82 190 82 186 82c.81-4.74 3.3-9.82 7-13"/><path fill="#e4c1d6" d="M74 69c2.81-.26 5.38-.32 8.19-.25.8.01 1.6.01 2.43.02 1.79.02 3.59.11 5.38.23q-.795.18-1.62.36c-.79.21-1.57.42-2.38.64 1.75 2.44 1.75 2.44 4 5v2c-6.35 4-6.35 4-9 4-1.47-1.86-1.47-1.86-3.06-4.31-.53-.8-1.06-1.6-1.6-2.43C75 72 75 72 74 69"/><path fill="#f7eeeb" d="M55 62c3 2 3 2 4 5.69 2.15 6.12 7.45 8.54 13 11.31 3.49 1.43 6.98 2.74 10.54 3.96.81.34 1.62.69 2.46 1.04v2c-10.44-.24-20.59-5.95-28-13-2.67-3.4-3.48-5.68-3-10Z"/><path fill="#d16a7c" d="M125 123h2c.43.47.87.95 1.31 1.44 2.18 2.01 3.77 2.27 6.69 2.56l3-1 3 2-1 3-3-1-1 1h-2l-2 2h-2c-.35.72-.7 1.44-1.06 2.19-.16.3-.16.3-.94 1.81l-1-3c-.23 2.78-.38 5.53-.5 8.31-.12 2.91-.29 5.79-.5 8.69h-1c-.23-3.98-.19-7.97-.19-11.96 0-2.03-.02-4.06-.03-6.09-.01-1.26-.01-2.52-.01-3.83 0-1.17-.01-2.34-.01-3.55Z"/><path fill="#d1bbbc" d="M187 47c5.49-.58 9.41.67 14.19 3.19l1.82.88c3.95 2.02 6.68 4.12 8.99 7.93l-2 2c.33 1.67.66 3.34 1 5-1.06-1.29-2.03-2.64-3-4-5.61-6.07-11.32-9.32-19.02-12.07-.66-.31-1.31-.61-1.98-.93Z"/><path fill="#c897b6" d="M74 71c3.42 2.25 4.75 4.12 5.88 8.06L81 81c3.38-1.81 3.38-1.81 5.25-3.05C88 77 88 77 90.31 77.44c2.17 2 2.99 3.7 3.69 6.56-5.41 1.7-13.09.23-18.36-1.65C74 81 74 81 73.27 78.4c-.14-2.7-.17-4.85.73-7.4"/><path fill="#a84c5e" d="M62 59l3 1-1 2h-2v2h-2c.81 3.5.81 3.5 2 7h1l1-3h4v4c.83-.43 1.65-.87 2.5-1.31.41-.12.41-.12 2.5-.69.83 3.07.72 5.91 0 9-2.96.65-4.59-.74-7.04-2.3-6.38-4.5-6.38-4.5-7.96-8.7.2-3.22.5-5.29 2.38-7.94.53-.35 1.07-.7 1.62-1.06"/><path fill="#bfb6b8" d="M165 31c3 4.86 3 4.86 3 8 2.62.16 2.62.16 6 .06 2-.05 4-.08 6-.06v1c-1.75.1-3.5.13-5.25.13-1.08 0-2.17.01-3.28.01-1.15-.01-2.29-.01-3.47-.02-1.14.01-2.29.01-3.47.02-1.08 0-2.16-.01-3.28-.01h-3.05c-.72-.04-1.45-.09-2.2-.13v-1c2.35.01 4.69.13 7.03.26.65-.09 1.3-.17 1.97-.26v-3c-2.26-.99-3.58-1.11-5.96-.48-.66.28-1.31.57-1.98.86-3.01 1.21-5.79 2.33-9.06 2.62l-2-2c2.17-1.42 4.24-2.56 6.56-3.69.32-.16.32-.16 1.93-1.01 3.83-1.9 6.45-2.98 10.51-1.3"/></svg>