<svg xmlns="http://www.w3.org/2000/svg" width="280" height="280"><path fill="#a86e73" d="M130 43c4.41 2.17 7.34 4.87 10 9l.12 3.25c.29.91.58 1.81.88 2.75 2.41.48 4.76.51 7.22.6 4.71.68 8.24 3.33 11.78 6.4.33.5.33.5 2 3 2.39.15 2.39.15 5.25-.06 5.13-.15 7.82.53 11.75 4.06 2 3 2 3 2 6 .82.08 1.65.16 2.5.25 5.02 1.08 7.98 4.11 11.5 7.75 1.18 2.36.93 3.41.69 6-.04 2.17-.04 2.17.31 4 2.75 1.25 2.75 1.25 6 2 3.16 2.3 3.9 3.63 4.94 7.44.07 4.05-.81 5.24-2.94 8.56-.5 2.94-.5 2.94 0 6 1.17 1.46 2.35 2.91 3.64 4.26 1.68 2.15 2.43 4.31 3.36 6.86.97 2.36.97 2.36 2 3.88 2.5-1.5 2.5-1.5 5-4 2.07.12 2.07.12 4 1 2.11 5.63 2.82 11.17 1 17-2.12 3.31-4.45 6.22-8 8 1.24.27 2.47.54 3.75.81 4.02.95 4.02.95 6 3 .25 2.19.25 2.19-1.19 4.81-3.39 3.15-6.92 4.38-11.56 4.38-.43 2.43-.43 2.43 0 5 2.15.82 2.15.82 4.94 1.12 2.77.33 2.77.33 5.06.88 1.38 4.13.05 5.97-1.77 9.77-1.71 3.09-3.39 5.12-6.23 7.23-2.02.31-2.02.31-4.06.44-.97.18-1.94.37-2.94.56 1.56 2.69 1.56 2.69 2.85 4.32 1.81 2.65 1.69 4.58 1.15 7.68-2.69 3.72-5.61 4.9-10 6h-4c-.47 1.76-.47 1.76-.5 4.12-.41 5.89-2.61 9.14-6.94 13.13-3.73 2.55-6.54 3.66-11.06 4.06-4.29.85-5.67 2.46-8.5 5.69-2.48 1.24-3.66.93-6.38.56-2.95-.39-5.61-.56-8.62-.56-.74.6-1.49 1.2-2.25 1.81-6.54 5.21-13.09 5.63-21.13 5.44-.9-.01-1.8-.01-2.73-.02-6.58-.07-6.58-.07-8.89-1.23a89 89 0 0 0-4 4c-2.85 1.43-4.83 1.31-8 1-.87-.74-1.73-1.49-2.62-2.25-.79-.58-1.57-1.16-2.38-1.75-1.88 1.69-1.88 1.69-4 4-3.36 1.08-5.64 1.56-8.97.18-2.01-1.25-3.51-2.36-5.03-4.18-.17-1.28-.33-2.56-.5-3.88-.17-1.03-.33-2.06-.5-3.12-3.19.31-3.19.31-7 1-3.15-1.72-5.47-3.47-8-6l-3 2c-3.12 0-5.13-.01-8-1-2.87-3.16-3.9-5.13-4.38-9.38-.2-.86-.41-1.73-.62-2.62-2.75-.19-2.75-.19-6 0-2.81-1.28-4.51-2.35-6.38-4.81-1.03-3.62-.28-6.87 1.38-10.19-1.72-1.01-3.45-2.01-5.24-2.9C35 205 35 205 33 202c.2-2.19.2-2.19.69-4.56.33-2.43.33-2.43.31-4.44-2.19-1.25-2.19-1.25-5-2-2.31-2.31-2.31-2.31-4-5v-5c-1.32-.37-2.66-.69-4-1-2.35-2.83-3.01-4.36-2.94-8.06 1.05-3.3 2.41-4.66 4.94-6.94l-1-1c.16-4.28.32-6.33 3.44-9.38C28 153 28 153 30 152c-.58-.68-1.16-1.36-1.75-2.06-4.66-6.09-4.84-13.52-4.25-20.94.16-.33.16-.33 1-2 3.88.22 6.36.53 9.54 2.84.81.39 1.62.77 2.46 1.16 1.73-1.82 1.73-1.82 3.19-4.69 2.75-5.25 2.75-5.25 4.81-7.31.34-4.05.3-5.55-2-9-.51-3.85-.13-5.75 1.62-9.25C47 98 47 98 50.19 97.19c.46-.2.46-.2 2.81-1.19.47-2.21.51-4.35.61-6.61.67-4.11 3.28-6.76 6.39-9.39 2.61-1.55 3.61-2.03 6.69-1.81.76-.06 1.52-.13 2.31-.19.37-1.66.7-3.33 1-5 5.47-5.05 5.47-5.05 9.46-4.92.48.03.48.03 2.92.17 3 .03 3 .03 5.62-.25 2.25-2.25 2.25-2.25 4-5 4.2-2.96 6.63-4.11 11.75-4.19 2.32-.15 2.32-.15 4.25-.81 1.12-2.17 1.58-4.27 2.16-6.63 1.28-3.6 3.33-5.26 6.46-7.33 4.44-1.93 8.67-1.88 13.38-1.04"/><path fill="#9d6a8e" d="M130 43c4.41 2.17 7.34 4.87 10 9l.12 3.25c.29.91.58 1.81.88 2.75 2.41.48 4.76.51 7.22.6 4.71.68 8.24 3.33 11.78 6.4.33.5.33.5 2 3 2.39.15 2.39.15 5.25-.06 5.13-.15 7.82.53 11.75 4.06 2 3 2 3 2 6 .82.08 1.65.16 2.5.25 5.02 1.08 7.98 4.11 11.5 7.75 1.18 2.36.93 3.41.69 6-.04 2.17-.04 2.17.31 4 2.75 1.25 2.75 1.25 6 2 3.16 2.3 3.9 3.63 4.94 7.44.07 4.05-.81 5.24-2.94 8.56-.5 2.94-.5 2.94 0 6 1.17 1.46 2.35 2.91 3.64 4.26 1.68 2.15 2.43 4.31 3.36 6.86.97 2.36.97 2.36 2 3.88 2.5-1.5 2.5-1.5 5-4 2.07.12 2.07.12 4 1 2.11 5.63 2.82 11.17 1 17-2.12 3.31-4.45 6.22-8 8 1.24.27 2.47.54 3.75.81 4.02.95 4.02.95 6 3 .25 2.19.25 2.19-1.19 4.81-3.39 3.15-6.92 4.38-11.56 4.38-.43 2.43-.43 2.43 0 5 2.15.82 2.15.82 4.94 1.12 2.77.33 2.77.33 5.06.88 1.38 4.13.05 5.97-1.77 9.77-1.71 3.09-3.39 5.12-6.23 7.23-2.02.31-2.02.31-4.06.44-.97.18-1.94.37-2.94.56 1.56 2.69 1.56 2.69 2.85 4.32 1.81 2.65 1.69 4.58 1.15 7.68-2.69 3.72-5.61 4.9-10 6h-4c-.47 1.76-.47 1.76-.5 4.12-.41 5.89-2.61 9.14-6.94 13.13-3.73 2.55-6.54 3.66-11.06 4.06-4.29.85-5.67 2.46-8.5 5.69-2.48 1.24-3.66.93-6.38.56-2.95-.39-5.61-.56-8.62-.56-.74.6-1.49 1.2-2.25 1.81-6.54 5.21-13.09 5.63-21.13 5.44-.9-.01-1.8-.01-2.73-.02-6.58-.07-6.58-.07-8.89-1.23a89 89 0 0 0-4 4c-2.85 1.43-4.83 1.31-8 1-.87-.74-1.73-1.49-2.62-2.25-.79-.58-1.57-1.16-2.38-1.75-1.88 1.69-1.88 1.69-4 4-3.36 1.08-5.64 1.56-8.97.18-2.01-1.25-3.51-2.36-5.03-4.18-.17-1.28-.33-2.56-.5-3.88-.17-1.03-.33-2.06-.5-3.12-3.19.31-3.19.31-7 1-3.15-1.72-5.47-3.47-8-6l-3 2c-3.12 0-5.13-.01-8-1-2.87-3.16-3.9-5.13-4.38-9.38-.2-.86-.41-1.73-.62-2.62-2.75-.19-2.75-.19-6 0-2.81-1.28-4.51-2.35-6.38-4.81-1.03-3.62-.28-6.87 1.38-10.19-1.72-1.01-3.45-2.01-5.24-2.9C35 205 35 205 33 202c.2-2.19.2-2.19.69-4.56.33-2.43.33-2.43.31-4.44-2.19-1.25-2.19-1.25-5-2-2.31-2.31-2.31-2.31-4-5v-5c-1.32-.37-2.66-.69-4-1-2.45-2.95-3.04-4.39-2.81-8.25.27-.91.53-1.81.81-2.75.33-.16.33-.16 2-1v7l2 2c1.2-.08 2.39-.16 3.62-.25 1.12.08 2.23.16 3.38.25.25 3 .25 3 0 6h3l1 3c1.07.14 2.14.29 3.25.44.91.18 1.81.37 2.75.56-1.12 1.75-1.12 1.75-3 4a93 93 0 0 0 0 5h-2c2.42 5.42 2.42 5.42 4 7 1.98.13 3.96.18 5.94.19 1.08.01 2.16.03 3.27.04C51 203 51 203 53 201h-3v-2c.56-.52 1.11-1.03 1.69-1.56.43-.48.86-.95 1.31-1.44l-3-1h3l-1-3c2.44-.31 2.44-.31 5 0v2l-2 1c2.96 2.01 5.48 2.45 9 2 1.81-1.62 1.81-1.62 3-3v2c4.59.27 8.84-.37 12.88-2.56 2.42-2.79 3.8-5.54 5.23-8.93.14-.25.14-.25.89-1.51l2 1c-.14 4.89-2.7 6.7-6 10-1.12 2.44-1.12 2.44-1 5 1.62 2.04 3.29 4.04 5 6v4h2c.12.97.25 1.94.38 2.94.1.5.1.5.62 3.06 3.23 1.74 7.41 1.2 11 1 2-2 2-2 2.25-5.12-.08-.95-.17-1.9-.25-2.88h-2v-2c.64-.56 1.28-1.11 1.94-1.69 2.66-2.99 2.6-5.42 3.06-9.31l2 1v4c2.41.57 2.41.57 5.5.69 1.83.08 3.67.18 5.5.31v1c-2.21.3-4.42.45-6.64.62-2.52.41-4.22.98-6.36 2.38l-1 3 2 1-1 2c1.67.05 3.33.04 5 0 .7.27 1.4.54 2.12.81.62.06 1.24.13 1.88.19.3-.81.59-1.61.9-2.45 2.1-2.55 2.1-2.55 4.35-3.03 3.1-.18 6.17-.21 9.28-.19 1.14-.01 2.28-.03 3.45-.04 3.65-.04 7.31-.04 10.96-.04 3.65-.02 7.29-.05 10.94-.08 2.27-.02 4.54-.03 6.82-.03 1.03-.01 2.06-.01 3.12-.01.45 0 .45 0 2.75-.01 2.33-.12 4.25-.27 6.43-1.12l1-3 1 3c-1.97 2.65-3.2 3.85-6.49 4.45l-2.81-.06c-1.06-.01-2.12-.03-3.21-.04-1.13-.03-2.27-.07-3.44-.1-.58-.01-.58-.01-3.54-.05-3.73-.04-7.46-.12-11.2-.2-4.92-.11-9.84-.19-14.76-.25-1.14-.03-2.28-.07-3.46-.1-.52-.01-.52-.01-3.17-.04l-2.81-.06c-.7.15-1.39.3-2.11.45-1.13 1.99-1.13 1.99-1 4 2.03.5 2.03.5 5.09.5.56.01.56.01 3.44.03l3.77-.03h3.82c2.69 0 5.37-.01 8.05-.03 3.44-.03 6.88-.03 10.32-.02 3.27.01 6.54 0 9.81-.02 1.24.01 2.48.01 3.76.01 1.14-.01 2.29-.02 3.46-.04.51 0 .51 0 3.07-.01.79-.13 1.59-.26 2.41-.39 2.12-3.18 2.25-4.04 2.19-7.69-.01-.81-.02-1.61-.02-2.45-.06-.61-.11-1.23-.17-1.86h-1c-.1-1.34-.12-2.69-.12-4.04-.01-.89-.01-1.78-.01-2.71v-6.15c-.01-2.27-.01-4.53-.01-6.79 0-4.81-.02-9.61-.04-14.42-.04-8.96-.07-17.91-.07-26.87q0-9.33-.06-18.66c-.01-2.37-.01-4.75-.01-7.12.01-3.32-.01-6.64-.04-9.96l.03-2.99c-.1-6.56-.1-6.56-2.73-9.9-3.61-1.7-6.66-1.93-10.57-1.86-.75 0-1.5 0-2.27-.01-2.49 0-4.97.03-7.46.05-1.74.01-3.48.01-5.23.01q-5.49.015-10.98.06c-4.64.04-9.28.06-13.92.07-4.48.01-8.95.03-13.43.05-.41 0-.41 0-2.51.01-8.85.05-17.68.22-26.51.68l-2.28.12c-1.93.11-3.85.27-5.78.43-.41.01-.41.01-2.48.04-.5.31-1 .63-1.52.96-.34 2.79-.4 5.19-.3 7.97.02.84.03 1.67.05 2.54.03 1.82.08 3.64.13 5.46.09 2.89.15 5.78.2 8.67.14 7.18.32 14.36.5 21.54.15 6.05.28 12.11.39 18.16.06 2.84.14 5.68.23 8.51.03 1.76.07 3.52.1 5.27.01.39.01.39.09 2.37.07 5.77-1.31 9.6-4.39 14.51-1.21-3.64-1.14-6.98-1.13-10.78v-2.39c-.01-2.61-.01-5.23 0-7.84 0-1.81 0-3.63-.01-5.44 0-3.79 0-7.59.01-11.38.01-4.88 0-9.76 0-14.64q-.015-5.61 0-11.22c0-1.8 0-3.6-.01-5.4 0-2.51.01-5.01.01-7.52 0-.75 0-1.51-.01-2.28.01-1.71.07-3.41.14-5.11h1c.13 2.5.19 4.96.21 7.46 0 .39 0 .39.03 2.38.03 2.58.05 5.17.08 7.75l.06 5.24.12 10.73c.3 27.67.3 27.67.5 35.44.15-9.35.12-18.7.12-28.05.01-2.71.01-5.42.01-8.13.01-4.51.01-9.02 0-13.52 0-1.77 0-3.54.01-5.31 0-2.53-.01-5.06-.01-7.58 0-.38 0-.38.01-2.27-.02-3.43-.21-6.57-.73-9.99C64 94 64 94 65.25 91.19 67 89 67 89 70 87c2.04-.02 2.04-.02 4.19.19 1.26-.06 2.51-.13 3.81-.19.31-2.31.31-2.31 0-5 1.19-1.81 1.19-1.81 3-3 2.62-.31 2.62-.31 5 0l1 2h-2v3c2.94.38 2.94.38 6 0l1-3h2c.56-.89 1.11-1.77 1.69-2.69 2.4-3.75 5.33-6.3 9.31-8.31 2.04-.39 2.04-.39 4-.56.99-.15 1.98-.29 3-.44.19-2 .19-2-1-4-2.19-.75-2.19-.75-4-1h2v-4c-2.01.01-2.01.01-4.69.69-.87.21-1.74.42-2.63.63-.89.23-1.77.45-2.68.68-1.66.38-3.32.73-5 1 2.05-3.3 5.44-4.07 9-5 .89.14 1.77.29 2.69.44.38-.07.38-.07 2.31-.44.7-1.79.7-1.79 1.31-4.12 1.36-4.75 3.19-7.12 7.31-9.84 4.44-1.93 8.67-1.88 13.38-1.04"/><path fill="#e2b89b" d="M108.047 88.727c.86-.01 1.72-.01 2.6-.02l13.56-.06c3.72-.01 7.43-.04 11.15-.08 4.53-.05 9.07-.07 13.6-.08 1.71-.01 3.43-.02 5.14-.05 2.39-.03 4.78-.03 7.16-.02.7-.02 1.4-.03 2.12-.05 6.6.08 9.17 3.18 13.62 7.63.26 2.02.26 2.02.26 4.54l.03 2.9c-.01 1.05-.01 2.11-.01 3.19 0 1.11.01 2.21.01 3.35.02 3.67.02 7.34.01 11.02.01 2.54.01 5.08.02 7.63v16.01c-.01 6.17.01 12.34.03 18.51.02 5.93.02 11.87.02 17.8 0 2.53 0 5.05.01 7.58q.015 5.295 0 10.59c0 1.04.01 2.09.02 3.17-.01.97-.02 1.93-.02 2.92v2.53c-.47 2.82-1.43 4.2-3.38 6.26-2.57.52-2.57.52-5.69.54-1.17.01-2.34.03-3.54.04-1.26 0-2.52-.01-3.82-.01-1.29.01-2.57.01-3.9.02-2.72.01-5.44 0-8.16-.01-3.51-.02-7.01.01-10.52.04-3.33.03-6.65.02-9.98.01-1.27.02-2.54.03-3.85.04-1.15-.01-2.3-.02-3.49-.04h-3.11c-.64-.21-1.28-.41-1.94-.63.37-2.5.37-2.5 2-5 2.24-.62 2.24-.62 5.05-.61.52 0 .52 0 3.18-.03.57.01.57.01 3.46.04 1.16-.01 2.33-.01 3.53-.02 3.74-.03 7.48-.02 11.22-.0004375000001743956 3.74 0 7.47 0 11.21-.02 2.33-.01 4.66-.01 6.98.01.53 0 .53 0 3.2-.01.93 0 1.86 0 2.81.01 2.8-.43 3.71-1.11 5.36-3.37v-2q-1.53 1.47-3 3c-2.51 1.26-4.15 1.09-6.97 1.04-1.03-.02-2.06-.03-3.13-.05l-3.4-.06c-2.35-.03-4.71-.06-7.06-.08-3.73-.05-7.45-.1-11.18-.17-3.59-.07-7.17-.1-10.76-.13l-3.39-.09c-1.04 0-2.07 0-3.14-.01-.91-.01-1.82-.03-2.77-.04-.72.2-1.45.39-2.2.59-1.2 2.48-1.2 2.48-2 5-2.66 1.43-4.19.97-7.18.44-2.82-1.44-2.82-1.44-4-4.31.18-3.13.18-3.13 2.75-5.44.8-.56 1.6-1.11 2.43-1.69-.33-.16-.33-.16-2-1-.73-1.66-1.46-3.32-2.12-5.01-.88-1.99-.88-1.99-2.75-4.57-.37-.8-.74-1.6-1.13-2.42 1.87-.6 1.87-.6 5.05-.58 1.17 0 2.35 0 3.56-.01l3.94.06c2 0 4-.01 6-.01 4.26-.01 8.53.03 12.79.06 3.49.02 6.98.04 10.47.02 2.63 0 5.26.01 7.89.05 1.19 0 2.39 0 3.61-.01l3.19.03c2.5-.61 2.5-.61 3.84-2.69.79-3.46.91-6.58.91-10.12v-2.14c.01-2.33-.01-4.65-.02-6.97v-4.86c0-3.39-.01-6.78-.02-10.17-.02-4.35-.02-8.69-.02-13.03 0-3.35-.01-6.69-.01-10.03-.01-1.6-.01-3.21-.01-4.81 0-2.24-.01-4.47-.02-6.71-.01-1.27-.01-2.55-.01-3.86-.05-1.06-.09-2.12-.14-3.22-.01-.39-.01-.39-.09-2.41-.3-.52-.6-1.05-.91-1.59-2.79-.5-2.79-.5-6.58-.5-.69 0-1.38-.01-2.08-.01-2.29-.02-4.57 0-6.86.02-1.58 0-3.17 0-4.75-.01-3.32 0-6.65.01-9.97.04-4.27.03-8.53.02-12.79.01-3.27-.01-6.54 0-9.82.01q-2.355.015-4.71 0c-2.2 0-4.4.02-6.59.04-1.26 0-2.51.01-3.8.02-3.05.38-3.05.38-4.95 1.53-1.59 2.69-1.47 4.82-1.47 7.95-.01 1.25-.01 2.5-.02 3.8l.03 4.11v4.21q0 4.41.03 8.82c.02 3.77.02 7.54.01 11.31 0 2.9.01 5.8.02 8.69v4.18q0 2.91.03 5.82c0 .55 0 .55.01 3.35.26 2.61.26 2.61 2.26 4.61 2.9.23 2.9.23 6.66.21h2.07c1.48-.01 2.96-.01 4.45-.02 2.34-.02 4.69-.02 7.03-.01 6.67.02 13.33.02 20-.02 4.07-.03 8.14-.02 12.22-.001 1.56.01 3.11 0 4.67-.02 2.17-.03 4.34-.02 6.51.01.62 0 .62 0 3.75-.01.87.28 1.74.57 2.64.86.53 3.43.53 3.43 0 7-2.78 2.78-4.47 2.27-8.36 2.31l-1.97.03q-3.24.03-6.48.03l-4.49.03q-4.71.03-9.42.03c-4.03 0-8.06.04-12.09.09-3.09.03-6.18.03-9.27.04-1.49 0-2.98.01-4.46.03-2.08.03-4.15.03-6.22.01-1.19.01-2.37.01-3.59.02-.87-.2-1.75-.41-2.65-.62-.7-2.47-.7-2.47-1-5-.49-.16-.49-.16-3-1l-2-3-3-1c-1.63-7.84-1.08-16.49-1.12-24.5-.01-.84-.01-1.69-.02-2.57.01-3.63.14-6.93.78-10.52.12-.79.24-1.59.36-2.41h-2c-.17 2.95-.2 5.81-.16 8.75.01.89.01 1.78.02 2.69.02 2.86.05 5.71.08 8.56.03 2.86.05 5.71.07 8.56q.015 2.67.06 5.34c.01 2.04-.02 4.07-.07 6.1h-1c-.1-2.36-.13-4.7-.13-7.06v-2.28c-.01-2.5 0-5 0-7.5v-16.05c.01-4.67.01-9.33 0-13.99v-15.86c-.01-2.39 0-4.79 0-7.19v-2.18c0-1.63.06-3.26.13-4.89h1c.07 1.9.06 3.8.03 5.69-.01 1.17-.02 2.35-.04 3.56-.03 2.5-.07 5.01-.11 7.51-.01 1.17-.03 2.35-.04 3.56-.01 1.09-.03 2.17-.05 3.3.07.78.14 1.57.21 2.38h2c.18-2.37.18-2.37.09-5.65l-.06-3.54c-.06-2.49-.12-4.98-.19-7.48l-.06-3.54-.09-3.29c.11-.82.21-1.65.31-2.5 2.99-.99 4.91-1.11 8.03-1.08.51 0 .51 0 3.09.02 1.1.01 2.2.02 3.33.04l6.95.03 10.98.09c3.52.03 7.05.05 10.57.06a361 361 0 0 0 6.42.05l2.72.03c.63-.08 1.26-.16 1.91-.24v-2c-2.14-.24-2.14-.24-5.18-.22h-3.43c-.62 0-.62 0-3.75.03-1.26 0-2.52 0-3.81.01-3.36.01-6.72.02-10.08.05-3.4.02-6.81.03-10.22.04-6 .02-12 .04-18 .08-1.84.01-3.69.01-5.53.01l-3 1 3 1c.29 2.89.37 5.57.33 8.46v2.58c-.01 1.81-.03 3.62-.05 5.43-.03 2.76-.04 5.52-.04 8.28l-.03 5.27c-.01.82-.01 1.65-.02 2.5-.05 3.98-.35 7.58-1.19 11.48-.05 1.81-.06 3.62-.02 5.43l.03 3.1.12 6.4c.07 6.35-.29 11.97-2.13 18.07h-2c-.2-2.5-.26-4.91-.24-7.42 0-.78 0-1.57-.01-2.39 0-2.62.01-5.25.02-7.87v-5.44c.01-3.81.01-7.62.03-11.43.01-4.89.02-9.79.02-14.68 0-3.75 0-7.5.01-11.24 0-1.81.01-3.61.01-5.42 0-2.52.01-5.04.02-7.56v-2.28c.03-5.15.03-5.15 1.14-6.27 2.63-.24 5.24-.41 7.88-.54.4-.02.4-.02 2.44-.13 8.91-.43 17.81-.55 26.73-.6"/><path fill="#89674a" d="M139 65c5.48.11 10.43 1.54 14.45 5.39 2.04 2.32 3.44 4.13 4.11 7.17.15.48.29.95.44 1.44.5-.41.99-.83 1.5-1.25 3.68-2.57 7.14-2.48 11.5-1.75 2.56 1.75 2.56 1.75 4 4v4c2.33.37 4.66.69 7 1 2.88 1.62 2.88 1.62 5 4 .75 3.62.75 3.62 1 7 .16.33.16.33 1 2 .41-4.97.07-8.02-3-12-3-2-3-2-6.69-2.19-1.09-.27-2.18-.53-3.31-.81-.56-3.56-.56-3.56 0-7h2c.12.65.24 1.3.36 1.97.21.67.42 1.34.64 2.03 1.86.47 1.86.47 4.19.5 4.59.31 7.2 1.51 10.81 4.5 2.15 3.22 2.15 3.52 1.75 7.06.08 1.3.17 2.6.25 3.94 2.75 1.25 2.75 1.25 6 2 3.16 2.3 3.9 3.63 4.94 7.44.07 4.05-.81 5.24-2.94 8.56-.5 2.94-.5 2.94 0 6 1.17 1.46 2.35 2.91 3.64 4.26 1.68 2.15 2.43 4.31 3.36 6.86.97 2.36.97 2.36 2 3.88 2.5-1.5 2.5-1.5 5-4 2.07.12 2.07.12 4 1 2.11 5.63 2.82 11.17 1 17-2.12 3.31-4.45 6.22-8 8 1.24.27 2.47.54 3.75.81 4.02.95 4.02.95 6 3 .25 2.19.25 2.19-1.19 4.81-3.39 3.15-6.92 4.38-11.56 4.38-.43 2.43-.43 2.43 0 5 2.15.82 2.15.82 4.94 1.12 2.77.33 2.77.33 5.06.88 1.38 4.13.05 5.97-1.77 9.77-1.71 3.09-3.39 5.12-6.23 7.23-2.02.31-2.02.31-4.06.44-.97.18-1.94.37-2.94.56 1.56 2.69 1.56 2.69 2.85 4.32 1.81 2.65 1.69 4.58 1.15 7.68-2.69 3.72-5.61 4.9-10 6h-4c-.47 1.76-.47 1.76-.5 4.12-.41 5.89-2.61 9.14-6.94 13.13-3.79 2.59-6.74 3.64-11.31 4.25-1.07.16-2.15.33-3.25.5l-1 2c-4.33 1.35-9.52 1.71-14 1-1.02-.98-2.03-1.97-3-3-1.05 1.3-2.03 2.64-3 4-2.94 1.62-2.94 1.62-6 3-.62.35-1.23.71-1.87 1.07-2.56 1.12-4.47 1.16-7.25 1.12-.87-.01-1.74-.02-2.64-.02C134 244 134 244 132 243v-2l-3-1c2.67-1.34 4.53-.88 7.5-.69 6.85.08 11.2-2.12 16.5-6.31 1.34-1.33 2.67-2.66 4-4h1c-.19-.78-.37-1.57-.56-2.38-.15-.86-.29-1.73-.44-2.62l2-2c2.12.19 2.12.19 4 1v3l-2 1c2.31.31 2.31.31 5 0q.105-.945.21-1.92c.26-.69.52-1.37.79-2.08 2.53-.73 4.79-1.2 7.38-1.56 8.15-1.19 8.15-1.19 10.62-4.44 3.54-11.29 2.19-24.35 2.05-36.01l-.06-6.67c-.05-4.63-.1-9.27-.16-13.9-.07-5.92-.12-11.84-.17-17.77-.04-4.58-.09-9.16-.14-13.74l-.06-6.55c-.03-3.05-.07-6.1-.11-9.16 0-.89-.01-1.78-.02-2.69-.11-7.06-.64-14.21-3.89-20.57-2.77-2.2-3.66-2.17-7.06-2.32-2.41-.11-2.41-.11-4.38-.62-1.19-3.56-1.19-3.56-2-7-3.51-.6-5.63-.12-9 1l-1 2c-1.91-.13-1.91-.13-4-1-1.31-1.74-1.31-1.74-2.44-3.88-2.82-4.82-5.47-6.53-10.87-8.06-.89-.35-1.78-.7-2.69-1.06Z"/><path fill="#7d4830" d="M130 43c4.41 2.17 7.34 4.87 10 9l.12 3.25c.29.91.58 1.81.88 2.75 2.41.48 4.76.51 7.22.6 4.71.68 8.24 3.33 11.78 6.4.33.5.33.5 2 3 2.39.15 2.39.15 5.25-.06 5.13-.15 7.82.53 11.75 4.06 2 3 2 3 2 6 .91.14 1.81.29 2.75.44 3.25.56 3.25.56 6 2.75.41.6.82 1.19 1.25 1.81-2.01-.65-4-1.32-6-2-1.28.06-2.56.12-3.88.19-1.03-.06-2.06-.13-3.12-.19-.31-2.5-.31-2.5 0-5h-2c-.56 3.5-.56 3.5 0 7 2.33.09 4.67.08 7 0 3.5 1.94 5.72 4.15 7 8 .26 2.76.19 5.21 0 8-1.44-.56-1.44-.56-3-3-.08-1.13-.17-2.27-.25-3.44C186 89 186 89 184.53 87.69c-2.61-1.51-4.86-2.58-7.84-3.07-.56-.2-1.12-.41-1.69-.62-1.12-3-1.12-3-2-6-2.33-1.16-3.79-1.17-6.38-1.19-.77-.01-1.54-.03-2.33-.04-2.29.23-2.29.23-4.42 1.47-.62.25-1.24.5-1.87.76-1.34-1.45-1.34-1.45-2.5-3.69-2.4-4.2-3.97-6.49-8.71-8.03-4.67-1.24-4.67-1.24-6.79-1.28-.16.5-.16.5-1 3 1.66.51 3.33 1 5.02 1.42 3.83 1.12 7.01 2.98 9.1 6.43.33.65.66 1.3 1 1.96.62 1.05 1.24 2.11 1.88 3.19 3.09.09 4.39-1.26 7-3C166.06 78.75 166.06 78.75 169 79l2 2c-.14 1.03-.29 2.06-.44 3.12.07.48.07.48.44 2.88C172.82 87.18 172.82 87.18 175.19 87c4.48-.27 4.48-.27 7.75 2.38 4.6 6.71 4.36 15.98 4.41 23.82.01.97.03 1.93.04 2.93q.06 4.74.09 9.48c.03 2.22.05 4.44.08 6.66.05 4.64.09 9.28.13 13.92.05 5.92.11 11.84.19 17.75.05 4.58.09 9.17.14 13.75.02 2.18.04 4.36.07 6.54.36 29.92.36 29.92-4.05 35.05-2.05 1.73-3.27 2.4-5.85 2.97-.69.15-1.38.31-2.09.46-2.1.29-2.1.29-6.04.1-1.01.06-2.02.13-3.06.19-.62 2.5-.62 2.5-1 5C163.5 228.44 163.5 228.44 161 228l-1-2h3l-1-3c-2.12 0-2.12 0-4 1 .23 2.88 1.09 5.26 2 8-.56-.37-1.11-.74-1.69-1.12L156 230c-1.35 1.65-2.68 3.32-4 5-6.23 5.04-11.83 5.47-19.67 5.08-.77-.03-1.54-.05-2.33-.08l2 1v2c7.97 1.45 13.98-.38 20.82-4.39C155 237 155 237 157 234l1 3c2.65.14 5.11.14 7.75 0 2.47-.13 4.77-.16 7.25 0-1.31 2.04-2.86 2.93-5 4-2.02-.12-2.02-.12-4.38-.44-2.95-.39-5.61-.56-8.62-.56-.74.6-1.49 1.2-2.25 1.81-6.54 5.21-13.09 5.63-21.13 5.44-.9-.01-1.8-.01-2.73-.02-6.58-.07-6.58-.07-8.89-1.23a89 89 0 0 0-4 4c-2.85 1.43-4.83 1.31-8 1a96 96 0 0 1-5-4l-2 1c.19-1.94.19-1.94 1-4h3v2c3.06 1.76 5.19 2 8.75 2.06 1.07-.35 2.15-.7 3.25-1.06 1.19-3.44 1.19-3.44 1-7-2.06-1.37-2.06-1.37-4-2 3.28-1.64 6.36-1.18 10-1v2h-2l1 3 3 1c.27-.96.53-1.91.81-2.9.39-1.02.78-2.05 1.19-3.1 2.72-.66 2.72-.66 6.06-.62 7.42-.24 12.7-1.78 18.5-6.44C154 228 154 228 154 225c-2.08.98-2.08.98-4.81 2.75-5.21 3.34-8.54 4.39-14.75 4.37-1.16.01-2.32.01-3.51.01C128 232 128 232 126 231v5c-1.06-1.5-1.06-1.5-2-4l1-3c1.93-.04 1.93-.04 4.31.38 3.27.55 5.51.59 8.69-.38 1 0 1 0 3.12.69.31.05.31.05 1.88.31l-1-3c2.25-.12 2.25-.12 5 0l3-1v-2c-2.65-.24-2.65-.24-6.31-.23-1.3 0-2.61 0-3.95.01-.68 0-1.37.01-2.08.01-2.08.02-4.17.02-6.26.02-10.26.05-10.26.05-11.4 1.19-2.69.38-2.69.38-5 0 .51-2.49.51-2.49 2-5 2.43-.55 2.43-.55 5.52-.46 1.15.03 2.31.05 3.5.07 1.25.05 2.5.1 3.79.15 1.96.03 3.91.07 5.87.1 4.83.1 9.67.24 14.5.39 2.71.09 5.42.15 8.13.19 2.56.05 5.12.12 7.67.22 3.16.05 5.95.09 9.02-.66 1.61-3.47 1.61-3.47 2-7l3-1c2.07-2.15 2.93-3.46 3.32-6.43-.02-.46-.02-.46-.09-2.75-.01-.52-.01-.52-.07-3.14l-.12-3.41c-.02-.58-.02-.58-.09-3.56-.09-3.78-.21-7.56-.33-11.33-.51-17.58-.56-34.98.26-52.54.29-6.76.34-13.51.37-20.28l.03-2.09c.03-2.03.04-4.06.05-6.09l.03-3.51C183 94 183 94 181.63 92.14c-2.19-1.53-4.05-1.7-6.69-2.02-2.7-.43-2.7-.43-4.94-1.12-1.44-2.94-1.44-2.94-2-5-.36.77-.72 1.54-1.1 2.33-1.9 2.67-1.9 2.67-5.02 3.3-.65 0-.65 0-3.91.01l-2.16.03c-2.37.02-4.73.01-7.1 0-1.65.01-3.31.03-4.96.04-4.38.03-8.76.04-13.14.04-5.25 0-10.5.03-15.75.07-4.1.02-8.21.04-12.31.04-7.83.02-15.63.17-23.44.59-.76.03-1.51.07-2.29.11-1.94.12-3.88.28-5.82.44-.82.01-1.64.02-2.49.04-.5.31-1 .63-1.51.96-.34 2.79-.4 5.19-.3 7.97.02.84.03 1.67.05 2.54.03 1.82.08 3.64.13 5.46.09 2.89.15 5.78.2 8.67.14 7.18.32 14.36.5 21.54.15 6.05.28 12.11.39 18.16.06 2.84.14 5.68.23 8.51.03 1.76.07 3.52.1 5.27l.09 2.37c.07 5.77-1.31 9.6-4.39 14.51-1.21-3.64-1.14-6.98-1.13-10.78v-2.39c-.01-2.61-.01-5.23 0-7.84 0-1.81 0-3.63-.01-5.44 0-3.79 0-7.59.01-11.38.01-4.88 0-9.76 0-14.64q-.015-5.61 0-11.22c0-1.8 0-3.6-.01-5.4 0-2.51.01-5.01.01-7.52 0-.75 0-1.51-.01-2.28.01-1.71.07-3.41.14-5.11h1c.13 2.5.19 4.96.21 7.46l.03 2.38c.03 2.58.05 5.17.08 7.75l.06 5.24.12 10.73c.3 27.67.3 27.67.5 35.44.15-9.35.12-18.7.12-28.05.01-2.71.01-5.42.01-8.13.01-4.51.01-9.02 0-13.52 0-1.77 0-3.54.01-5.31 0-2.53-.01-5.06-.01-7.58 0-.75 0-1.5.01-2.27-.02-3.43-.21-6.57-.73-9.99C64 94 64 94 65.25 91.19 67 89 67 89 70 87c2.04-.02 2.04-.02 4.19.19 1.26-.06 2.51-.13 3.81-.19.31-2.31.31-2.31 0-5 1.19-1.81 1.19-1.81 3-3 2.62-.31 2.62-.31 5 0l1 2h-2v3c2.94.38 2.94.38 6 0l1-3h2c.56-.89 1.11-1.77 1.69-2.69 2.4-3.75 5.33-6.3 9.31-8.31 2.04-.39 2.04-.39 4-.56.99-.15 1.98-.29 3-.44.19-2 .19-2-1-4-2.19-.75-2.19-.75-4-1h2v-4c-2.01.01-2.01.01-4.69.69-.87.21-1.74.42-2.63.63-.89.23-1.77.45-2.68.68-1.66.38-3.32.73-5 1 2.05-3.3 5.44-4.07 9-5 .89.14 1.77.29 2.69.44.76-.15 1.52-.29 2.31-.44.7-1.79.7-1.79 1.31-4.12 1.36-4.75 3.19-7.12 7.31-9.84 4.44-1.93 8.67-1.88 13.38-1.04"/><path fill="#fae2c6" d="M124.563 104.5c.4-.02.4-.02 2.41-.14 22.1-1.15 22.1-1.15 31.03 3.64 6.1 7.75 5.13 18.44 4.44 27.75-.05.67-.1 1.33-.15 2.02-1.63 20.63-1.63 20.63-4.29 25.23-3.65-2.84-6.1-6.77-8.69-10.56-.4-.58-.81-1.16-1.22-1.75-1.76-2.55-3.11-4.74-4.09-7.69h-3c-.98 1.7-.98 1.7-2 4a127 127 0 0 1-3.44 4.81c-.6.81-1.19 1.62-1.81 2.46-.58.57-1.16 1.14-1.75 1.73-3.21-1.07-3.66-1.51-5.56-4.09-.47-.62-.94-1.24-1.42-1.88l-2.91-3.93c-.23-.31-.23-.31-1.42-1.88-.42-.57-.84-1.14-1.28-1.72-1.69-1.79-3.08-2.72-5.41-3.5-2.02 1.81-3.49 3.44-5.13 5.56-.47.59-.95 1.18-1.44 1.78a474 474 0 0 0-11.17 14.52c-1.97 2.62-3.5 4.3-6.26 6.14-.37-1.95-.37-1.95-.36-5.08 0-1.16 0-2.32-.01-3.51.01-1.28.03-2.55.04-3.87 0-1.28 0-2.57.01-3.9 0-2.74.01-5.48.04-8.21.02-3.52.04-7.04.04-10.56l.03-10.01c.01-1.27.01-2.54.02-3.85l.03-3.54c0-1.03.01-2.07.02-3.13.42-7.02 28.35-6.48 34.7-6.84"/><path fill="#f7dbbf" d="M92.036 94.775l2.48-.03c8.51-.11 17.03-.16 25.54-.21q6.075-.03 12.15-.12c4.87-.07 9.75-.11 14.63-.12 1.87-.01 3.73-.03 5.59-.07 2.6-.04 5.2-.04 7.8-.04.77-.02 1.55-.04 2.35-.07 2.14.04 2.14.04 5.42.88.86 3.61.86 3.61 1 7 1.36-.62 2.69-1.29 4-2 .55 2.3.55 2.3.61 5.9.04 1.31.07 2.63.1 3.98.02 1.46.03 2.92.04 4.37l.09 4.48c.07 3.74.11 7.49.15 11.24.01 1.81.04 3.62.06 5.43.1 7.54.06 15.07-.05 22.6 0 .41 0 .41-.03 2.48-.08 5.69-.17 11.38-.29 17.07-.03 1.92-.07 3.84-.1 5.77-.04 2.7-.1 5.41-.16 8.12-.01.82-.02 1.64-.04 2.49-.1 3.85-.19 5.8-2.38 9.07l-2-1c.29-.66.57-1.31.86-1.99 1.55-4.07 1.42-7.71 1.4-12.02.01-.9.01-1.79.01-2.72q.015-4.44 0-8.88c0-2.05 0-4.11.01-6.17 0-4.3-.01-8.6-.01-12.9-.02-5.53-.01-11.06 0-16.59q.015-6.36 0-12.72c0-2.04 0-4.08.01-6.12 0-2.84-.01-5.68-.02-8.52.01-.85.01-1.7.02-2.58-.02-1.93-.13-3.86-.28-5.79h-2c-.19 2.82-.19 2.82-.12 6.82.01.36.01.36.04 2.2.04 2.42.09 4.84.14 7.27l.09 5.06c.07 4.47.15 8.94.24 13.42.14 7.1.26 14.2.38 21.3.04 2.46.09 4.92.14 7.38.09 4.52.12 9.04.09 13.55 0 .8 0 1.59-.01 2.4-.02 2.32-.08 4.63-.16 6.94 0 .36 0 .36-.02 2.18-.09 1.92-.09 1.92-.81 4.48-2.47-.88-2.47-.88-5-3-2.39-5.71-2.39-5.71-1.5-8.6.69-3.26.59-6.34.54-9.67-.01-.73-.01-1.45-.02-2.2-.03-2.39-.07-4.79-.1-7.18-.02-1.67-.04-3.33-.07-5-.04-3.49-.09-6.98-.14-10.47-.07-4.47-.13-8.95-.18-13.42-.04-3.44-.09-6.88-.14-10.32l-.06-4.95c-.03-2.3-.07-4.61-.1-6.91l-.06-3.97c-.03-.55-.03-.55-.17-3.31-.03-.8-.06-1.59-.1-2.42-.29-.52-.59-1.04-.9-1.58-2.79-.5-2.79-.5-6.58-.5-.69 0-1.37-.01-2.08-.01-2.29-.02-4.57 0-6.86.02-1.58 0-3.17 0-4.75-.01-3.32 0-6.65.02-9.97.04-4.26.03-8.53.02-12.79.01-3.27-.01-6.54 0-9.82.01-1.57.01-3.14.01-4.71.01-2.2-.01-4.4.01-6.59.03-1.25.01-2.51.01-3.8.02-3.05.38-3.05.38-4.95 1.53-1.59 2.7-1.47 4.83-1.47 7.95 0 1.25-.01 2.51-.02 3.8l.03 4.11v4.21q0 4.41.03 8.82c.02 3.77.02 7.54.01 11.31 0 2.9.01 5.8.02 8.69v4.18q0 2.91.03 5.82c0 1.11.01 2.21.01 3.35.26 2.61.26 2.61 2.26 4.61 2.9.24 2.9.24 6.66.21h2.07c1.48 0 2.97-.01 4.45-.02 2.34-.02 4.69-.02 7.03-.01 6.67.02 13.33.03 20-.02 4.07-.03 8.14-.02 12.22.01 1.56 0 3.11-.01 4.67-.03 2.17-.03 4.34-.01 6.51.01.62 0 .62 0 3.75-.01.87.28 1.75.57 2.64.86.53 3.43.53 3.43 0 7-2.77 2.78-4.46 2.28-8.36 2.31l-1.97.03c-2.16.02-4.32.03-6.48.04-1.5 0-3 .01-4.49.02q-4.71.03-9.42.03-6.045.015-12.09.09c-3.09.03-6.18.04-9.27.04-1.49 0-2.98.01-4.46.03-2.08.03-4.15.03-6.22.01-1.19.01-2.37.01-3.59.02-.87-.2-1.74-.41-2.65-.62-.7-2.47-.7-2.47-1-5l-3-1-2-3-3-1c-1.63-7.84-1.08-16.49-1.12-24.5-.01-.84-.01-1.69-.02-2.56.01-3.64.14-6.94.78-10.53.12-.79.24-1.59.36-2.41h-2c-.17 2.95-.2 5.81-.16 8.75.01.89.01 1.78.02 2.7.02 2.85.05 5.7.08 8.55.03 2.86.05 5.71.07 8.56.02 1.78.03 3.57.06 5.35.01 2.03-.02 4.06-.07 6.09h-1c-.1-2.36-.13-4.7-.13-7.06v-25.83c.01-4.66.01-9.33 0-13.99v-25.23c.01-1.63.06-3.26.13-4.89h1c.07 1.9.06 3.8.03 5.69a1881 1881 0 0 1-.15 11.07c-.01 1.18-.02 2.35-.04 3.56-.01 1.09-.03 2.18-.05 3.3.07.79.14 1.57.21 2.38h2c.18-2.37.18-2.37.09-5.65l-.06-3.54c-.06-2.49-.12-4.98-.19-7.48l-.06-3.54c-.03-1.08-.06-2.17-.08-3.29.1-.82.2-1.65.3-2.5 3.71-1.23 7.18-1.18 11.04-1.22"/><path fill="#ae6d4d" d="M139 65c5.48.11 10.43 1.54 14.45 5.39 2.04 2.32 3.44 4.13 4.11 7.17.15.48.29.95.44 1.44.5-.41.99-.83 1.5-1.25 3.68-2.57 7.14-2.48 11.5-1.75 2.56 1.75 2.56 1.75 4 4v4c2.33.37 4.66.69 7 1 2.88 1.62 2.88 1.62 5 4 .75 3.62.75 3.62 1 7 .16.33.16.33 1 2 .41-4.97.07-8.02-3-12-3-2-3-2-6.69-2.19-1.09-.27-2.18-.53-3.31-.81-.56-3.56-.56-3.56 0-7h2c.12.65.24 1.3.36 1.97.21.67.42 1.34.64 2.03 1.86.47 1.86.47 4.19.5 4.59.31 7.2 1.51 10.81 4.5 2.15 3.22 2.15 3.52 1.75 7.06.08 1.3.17 2.6.25 3.94 2.75 1.25 2.75 1.25 6 2 3.16 2.3 3.9 3.63 4.94 7.44.07 4.05-.81 5.24-2.94 8.56-.44 3.06-.44 3.06 0 6 1.31 1.36 2.65 2.69 4 4 1.79 4.73 2.48 8.96 2 14-1.38 2.19-1.38 2.19-3 3-.36-.73-.73-1.46-1.1-2.21-.3-.59-.59-1.18-.9-1.79-.18 2.3.02 4.58.12 6.89L205 146h-2l1 1c.15 3.37.07 5.78-1 9-3.04-.86-4.75-1.75-7-4-.34-2.16-.34-2.16-.38-4.62-.02-.82-.05-1.64-.08-2.48.15-.63.3-1.25.46-1.9h4c1.1-6.62-1.38-12.64-4.84-18.12C194 123 194 123 193 120h-2c0-3.81.42-7.32.98-11.07 0-.64.01-1.28.02-1.93-.33-.16-.33-.16-2-1-.2 3.3-.26 6.52-.24 9.82 0 1.05-.01 2.11-.01 3.2 0 3.51.01 7.02.02 10.53v7.26c0 5.07.01 10.14.02 15.21.02 6.55.03 13.1.02 19.65 0 4.99.01 9.98.02 14.97v7.25c.01 3.36.01 6.71.02 10.07v3.11c.01 1.98.07 3.95.15 5.93.26-1.63.49-3.27.67-4.91.45-2.83 1.11-4.25 3.33-6.09 3.25 0 3.25 0 6 1-.25 2.06-.25 2.06-1 4h2l-1 3q-3 .06-6 0l1 2c.42 3.06.47 5.95 0 9-2.19 2.81-2.19 2.81-5 5-.44.37-.44.37-2.69 2.25-3.38 2.56-4.74 2.78-8.87 2.44-2.46-.05-2.46-.05-4.44.31-.81 2.94-.81 2.94-1 6-2.78 1.09-5.6 1.19-8.56 1.25-.38.01-.38.01-2.32.08-2.62-.41-3.35-1.45-5.12-3.33-1.05 1.3-2.03 2.64-3 4-2.94 1.62-2.94 1.62-6 3-.62.35-1.23.71-1.87 1.07-2.56 1.12-4.47 1.16-7.25 1.12-.87-.01-1.74-.02-2.64-.02C134 244 134 244 132 243v-2l-3-1c2.67-1.34 4.53-.88 7.5-.69 6.85.08 11.2-2.12 16.5-6.31 1.34-1.33 2.67-2.66 4-4h1c-.19-.78-.37-1.57-.56-2.38-.15-.86-.29-1.73-.44-2.62l2-2c2.12.19 2.12.19 4 1v3l-2 1c2.31.31 2.31.31 5 0q.105-.945.21-1.92c.26-.69.52-1.37.79-2.08 2.53-.73 4.79-1.2 7.38-1.56 8.15-1.19 8.15-1.19 10.62-4.44 3.54-11.29 2.19-24.35 2.05-36.01l-.06-6.67c-.05-4.63-.1-9.27-.16-13.9-.07-5.92-.12-11.84-.17-17.77-.04-4.58-.09-9.16-.14-13.74l-.06-6.55c-.03-3.05-.07-6.1-.11-9.16 0-.89-.01-1.78-.02-2.69-.11-7.06-.64-14.21-3.89-20.57-2.77-2.2-3.66-2.17-7.06-2.32-2.41-.11-2.41-.11-4.38-.62-1.19-3.56-1.19-3.56-2-7-3.51-.6-5.63-.12-9 1l-1 2c-1.91-.13-1.91-.13-4-1-1.31-1.74-1.31-1.74-2.44-3.88-2.82-4.82-5.47-6.53-10.87-8.06-.89-.35-1.78-.7-2.69-1.06Z"/><path fill="#7d3835" d="M20 168c1 2 1 2 .94 4.5C21 175 21 175 23 177c.6-.04.6-.04 3.62-.25 1.12.08 2.23.16 3.38.25.25 3 .25 3 0 6h3l1 3c1.07.14 2.14.29 3.25.44.91.18 1.81.37 2.75.56-1.12 1.75-1.12 1.75-3 4a93 93 0 0 0 0 5h-2c2.42 5.42 2.42 5.42 4 7 1.98.13 3.96.18 5.94.19 1.08.01 2.16.03 3.27.04C51 203 51 203 53 201h-3v-2c.56-.52 1.11-1.03 1.69-1.56.43-.48.86-.95 1.31-1.44l-3-1h3c-.16-.5-.16-.5-1-3 2.44-.31 2.44-.31 5 0v2c-.33.16-.33.16-2 1 2.96 2.01 5.48 2.45 9 2 1.81-1.62 1.81-1.62 3-3v2c4.59.27 8.84-.37 12.88-2.56 2.42-2.79 3.8-5.54 5.23-8.93.29-.5.59-1 .89-1.51.33.16.33.16 2 1-.14 4.89-2.7 6.7-6 10-1.12 2.44-1.12 2.44-1 5 1.62 2.04 3.29 4.04 5 6v4h2c.12.97.25 1.94.38 2.94.1.5.1.5.62 3.06 3.23 1.74 7.41 1.2 11 1 2-2 2-2 2.25-5.12-.08-.95-.17-1.9-.25-2.88h-2v-2c.64-.56 1.28-1.11 1.94-1.69 2.66-2.99 2.6-5.42 3.06-9.31l2 1v4c2.41.57 2.41.57 5.5.69 1.83.08 3.67.18 5.5.31v1c-2.21.3-4.42.45-6.64.62-2.52.41-4.22.98-6.36 2.38l-1 3 2 1c-.16.33-.16.33-1 2 1.67.05 3.33.04 5 0 .7.27 1.4.54 2.12.81.62.06 1.24.13 1.88.19.3-.81.59-1.61.9-2.45 2.1-2.55 2.1-2.55 4.35-3.03 3.1-.18 6.17-.21 9.28-.19 1.14-.01 2.28-.03 3.45-.04 3.65-.04 7.31-.04 10.96-.04 3.65-.02 7.29-.05 10.94-.08 2.27-.02 4.54-.03 6.82-.03 1.03-.01 2.06-.01 3.12-.01.45 0 .45 0 2.75-.01 2.33-.12 4.25-.27 6.43-1.12l1-3 1 3c-1.97 2.65-3.2 3.85-6.49 4.45l-2.81-.06c-1.06-.01-2.12-.03-3.21-.04-1.13-.03-2.27-.07-3.44-.1-.58-.01-.58-.01-3.54-.05-3.73-.04-7.46-.12-11.2-.2-4.92-.11-9.84-.19-14.76-.25-1.14-.03-2.28-.07-3.46-.1-.52-.01-.52-.01-3.17-.04l-2.81-.06c-.7.15-1.39.3-2.11.45-.93 1.9-.93 1.9-1 4l2 2C115.75 216.05 113.19 216.25 110 215l-1-2h-4c-.15.31-.15.31-.94 1.88L103 217c-.91.23-1.81.45-2.75.69-.74.43-1.48.86-2.25 1.31.26 2.6.9 4.9 1.68 7.39.11.53.21 1.06.32 1.61-2.04-1.64-3.15-3.27-4.44-5.56-1.74-2.73-2.61-3.28-5.56-4.44-2.36-.3-2.36-.3-4.75-.31-.8-.02-1.6-.04-2.42-.05-.61.12-1.21.24-1.83.36v3h-2v-2c-2 1-2 1-2.78 3.03-.24.82-.48 1.63-.72 2.47-.72 2.47-.72 2.47-1.5 4.5-.33.16-.33.16-2 1 .28-1.4.6-2.8.94-4.19.36-2.49.36-2.49.06-4.81-2.64-2.32-5.48-3.73-9-4-1.17 1.8-1.17 1.8-2 4l-2 2h-3c.31 3.31.31 3.31 1 6l-.06-2.31L58 224c2 3 2 3 2 5h3v4c2.21-.24 4.07-1.05 6.15-1.81.61-.06 1.22-.13 1.85-.19.56 1.91.56 1.91 1 4 3.12.5 3.12.5 6 0-.12-1.5-.12-1.5-1-4-.25-2.75-.2-5.23 0-8 2.17 1.87 2.96 3.84 3.69 6.56 1.61 3.01 2.47 3.02 5.62 4 1.22.48 2.44.95 3.69 1.44-.94 1.75-.94 1.75-3 4-1.06 3.69-1.06 3.69-1 7 2.81 1 2.81 1 6 1l2-1c.16-.5.16-.5 1-3l2 1v3c.76.33 1.53.66 2.31 1 .56.33 1.12.66 1.69 1-2.65 2.38-4.44 3.01-8 2.94-3.57-1.12-5.46-2.18-8-4.94-.06-.63-.06-.63-.38-3.81-.1-.53-.1-.53-.62-3.19-3.19.31-3.19.31-7 1-3.15-1.72-5.47-3.47-8-6l-3 2c-3.12 0-5.13-.01-8-1-2.87-3.16-3.9-5.13-4.38-9.38-.2-.86-.41-1.73-.62-2.62-2.75-.19-2.75-.19-6 0-2.81-1.28-4.51-2.35-6.38-4.81-1.03-3.62-.28-6.87 1.38-10.19-1.72-1.01-3.45-2.01-5.24-2.9C35 205 35 205 33 202c.2-2.19.2-2.19.69-4.56.33-2.43.33-2.43.31-4.44-2.19-1.25-2.19-1.25-5-2-2.31-2.31-2.31-2.31-4-5v-5c-1.32-.37-2.66-.69-4-1-2.46-2.97-3.05-4.37-2.75-8.25C19 169 19 169 20 168"/><path fill="#65352e" d="M133 76c6.1-.99 10.25.17 15.27 3.61C150 81 150 81 151.66 82.79c.44.4.88.8 1.34 1.21 1.06-1.94 1.06-1.94 2-4l2 2c4.39-1.39 4.39-1.39 6-3 2.94-.19 2.94-.19 6 0l2 2c-.14 1.03-.29 2.06-.44 3.12.07.48.07.48.44 2.88 1.82.18 1.82.18 4.19 0 4.48-.27 4.48-.27 7.75 2.38 4.6 6.71 4.36 15.98 4.41 23.82.01.97.03 1.93.04 2.93q.06 4.74.09 9.48c.03 2.22.05 4.44.08 6.66.05 4.64.09 9.28.13 13.92.05 5.92.11 11.84.19 17.75.05 4.58.09 9.17.14 13.75.02 2.18.04 4.36.07 6.54.36 29.92.36 29.92-4.05 35.05-2.05 1.73-3.27 2.4-5.85 2.97-.69.15-1.38.31-2.09.46-2.1.29-2.1.29-6.04.1-1.01.06-2.02.13-3.06.19-.62 2.5-.62 2.5-1 5C163.5 228.44 163.5 228.44 161 228l-1-2h3l-1-3c-2.12 0-2.12 0-4 1 .23 2.88 1.09 5.26 2 8-.56-.37-1.11-.74-1.69-1.12L156 230c-1.35 1.65-2.68 3.32-4 5-6.23 5.04-11.83 5.47-19.67 5.08-.77-.03-1.54-.05-2.33-.08l2 1v2c7.97 1.45 13.98-.38 20.82-4.39C155 237 155 237 157 234l1 3c2.65.14 5.11.14 7.75 0 2.47-.13 4.77-.16 7.25 0-1.31 2.04-2.86 2.93-5 4-2.02-.12-2.02-.12-4.38-.44-2.95-.39-5.61-.56-8.62-.56-.74.6-1.49 1.2-2.25 1.81-6.54 5.21-13.09 5.63-21.13 5.44-.9-.01-1.8-.01-2.73-.02-6.58-.07-6.58-.07-8.89-1.23a89 89 0 0 0-4 4c-2.85 1.43-4.83 1.31-8 1a96 96 0 0 1-5-4l-2 1c.19-1.94.19-1.94 1-4h3v2c3.06 1.76 5.19 2 8.75 2.06 1.07-.35 2.15-.7 3.25-1.06 1.19-3.44 1.19-3.44 1-7-2.06-1.37-2.06-1.37-4-2 3.28-1.64 6.36-1.18 10-1v2h-2l1 3 3 1c.27-.96.53-1.91.81-2.9.39-1.02.78-2.05 1.19-3.1 2.72-.66 2.72-.66 6.06-.62 7.42-.24 12.7-1.78 18.5-6.44C154 228 154 228 154 225c-2.08.98-2.08.98-4.81 2.75-5.21 3.34-8.54 4.39-14.75 4.37-1.16.01-2.32.01-3.51.01C128 232 128 232 126 231v5c-1.06-1.5-1.06-1.5-2-4l1-3c1.93-.04 1.93-.04 4.31.38 3.27.55 5.51.59 8.69-.38 1 0 1 0 3.12.69.31.05.31.05 1.88.31l-1-3c2.25-.12 2.25-.12 5 0l3-1v-2c-2.65-.24-2.65-.24-6.31-.23-1.3 0-2.61 0-3.95.01-.68 0-1.37.01-2.08.01-2.08.02-4.17.02-6.26.02-10.26.05-10.26.05-11.4 1.19-2.69.38-2.69.38-5 0 .51-2.49.51-2.49 2-5 2.43-.55 2.43-.55 5.52-.46 1.15.03 2.31.05 3.5.07 1.25.05 2.5.1 3.79.15 1.96.03 3.91.07 5.87.1 4.83.1 9.67.24 14.5.39 2.71.09 5.42.15 8.13.19 2.56.05 5.12.12 7.67.22 3.16.05 5.95.09 9.02-.66 1.61-3.47 1.61-3.47 2-7l3-1c2.07-2.15 2.93-3.46 3.32-6.43-.02-.46-.02-.46-.09-2.75-.02-1.04-.04-2.08-.07-3.14l-.12-3.41c-.02-.58-.02-.58-.09-3.56-.09-3.78-.21-7.56-.33-11.33-.51-17.58-.56-34.98.26-52.54.29-6.76.34-13.51.37-20.28l.03-2.09c.03-2.03.04-4.06.05-6.09l.03-3.51C183 94 183 94 181.63 92.14c-2.19-1.53-4.05-1.7-6.69-2.02-2.7-.43-2.7-.43-4.94-1.12-1.44-2.94-1.44-2.94-2-5-.36.77-.72 1.54-1.1 2.33-1.9 2.67-1.9 2.67-5.02 3.3-.65 0-.65 0-3.91.01l-2.16.03c-2.37.02-4.73.01-7.1 0-1.65.01-3.31.03-4.96.04-4.38.03-8.76.04-13.14.04-5.25 0-10.5.03-15.75.07-4.1.02-8.21.04-12.31.04-7.83.02-15.63.17-23.44.59-.38.02-.38.02-2.29.11-1.94.12-3.88.28-5.82.44-.82.01-1.64.02-2.49.04-.5.31-1 .63-1.51.96-.34 2.79-.4 5.19-.3 7.97.02.84.03 1.67.05 2.54.03 1.82.08 3.64.13 5.46.09 2.89.15 5.78.2 8.67.14 7.18.32 14.36.5 21.54.15 6.05.28 12.11.39 18.16.06 2.84.14 5.68.23 8.51.03 1.76.07 3.52.1 5.27l.09 2.37c.07 5.77-1.31 9.6-4.39 14.51-1.21-3.64-1.14-6.98-1.13-10.78v-2.39c-.01-2.61-.01-5.23 0-7.84 0-1.81 0-3.63-.01-5.44 0-3.79 0-7.59.01-11.38.01-4.88 0-9.76 0-14.64q-.015-5.61 0-11.22c0-1.8 0-3.6-.01-5.4 0-2.51.01-5.01.01-7.52 0-.75 0-1.51-.01-2.28.01-1.71.07-3.41.14-5.11h1c.13 2.5.19 4.96.21 7.46l.03 2.38c.03 2.58.05 5.17.08 7.75l.06 5.24.12 10.73c.3 27.67.3 27.67.5 35.44.15-9.35.12-18.7.12-28.05.01-2.71.01-5.42.01-8.13.01-4.51.01-9.02 0-13.52 0-1.77 0-3.54.01-5.31 0-2.53-.01-5.06-.01-7.58 0-.75 0-1.5.01-2.27-.02-3.43-.21-6.57-.73-9.99C64 94 64 94 65.25 91.19 67 89 67 89 70 87c2.04-.02 2.04-.02 4.19.19 1.26-.06 2.51-.13 3.81-.19.31-2.31.31-2.31 0-5 1.19-1.81 1.19-1.81 3-3 2.62-.31 2.62-.31 5 0l1 2h-2v3q3 .06 6 0v2c3.18 1.19 6.37 1.14 9.73 1.18.58 0 .58 0 3.49.04.62 0 .62 0 3.74.02.64 0 .64 0 3.84.02 2.68.02 5.35.03 8.02.04 3.45.01 6.89.04 10.34.08 3.27.03 6.54.04 9.8.05 1.25.01 2.5.03 3.79.05 1.13 0 2.26-.01 3.42-.01 1.01.01 2.02.01 3.05.02.59-.16 1.18-.32 1.78-.49-1.57-3.06-2.71-3.9-6-5v-2c-1.66-.38-3.32-.71-5-1-.16-.17-.16-.17-1-1-.59-.08-.59-.08-3.56-.5-1.14-.17-2.27-.33-3.44-.5Z"/><path fill="#7b506e" d="M167 83l2 1c.11.66.21 1.32.32 2 .23.66.45 1.32.68 2 2.14.69 2.14.69 4.81 1 4.45.53 6.38 1.46 9.19 5 .47 2.96.47 2.96.43 6.44-.01.66-.01.66-.03 3.97l-.09 4.15-.03 3.89c-.06 6.55-.25 13.09-.55 19.63-.54 11.91-.78 23.72-.4 35.63.04 1.21.08 2.42.11 3.67.16 4.93.33 9.87.53 14.8.15 3.68.26 7.35.36 11.03.06 1.12.11 2.23.17 3.38.17 7.54.17 7.54-1.75 10.04-1.53 1.19-3.14 2.28-4.75 3.37-.35 1.08-.7 2.17-1.07 3.28-1.93 2.72-1.93 2.72-4.41 3.21-3.49.14-6.94.08-10.43-.04l-3.87-.06q-5.1-.075-10.2-.21c-4.79-.12-9.58-.23-14.37-.3-2.55-.04-5.11-.1-7.66-.18l-3.49-.06c-1.01-.03-2.03-.05-3.08-.08-.8.14-1.6.29-2.42.44-1.32 2.12-1.32 2.12-2 4-.34-1.54-.34-1.54-.38-4.19-.02-.86-.05-1.72-.08-2.6.15-.73.3-1.46.46-2.21 3.11-1.16 6.18-1.14 9.47-1.16l3.32-.03c1.17-.01 2.35-.01 3.56-.02l7.45-.09c3.93-.04 7.85-.08 11.77-.1q5.67-.045 11.34-.12c.59-.01.59-.01 3.58-.01 1.09-.02 2.18-.04 3.3-.05l2.91-.03c.76-.13 1.52-.26 2.3-.39 2.12-3.18 2.25-4.04 2.19-7.69-.01-.4-.01-.4-.02-2.45-.06-.61-.11-1.23-.17-1.86h-1c-.1-1.34-.12-2.69-.12-4.04-.01-.89-.01-1.78-.01-2.71v-6.15c-.01-2.27-.01-4.53-.01-6.79 0-4.81-.02-9.61-.04-14.42-.04-8.96-.07-17.91-.07-26.87q0-9.33-.06-18.66c-.01-2.37-.01-4.75-.01-7.12.01-3.32-.01-6.64-.04-9.96l.03-2.99c-.1-6.67-.1-6.67-3.06-9.87C169 90 169 90 166.56 89.06c-.51-.35-1.03-.7-1.56-1.06.62-2.69.62-2.69 2-5"/><path fill="#b68399" d="M70 91c.09 2.49.1 4.95.08 7.44 0 .79 0 1.58-.01 2.39 0 1.72-.01 3.45-.03 5.17l-.03 8.17c-.03 7.74-.06 15.48-.11 23.22-.02 4.73-.04 9.46-.05 14.18l-.03 5.43q-.03 3.78-.03 7.56l-.03 2.3c.01 1.71.11 3.43.24 5.14h2c1.65-7.77 1.09-16.16 1-24.06q-.045-3.33-.06-6.66c-.01-.97-.03-1.94-.04-2.93C73 136 73 136 74 134c.21-2.9.36-5.78.46-8.69.01-.43.01-.43.09-2.61.06-1.82.12-3.64.17-5.46q.09-2.805.21-5.61c.11-2.69.2-5.38.28-8.07l.12-2.55c.05-2.35.05-2.35-.33-6.01-2.15-.63-2.15-.63-4-1 2.06-1.62 2.06-1.62 5-3l3 1c1.82.11 3.65.16 5.48.17 1.12.02 2.24.03 3.4.04.6.01.6.01 3.66.04 2.55.03 5.09.06 7.63.1 4.02.04 8.05.09 12.07.13 3.87.03 7.74.09 11.62.14l3.68.03c1.11.01 2.22.03 3.37.05.49 0 .49 0 2.98.03.7.09 1.39.18 2.11.27v2c-2.05.1-2.05.1-4.96-.09-1.08-.07-2.16-.13-3.27-.2-.59-.03-.59-.03-3.58-.21-3.76-.13-7.51-.24-11.26-.35-2.62-.1-5.24-.24-7.86-.43C86.33 92.51 86.33 92.51 81 96c-3.14 7.38-1.5 15.97-.2 23.65.07.77.13 1.55.2 2.35h-2c-.27 2.41-.27 2.41-.25 5.5-.01 1.02-.01 2.04-.02 3.09.05.4.05.4.27 2.41h2c.14 2.94.16 5.78.09 8.71l-.06 5.46c-.04 2.89-.09 5.78-.15 8.66-.04 2.78-.07 5.55-.1 8.32-.02.87-.05 1.74-.07 2.64-.02 2.42-.02 2.42.29 6.21l3 1c1.39 4.19 1.3 8.09-.06 12.25-2.37 3.36-4.58 5.39-7.94 7.75l-2-1c1.34-1.38 1.34-1.38 3.38-3 1.22-.98 2.43-1.98 3.62-3v-1l-2 2c-3.25.38-3.25.38-6 0 .75-2.06.75-2.06 2-4-.33.16-.33.16-2 1-2.19.81-2.19.81-4 1 .3-1.34.64-2.67 1-4h-3c-.17.33-.17.33-1 2 .14-.94.29-1.87.43-2.84.65-4.27.69-8.43.65-12.74 0-.83 0-1.66-.01-2.51 0-1.79-.01-3.57-.03-5.36l-.03-8.47c-.03-8.03-.06-16.05-.11-24.07-.02-4.92-.04-9.84-.05-14.75l-.03-5.63c-.02-2.61-.03-5.22-.03-7.82l-.03-2.37c.01-1.81.11-3.63.24-5.44 2-1 2-1 3-1"/><path fill="#cb9abe" d="M114 140c4.29 1.24 6.5 4.84 9.06 8.25.97 1.26 1.93 2.52 2.9 3.78.5.65.99 1.3 1.5 1.97 1.55 2.02 3.12 4.01 4.7 6 .51.64 1.02 1.28 1.54 1.94.98 1.23 1.96 2.47 2.95 3.7 3.35 4.25 3.35 4.25 3.35 5.36-1.51.12-3.02.17-4.53.19-.99.02-1.97.03-2.99.05-4.51.05-9.02.09-13.52.11-2.4.02-4.79.04-7.18.08-3.42.06-6.84.08-10.26.09-.54.01-.54.01-3.28.07-4.98-.01-4.98-.01-7.24-.59.26-2.35.26-2.35 2-5 .45-.98.89-1.96 1.36-2.96 4.07-7.53 9.95-13.79 16.64-19.04.54-.8 1.07-1.61 1.62-2.44.46-.51.91-1.03 1.38-1.56"/><path fill="#86503f" d="M133 76c6.1-.99 10.25.17 15.27 3.61C150 81 150 81 151.66 82.79c.44.4.88.8 1.34 1.21 1.06-1.94 1.06-1.94 2-4l2 2c4.39-1.39 4.39-1.39 6-3 2.94-.19 2.94-.19 6 0l2 2c-.14 1.03-.29 2.06-.44 3.12.07.48.07.48.44 2.88 1.82.18 1.82.18 4.19 0 4.37-.3 4.37-.3 6.49 1.14 3.88 4.55 4.45 8.94 4.42 14.71 0 .95 0 1.9-.01 2.88 0 1.03-.01 2.06-.02 3.12 0 .54 0 .54-.02 3.31-.01 3.61-.04 7.22-.07 10.84-.01 2.51-.03 5.02-.05 7.53-.03 4.59-.06 9.19-.1 13.78-.06 6.75-.1 13.5-.13 20.25-.03 5.86-.07 11.71-.12 17.57-.02 2.49-.04 4.97-.05 7.46-.01 3.48-.04 6.96-.08 10.44v3.11c-.08 5.31-.3 9.35-3.45 13.86l-3 1c.2-2.59 1.11-4.16 2.54-6.31 1.65-3.03 1.79-4.66 1.69-8.08-.01-.53-.01-.53-.07-3.2l-.12-3.45c-.02-.6-.02-.6-.09-3.63-.09-3.84-.21-7.68-.33-11.52-.5-17.72-.57-35.27.26-52.98.29-6.75.34-13.51.37-20.27l.03-2.09c.03-2.03.04-4.06.05-6.09l.03-3.51C183 94 183 94 181.63 92.14c-2.19-1.53-4.05-1.7-6.69-2.02-2.7-.43-2.7-.43-4.94-1.12-1.44-2.94-1.44-2.94-2-5-.36.77-.72 1.54-1.1 2.33-1.9 2.67-1.9 2.67-5.02 3.3-.65 0-.65 0-3.91.01l-2.16.03c-2.37.02-4.73.01-7.1 0-1.65.01-3.31.03-4.96.04-4.38.03-8.76.04-13.14.04-5.25 0-10.5.03-15.75.07-4.1.02-8.21.04-12.31.04-7.83.02-15.63.17-23.44.59-.38.02-.38.02-2.29.11-1.94.12-3.88.28-5.82.44-.82.01-1.64.02-2.49.04-.5.31-1 .63-1.51.96-.34 2.79-.4 5.19-.3 7.97.02.84.03 1.67.05 2.54.03 1.82.08 3.64.13 5.46.09 2.89.15 5.78.2 8.67.14 7.18.32 14.36.5 21.54.15 6.05.28 12.11.39 18.16.06 2.84.14 5.68.23 8.51.03 1.76.07 3.52.1 5.27l.09 2.37c.07 5.77-1.31 9.6-4.39 14.51-1.21-3.64-1.14-6.98-1.13-10.78v-2.39c-.01-2.61-.01-5.23 0-7.84 0-1.81 0-3.63-.01-5.44 0-3.79 0-7.59.01-11.38.01-4.88 0-9.76 0-14.64q-.015-5.61 0-11.22c0-1.8 0-3.6-.01-5.4 0-2.51.01-5.01.01-7.52 0-.75 0-1.51-.01-2.28.01-1.71.07-3.41.14-5.11h1c.13 2.5.19 4.96.21 7.46l.03 2.38c.03 2.58.05 5.17.08 7.75l.06 5.24.12 10.73c.3 27.67.3 27.67.5 35.44.15-9.35.12-18.7.12-28.05.01-2.71.01-5.42.01-8.13.01-4.51.01-9.02 0-13.52 0-1.77 0-3.54.01-5.31 0-2.53-.01-5.06-.01-7.58 0-.75 0-1.5.01-2.27-.02-3.43-.21-6.57-.73-9.99C64 94 64 94 65.25 91.19 67 89 67 89 70 87c2.04-.02 2.04-.02 4.19.19 1.26-.06 2.51-.13 3.81-.19.31-2.31.31-2.31 0-5 1.19-1.81 1.19-1.81 3-3 2.62-.31 2.62-.31 5 0l1 2h-2v3q3 .06 6 0v2c3.18 1.19 6.37 1.14 9.73 1.18.58 0 .58 0 3.49.04.62 0 .62 0 3.74.02.64 0 .64 0 3.84.02 2.68.02 5.35.03 8.02.04 3.45.01 6.89.04 10.34.08 3.27.03 6.54.04 9.8.05 1.25.01 2.5.03 3.79.05 1.13 0 2.26-.01 3.42-.01 1.01.01 2.02.01 3.05.02.59-.16 1.18-.32 1.78-.49-1.57-3.06-2.71-3.9-6-5v-2c-1.66-.38-3.32-.71-5-1-.16-.17-.16-.17-1-1-.59-.08-.59-.08-3.56-.5-1.14-.17-2.27-.33-3.44-.5Z"/><path fill="#e2b58b" d="M109 60v4c1.5 1.63 1.5 1.63 3 3v2c-1.76.68-1.76.68-4.12 1.31-4.73 1.49-7.41 3.14-10.88 6.69-1.03 1.99-2.04 3.98-3 6l-2-1-1 2c-3.12.38-3.12.38-6 0 .29-1.34.63-2.68 1-4-2.31-.38-2.31-.38-5 0l-2 2c.14 1.03.29 2.06.44 3.12-.15.95-.29 1.9-.44 2.88-2.32.44-4.39.31-6.74.11C70 88 70 88 67 89c-1.09 2.72-1.85 5.41-2.56 8.25C64 99 64 99 63 101c-.16 2.76-.26 5.49-.32 8.25l-.06 2.54c-.07 2.74-.12 5.47-.18 8.21-.05 1.87-.09 3.73-.13 5.6-.27 11.81-.4 23.6-.27 35.41.01.97.01 1.94.02 2.94.01.84.03 1.68.04 2.54-.03.5-.07 1-.1 1.51l-1-2h-2c-.25-2.45-.25-2.45-.26-5.92-.01-1.29-.01-2.58-.02-3.91.01-1.43.01-2.86.01-4.29v-4.38c0-3.07 0-6.13.01-9.2.01-3.92 0-7.83-.01-11.74-.01-3.02 0-6.04 0-9.06v-4.33c-.05-18.41-.05-18.41 4.08-25.11C65.2 85.81 66.84 84.85 70 84c.46.03.46.03 2.81.19.72-.06 1.45-.13 2.19-.19.05-1.67.04-3.33 0-5 1.5-2.38 1.5-2.38 4-4 3.81-.19 7.03.42 10.31 2.38.56.2 1.12.41 1.69.62 2.24-2.8 3-4.38 3-8-.54.97-1.07 1.94-1.62 2.94-.79 1.01-1.57 2.02-2.38 3.06-2.88-.62-2.88-.62-6-2-3.74-.45-5.28-.55-8.31 1.75C74 78 74 78 73.62 80.09c-.1.32-.1.32-.62 1.91-1.95.43-3.9.85-5.86 1.22-3.38 1.23-4.92 3.73-6.91 6.61L59 91c-2-3-2-3-1.88-4.88 1.24-2.98 2.55-4.85 4.88-7.12.61-.08.61-.08 3.69-.5.54-.08.54-.08 3.31-.5.62-2.31.62-2.31 1-5 5.47-5.05 5.47-5.05 9.46-4.92.96.05 1.92.11 2.92.17 3 .04 3 .04 5.62-.25 2.25-2.38 2.25-2.38 4-5 3.62-1.25 3.62-1.25 7-2 3.36-1.68 6.28-1.3 10-1"/><path fill="#dc757b" d="M161 108c.11 2.29.15 4.56.15 6.85 0 .73 0 1.46.01 2.21 0 2.43.01 4.85.01 7.28 0 1.67 0 3.35.01 5.03 0 3.52.01 7.04.01 10.56 0 4.53.01 9.05.03 13.57.01 3.47.01 6.93.01 10.4 0 1.66 0 3.33.01 5q.015 3.495 0 6.99c.01.69.01 1.39.02 2.1-.03 4.78-.03 4.78-2.26 7.01-3.2 1.11-6.26 1.14-9.63 1.16l-3.41.03c-1.21.01-2.42.01-3.67.02l-7.65.09c-4.03.04-8.05.08-12.08.1-3.89.03-7.77.07-11.65.12-1.22.01-2.44.01-3.7.01-1.11.02-2.22.04-3.36.05l-2.99.03q-.915.195-1.86.39l2 3v3c.5-.16.5-.16 3-1 2 3 2 3 1.9 5.19-.17.78-.35 1.57-.52 2.37-.16.79-.32 1.57-.48 2.38-1.15 2.62-2.36 2.93-4.9 4.06v2h2c1.48 5.11 1.48 5.11 0 7.88-3.85 2.16-7.77 1.38-11.94.5-.34-.23-.34-.23-2.06-1.38-.19-3.12-.19-3.12 0-6h-2c-.76-1.74-1.51-3.49-2.2-5.26-.8-1.74-.8-1.74-2.55-3.36-.41-.46-.83-.91-1.25-1.38.19-3.79 1.27-6.36 4-9 3.63-1.19 3.63-1.19 7-2l1-1-3-1v-2c2.61-.27 2.61-.27 6.32-.3l2.03-.03c2.24-.02 4.47-.04 6.71-.05 1.54-.02 3.09-.03 4.63-.05 4.08-.05 8.16-.08 12.24-.11 6.52-.05 13.05-.12 19.57-.19l6.87-.06c1.39-.01 2.79-.02 4.18-.04l3.71-.03C158 183 158 183 159 182c.32-2.84.56-5.65.75-8.5.07-.8.14-1.6.21-2.42.15-2.3.15-2.3.04-6.08-.5-.16-.5-.16-3-1-.34-2.2-.34-2.2-.28-5.15.01-.55.01-.55.04-3.32.02-.6.02-.6.1-3.62l.06-3.69c.05-2.58.11-5.16.17-7.74.1-3.96.17-7.93.23-11.89.05-2.5.11-5 .16-7.5l.06-3.62.09-3.32c.03-.98.05-1.95.07-2.95.1-.72.2-1.45.3-2.2 2-1 2-1 3-1"/><path fill="#896d67" d="M220.168 131.094c1.83.91 1.83.91 3.14 4.41 1.06 5.42 1.43 10.78-1.65 15.59-2.04 2.44-3.79 4.47-6.66 5.91 1.31.29 2.62.53 3.94.75 2.27.5 2.27.5 4.06 1.25.13 2.62.13 2.62-1 5h-2v2c-3.26.97-4.71 1.09-8-.0002499999999940883v-3l-2-1 2-3h-4c-1.5 2.93-1.5 2.93-2 6 .64.11 1.28.23 1.94.35.68.21 1.36.43 2.06.65.5 2.39.5 2.39.44 5.37v2.96c-.5 3.02-1.16 3.75-3.44 5.67-.31.74-.62 1.48-.94 2.25-.35.57-.7 1.15-1.06 1.75-1.94-.25-1.94-.25-4-1h-3v-3l-3 2c-2-2-2-2-2.04-3.88.09-.7.19-1.4.29-2.12.09-.71.18-1.41.27-2.13.48-1.87.48-1.87 2.48-3.87-.18-2.93-.65-5.77-1.1-8.67.03-.77.07-1.54.1-2.33 4 0 4 0 5.75 1.25 1.25 1.75 1.25 1.75 1.25 5.75h2c.13-2.04.13-2.04 0-4.63-.12-2.6-.12-2.6 0-4.37l2 2c1.42-2.84 1.12-5.4 1.19-8.57.51-7.97 2.94-12.86 8.76-18.23 2.05-1.2 2.05-1.2 4.22-1.11"/><path fill="#764942" d="M190 106l3 1c.04 2 .04 2-.38 4.44-.71 4.38-.71 4.38.38 6.56h-2v2h2c5.18 7 9.3 15.12 8 24-.85-.21-1.69-.41-2.56-.62-.4-.07-.4-.07-2.44-.38-.5 3.16.03 5.98 1 9 2.5 2.56 2.5 2.56 5 3 .85-3.8 1-7.12 1-11l1 1c.03-3.21-.07-6.42-.16-9.63.05-.78.11-1.57.16-2.37 2 3 2 3 3.06 5.31.31.56.62 1.12.94 1.69 1.91-3.82 1.19-8.13.31-12.19-.1-.6-.2-1.19-.31-1.81 3.19 3.04 4.34 6.75 5 11-.96 1.36-1.93 2.71-2.98 4-1.98 3.9-1.57 8.46-1.65 12.76-.4 3.48-1.13 4.65-3.37 7.24-.34 1.67-.68 3.33-1 5h-2c-.29-.78-.58-1.57-.88-2.38-1.12-2.62-1.12-2.62-3.24-4.31-.62-.1-1.24-.2-1.88-.31-.37 3.07-.11 5.58.69 8.56.43 3.34-.8 4.75-2.69 7.44-1.51 3.02-1.51 6.03-1.81 9.38-.04.34-.04.34-.23 2.09-.17 1.93-.17 1.93.04 4.53 1.37-1.3 2.69-2.64 4-4 2.49.04 2.49.04 4 1-1.39 1.56-1.39 1.56-3.81 3.44-2.4 1.87-2.4 1.87-4.19 3.56l1 2h-2c.66.72 1.32 1.44 2 2.19.66.93 1.32 1.85 2 2.81-.69 2.81-.69 2.81-2 5h-1c-.55 3.08-.97 6.18-1.4 9.28-.2.9-.4 1.79-.6 2.72-.33.16-.33.16-2 1 .21-1.59.43-3.17.7-4.75.57-4.27.45-8.58.46-12.88 0-1.05.01-2.1.01-3.17l.03-6.79c.01-3.57.03-7.14.05-10.71.06-10.15.12-20.3.15-30.44.02-6.22.06-12.43.1-18.64.02-2.38.03-4.75.03-7.12 0-3.3.03-6.6.05-9.9 0-.5 0-.5-.01-3.01.04-2.7.04-2.7.43-6.59"/><path fill="#e58283" d="M32.016 167.602c1.92.77 1.92.77 4.98 2.4v2l-3 2h3.13c3.87 0 3.87 0 6.87 2 1.35 6.3 1.35 6.3 0 9l3 1c1.24.68 2.47 1.37 3.69 2.06 4.33 2.23 7.51 2.1 12.31 1.94 2 2 2 2 2.19 4.56-.19 2.44-.19 2.44-1.19 3.44-4.16.46-6.69-.42-10-3l3-1v-2c-2 .06-2 .06-4 1-.04 1.66-.04 3.33 0 5l-3 1v2c.91-.21 1.82-.41 2.75-.63.75-.12 1.49-.24 2.25-.37-2.1 2.75-3.44 3.89-6.87 4.56-8.34-.01-8.34-.01-11.94-2.56-1.68-4.26-1.27-6.54-.19-11l1.94-1.88c.18-.18.18-.18 1.06-1.12-2.75-1.06-2.75-1.06-6-2l-1-2-3-1c.04-.42.04-.42.19-2.56-.06-.81-.12-1.61-.19-2.44-2.81-.13-2.81-.13-6-.00043750000000386535-1.93-1.06-1.93-1.06-3-3 .19-3.63.19-3.63 1-7 3.52-1.76 7.29-1.51 11.02-.4"/><path fill="#9f724c" d="M47 98l2 1c-1 1.67-2 3.33-3 5-.94 3.25-.94 3.25-1 6 1.94.62 1.94.62 4 1v4c1.94 1.06 1.94 1.06 4 2l1 3c-1.57 2.33-3.39 4.34-5.24 6.45-4.37 6.32-3.93 12.83-3.42 20.12.08 2.08.08 2.08-.34 5.43-2.43.84-2.43.84-5 1-.41.74-.83 1.49-1.25 2.25L37 157c-3.19-.48-6.22-1.34-9-3l2-2c-.58-.7-1.16-1.4-1.75-2.12-4.7-6.02-4.84-13.51-4.25-20.88l1-2c3.88.22 6.36.53 9.54 2.84.4.19.4.19 2.46 1.16 1.73-1.82 1.73-1.82 3.19-4.69 2.75-5.25 2.75-5.25 4.81-7.31.34-4.05.3-5.55-2-9-.54-4.06-.11-5.8 1.88-9.44.7-.84 1.4-1.69 2.12-2.56"/><path fill="#eacbc1" d="M108.223 88.832c1.77 0 3.53-.01 5.3-.01 3.65-.01 7.31-.01 10.96-.01 4.69 0 9.38-.01 14.08-.03 3.62-.01 7.24-.01 10.87-.01 1.73 0 3.46-.01 5.2-.01q3.6-.015 7.2 0c.35-.01.35-.01 2.17-.02 1.67.01 3.33.12 5 .26.16.33.16.33 1 2-2.51.25-4.91.35-7.43.38-.78.01-1.55.03-2.35.05-2.51.05-5.02.09-7.54.13-2.47.04-4.94.09-7.41.14-1.54.03-3.08.06-4.63.08-3.87.08-7.67.3-11.51.73-5.37.57-10.68.62-16.07.59-1-.01-2-.01-3.03-.01-3.15 0-6.31-.02-9.47-.03-2.15 0-4.29-.01-6.44-.01-4.69-.01-9.39-.03-14.08-.05-3.02-.01-5.14.03-8.04 1l3 1c.28 2.89.37 5.56.33 8.45-.01.85-.01 1.71-.01 2.58-.01 1.81-.02 3.62-.04 5.43-.03 2.76-.04 5.52-.05 8.28l-.03 5.27c0 .83-.01 1.65-.01 2.5-.05 3.98-.35 7.58-1.19 11.49-.06 1.8-.07 3.61-.03 5.42.01 1.03.02 2.05.04 3.11.03 2.13.07 4.26.11 6.39.07 6.35-.29 11.97-2.12 18.08h-2c-.2-2.51-.26-4.91-.25-7.42v-2.39c-.01-2.63.01-5.25.02-7.88v-5.44c0-3.81.01-7.61.02-11.42.02-4.9.02-9.79.02-14.69 0-3.74.01-7.49.01-11.24.01-1.81.01-3.61.01-5.42 0-2.51.01-5.03.02-7.55v-2.29c.03-5.15.03-5.15 1.15-6.26 2.62-.24 5.23-.42 7.86-.55.4-.03.4-.03 2.44-.13 8.98-.43 17.94-.49 26.92-.49"/><path fill="#d5a77d" d="M130 43c3 2.31 3 2.31 5 5 .62.54 1.24 1.07 1.88 1.62.37.46.74.91 1.12 1.38l-1 3-1-1c.03 1.73.1 3.46.19 5.19.05 5.47.05 5.47-2 8.37-.72.48-1.45.95-2.19 1.44l-3 2c-6.22.61-8.94-.09-14-4-.76-.37-1.53-.74-2.31-1.12C111 64 111 64 110 62c-.3-5.23-.53-10.71 2.46-15.19 5.15-4.37 11.02-5.2 17.54-3.81"/><path fill="#915a36" d="M94 69c1 1.25 1 1.25 1 4-1.5 3.44-1.5 3.44-4 6-3.44-1.12-3.44-1.12-5.26-2.11-2.39-1.22-4.11-1.33-6.74-.89-1.75 1.19-1.75 1.19-3 3-.09.83-.18 1.67-.28 2.53-.24.81-.47 1.63-.72 2.47-2.14.9-2.14.9-4.81 1.38-4.77 1.2-4.77 1.2-6.71 3.15-3.37 5.75-3.61 11.76-3.57 18.26v4.03c.01.7.01 1.4.01 2.13.01 3.73-.01 7.46-.02 11.18-.02 4.75-.03 9.49 0 14.23.02 3.84.01 7.67-.02 11.51-.01 1.47 0 2.94.01 4.41.1 8.31.1 8.31-.89 11.72-3.44-.47-4.53-.75-7-3-.17-3.16.78-4.68 2.56-7.25 2.34-4.47 1.89-9.14 1.05-14.03-.2-.57-.4-1.13-.61-1.72h-2c-1 1.81-1 1.81-2 4l-2 3c-.36 2.33-.69 4.66-1 7h-1c-.82-13.6 1.49-22.74 9-34l1-2-3-1 2-3c-.08-.57-.08-.57-.5-3.44-.52-3.72-.14-4.42 1.5-7.56-2.31.56-2.31.56-5 2l-1 3-1 3c-1-1-1-1-1.25-3.88.25-3.12.25-3.12 1.44-4.93 2.21-1.45 4.22-1.76 6.81-2.19-1-1-1-1-4.81-1.44-1.05-.18-2.11-.37-3.19-.56.59-.26 1.17-.51 1.78-.77.36-.21.36-.21 2.22-1.23.4-1.92.4-1.92.38-4.19.3-4.81 1.97-7.18 5.15-10.69.48-.37.97-.74 1.47-1.12l2 1c-.64.6-1.28 1.2-1.94 1.81-.68.72-1.36 1.45-2.06 2.19.14 2.34.14 2.34 1 4 1.64-1.14 1.64-1.14 3.69-3.25 3.92-3.74 3.92-3.74 7.75-3.87L73 82c.62-2.25.62-2.25 1-5 1.5-2.38 1.5-2.38 4-4 4.2-.11 8.03.68 12 2 .35-.53.35-.53 2.12-3.19.62-.93 1.24-1.85 1.88-2.81"/><path fill="#967079" d="M93.885 105.499h3.74c.68-.01 1.36-.01 2.06-.02 2.25-.01 4.5.01 6.75.03 1.56-.01 3.13-.01 4.69-.01 3.27 0 6.55.01 9.82.03 4.21.03 8.41.03 12.61.02 3.23-.01 6.46 0 9.68.01q2.325.015 4.65 0c2.17 0 4.33.02 6.49.04 1.24 0 2.47.01 3.74.01.95.13 1.9.26 2.89.39 2.46 3.69 2.25 5.54 2.27 9.95.01.7.01 1.4.02 2.13.01 2.32.01 4.65.01 6.97 0 1.62 0 3.24.01 4.86.01 3.39.01 6.78 0 10.18 0 4.34.01 8.68.04 13.02.01 3.34.01 6.69.01 10.03 0 1.6 0 3.2.01 4.8.02 2.24.01 4.48 0 6.73v3.86c-.42 3.89-1.11 6.27-3.37 9.47-2.57.73-2.57.73-5.69.71-1.16.01-2.32.01-3.52.02l-3.81-.06c-1.96 0-3.93.01-5.89.02-2.75 0-5.5-.02-8.25-.05-4.82-.04-9.65-.06-14.48-.04-2.57 0-5.14-.01-7.71-.05h-3.49l-3.1-.03c-.68.16-1.36.32-2.06.48.3 2.03.3 2.03 1 4h-2c-2.08-2.44-2.43-3.72-3-7 3.84-1.3 7.98-.9 12-.83 1.25-.01 2.51-.02 3.81-.02 3.37-.02 6.74-.01 10.11.02 4.73.04 9.45.02 14.18.01 2.52-.01 5.04 0 7.56.02 1.15 0 2.3.01 3.49.01.5 0 .5 0 3.06.02 2.98-.24 5.13-.87 7.79-2.23.58-1.97.58-1.97.52-4.35-.01-.85-.02-1.7-.04-2.58-.01-.44-.01-.44-.11-2.69-.01-.9-.03-1.8-.04-2.72-.11-4.65-.11-4.65-.33-6.66h-1c.23-1.69.53-3.37.85-5.05 5.99-34.04 5.99-34.04.09-47.51-3.29-4.12-7.51-5-12.54-5.74-7.63-.8-15.2-.64-22.84-.2-.8.05-1.59.09-2.42.14-27.78 1.68-27.78 1.68-33.14 4.36.8-3.31 1.5-3.91 4.88-4.5"/><path fill="#e4ac7b" d="M139 65c5.48.11 10.43 1.54 14.45 5.39 2.04 2.32 3.44 4.13 4.11 7.17.15.48.29.95.44 1.44.5-.41.99-.83 1.5-1.25 3.68-2.57 7.14-2.48 11.5-1.75 2.56 1.75 2.56 1.75 4 4v4c2.33.37 4.66.69 7 1 2.88 1.62 2.88 1.62 5 4 .75 3.63.75 3.63 1 7 .16.33.16.33 1 2 .41-4.97.07-8.02-3-12-3-2-3-2-6.69-2.19-1.09-.27-2.18-.53-3.31-.81-.56-3.56-.56-3.56 0-7h2c.12.65.24 1.3.36 1.97.21.67.42 1.34.64 2.03 1.89.43 1.89.43 4.25.44 3.79.24 4.57.42 7.69 2.94 3.6 4.57 4.38 6.78 4.06 12.62l-1 2c.89-.04 1.77-.08 2.69-.12 3.31.12 3.31.12 5.81 1.68 1.5 2.44 1.5 2.44.88 6.38-.46 1.01-.91 2.02-1.38 3.06-2-3-2-3-2.34-5.13-.22-.62-.44-1.23-.66-1.87-3.12-1.17-5.9-1.21-9 0-1.4 3.41-1.12 6.86-1 10.5v5.91l.06 2.66L189 123h-1c-.15-1.37-.23-2.75-.28-4.12-.02-.43-.02-.43-.11-2.59-.02-.45-.02-.45-.11-2.73-.07-1.77-.14-3.54-.22-5.31l-.09-2.39C187 104 187 104 186 103c-.3-1.58-.56-3.16-.81-4.75-.88-4.39-1.55-7.36-5.19-10.25-2.19-.27-2.19-.27-4.62-.38-2.41-.11-2.41-.11-4.38-.62-1.19-3.56-1.19-3.56-2-7-3.51-.6-5.63-.12-9 1l-1 2c-1.91-.13-1.91-.13-4-1-1.31-1.74-1.31-1.74-2.44-3.88-2.82-4.82-5.47-6.53-10.87-8.06-.89-.35-1.78-.7-2.69-1.06Z"/><path fill="#b48e91" d="M122 79v2c2.41-.43 2.41-.43 5.5-1.31.51-.14.51-.14 3.09-.87.8-.27 1.59-.54 2.41-.82v-1c5.2-.42 8.58.2 13 3v2c.31.07.31.07 1.88.44C150 83 150 83 152 86c1.99.4 3.99.74 6 1v1c-1.95.12-3.9.16-5.85.18-.63 0-.63 0-3.86.04-1.4 0-2.81.01-4.21.02-.7 0-1.4.01-2.12.01-3.7.02-7.4.04-11.1.05-3.85.01-7.7.04-11.55.08-2.93.03-5.87.03-8.8.04-1.42 0-2.84.02-4.27.03-1.97.03-3.94.02-5.91.02-.56 0-.56 0-3.42.02-.63-.16-1.26-.32-1.91-.49 2.64-3.51 4.8-4.3 9-5v-2h2v-2C111.49 76.87 116.5 76.25 122 79"/><path fill="#d4ab90" d="M77 95c3.74-.51 3.74-.51 7 0l-3 1c-.31 2.5-.31 2.5-.22 5.79.02 1.16.03 2.33.05 3.54.02.62.02.62.11 3.73q.09 3.645.15 7.29l.09 3.28c-.06.78-.12 1.56-.18 2.37h-2c-.27 2.41-.27 2.41-.25 5.5-.01 1.02-.01 2.04-.02 3.09.05.4.05.4.27 2.41h2c.14 2.94.16 5.78.09 8.71l-.06 5.46c-.04 2.89-.09 5.78-.15 8.66-.04 2.78-.07 5.55-.1 8.32-.02.87-.05 1.74-.07 2.64-.02 2.42-.02 2.42.29 6.21l3 1c1.39 4.19 1.3 8.09-.06 12.25-2.37 3.36-4.58 5.39-7.94 7.75l-2-1c1.34-1.38 1.34-1.38 3.38-3 1.22-.98 2.43-1.98 3.62-3v-1l-2 2C75.75 188.38 75.75 188.38 73 188c.75-2.06.75-2.06 2-4-.33.16-.33.16-2 1-2.19.81-2.19.81-4 1 .3-1.34.64-2.67 1-4h-3c-.17.33-.17.33-1 2 .06-2.12.06-2.12 1-5 2.96-2.31 5.44-3.81 9-5 .29-2.53.36-4.83.32-7.37v-2.33l-.03-5.04c-.02-2.65-.03-5.3-.02-7.95.01-7.54 0-15.07-.06-22.61-.03-4.61-.03-9.21-.01-13.82q0-2.64-.03-5.28c-.04-2.46-.03-4.91-.01-7.36L76.1 100c.04-2.01.04-2.01.9-5"/><path fill="#b687b6" d="M141.887 144.895c3.3 1.73 5.02 4.65 7.05 7.67.44.63.88 1.27 1.33 1.92 1.26 1.83 2.5 3.67 3.73 5.52.29.42.29.42 1.77 2.6 3.23 4.95 3.23 4.95 3.23 8.4-5.55 1.1-11.48 1.46-17-.0004687499999818101-4.85-3.7-8.07-8.22-10-14 1.09-4.34 4.89-11.83 9.89-12.11"/><path fill="#96633d" d="M142 60c4.58-1.09 9.28-.89 13.48 1.28 5.03 3.74 5.03 3.74 6.52 6.72 2.29.05 2.29.05 5.19-.12 5.14-.11 7.87.59 11.81 4.12 2 3 2 3 2 6 .45.07.45.07 2.75.44 3.25.56 3.25.56 6 2.75.41.6.82 1.19 1.25 1.81-2.01-.65-4-1.32-6-2-1.28.06-2.56.12-3.88.19-1.03-.06-2.06-.13-3.12-.19-.31-2.5-.31-2.5 0-5h-2c-.56 3.5-.56 3.5 0 7 2.33.09 4.67.08 7 0 3.5 1.94 5.72 4.15 7 8 .26 2.76.19 5.21 0 8-1.44-.56-1.44-.56-3-3-.08-1.13-.16-2.27-.25-3.44C186 89 186 89 184.53 87.69c-2.61-1.51-4.86-2.58-7.84-3.07-.56-.2-1.12-.41-1.69-.62-1.12-3-1.12-3-2-6-2.33-1.16-3.79-1.17-6.38-1.19-.77-.01-1.54-.03-2.33-.04-2.29.23-2.29.23-4.42 1.47-.62.25-1.24.5-1.87.76-1.34-1.45-1.34-1.45-2.5-3.69-2.7-4.77-4.63-6.7-9.94-8.43-.84-.29-1.69-.58-2.56-.88l3-1v-2h-4Z"/><path fill="#d39367" d="M194 202c3.25 0 3.25 0 6 1-.25 2.06-.25 2.06-1 4h2l-1 3q-3 .06-6 0c.16.33.16.33 1 2 .42 3.06.47 5.95 0 9-2.19 2.81-2.19 2.81-5 5-.89.74-1.77 1.49-2.69 2.25-3.38 2.56-4.74 2.78-8.87 2.44-2.46-.05-2.46-.05-4.44.31-.81 2.94-.81 2.94-1 6-2.78 1.09-5.6 1.19-8.56 1.25-.77.03-1.53.05-2.32.08-2.62-.41-3.35-1.45-5.12-3.33-1.05 1.3-2.03 2.64-3 4-2.94 1.62-2.94 1.62-6 3-.62.35-1.23.71-1.87 1.07-2.56 1.12-4.47 1.16-7.25 1.12-.87-.01-1.74-.02-2.64-.02C134 244 134 244 132 243v-2l-3-1c2.67-1.34 4.53-.88 7.5-.69 6.85.08 11.2-2.12 16.5-6.31.72-.76 1.43-1.53 2.17-2.32L157 229l4 4c3.56 0 3.56 0 7-1 .47-.66.93-1.32 1.41-2 2.04-2.56 3.21-2.61 6.4-3 4.6-.78 7.61-1.86 11.19-5 3.04-4.4 3.4-8.43 3.59-13.63.5-2.89 1.36-4.29 3.41-6.37"/><path fill="#b383b6" d="M173 90c3.75-.53 6.09-.66 9.22 1.62 2.34 3.12 2.25 4.95 2.21 8.82l-.03 3.97-.09 4.15-.03 3.89c-.06 6.55-.25 13.08-.55 19.62-.53 11.94-.79 23.8-.47 35.75.03 1.21.07 2.43.1 3.68.14 4.97.29 9.94.46 14.91.12 3.7.22 7.39.32 11.09.04 1.13.09 2.26.14 3.43.02 1.03.04 2.07.07 3.13l.09 2.76C184 209 184 209 182 210.39c-.66.2-1.32.4-2 .61-.5-1.51-.5-1.51-.49-4.02l-.03-2.86.03-3.2c0-1.1 0-2.19-.01-3.32 0-3.66.02-7.32.04-10.98v-7.58c0-5.32.02-10.63.05-15.95.03-6.14.04-12.29.04-18.43 0-5.9.01-11.8.02-17.71.01-2.51.01-5.02.02-7.54 0-3.52.02-7.03.04-10.55v-3.17c0-.48 0-.48.02-2.91.01-.83.01-1.66.01-2.52.26-2.26.26-2.26 1.48-4.52L182 94c-2.32-.4-4.66-.73-7-1Z"/><path fill="#de9d81" d="M56 98l2 3c-3.31 1.12-3.31 1.12-7 2l-1 1v2c.41-.45.83-.91 1.25-1.38C53 103 53 103 57 103c-.31 2.94-.31 2.94-1 6l1 1c.19 2.44.19 2.44 0 5l-2 2 2 1c-.39 3.15-1.72 5.39-3.44 8-4.63 7.08-5.7 12.72-5.68 21.25-.01 1.22-.01 2.44-.01 3.7C48 154 48 154 49 156c.19 3.12.19 3.12 0 6h-2c-.16.33-.16.33-1 2l-1-2c-.23.33-.23.33-1.38 2-.26.33-.26.33-1.62 2-3-2-3-2-3.58-4.06-.08-.78-.15-1.57-.23-2.38-.09-.78-.18-1.56-.27-2.37C38 155 38 155 40 152c.7-.08 1.4-.16 2.12-.25.62-.24 1.24-.49 1.88-.75.29-3.1.29-3.1.06-7.06-.3-9.84 2.07-15.14 7.73-23.06C53 119 53 119 53 117c-.85-.12-1.69-.25-2.56-.38-.81-.2-1.61-.41-2.44-.62.3-1.34.64-2.67 1-4l-1.97-.85L45 110c-.28-2.06-.28-2.06.06-4.44.1-.78.19-1.56.29-2.37C47.03 97.55 50.59 97.41 56 98"/><path fill="#f4d1b2" d="M110 189c2.54-.4 4.67-.49 7.23-.43.74.01 1.48.01 2.24.01 2.39.02 4.77.06 7.15.11l4.77.03c1.53.01 3.06.03 4.59.04.35.01.35.01 2.16.02 4.03.08 7.95.19 11.86 1.22.16.5.16.5 1 3h-3v2h3c.16.5.16.5 1 3l-1 2c-2.94.2-2.94.2-6.84.12-.69 0-1.37-.01-2.08-.02-2.94-.03-5.88-.09-8.81-.14-2.15-.04-4.29-.06-6.43-.08-1.28-.03-2.57-.05-3.9-.08-.97.07-1.94.13-2.94.2l-1 2c-3.12-.75-3.12-.75-6-2l1-2c1.03.06 2.06.12 3.12.19.48-.03.48-.03 2.88-.19.19-2.44.19-2.44-1-5-2.5-1.06-2.5-1.06-5-1-.81 2.12-.81 2.12-1 4v-3h-3Z"/><path fill="#cf9365" d="M191 111c3.89.64 7.5 2.25 11 4v2c-.33.17-.33.17-2 1 1.96 1.38 3.97 2.71 6 4 3.51 3.51 3.91 7.94 4.31 12.75-.31 3.25-.31 3.25-1.69 5.44-.53.27-1.07.53-1.62.81-.36-.73-.73-1.46-1.1-2.21-.3-.59-.59-1.18-.9-1.79-.18 2.3.02 4.58.12 6.89L205 146h-2l1 1c.15 3.37.07 5.78-1 9-3.04-.86-4.75-1.75-7-4-.34-2.16-.34-2.16-.38-4.62-.02-.82-.05-1.64-.08-2.48.15-.63.3-1.25.46-1.9h4c1.1-6.62-1.38-12.64-4.84-18.12C194 123 194 123 193 120h-2v-4c-.19-.97-.37-1.94-.56-2.94.18-.68.37-1.36.56-2.06"/><path fill="#88607a" d="M114 138c4.33.92 7.02 5.24 9.69 8.5.25.3.25.3 1.51 1.8 3.64 4.38 3.64 4.38 4.8 6.7h3c.38 1.66.7 3.33 1 5 1.99 4.2 4.26 7.22 8 10 3.07.99 6.04 1.38 9.25 1.62.81.08 1.62.16 2.46.24 2.24.05 2.24.05 5.29-.86-1.04-3.2-2.16-5.24-4-8-.48-.74-.96-1.48-1.45-2.24-1.52-2.26-3.09-4.48-4.67-6.7-.54-.76-1.08-1.53-1.63-2.32-3.99-5.61-3.99-5.61-6.25-6.74v-2h3c1.58 1.8 1.58 1.8 3.25 4.31.61.9 1.21 1.81 1.84 2.74 2.52 3.9 5 7.83 7.43 11.8C158 164 158 164 160 165c.2 2.85.28 5.59.25 8.44 0 .39 0 .39.02 2.39-.02 5.92-.02 5.92-2.27 8.17-2.86.23-2.86.23-6.56.2-.34-.01-.34-.01-2.04-.01-1.46-.01-2.93-.02-4.39-.04-2.31-.03-4.62-.04-6.93-.05-4.9-.02-9.8-.06-14.7-.1-5.69-.05-11.37-.09-17.06-.11-2.28-.01-4.57-.04-6.85-.07-1.39 0-2.78-.01-4.17-.02l-3.69-.03c-.43.04-.43.04-2.61.23v2c.72.14 1.44.29 2.19.44.3.09.3.09 1.81.56-.94 1.56-.94 1.56-3 3C87.19 190.25 87.19 190.25 85 190c.33-.16.33-.16 2-1 .04-1.67.04-3.33 0-5 1.86-1.86 4.95-1.16 7.43-1.19.67-.01 1.34-.02 2.04-.02 1.46-.02 2.92-.04 4.38-.05 2.31-.02 4.63-.05 6.94-.08 5.74-.07 11.47-.13 17.21-.19 4.85-.05 9.7-.1 14.54-.16 2.29-.03 4.57-.05 6.85-.07 1.39-.02 2.79-.03 4.18-.05 1.22-.01 2.44-.03 3.7-.04C157 182 157 182 158 181c.95-3.52.95-3.52 1-7-2.54-.78-2.54-.78-6.27-.65-.33.01-.33.01-2.01.04-2.18.05-4.35.14-6.53.23-2.21.06-4.43.11-6.64.15-1.46.03-2.93.07-4.39.1-5.74.15-11.43.05-17.16-.31l-2.22-.12c-1.6-.1-3.19-.26-4.78-.44v-1c2.41.11 4.8.28 7.2.46 17.99 1.14 17.99 1.14 23.8-.46-.56-5.95-5.79-9.9-9.91-13.93-2.64-2.62-4.87-5.39-7.15-8.32-.69-.83-1.39-1.66-2.1-2.52-1.84-2.23-1.84-2.23-3.4-4.59-.47-.54-.95-1.08-1.44-1.64-3.22 1.07-3.74 1.65-5.69 4.25-.76.91-1.52 1.81-2.31 2.75 0-3.5.59-4.19 2.75-6.81.51-.65 1.02-1.29 1.55-1.96.56-.41 1.12-.81 1.7-1.23"/><path fill="#694454" d="M175 94c2 0 2 0 4 1 .49 1.77.49 1.77.49 4.12 0 .89.01 1.78.02 2.69-.01.99-.03 1.97-.04 2.98 0 1.03 0 2.06.01 3.12 0 3.43-.03 6.85-.05 10.28-.01 2.37-.01 4.75-.01 7.13-.01 4.99-.03 9.98-.06 14.98-.04 6.38-.06 12.77-.07 19.16-.01 6.1-.03 12.19-.05 18.29-.01 1.16-.01 2.32-.01 3.51-.01 3.31-.03 6.61-.05 9.91-.01.97-.01 1.94-.01 2.93-.05 5.7-.28 11.26-1.17 16.9-.33.16-.33.16-2 1-.16-2.31-.16-2.31-.06-5.44.05-1.85.08-3.71.06-5.56h-1c-.11-1.35-.14-2.71-.15-4.07 0-.9-.01-1.8-.02-2.73 0-1 0-2.01-.01-3.04 0-1.04-.01-2.09-.02-3.17-.02-3.47-.03-6.95-.04-10.43 0-1.18-.01-2.36-.01-3.58-.02-6.25-.04-12.5-.05-18.75-.01-6.49-.04-12.97-.08-19.46-.03-4.96-.03-9.92-.04-14.88 0-2.39-.02-4.79-.03-7.18-.03-3.33-.03-6.67-.02-10-.01-1.01-.03-2.01-.04-3.04.02-2.73.02-2.73.51-6.67"/><path fill="#c19676" d="M169 105h2c1.63 3.25 1.15 6.83 1.15 10.41 0 .87 0 1.74.01 2.64 0 2.88.01 5.77.01 8.66 0 2 0 4 .01 6.01 0 4.2.01 8.4.01 12.61 0 5.39.01 10.77.03 16.16.01 4.14.01 8.28.01 12.42 0 1.98 0 3.97.01 5.95q.015 4.17 0 8.34c.01.82.01 1.64.02 2.49-.05 9.1-.05 9.1-3.26 12.31-2.54.15-5.03.23-7.56.25l-2.16.06c-2.03.02-2.03.02-5.28-.31v-3c2.31.25 4.63.53 6.94.81 3.71-.26 3.71-.26 7.06-1.81 1.17-3.21.98-6.45.95-9.83.01-1.05.03-2.1.04-3.18.04-3.67.03-7.33.01-10.99 0-2.11.01-4.22.02-6.33.03-11.7-.04-23.39-.12-35.08-.02-3.96-.04-7.91-.05-11.87l-.03-4.49c-.02-2.06-.03-4.12-.03-6.19-.01-1.17-.02-2.34-.02-3.54.07-.83.15-1.65.23-2.5"/><path fill="#ea828d" d="M56 198l3 1v3l2 1v-3h2c.81 5.15 1.2 10.72-1.27 15.42-1.49 1.76-2.86 3.24-4.73 4.58h-2v2c-1.97.3-1.97.3-4.5.31-.42.01-.42.01-2.53.05-.65-.12-1.3-.24-1.97-.36v-3c-.66-.27-1.32-.54-2-.81-.66-.39-1.32-.79-2-1.19-.62-2.81-.62-2.81 0-6 3.82-3.91 8.17-6.49 13-9h2c-.09-.34-.09-.34-.56-2.06-.15-.64-.29-1.28-.44-1.94"/><path fill="#b07c95" d="M154 224l2 1c-2.82 5.8-6.38 9.3-12.5 11.49-4.26.87-8.52.51-12.84.22-.88.1-1.76.19-2.66.29-.82 1.88-.82 1.88-1 4l-1 2c-2.06-.19-2.06-.19-4-1 0-3 0-3 1-4l-3.25.12c-3.75-.12-3.75-.12-5.63-1.31-1.95-3.15-2.12-6.16-2.12-9.81 3.06-1.53 5.63-1.23 9-1 2.44 1.25 2.44 1.25 4 3v4l1-2c2.31-.01 4.63.07 6.94.19 8.67.26 14.02-2.5 21.06-7.19"/><path fill="#e47784" d="M66 197l2 1c1 0 1 0 2.86-.21 4.32-.31 7.33-.28 10.7 2.65 2.81 3.29 3.27 6.31 2.95 10.56-.51 2-.51 2-2.51 4.12-3.93 1.15-7.14 1.09-11-.12-3.38-1.97-5.5-3.35-6.66-7.19-.6-4.18-.79-7.19 1.66-10.81"/><path fill="#927b57" d="M25 127c4.19.08 6.41.52 9.69 3.19 6.16 7.49 6.16 7.49 6.75 12.56-.15 1.07-.29 2.15-.44 3.25l-3 2-1-1c-.1.85-.21 1.69-.31 2.56-.23.81-.46 1.61-.69 2.44-1.69-.5-1.69-.5-4-2l-3.12-1.12C26 147 26 147 24.62 143.44c-.92-5.05-1.97-11.74.38-16.44"/><path fill="#8b5032" d="M127.613 47.375c2.61.68 3.75 1.35 5.57 3.31 1.82 3.31 1.82 3.31 1.82 5.88-1.74 4.23-3.14 6.86-7 9.43-6.97.67-6.97.67-10.44-1.56-2.14-3.34-2.63-5.45-2.56-9.44 2.26-6.39 6.03-8.09 12.61-7.62"/><path fill="#bc9ab0" d="M161 108c.11 2.29.15 4.56.15 6.85 0 .73 0 1.46.01 2.21 0 2.43.01 4.85.01 7.28 0 1.67 0 3.35.01 5.03 0 3.52.01 7.04.01 10.56 0 4.53.01 9.05.03 13.57.01 3.47.01 6.93.01 10.4 0 1.66 0 3.33.01 5q.015 3.495 0 6.99c.01.69.01 1.39.02 2.1-.03 4.78-.03 4.78-2.26 7.01-3.32 1.16-6.58 1.16-10.08 1.22-1.23.02-2.46.05-3.72.07l-4.01.06c-1.38.02-2.75.05-4.13.07-2.87.05-5.75.1-8.63.14-3.69.05-7.37.12-11.06.18-2.84.05-5.67.1-8.51.14-1.36.02-2.72.05-4.08.07-1.9.04-3.8.06-5.7.09-1.08.01-2.16.03-3.27.05-2.48-.08-4.5-.2-6.81-1.09v-2c2.61-.27 2.61-.27 6.32-.3l2.03-.03c2.24-.02 4.47-.04 6.71-.05 1.54-.02 3.09-.03 4.63-.05 4.08-.05 8.16-.08 12.24-.11 6.52-.05 13.05-.12 19.57-.19l6.87-.06c1.39-.01 2.79-.02 4.18-.04l3.71-.03C158 183 158 183 159 182c.32-2.84.56-5.65.75-8.5.07-.8.14-1.6.21-2.42.15-2.3.15-2.3.04-6.08-.5-.16-.5-.16-3-1-.34-2.2-.34-2.2-.28-5.15.01-.55.01-.55.04-3.32.02-.6.02-.6.1-3.62l.06-3.69c.05-2.58.11-5.16.17-7.74.1-3.96.17-7.93.23-11.89.05-2.5.11-5 .16-7.5l.06-3.62.09-3.32c.03-.98.05-1.95.07-2.95.1-.72.2-1.45.3-2.2 2-1 2-1 3-1"/><path fill="#c5a884" d="M196 158c2.53 1.06 4.04 2.04 6 4v4c1.75 0 1.75 0 4-.44 2.21-.14 2.21-.14 4 .44 1.02 3.71.8 7.25 0 11-1.48 1.71-1.48 1.71-3 3-.31.74-.62 1.49-.94 2.25-.35.58-.7 1.16-1.06 1.75-1.94-.25-1.94-.25-4-1h-3v-3l-3 2c-2-2-2-2-2.05-3.88.1-.7.2-1.4.3-2.12.09-.7.18-1.4.27-2.12C194 172 194 172 196 170c-.06-2.57-.06-2.57-.44-5.56-.22-1.81-.42-3.62-.56-5.44Z"/><path fill="#5f3020" d="M58 120c.69 5.3.8 10.66 1 16 .05 1.24.1 2.48.16 3.75.13 3.45.22 6.89.29 10.34.03 1.41.08 2.82.14 4.22.31 8.17.31 8.17-.59 11.69-3.42-.47-4.53-.78-7-3-.17-3.16.78-4.68 2.56-7.25 2.34-4.47 1.89-9.14 1.05-14.03-.2-.57-.4-1.13-.61-1.72h-2c-1 1.81-1 1.81-2 4l-2 3c-.36 2.33-.69 4.66-1 7h-1c-.71-11.79.39-21.05 7-31 2.72-3 2.72-3 4-3"/><path fill="#5b2a39" d="M86 79l1 2c-.33.17-.33.17-2 1v5h-2v-2h-2v4c-1.79.54-1.79.54-4.19.62-3.71.16-6.62.38-9.81 2.38-.44 2.89-.53 5.2-.41 8.09.01.83.03 1.67.04 2.53q.06 2.73.15 5.46c.09 2.88.15 5.77.21 8.65.12 6.13.28 12.26.45 18.39.18 7.09.35 14.17.49 21.26.07 2.83.15 5.67.24 8.5.04 1.75.08 3.5.11 5.26.03.78.07 1.56.1 2.37.08 5.76-1.3 9.58-4.38 14.49-1.21-3.64-1.14-6.98-1.13-10.78v-2.39c-.01-2.61-.01-5.23 0-7.84 0-1.81 0-3.63-.01-5.44 0-3.79 0-7.59.01-11.38.01-4.88 0-9.76 0-14.64q-.015-5.61 0-11.22c0-1.8 0-3.6-.01-5.4 0-2.51.01-5.01.01-7.52 0-.75 0-1.51-.01-2.28.01-1.71.07-3.41.14-5.11h1c.13 2.5.19 4.96.21 7.46l.03 2.38c.03 2.58.05 5.17.08 7.75l.06 5.24.12 10.73c.3 27.67.3 27.67.5 35.44.15-9.35.12-18.7.12-28.05.01-2.71.01-5.42.01-8.13.01-4.51.01-9.02 0-13.52 0-1.77 0-3.54.01-5.31 0-2.53-.01-5.06-.01-7.58 0-.75 0-1.5.01-2.27-.02-3.43-.21-6.57-.73-9.99C64 94 64 94 65.25 91.19 67 89 67 89 70 87c2.04-.02 2.04-.02 4.19.19 1.26-.06 2.51-.13 3.81-.19.31-2.31.31-2.31 0-5 2.14-3.27 4.23-3.5 8-3"/><path fill="#bd9879" d="M133.265 199.76c2.23-.01 4.45-.04 6.68-.07 1.4-.01 2.81-.01 4.21-.02l3.9-.03 2.94.36c.17.5.17.5 1 3-2.52.25-4.81.27-7.33.19-.76-.01-1.52-.02-2.3-.04-3.26-.05-6.52-.13-9.78-.21-2.37-.06-4.74-.09-7.11-.13-.75-.02-1.5-.05-2.27-.07-2.07-.03-2.07-.03-5.21.26v3c1.94.35 1.94.35 4.69.32 1.02 0 2.04 0 3.09-.01 1.12-.01 2.23-.03 3.38-.05 1.13-.01 2.27-.02 3.43-.02 3.64-.03 7.28-.07 10.91-.11 3.64-.04 7.28-.07 10.92-.1 2.27-.01 4.54-.04 6.81-.07l3.09-.03 2.75-.03c.64.03 1.28.07 1.93.1v1c-1.57.07-3.16.06-4.74.03-1.03-.01-2.07-.03-3.13-.04-1.13-.03-2.26-.05-3.43-.07-2.36-.03-4.72-.05-7.08-.08-3.75-.04-7.5-.09-11.25-.16-3.6-.07-7.2-.1-10.79-.13l-3.42-.09c-1.04 0-2.08-.01-3.15-.01-.92-.02-1.84-.03-2.79-.04-.73.19-1.46.39-2.22.59-1.2 2.48-1.2 2.48-2 5-2.65 1.43-4.19.97-7.18.44-2.82-1.44-2.82-1.44-4-4.38.18-3.06.18-3.06 2-4.87 3.73-1.39 7.12-1.73 11.08-1.98 14.46-1.44 14.46-1.44 16.37-1.45"/><path fill="#d76b77" d="M64 217c3.89.21 7.12 1.38 10 4-.06 2.75-.52 5.29-1 8 1.07-2.48 1.99-4.99 2.89-7.53.37-.82.73-1.63 1.11-2.47h2v2l2 1h-2c-.45 1.83-.45 1.83-.69 4.25-.08.79-.17 1.58-.26 2.39-.05 2.33.37 4.12.95 6.36-1 1-1 1-3.94 1.31-1.01-.1-2.02-.2-3.06-.31l-.94-2.12L70 232c-2.35.62-4.68 1.28-7 2l-1-3 1-2h-4l-1 2c-1-1-1-1-1.38-4.38.13-1.19.25-2.39.38-3.62 2.38-1.75 2.38-1.75 5-3Z"/><path fill="#502314" d="M190 106l3 1c.04 2 .04 2-.38 4.44-.71 4.38-.71 4.38.38 6.56h-2c.61 1.57.61 1.57 1.75 3.69 3.51 6.71 3.51 6.71 4.25 9.31-.64-.74-1.27-1.47-1.93-2.23-.68-.59-1.37-1.17-2.07-1.77-.55 1.98-.55 1.98-.61 5.48-.02.65-.02.65-.1 3.93-.01 1.44-.03 2.89-.04 4.34-.03 1.45-.05 2.9-.08 4.35-.05 3.05-.09 6.11-.12 9.16-.04 3.94-.11 7.89-.19 11.83-.07 3-.11 6-.14 8.99-.02 1.46-.05 2.91-.08 4.37-.04 2.02-.05 4.04-.07 6.07-.01 1.15-.02 2.31-.04 3.5.16.66.31 1.31.47 1.98 1.87-1.66 1.87-1.66 4-4 2.49.04 2.49.04 4 1-1.39 1.56-1.39 1.56-3.81 3.44-2.4 1.87-2.4 1.87-4.19 3.56l1 2h-2c.66.72 1.32 1.44 2 2.19.66.93 1.32 1.85 2 2.81-.69 2.81-.69 2.81-2 5h-1c-.55 3.08-.97 6.18-1.4 9.28-.2.9-.4 1.79-.6 2.72-.33.16-.33.16-2 1 .21-1.59.43-3.17.7-4.75.57-4.27.45-8.58.46-12.88 0-1.05.01-2.1.01-3.17l.03-6.79c.01-3.57.03-7.14.05-10.71.06-10.15.12-20.3.15-30.44.02-6.22.06-12.43.1-18.64.02-2.38.03-4.75.03-7.12 0-3.3.03-6.6.05-9.9 0-.5 0-.5-.01-3.01.04-2.7.04-2.7.43-6.59"/><path fill="#ddae88" d="M172.468 90.955c2.48 3.31 2.04 6.91 1.96 10.87-.01.86-.01 1.72-.01 2.61-.01 1.82-.03 3.64-.06 5.45-.05 2.8-.06 5.6-.07 8.4-.02 1.76-.03 3.53-.05 5.29-.01.84-.01 1.69-.02 2.56-.03 1.95-.12 3.91-.22 5.86h-1c-.12-2.27-.18-4.54-.21-6.81-.03-1.42-.06-2.84-.08-4.25-.05-2.26-.08-4.51-.11-6.77q-.045-3.24-.12-6.48l-.06-3.95c-.14-.9-.28-1.81-.42-2.74l-3 1c.04-1.13.07-2.27.11-3.44-.36-1.17-.73-2.35-1.11-3.56-4.24-.86-8.46-.31-12.75.07-2.37.16-4.74.31-7.11.47l-3.55.25c-5.51.33-11.07.52-16.59.21v-1c1.16.03 2.31.05 3.5.07 1.16-.02 2.31-.04 3.5-.07v-2c-2.4-.16-2.4-.16-5.5-.06-1.83.06-3.66.09-5.5.06v-1c8.6-1.15 17.26-1.39 25.92-1.66 1.65-.06 3.3-.12 4.95-.19 2.4-.1 4.81-.18 7.22-.25.37-.02.37-.02 2.23-.11 2.96-.07 5.37.1 8.15 1.17"/><path fill="#885768" d="M64 98c2.48 3.72 2.28 5.68 2.32 10.12l.03 2.18q.045 3.57.06 7.14l.03 4.93c.02 3.44.03 6.88.04 10.32.01 4.44.06 8.88.12 13.32.03 3.39.04 6.78.05 10.17 0 1.64.02 3.28.05 4.92.13 9.28.13 9.28-.7 12.9-3.08-1.4-4.07-2.32-6-5l-1-3h2c.21-1.66.21-1.66.16-4.06-.01-.93-.02-1.85-.04-2.8l-.06-3.14c-.1-11.22.01-22.43.26-33.65.04-1.82.07-3.63.1-5.45.05-2.58.1-5.16.17-7.74l.03-2.36c.1-3.77.24-5.59 2.38-8.8"/><path fill="#bd9aa9" d="M96.756 103.514c.67 0 1.34-.01 2.03-.01 2.21-.01 4.42.01 6.63.03 1.53.01 3.07.01 4.61.01 3.21 0 6.43.02 9.65.04 4.12.04 8.25.05 12.38.04 3.17 0 6.34.02 9.51.03 1.52.01 3.04.01 4.57.01 2.12.01 4.24.02 6.37.05 1.21 0 2.41.01 3.66.02 2.83.27 2.83.27 4.83 2.27-3.38 1.13-5.89 1.09-9.46 1.05-.65-.01-1.3-.02-1.97-.02-1.41-.02-2.82-.03-4.23-.05q-3.345-.045-6.69-.06c-6.35-.04-12.69-.09-19.03-.17-3.89-.05-7.77-.08-11.65-.09q-2.22-.015-4.44-.06c-2.06-.03-4.13-.04-6.2-.04-1.17-.01-2.35-.03-3.56-.04-2.77.48-2.77.48-4.16 2.34-.7 2.45-.68 4.59-.61 7.14l-1 1c-.11 1.68-.16 3.38-.19 5.07-.01 1.08-.03 2.16-.05 3.27-.01 1.18-.02 2.35-.04 3.57-.02 1.19-.03 2.39-.05 3.62-.08 5.15-.15 10.3-.22 15.45-.05 3.75-.11 7.49-.17 11.24-.01 1.18-.02 2.35-.04 3.57-.01 1.08-.03 2.15-.05 3.26l-.03 2.9c-.03.34-.03.34-.16 2.05h-1c-.11-1.91-.16-3.82-.17-5.72-.01-.63-.01-.63-.04-3.79-.01-1.38-.02-2.76-.02-4.13-.01-.69-.01-1.38-.02-2.1-.02-3.65-.03-7.31-.04-10.96-.01-3.78-.05-7.56-.09-11.33-.02-2.9-.03-5.81-.03-8.71-.01-1.39-.02-2.78-.04-4.17-.02-1.95-.02-3.91-.02-5.86 0-1.11-.01-2.22-.01-3.36.48-2.87.48-2.87 2.09-5.23 3.2-2.2 5.28-2.14 9.15-2.13"/><path fill="#76507e" d="M184 95h2c.24 1.79.24 1.79.22 4.36v2.93c-.01 1.08-.02 2.16-.04 3.26 0 1.12-.01 2.25-.01 3.4-.02 3.74-.05 7.48-.09 11.21-.02 2.59-.03 5.18-.05 7.76-.04 5.44-.09 10.88-.14 16.31-.06 6.28-.1 12.56-.14 18.83-.03 6.04-.08 12.08-.14 18.12-.02 2.57-.03 5.13-.05 7.7-.02 3.6-.05 7.19-.1 10.79v3.22c-.09 5.38-.25 9.55-3.46 14.11-.5.16-.5.16-3 1 .2-2.55.97-3.97 2.55-5.96 2.21-4.63 1.67-8.95 1.45-13.99-.06-2.29-.13-4.58-.19-6.87-.04-1.21-.08-2.42-.13-3.67-.73-22.57-.67-45.01.13-67.57.04-1.27.09-2.53.13-3.83q.18-5.325.39-10.65c.04-1.06.08-2.13.11-3.23.05-.95.09-1.91.13-2.9.04-.84.07-1.68.11-2.55.1-.59.21-1.17.32-1.78"/><path fill="#dbacc6" d="M73 95h2c.2 2.82.25 5.54.23 8.36v2.58c0 1.82-.01 3.63-.02 5.45-.02 2.77-.02 5.54-.02 8.31-.01 1.76-.02 3.52-.02 5.28 0 .83 0 1.66-.01 2.51-.03 3.99-.31 7.59-1.16 11.51-.06 1.81-.06 3.61-.03 5.42.01 1.03.03 2.05.04 3.11q.045 3.195.12 6.39c.06 6.35-.3 11.97-2.13 18.08h-2c-.2-2.88-.25-5.65-.23-8.53v-2.62c0-1.84.01-3.68.02-5.51.02-2.83.02-5.65.02-8.48.01-1.77.02-3.55.02-5.33 0-.85 0-1.7.01-2.58.01-1.99.08-3.97.16-5.95h1c.21-2.78.36-5.53.46-8.31l.24-5.2c.12-2.75.24-5.5.35-8.25.11-2.65.23-5.29.35-7.93l.09-2.52c.1-1.93.29-3.86.51-5.79"/><path fill="#a87661" d="M120.215 208.372h2.79c1.04-.02 2.08-.03 3.15-.04.56.01.56.01 3.42.04.57 0 .57 0 3.48-.01 2.44 0 4.88.02 7.31.04 3.75.04 7.5.02 11.25-.00018908691396291033l7.08.03c1.13 0 2.26-.01 3.43-.01.52 0 .52 0 3.13.04.46.01.46.01 2.78.02.65.17 1.3.34 1.97.52v4c-2.07.55-2.07.55-4.99.62-1.09.04-2.18.08-3.3.11-.59.01-.59.01-3.6.05l-3.64.09c-2.55.05-5.11.1-7.66.13-3.93.06-7.86.17-11.8.28-2.46.04-4.93.09-7.4.13-.59.02-.59.02-3.61.1l-3.27.03c-.97.01-1.93.03-2.93.05-.59-.2-1.19-.39-1.8-.59.5-3.21.97-4.71 4.21-5.63"/><path fill="#bba481" d="M221 131c1.64 4.48 1.54 10.29 1 15h-2v-2h-2c.33.78.66 1.57 1 2.38.33.86.66 1.73 1 2.62l-2 2h-4v2l-3 1v-3l-1 2h-2c-.95-4.36-.69-8.52 1.2-12.56 6.15-9.44 6.15-9.44 11.8-9.44"/><path fill="#8b5935" d="M191 83c2.18 1.64 3.56 2.74 5 5 .12 2.05.12 2.05-.06 4.19L196 96c2.75 1.25 2.75 1.25 6 2 3.16 2.3 3.9 3.63 4.94 7.44.07 4.05-.74 5.27-2.94 8.56-.07.57-.07.57-.44 3.44-.09.42-.09.42-.56 2.56-2.25-.56-2.25-.56-4-2 .5-.16.5-.16 3-1v-2c-1.09-.14-2.19-.29-3.31-.44-3.69-.56-3.69-.56-5.63-1.87C192 111 192 111 192 107l-2-1c-.19-3.19-.19-3.19 0-6l1 2c.95-.19 1.9-.37 2.88-.56 3.12-.44 3.12-.44 4.87.75 1.25 1.81 1.25 1.81 2.37 4.37.29.48.58.95.88 1.44.81-2.56.81-2.56 1-6-1.06-1.81-1.06-1.81-3-3-1.05-.04-2.1-.08-3.19-.12-.93-.29-1.85-.58-2.81-.88-.34-2.32-.18-4.44-.01-6.77.01-2.92-1.01-4.17-2.99-6.23Z"/><path fill="#b88358" d="M142 60c4.58-1.09 9.28-.89 13.48 1.28 5.03 3.74 5.03 3.74 6.52 6.72l3 2c-.33.5-.33.5-2 3 1.75.56 1.75.56 4 1l2 2c-2.33.37-4.66.7-7 1-.69.42-1.38.83-2.09 1.26L158 79c-1.34-1.45-1.34-1.45-2.5-3.69-2.7-4.77-4.63-6.7-9.94-8.43-.84-.29-1.69-.58-2.56-.88l3-1v-2h-4Z"/><path fill="#5e3749" d="M77 223c2.17 1.87 2.96 3.84 3.69 6.56 1.61 3.01 2.47 3.02 5.62 4 1.22.48 2.44.95 3.69 1.44-.94 1.75-.94 1.75-3 4-1.06 3.69-1.06 3.69-1 7 2.81 1 2.81 1 6 1l2-1 1-3 2 1v3c.76.33 1.53.66 2.31 1 .56.33 1.12.66 1.69 1-2.65 2.38-4.44 3.01-8 2.94-3.57-1.12-5.46-2.18-8-4.94-.12-1.26-.25-2.52-.38-3.81-.2-1.05-.41-2.11-.62-3.19-3.19.31-3.19.31-7 1-3.66-1.8-5.51-3.12-7.5-6.69-.17-.76-.33-1.52-.5-2.31l2-1c.08.64.17 1.28.25 1.94.25.68.5 1.36.75 2.06 3.12.5 3.12.5 6 0-.12-1.5-.12-1.5-1-4-.25-2.75-.2-5.23 0-8"/><path fill="#e98a92" d="M32.016 167.602c1.92.77 1.92.77 4.98 2.4v2l-3 2c.81-.04 1.61-.08 2.44-.13.85.04 1.69.09 2.56.13-.81 2-.81 2-2 4h2c-1 3-1 3-3.87 4.75-3.13 1.25-3.13 1.25-6.13.25.04-.42.04-.42.19-2.56-.06-.81-.12-1.61-.19-2.44-2.81-.13-2.81-.13-6-.00043750000000386535-1.93-1.06-1.93-1.06-3-3 .19-3.63.19-3.63 1-7 3.52-1.76 7.29-1.51 11.02-.4"/><path fill="#f08f98" d="M83 174c1.5 1.5 1.5 1.5 2 4 0 6.09-1.32 9.12-5.33 13.65-1.86 1.5-3.29 2.11-5.67 2.35 1.15-1.22 2.32-2.43 3.54-3.58 1.71-1.66 3.1-3.46 4.46-5.42l-1 1c-2 2-2 2-5.25 2.38-.91-.13-1.81-.25-2.75-.38.75-2.06.75-2.06 2-4-.33.16-.33.16-2 1-2.19.81-2.19.81-4 1 .3-1.34.64-2.67 1-4h-3l-1 2c.06-2.12.06-2.12 1-5 5.23-4.09 9.35-5.6 16-5"/><path fill="#8c5a7c" d="M67 92c2.89 3.08 2.24 7.69 2.18 11.61-.01.77-.01 1.53-.01 2.31-.02 1.65-.03 3.3-.05 4.95-.03 2.6-.05 5.21-.06 7.81-.04 7.41-.11 14.81-.18 22.21-.04 4.53-.07 9.07-.09 13.6-.01 1.73-.02 3.46-.05 5.19-.03 2.41-.04 4.81-.05 7.22-.01.73-.03 1.45-.04 2.19 0 1.98 0 1.98.35 4.91 3 0 3 0 6-1 .32-2.56.43-4.89.42-7.46 0-.39 0-.39.02-2.36.03-2.59.03-5.19.04-7.78.01-1.79.03-3.58.04-5.37.05-4.73.07-9.46.09-14.18.04-7.57.1-15.14.16-22.71.02-2.66.03-5.31.04-7.97l.03-4.84c0-.75 0-1.5.01-2.26.01-1.69.07-3.38.15-5.07h1c.15 2.46.22 4.89.26 7.36.01.78.03 1.56.04 2.37.13 7.23.2 14.46.25 21.69.03 4.87.09 9.73.18 14.6.1 4.69.15 9.38.16 14.08q.03 2.685.09 5.37c.34 14.03.34 14.03-3.01 17.83-2.38 1.41-4.22 2.35-6.97 2.7-1.59-3.18-1.15-6.6-1.15-10.09 0-.42 0-.42-.01-2.54 0-2.76-.01-5.53-.01-8.3 0-1.91 0-3.82-.01-5.74 0-4-.01-8.01-.01-12.02 0-5.16-.01-10.33-.03-15.49-.01-3.95-.01-7.9-.01-11.84 0-1.91 0-3.82-.01-5.72-.01-2.65-.01-5.3 0-7.94-.01-.81-.01-1.62-.02-2.45.01-2.14.01-2.14.26-4.87"/><path fill="#b49d7b" d="M219.188 176.453c.6.18 1.2.36 1.81.55.5 4.11-1.49 7.9-3.65 11.38-2.55 3.06-5.53 4.61-9.35 5.62-3.41.2-5.64-.11-9-1 1.67-2.79 3.95-3.97 6.75-5.5.75-.5 1.49-.99 2.25-1.5v-4c2.71-5.18 5.67-5.88 11.19-5.55"/><path fill="#e18783" d="M29.313 153.688c3.69.31 3.69.31 6 1.75 1.75 2.66 2.06 4.17 2.56 7.25.42 2.39.42 2.39 1.13 4.31 3.25 1 3.25 1 6 1-.33.17-.33.17-2 1v4c-2.44-.06-2.44-.06-5-1l-1-3h-2v-2c-1.07-.12-2.15-.25-3.25-.37-3.75-.63-3.75-.63-6.25-2.25-1.5-2.38-1.5-2.38-1.31-6.07 1.03-4.23 1.03-4.23 5.12-4.62"/><path fill="#cd9891" d="M191 118c4.41.91 6.92 3.5 9.64 6.88 4.13 6.43 4.96 13.65 4.36 21.12h-2l1 1c.15 3.37.07 5.78-1 9-3.04-.86-4.75-1.75-7-4-.34-2.16-.34-2.16-.38-4.62-.02-.82-.05-1.64-.08-2.48.15-.63.3-1.25.46-1.9h4c1.1-6.62-1.38-12.64-4.84-18.12C194 123 194 123 193 120h-2Z"/><path fill="#f08e97" d="M56 164c2.69 2.44 2.69 2.44 5 5l2 2c.31 3.31.31 3.31 0 6-1.44-1.25-1.44-1.25-3-3l-1 2c-1.67-.33-3.33-.66-5-1v2c-2.44.38-2.44.38-5 0-1.38-2.85-1.02-3.95 0-7h-2c-.12 2-.12 2 0 4.56.12 2.57.12 2.57 0 4.44l-2-1c-.47-5.56-.16-9.2 3-14 3.42-1.14 4.62-1.13 8 0"/><path fill="#db6b79" d="M47 170h2c-.03.48-.03.48-.19 2.94.06 1.01.13 2.02.19 3.06 2.5 1 2.5 1 5 1v-2c.8.19 1.61.37 2.44.56.84.15 1.69.29 2.56.44l1-3 2 2 2-2c.72 3.02.64 5.98 0 9-2.56 1.36-4.08 2-7 2v2h4l-1 2c-1.81-.31-1.81-.31-4-1-.66-.16-1.32-.33-2-.5-.66-.16-1.32-.33-2-.5-.7-.12-1.4-.25-2.12-.38C48 185 48 185 46 182c-.05-2.92-.05-2.92.25-6.19.09-1.08.18-2.17.27-3.29.16-.83.32-1.66.48-2.52"/><path fill="#aa7fa5" d="M110 117c1.94 1.06 1.94 1.06 3 3 .5 3.93.6 6.1-1.62 9.44-3.1 2.03-4.74 2.17-8.38 1.56-2.38-1.62-2.38-1.62-4-4-.61-3.64-.47-5.28 1.56-8.38 3.34-2.22 5.51-2.12 9.44-1.62"/><path fill="#a96f4e" d="M120 223c2.43-.24 2.43-.24 5.8-.23 1.21 0 2.41 0 3.65.01.64 0 .64 0 3.86.03h3.83c9.44.05 9.44.05 12.86 1.19v2c-3 2-3 2-7 2v2c-1.33-.33-2.67-.67-4-1v2l-3-1c-.87.23-1.73.45-2.62.69-4.25.39-6.39-.93-10.14-2.76-4.07-1.69-7.77-1.34-11.93-.18-.43.08-.86.16-1.31.25 1.38-2 1.38-2 4-4 3.25.38 3.25.38 6 1Z"/><path fill="#bf9370" d="M109 60v4c-2.3 1.63-2.3 1.63-5.31 3.12-3.03 1.53-5.86 2.99-8.69 4.88l-1-2c-.33.5-.33.5-2 3-2.69-.75-2.69-.75-6-2-2.33-.36-4.66-.7-7-1-2.56-.5-2.56-.5-4-1 2.63-1.32 4.45-.92 7.38-.75 3 .04 3 .04 5.62-.25 2.25-2.38 2.25-2.38 4-5 3.62-1.25 3.62-1.25 7-2 3.36-1.68 6.28-1.3 10-1"/><path fill="#af7dac" d="M93.188 235.125c1.81.88 1.81.88 3.81 2.88h2v3h2c.33-1 .66-1.98 1-3 .15 3.63.16 6.53-1 10-2.5.43-2.5.43-5 0-.75-2.26-.75-2.26-1-4-.08.59-.16 1.19-.25 1.81-.25.72-.49 1.44-.75 2.19-2.88-.23-5.26-1.09-8-2-.5-3.32-.5-3.32 0-7 3.67-4.08 3.67-4.08 7.19-3.88"/><path fill="#d1b68b" d="M26 128c2.7-.81 4.11.12 6.6 1.34 3.8 2.63 6.38 5.48 8.4 9.66.56 3.88.56 3.88 0 7l-3 2c-1.17-1.41-1.17-1.41-2.19-3.62-.34-.72-.69-1.43-1.04-2.17C34 140 34 140 34 136l-3-1-1-1c.75 1.35 1.5 2.71 2.25 4.06 1.15 2.27 1.15 2.27 1.75 3.94-2.12-.69-2.12-.69-5-2l-2 3c-2.02-2.02-1.48-5.58-1.62-8.25.01-3.84.01-3.84.62-6.75"/><path fill="#e9b98b" d="M154 224l2 1c-2.52 5.18-5.41 8.22-10.56 10.75-4.88 1.65-10.4 2.49-15.44 1.25-2.21-2.5-2.21-2.5-3-5 2.42-.53 2.42-.53 6.19-.5 8.51-.28 13.86-2.87 20.81-7.5"/><path fill="#ccb4b6" d="M128 52c1.94 1 1.94 1 3 3 .41 2.96.4 5.32-1 8-2.99 1.28-5.8 1.51-9 1-2.62-1.97-2.95-2.67-3.44-6 .44-3 .44-3 2.06-4.88 3.04-1.43 5.05-1.54 8.38-1.12"/><path fill="#96666e" d="M84 82l1 2h6v2c3.06 1.13 6.08 1.15 9.32 1.19 1.06.02 2.12.03 3.21.05.57.01.57.01 3.45.04l3.55.06c5.02.08 10.03.14 15.05.21 3.65.05 7.31.11 10.97.17.57.01.57.01 3.47.04.53.01.53.01 3.18.05.46.01.46.01 2.81.04L148 88v1c-2.33.13-4.64.2-6.98.22-.37.01-.37.01-2.24.04l-7.4.09c-1.71.02-3.41.05-5.12.07-3.57.05-7.15.1-10.73.14-4.6.05-9.2.12-13.8.18-3.52.05-7.04.1-10.56.14-1.7.02-3.4.05-5.1.07l-7.09.09c-.36 0-.36 0-2.16.03-1.6.02-3.21-.02-4.82-.07v-1c2.35.05 4.69.2 7.03.36.65-.12 1.3-.24 1.97-.36v-4h2l1 1Z"/><path fill="#5a3217" d="M156 234l2 1v2c3.33.09 6.61-.01 9.93-.17 2.08-.05 2.08-.05 5.07.17-1.3 2.04-2.86 2.93-5 4-2.02-.12-2.02-.12-4.38-.44-2.95-.39-5.61-.56-8.62-.56-.37.3-.37.3-2.25 1.81-7.22 5.74-14.55 5.73-23.37 4.81-.79-.2-1.57-.41-2.38-.62l1-2c2.47-.16 4.9-.22 7.38-.25 7.54-.26 13.61-1.88 19.62-6.75Z"/><path fill="#a87cab" d="M176 213c.62 1.75.62 1.75 1 4-1.72 1.72-4.01 1.14-6.36 1.15-.57 0-.57 0-3.47.01-.62.01-.62.01-3.77.01-1.27 0-2.53 0-3.84.01-2.68 0-5.36.01-8.04.01-3.46 0-6.91.01-10.36.03-3.27.01-6.55.01-9.82.01-.63 0-.63 0-3.79.02-.57 0-.57 0-3.45-.01-1.01 0-2.02.01-3.06.01-.68-.08-1.35-.17-2.04-.25l1-2c2.2-.22 2.2-.22 5.15-.18l3.32.03 3.62.06 7.5.06c3.96.04 7.93.09 11.89.15 3.81.04 7.62.07 11.43.1 1.19.02 2.39.05 3.62.07a415 415 0 0 1 6.27.06c.72-.12 1.45-.23 2.2-.35Z"/><path fill="#863634" d="M24 156c1 2 1 2 1 5.5.33 1.16.66 2.31 1 3.5 2.37.95 4.53 1.31 7.07 1.61.32.07.32.07 1.93.39v2h2l1-2c.1.76.21 1.53.31 2.31.23.89.46 1.78.69 2.69 2 1 2 1 4 1l1-3h1c.28 1.89.52 3.79.75 5.69.83 5.3 1.77 8.03 6.25 11.31.49.33.49.33 3 2-.16.33-.16.33-1 2-1.78-.54-1.78-.54-3.94-1.62-.71-.35-1.42-.69-2.15-1.04-2.26-1.59-2.95-2.77-3.91-5.34-.16-1.22-.33-2.43-.5-3.69-.08-.54-.08-.54-.5-3.31-3.04-1.52-6.05-.91-9.39-.74-.53-.09-1.06-.17-1.61-.26 1.11-1.51 1.11-1.51 3-3h2v-2c-1.65-.39-3.32-.72-5-1l-2-1c-2.44.01-4.86.13-7.3.26-.56-.09-1.12-.17-1.7-.26l2-3-1-1c.72-6.72.72-6.72 2-8"/><path fill="#c35765" d="M39 174c2.56.31 2.56.31 5 2 1.5 6 1.5 6 0 9l3 1 1 2c-5.39.39-9.99.09-15-2v-4c2.44-1.12 2.44-1.12 5-2l1-2h-2c.56-2.12.56-2.12 2-4"/><path fill="#7e4d3b" d="M50 130l2 2h3v-2h2c.23 2.7.23 2.7.19 6.12-.01.57-.01.57-.02 3.45-.03.4-.03.4-.17 2.43l-1-2h-3c-1.06 1.81-1.06 1.81-2 4-.33.5-.33.5-2 3-.36 2.33-.69 4.66-1 7h-1c-.49-8.17-.74-16.52 3-24"/><path fill="#d66a72" d="M65 182c2.62-.62 2.62-.62 5 0v3c1.68-.97 3.35-1.98 5-3l2 1c-.38.44-.38.44-2.31 2.69-.56.76-1.12 1.52-1.69 2.31 2.72-.38 4.57-.81 7-2 1.38-2.31 1.38-2.31 2-4 1 3 1 3 .17 4.79-2.43 3.13-4.12 4.92-8.02 5.99-5.42.62-5.42.62-8.15.22v-3l-3-1c.5-3.56.5-3.56 2-7"/><path fill="#bf8db7" d="M90 217l1 2c-.33.16-.33.16-2 1 .19.4.19.4 1.12 2.44.29.84.58 1.69.88 2.56-1.62 1.19-1.62 1.19-4 2-2.69.94-2.69.94-4 2 3.25 1.56 3.25 1.56 5.33 2.32.55.22 1.1.45 1.67.68v1c-6.1-.46-6.1-.46-8.88-2.12-1.72-2.87-1.93-5.59-2.12-8.88h2v-4c3.23-1.08 5.62-1.22 9-1"/><path fill="#995a34" d="M112 68l1 2c1.66.69 3.32 1.36 5 2v1c-1.66.28-3.33.52-5 .75-5.49.94-9.72 2.64-14 6.25-.33.5-.33.5-2 3h-2v2c-2.56 1.5-2.56 1.5-5 2 0-2.88 0-2.88 1-6h3c.94-1.44 1.87-2.88 2.78-4.34 3.7-5.03 9.21-7.58 15.22-8.66"/><path fill="#6d4f33" d="M42 141l2 1c.87 3.32 1.26 6.58 1 10-2.25.88-2.25.88-5 1-.41.74-.83 1.49-1.25 2.25L37 157c-3.19-.48-6.22-1.34-9-3l2-2c-.39-.74-.78-1.49-1.19-2.25-.27-.58-.53-1.16-.81-1.75 2.19.69 2.19.69 5 2l3 1q.06-3 0-6l2 1 2-3Z"/><path fill="#563e34" d="M208 159c2.19.44 2.19.44 4 2v5c1.75.36 1.75.36 4 .31.37 0 .37 0 2.25-.01.58-.1 1.16-.2 1.75-.3v-2l2-1 2-3 1 3c-2.15 3.67-3.59 4.85-7.62 6.31-3.38.69-3.38.69-5.38.69-.62 2.44-.62 2.44 0 5 2.11.61 4.06.75 6.25.86.29.02.29.02 1.75.14v1c-1.98.23-3.97.45-5.96.62C212 178 212 178 209 180c.11-3.03.48-5.93.94-8.93.22-1.94.22-1.94.06-5.07-2.54-.22-2.54-.22-5 0 .94-3.62.94-3.62 3-7"/><path fill="#c75d65" d="M56 198l3 1v3l2 1v-3h2c.81 5.15 1.2 10.72-1.27 15.42-1.49 1.76-2.86 3.24-4.73 4.58h-2v2c-2 .34-2 .34-4.56.38-.85.02-1.7.05-2.57.08-.62-.15-1.23-.3-1.87-.46.22-2.15.22-2.15 1-4v2c3.87-.07 7.68-.96 10.75-3.37 1.37-1.57 1.37-1.57 3.25-4.63l-1-3c-1.88-.81-1.88-.81-4-1l-3 2c.12-3.31.12-3.31 1-7l3-1c-.31-1.34-.65-2.67-1-4"/><path fill="#ac7daa" d="M89 184c2.2-.25 2.2-.25 5.32-.24 1.17-.01 2.33-.01 3.52-.01 1.27 0 2.54.01 3.85.02h3.9c2.73 0 5.46.01 8.19.02 3.51.02 7.02.03 10.53.02 3.34 0 6.67.01 10 .02 1.27 0 2.54 0 3.85.01 1.16 0 2.32.01 3.52.01.51.01.51.01 3.12.02.72.04 1.45.08 2.2.13v1c-1.45.16-2.9.25-4.36.31-.47.02-.47.02-2.88.13-1.04.05-2.09.09-3.16.13-1.07.05-2.13.09-3.23.14l-6.81.27q-5.175.21-10.35.45l-6.61.27c-.52.02-.52.02-3.11.13-5.95.23-11.61.17-17.49-.83Z"/><path fill="#a64b50" d="M62 216l3 1c-2.94 4.24-2.94 4.24-5 6h-3c.31 3.31.31 3.31 1 6l-.06-2.31L58 224c2 3 2 3 2 5h3v4c2-.33 4-.66 6-1 .31 1.88.31 1.88-1 4-3.76 1.09-6.04 1.4-9.69-.13C56 234 56 234 55.3 231.29c.04-9.42.04-9.42 3.51-13.1 1.05-.72 2.11-1.45 3.19-2.19"/><path fill="#d19269" d="M159 222c2.06.25 2.06.25 4 1v3c-.33.16-.33.16-2 1 2.31.31 2.31.31 5 0 .07-.66.15-1.32.22-2 .13-.33.13-.33.78-2 3.2-.46 3.2-.46 7.12-.38 1.31.02 2.61.03 3.95.04.97.11 1.93.23 2.93.34l-1 2c-2.25.02-2.25.02-5-.19-2.75-.06-2.75-.06-5 .19-.94 2.38-.94 2.38-1 5-3.47 2.31-4.92 2.51-9 2-1.94-1.69-1.94-1.69-3-4 .41-4.41.41-4.41 2-6"/></svg>